<svg width="24" height="24" viewBox="0 0 24 24" fill="none" xmlns="http://www.w3.org/2000/svg">
<path fill-rule="evenodd" clip-rule="evenodd" d="M7.74945 17.3586C7.09135 17.472 6.41604 17.3005 5.89185 16.8868C5.36766 16.473 5.04396 15.856 5.00145 15.1896V8.02759C4.97083 7.27605 5.42795 6.59038 6.13345 6.32959C8.2056 5.56915 10.532 6.15154 12.0014 7.79859V18.0196C11.0164 17.1916 9.31445 17.1416 7.74945 17.3586Z" stroke="#C48C5E" stroke-width="1.5" stroke-linecap="round" stroke-linejoin="round"/>
<path fill-rule="evenodd" clip-rule="evenodd" d="M16.253 17.3586C16.9111 17.472 17.5864 17.3005 18.1106 16.8868C18.6348 16.473 18.9585 15.856 19.001 15.1896V8.02759C19.0316 7.27605 18.5745 6.59038 17.869 6.32959C15.7968 5.56915 13.4704 6.15154 12.001 7.79859V18.0196C12.986 17.1916 14.688 17.1416 16.253 17.3586Z" stroke="#C48C5E" stroke-width="1.5" stroke-linecap="round" stroke-linejoin="round"/>
<path d="M9.50098 11.7695C9.91519 11.7695 10.251 11.4337 10.251 11.0195C10.251 10.6053 9.91519 10.2695 9.50098 10.2695V11.7695ZM7.50098 10.2695C7.08676 10.2695 6.75098 10.6053 6.75098 11.0195C6.75098 11.4337 7.08676 11.7695 7.50098 11.7695V10.2695ZM9.50098 13.7695C9.91519 13.7695 10.251 13.4337 10.251 13.0195C10.251 12.6053 9.91519 12.2695 9.50098 12.2695V13.7695ZM7.50098 12.2695C7.08676 12.2695 6.75098 12.6053 6.75098 13.0195C6.75098 13.4337 7.08676 13.7695 7.50098 13.7695V12.2695ZM16.501 11.7695C16.9152 11.7695 17.251 11.4337 17.251 11.0195C17.251 10.6053 16.9152 10.2695 16.501 10.2695V11.7695ZM14.501 10.2695C14.0868 10.2695 13.751 10.6053 13.751 11.0195C13.751 11.4337 14.0868 11.7695 14.501 11.7695V10.2695ZM16.501 13.7695C16.9152 13.7695 17.251 13.4337 17.251 13.0195C17.251 12.6053 16.9152 12.2695 16.501 12.2695V13.7695ZM14.501 12.2695C14.0868 12.2695 13.751 12.6053 13.751 13.0195C13.751 13.4337 14.0868 13.7695 14.501 13.7695V12.2695ZM9.50098 11.0195V10.2695H7.50098V11.0195V11.7695H9.50098V11.0195ZM9.50098 13.0195V12.2695H7.50098V13.0195V13.7695H9.50098V13.0195ZM16.501 11.0195V10.2695H14.501V11.0195V11.7695H16.501V11.0195ZM16.501 13.0195V12.2695H14.501V13.0195V13.7695H16.501V13.0195Z" fill="#C48C5E"/>
</svg>
