<svg width="553" height="554" viewBox="0 0 553 554" fill="none" xmlns="http://www.w3.org/2000/svg">
<path d="M481.594 165.512C480.261 164.598 479.442 163.283 479.138 161.873C478.605 159.454 479.576 156.786 481.956 155.376L514 136.439C500.919 114.033 484.583 93.3233 465.2 75.0332L465.258 74.957C454.938 65.2594 443.761 56.2858 431.766 48.0933C431.271 47.7504 430.757 47.4265 430.262 47.0836C428.529 45.9214 426.797 44.7782 425.045 43.6542C423.922 42.9302 422.779 42.2062 421.637 41.5013C420.571 40.8344 419.504 40.1867 418.419 39.5389C417.6 39.0435 416.801 38.5291 415.982 38.0528C415.087 37.5193 414.192 37.043 413.278 36.5286C413.031 36.3762 412.783 36.2428 412.536 36.0904C412.174 35.8808 411.812 35.6903 411.469 35.4998C401.645 29.9556 391.649 25.0401 381.481 20.8105V20.9058C254.618 -31.6403 105.572 17.3621 36 139.887L67.3589 157.415C67.3589 157.415 67.378 157.396 67.378 157.377C67.8921 157.739 68.5204 157.968 69.2249 157.968C70.9765 157.968 72.4045 156.539 72.4045 154.786C72.4045 154.729 72.4045 154.691 72.4045 154.633C72.4045 154.595 72.4426 154.576 72.4617 154.519C73.0709 150.061 74.2895 145.869 75.9841 142.707C79.8111 135.505 87.1987 131.428 94.8147 131.447C98.1657 131.39 101.574 132.171 104.735 133.847C106.639 134.857 108.314 136.134 109.742 137.601C116.254 144.059 118.082 154.252 113.531 162.75C111.57 166.446 108.409 169.761 104.278 173.057C104.278 173.057 104.278 173.057 104.278 173.076C103.268 173.609 102.583 174.638 102.583 175.858C102.583 176.963 103.154 177.915 104.011 178.487L136.36 196.891C180.228 119.634 278.38 92.5803 355.587 136.477C356.996 137.277 358.367 138.096 359.757 138.934C360.176 139.182 360.594 139.43 360.994 139.696C361.775 140.173 362.518 140.668 363.279 141.163C364.288 141.811 365.297 142.459 366.268 143.126C366.306 143.145 366.345 143.183 366.383 143.202C386.603 156.996 402.749 174.753 414.44 194.776L446.77 176.105C448.997 174.791 451.549 175.134 453.377 176.486C454.671 177.439 455.623 178.906 455.795 180.716C456.271 185.689 457.68 190.547 459.679 193.938C464.801 202.683 476.053 205.598 484.774 200.473C493.513 195.348 496.426 184.088 491.304 175.362C489.305 171.971 485.764 168.37 481.651 165.531L481.594 165.512Z" fill="#C48C5E"/>
<path d="M277 554L276.695 518.015H276.657C276.714 517.386 276.6 516.718 276.257 516.127C275.38 514.602 273.456 514.068 271.912 514.945C271.874 514.964 271.836 515.002 271.779 515.04C271.741 515.04 271.703 515.04 271.646 515.04C267.473 516.718 263.224 517.729 259.641 517.824C251.486 518.053 244.284 513.648 240.53 507.012C238.834 504.113 237.805 500.776 237.71 497.191C237.653 495.036 237.938 492.938 238.491 490.974C240.873 482.106 248.838 475.47 258.46 475.203C262.633 475.089 267.092 476.195 272.008 478.14C272.008 478.14 272.008 478.14 272.027 478.14C272.98 478.75 274.218 478.845 275.285 478.235C276.238 477.682 276.79 476.729 276.867 475.699H276.886L276.848 438.436C245.541 438.474 216.331 429.531 191.617 414.065L190.607 413.302C180.851 407.238 172.829 400.811 164.617 392.859C164.255 392.516 163.893 392.154 163.55 391.81C163.035 391.315 162.54 390.8 162.025 390.285C159.282 387.501 156.633 384.602 154.099 381.627V381.665C130.224 353.785 115.723 317.667 115.475 278.097C115.285 249.644 122.526 222.889 135.311 199.605L102.671 181.431C100.403 180.192 99.3744 177.827 99.6031 175.558C99.7555 173.956 100.518 172.392 101.985 171.305C106.005 168.349 109.454 164.631 111.341 161.179C116.2 152.273 112.941 141.117 104.043 136.255C95.1444 131.392 83.9975 134.653 79.1386 143.558C77.2522 147.01 75.9946 151.911 75.6707 156.907C75.5754 158.528 74.8514 159.901 73.8034 160.893C72.0123 162.59 69.2113 163.143 66.7723 161.808L34.0558 144.016C12.086 184.006 -0.299373 229.983 0.00549857 278.84C0.577132 367.115 42.4016 445.454 107.072 495.684V495.741C153.946 532.298 212.939 554.057 277 553.981V554Z" fill="#20446F"/>
<path d="M549.862 235.729L549.405 235.843C544.528 203.397 533.764 171.274 516.638 141L485.49 158.928C485.49 158.928 485.49 158.947 485.49 158.966C484.899 159.214 484.385 159.652 484.042 160.243C483.147 161.748 483.623 163.691 485.128 164.606C485.166 164.625 485.223 164.644 485.261 164.663C485.299 164.701 485.299 164.739 485.337 164.758C488.843 167.559 491.815 170.779 493.663 173.846C497.854 180.839 497.568 189.26 493.663 195.795C491.986 198.691 489.567 201.225 486.5 203.073C484.652 204.178 482.689 204.959 480.689 205.435C471.811 207.703 462.134 204.045 457.162 195.776C455.009 192.194 453.79 187.774 453.066 182.534C453.066 182.534 453.066 182.534 453.066 182.515C453.142 181.391 452.589 180.248 451.561 179.638C450.627 179.067 449.503 179.067 448.57 179.505L416.165 197.814C440.378 240.625 443.445 289.743 427.69 332.553C415.326 366.486 391.532 396.474 357.927 416.156C352.497 419.337 347.125 422.557 341.505 425.034C321.483 433.817 300.432 438.218 279.533 438.523L279.914 475.866C279.952 478.438 278.409 480.496 276.333 481.429C274.866 482.096 273.132 482.21 271.456 481.467C266.903 479.429 261.969 478.286 258.025 478.343C247.89 478.514 239.813 486.878 240.003 497.014C240.175 507.15 248.538 515.228 258.673 515.038C262.616 514.962 267.493 513.647 271.97 511.456C273.418 510.751 274.98 510.694 276.352 511.113C278.714 511.837 280.581 513.99 280.619 516.771L281.381 554C326.95 553.314 372.996 541.349 415.269 516.905C426.585 510.37 437.235 503.13 447.255 495.318L446.893 494.956C526.677 432.693 564.607 332.63 549.881 235.729H549.862Z" fill="#3F69A2"/>
<path d="M170.635 453.956L159.015 473.137L155.448 470.973L165.246 454.801L155.216 448.726L157.038 445.717L170.635 453.937L170.635 453.956Z" fill="white"/>
<path d="M133.491 458.441L135.302 465.326L131.527 462.452L130.737 456.35L133.491 458.441ZM157.274 446.069L135.642 457.798L132.387 455.306L137.916 431.336L141.403 433.992L136.027 455.3L134.698 454.3L153.865 443.487L157.255 446.07L157.274 446.069ZM150.426 447.387L147.536 449.294L137.925 441.983L139.005 438.712L150.427 447.406L150.426 447.387Z" fill="white"/>
<path d="M136.275 429.931L120.414 445.779L117.991 443.358L122.633 424.859L123.893 426.124L105.484 430.868L103.06 428.447L118.882 412.544L121.712 415.368L110.221 426.838L109.658 426.269L125.109 422.322L126.447 423.661L122.63 439.236L121.952 438.557L133.444 427.087L136.255 429.893L136.275 429.931Z" fill="white"/>
<path d="M107.597 397.872L92.1869 408.809L96.5022 414.871L93.6348 416.91L82.6108 401.402L85.4782 399.364L89.7745 405.427L105.185 394.49L107.598 397.891L107.597 397.872Z" fill="white"/>
<path d="M77.557 396.585L71.6099 394.977L69.846 391.859L71.5319 385.934L73.1373 388.773L72.1033 394.398L70.5967 391.726L75.97 393.726L77.5754 396.565L77.557 396.585ZM101.665 389.895L77.172 392.167L75.1507 388.605L89.6759 368.761L91.8363 372.583L78.5098 390.058L77.6781 388.611L99.5647 386.202L101.666 389.913L101.665 389.895ZM94.8541 388.423L91.4381 389.025L85.4925 378.523L87.779 375.935L94.8541 388.423ZM101.325 376.111C101.583 376.575 101.653 377.063 101.553 377.555C101.435 378.049 101.144 378.433 100.661 378.71C100.141 379.007 99.6336 379.078 99.1395 378.94C98.6453 378.803 98.2597 378.494 98.0018 378.029C97.7444 377.584 97.6933 377.096 97.8113 376.584C97.9293 376.072 98.2577 375.667 98.7776 375.37C99.2604 375.093 99.7493 375.042 100.226 375.217C100.72 375.373 101.087 375.684 101.344 376.129L101.325 376.111Z" fill="white"/>
<path d="M88.8274 366.711L68.0893 375.25L66.7767 372.083L77.4239 352.495L78.0702 354.061L62.069 360.642L60.5131 356.859L81.2511 348.32L82.5638 351.488L71.8968 371.038L71.2504 369.473L87.2517 362.891L88.8274 366.711Z" fill="white"/>
<path d="M76.1015 330.391L57.7015 334.777L59.4271 342.003L55.998 342.813L51.5684 324.317L54.9976 323.507L56.7232 330.733L75.1044 326.348L76.0827 330.391L76.1015 330.391Z" fill="white"/>
<path d="M48.718 318.026L43.7888 314.336L43.3144 310.788L47.085 305.917L47.5317 309.146L44.458 313.979L44.0541 310.937L48.2901 314.797L48.718 318.026ZM73.5749 320.775L49.9976 313.789L49.4527 309.734L70.3318 296.707L70.9226 301.062L52.0324 312.339L51.8174 310.687L73.0259 316.569L73.5943 320.793L73.5749 320.775ZM67.8098 316.863L64.4148 316.164L62.8047 304.205L65.8929 302.651L67.8098 316.863Z" fill="white"/>
<path d="M70.1592 294.526L47.716 294.519L47.7164 291.089L64.1011 281.294L64.0936 283.084L47.723 273.433L47.7234 270.003L70.165 269.954L70.1613 273.949L53.9041 273.942L53.8824 273.151L67.609 281.292L67.604 283.177L53.8755 291.486L53.8492 290.525L70.1253 290.532L70.121 294.508L70.1592 294.526Z" fill="white"/>
<path d="M480.541 259.133L502.913 257.463L503.178 260.887L486.971 276.208L486.849 274.514L504.117 273.211L504.43 277.294L482.058 278.964L481.794 275.54L498.001 260.257L498.123 261.95L480.873 263.254L480.56 259.133L480.541 259.133Z" fill="white"/>
<path d="M481.208 294.821C481.292 293.068 481.661 291.479 482.298 290.056C482.934 288.633 483.8 287.394 484.914 286.358C486.009 285.323 487.278 284.548 488.684 284.016C490.108 283.484 491.651 283.27 493.33 283.355C495.01 283.44 496.543 283.81 497.893 284.485C499.243 285.16 500.427 286.063 501.408 287.215C502.388 288.367 503.146 289.692 503.623 291.172C504.1 292.652 504.316 294.307 504.232 296.098C504.131 297.964 503.745 299.666 503.053 301.147C502.361 302.647 501.382 303.888 500.135 304.869L497.714 302.121C498.643 301.296 499.325 300.38 499.799 299.392C500.273 298.405 500.537 297.289 500.593 296.083C500.649 294.895 500.517 293.785 500.18 292.774C499.843 291.762 499.338 290.885 498.684 290.123C498.011 289.362 497.209 288.754 496.278 288.298C495.347 287.843 494.287 287.597 493.135 287.54C492.003 287.484 490.95 287.633 489.956 287.989C488.963 288.344 488.104 288.867 487.362 289.558C486.619 290.248 486.029 291.068 485.593 292.036C485.156 293.004 484.91 294.082 484.854 295.27C484.797 296.382 484.928 297.454 485.228 298.504C485.529 299.554 486.073 300.562 486.863 301.547L483.637 303.73C482.75 302.539 482.105 301.155 481.702 299.598C481.299 298.041 481.141 296.462 481.208 294.859L481.208 294.821ZM484.364 299.837L492.724 300.244L492.525 304.147L483.618 303.711L484.364 299.837Z" fill="white"/>
<path d="M499.912 327.818L499.187 331.881L477.1 327.971L477.824 323.908L499.912 327.8L499.912 327.818ZM479.841 312.496L480.565 308.396L502.653 312.288L501.929 316.388L479.841 312.496ZM487.228 325.9L489.367 313.845L492.865 314.466L490.727 326.52L487.228 325.9Z" fill="white"/>
<path d="M475.531 333.384L497.179 339.242L496.096 343.254L474.447 337.396L475.531 333.384ZM497.766 343.942C497.909 343.431 498.128 342.994 498.462 342.668C498.777 342.343 499.13 342.036 499.484 341.804C499.838 341.553 500.155 341.322 500.434 341.091C500.713 340.86 500.897 340.593 500.968 340.31C501.093 339.874 501.011 339.48 500.76 339.126C500.509 338.772 500.09 338.497 499.521 338.299L500.071 336.237C501.322 336.611 502.236 337.199 502.815 338C503.394 338.8 503.56 339.683 503.275 340.686C503.132 341.197 502.913 341.634 502.598 341.978C502.302 342.322 501.968 342.629 501.595 342.861C501.222 343.112 500.905 343.344 500.645 343.574C500.366 343.805 500.2 344.052 500.111 344.355C499.986 344.791 500.05 345.185 500.282 345.539C500.514 345.893 500.914 346.169 501.464 346.349L500.895 348.412C499.682 348.055 498.787 347.486 498.189 346.667C497.591 345.848 497.444 344.946 497.71 343.962L497.766 343.942Z" fill="white"/>
<path d="M467.722 357.1L492.206 356.6L490.484 360.773L468.392 361.139L469.388 358.692L484.737 374.658L483.16 378.471L466.144 360.894L467.722 357.1Z" fill="white"/>
<path d="M456.338 380.102C457.84 377.44 459.773 375.788 462.138 375.127C464.503 374.466 467.112 374.931 469.987 376.56L480.988 382.764L478.936 386.396L468.049 380.266C466.032 379.131 464.328 378.745 462.939 379.089C461.549 379.432 460.397 380.412 459.499 381.99C458.601 383.569 458.38 385.042 458.799 386.41C459.218 387.778 460.445 389.02 462.462 390.155L473.349 396.285L471.334 399.86L460.333 393.656C457.459 392.046 455.71 390.041 455.049 387.678C454.388 385.315 454.817 382.784 456.338 380.121L456.338 380.102ZM469.847 396.588L472.359 397.997L472.011 398.606C471.681 399.176 471.615 399.705 471.792 400.192C471.97 400.679 472.316 401.069 472.849 401.361C473.172 401.544 473.495 401.671 473.854 401.721C474.214 401.791 474.534 401.785 474.835 401.743L474.426 404.349C473.918 404.414 473.408 404.385 472.878 404.281C472.349 404.176 471.817 403.978 471.304 403.685C470.047 402.971 469.24 402.024 468.9 400.861C468.56 399.699 468.766 398.452 469.498 397.159L469.828 396.57L469.847 396.588Z" fill="white"/>
<path d="M437.288 397.938C437.62 397.518 438.012 397.248 438.52 397.164C439.008 397.062 439.482 397.186 439.94 397.517C440.417 397.886 440.688 398.315 440.754 398.841C440.818 399.349 440.694 399.822 440.381 400.26C440.067 400.661 439.657 400.913 439.13 401.016C438.604 401.1 438.111 400.976 437.634 400.607C437.195 400.275 436.943 399.846 436.896 399.338C436.85 398.831 436.993 398.357 437.288 397.957L437.288 397.938ZM442.233 401.642C443.266 400.269 444.473 399.156 445.817 398.305C447.179 397.473 448.584 396.922 450.089 396.69C451.575 396.458 453.065 396.508 454.542 396.879C456.019 397.251 457.425 397.924 458.762 398.919C460.098 399.915 461.135 401.084 461.892 402.39C462.649 403.697 463.107 405.121 463.283 406.625C463.458 408.129 463.333 409.657 462.868 411.191C462.422 412.743 461.655 414.206 460.603 415.599C459.847 416.61 459.125 417.432 458.438 418.103C457.752 418.773 457.141 419.443 456.624 420.13C456.089 420.836 455.836 421.48 455.828 422.121C455.819 422.762 456.13 423.284 456.722 423.726C457.008 423.948 457.331 424.112 457.672 424.2C458.013 424.289 458.354 424.358 458.675 424.391L457.924 426.871C457.396 426.861 456.885 426.757 456.373 426.595C455.861 426.416 455.386 426.179 454.946 425.828C453.782 424.962 453.198 423.879 453.158 422.58C453.136 421.28 453.66 419.915 454.749 418.465C455.192 417.893 455.654 417.32 456.173 416.784C456.692 416.248 457.174 415.731 457.637 415.271L455.034 419.723C453.929 420.193 452.764 420.457 451.521 420.497C450.277 420.536 449.03 420.369 447.779 419.994C446.528 419.619 445.33 418.998 444.204 418.15C442.886 417.155 441.849 416.004 441.073 414.679C440.315 413.354 439.84 411.949 439.645 410.464C439.451 408.979 439.596 407.47 440.023 405.956C440.45 404.441 441.2 402.997 442.232 401.605L442.233 401.642ZM445.154 403.836C444.471 404.733 443.997 405.682 443.731 406.685C443.464 407.669 443.405 408.669 443.554 409.646C443.702 410.642 444.038 411.578 444.562 412.474C445.105 413.369 445.816 414.167 446.732 414.849C447.63 415.531 448.599 416.005 449.622 416.271C450.644 416.536 451.645 416.614 452.623 416.466C453.62 416.317 454.538 415.982 455.416 415.459C456.293 414.936 457.073 414.207 457.756 413.31C458.438 412.413 458.913 411.445 459.198 410.442C459.483 409.438 459.542 408.439 459.393 407.443C459.245 406.447 458.909 405.511 458.403 404.615C457.879 403.719 457.169 402.921 456.252 402.239C455.355 401.557 454.386 401.102 453.382 400.836C452.36 400.589 451.359 400.53 450.362 400.66C449.365 400.79 448.428 401.125 447.532 401.668C446.636 402.21 445.856 402.939 445.173 403.836L445.154 403.836Z" fill="white"/>
<path d="M429.632 417.224L443.366 430.221L448.481 424.824L451.048 427.249L437.965 441.049L435.398 438.623L440.512 433.226L426.778 420.229L429.65 417.205L429.632 417.224Z" fill="white"/>
<path d="M409.635 435.999L421.457 450.742L427.263 446.106L429.458 448.857L414.59 460.746L412.395 457.994L418.201 453.358L406.398 438.615L409.655 436.017L409.635 435.999Z" fill="white"/>
<path d="M386.098 452.609L395.267 456.394L391.517 458.792L382.329 455.008L386.097 452.59L386.098 452.609ZM398.449 444.699L410.546 463.582L402.766 468.553C401.087 469.617 399.495 470.284 397.953 470.516C396.41 470.749 395.012 470.565 393.701 469.984C392.409 469.384 391.318 468.385 390.409 466.987C389.518 465.608 389.08 464.202 389.095 462.808C389.109 461.413 389.539 460.05 390.385 458.755C391.231 457.46 392.494 456.271 394.173 455.188L399.975 451.475L399.433 454.027L394.904 446.962L398.411 444.719L398.449 444.699ZM399.238 453.635L401.87 454.344L396.236 457.961C394.687 458.947 393.744 460.037 393.386 461.192C393.028 462.366 393.236 463.53 393.991 464.723C394.746 465.916 395.738 466.578 396.928 466.728C398.119 466.878 399.507 466.459 401.056 465.473L406.69 461.857L406.264 464.576L399.237 453.616L399.238 453.635Z" fill="white"/>
<path d="M369.512 461.022C371.084 460.28 372.661 459.858 374.242 459.738C375.824 459.618 377.336 459.8 378.777 460.284C380.218 460.769 381.493 461.502 382.641 462.5C383.789 463.498 384.715 464.745 385.418 466.24C386.141 467.736 386.524 469.255 386.587 470.78C386.65 472.305 386.41 473.759 385.868 475.163C385.325 476.566 384.517 477.841 383.424 478.99C382.349 480.138 381.007 481.102 379.417 481.844C377.864 482.586 376.288 483.026 374.706 483.147C373.124 483.267 371.632 483.085 370.21 482.619C368.788 482.152 367.512 481.401 366.364 480.384C365.216 479.367 364.29 478.101 363.567 476.606C362.845 475.111 362.461 473.591 362.398 472.066C362.335 470.542 362.575 469.087 363.098 467.665C363.622 466.244 364.43 464.987 365.524 463.839C366.617 462.69 367.94 461.745 369.493 461.004L369.512 461.022ZM366.855 455.433C367.342 455.199 367.813 455.173 368.305 455.315C368.798 455.458 369.162 455.791 369.396 456.295C369.65 456.838 369.696 457.345 369.497 457.839C369.317 458.331 368.983 458.695 368.497 458.91C368.029 459.125 367.558 459.152 367.046 458.991C366.534 458.83 366.17 458.478 365.897 457.936C365.663 457.431 365.636 456.942 365.835 456.468C366.035 455.993 366.369 455.649 366.836 455.434L366.855 455.433ZM371.075 464.312C370.046 464.8 369.189 465.417 368.504 466.182C367.8 466.928 367.305 467.784 366.962 468.713C366.62 469.66 366.485 470.642 366.54 471.678C366.595 472.713 366.876 473.763 367.365 474.791C367.853 475.838 368.49 476.713 369.256 477.416C370.022 478.119 370.879 478.632 371.827 478.956C372.775 479.279 373.758 479.414 374.794 479.359C375.811 479.304 376.844 479.023 377.873 478.535C378.902 478.047 379.759 477.43 380.481 476.665C381.185 475.9 381.718 475.043 382.041 474.096C382.365 473.148 382.518 472.147 382.482 471.131C382.446 470.095 382.165 469.064 381.677 468.017C381.188 466.989 380.552 466.133 379.786 465.448C379.002 464.746 378.145 464.232 377.196 463.89C376.248 463.548 375.265 463.413 374.21 463.487C373.174 463.561 372.142 463.842 371.113 464.33L371.075 464.312ZM385.599 480.574L383.584 486.391L380.348 487.933L374.562 485.824L377.518 484.419L383.066 485.853L380.297 487.18L382.681 481.978L385.637 480.573L385.599 480.574Z" fill="white"/>
<path d="M354.97 467.574L362.691 488.621L358.774 490.061L351.053 469.014L354.97 467.574Z" fill="white"/>
<path d="M153.911 113.255C152.535 114.347 151.065 115.176 149.5 115.76C147.935 116.344 146.54 116.627 145.296 116.608L144.428 113.18C145.578 113.18 146.804 112.954 148.142 112.501C149.481 112.049 150.688 111.39 151.781 110.543C152.705 109.808 153.365 109.13 153.779 108.471C154.194 107.83 154.401 107.209 154.401 106.662C154.401 106.116 154.232 105.607 153.874 105.174C153.459 104.647 152.912 104.364 152.271 104.327C151.63 104.308 150.914 104.44 150.16 104.722C149.387 105.005 148.576 105.363 147.709 105.796C146.842 106.229 145.937 106.625 144.994 106.964C144.07 107.322 143.147 107.566 142.242 107.679C141.337 107.811 140.451 107.717 139.602 107.416C138.754 107.114 137.943 106.493 137.208 105.551C136.454 104.59 136.02 103.517 135.907 102.311C135.794 101.106 136.077 99.8625 136.737 98.5628C137.415 97.2631 138.546 95.9822 140.168 94.7014C141.224 93.8726 142.374 93.1756 143.637 92.6294C144.881 92.0831 146.106 91.7441 147.275 91.6499L148.256 95.0027C147.106 95.1534 146.012 95.4548 144.994 95.888C143.976 96.3213 143.09 96.8487 142.317 97.4514C141.431 98.1484 140.79 98.8453 140.394 99.5046C139.998 100.164 139.81 100.785 139.828 101.351C139.847 101.916 140.036 102.424 140.375 102.857C140.79 103.404 141.318 103.686 141.959 103.705C142.6 103.743 143.297 103.592 144.051 103.309C144.806 103.008 145.635 102.65 146.521 102.217C147.407 101.784 148.312 101.407 149.236 101.049C150.16 100.691 151.065 100.446 151.97 100.333C152.874 100.202 153.742 100.296 154.59 100.578C155.438 100.88 156.23 101.482 156.947 102.405C157.682 103.347 158.115 104.421 158.229 105.607C158.342 106.813 158.059 108.056 157.38 109.375C156.702 110.693 155.552 111.974 153.949 113.236L153.911 113.255Z" fill="white"/>
<path d="M172.801 100.07C171.331 100.974 169.804 101.577 168.239 101.859C166.674 102.142 165.147 102.123 163.677 101.803C162.206 101.483 160.849 100.88 159.604 99.9946C158.36 99.1093 157.304 97.9792 156.456 96.5853C155.589 95.1726 155.042 93.7034 154.816 92.1965C154.59 90.6896 154.684 89.2204 155.061 87.77C155.438 86.3196 156.117 84.9634 157.078 83.7014C158.04 82.4394 159.246 81.3469 160.754 80.4427C162.225 79.5386 163.752 78.9358 165.298 78.6533C166.844 78.3708 168.352 78.3708 169.822 78.691C171.293 79.0112 172.632 79.6139 173.895 80.4992C175.139 81.3845 176.195 82.5335 177.081 83.9651C177.967 85.3966 178.495 86.847 178.721 88.3539C178.947 89.8608 178.872 91.33 178.495 92.7992C178.118 94.2684 177.458 95.6058 176.496 96.8678C175.535 98.1298 174.328 99.2035 172.839 100.108L172.801 100.07ZM154.703 82.3452L156.626 77.1464L159.623 75.3005L165.128 75.9409L162.319 77.6738L157.21 77.6173L159.774 76.0351L157.512 80.6123L154.703 82.3452ZM170.878 96.962C171.84 96.3781 172.632 95.6623 173.235 94.8335C173.838 94.0047 174.272 93.1194 174.498 92.14C174.724 91.1793 174.762 90.181 174.592 89.145C174.423 88.1279 174.045 87.1107 173.442 86.1312C172.839 85.1518 172.122 84.3418 171.293 83.739C170.463 83.1175 169.559 82.7031 168.578 82.477C167.598 82.251 166.599 82.2322 165.6 82.4017C164.581 82.5712 163.601 82.9479 162.64 83.5507C161.678 84.1534 160.886 84.8504 160.245 85.698C159.623 86.5268 159.19 87.4309 158.963 88.4292C158.737 89.4087 158.699 90.407 158.85 91.4242C159.001 92.4413 159.378 93.4585 159.981 94.438C160.566 95.3986 161.301 96.1897 162.149 96.7925C162.998 97.3952 163.903 97.8285 164.883 98.0545C165.863 98.2994 166.863 98.3182 167.9 98.1487C168.936 97.9603 169.917 97.5836 170.897 96.9808L170.878 96.962ZM161.377 74.7919L162.527 69.6873L166.184 67.4458L163.997 73.1908L161.377 74.7919Z" fill="white"/>
<path d="M186.3 91.8571L177.138 71.4011L180.267 70.0072L200.176 80.0469L198.63 80.7438L191.56 64.9591L195.312 63.2827L204.474 83.7387L201.344 85.1326L181.474 75.0741L183.02 74.3772L190.089 90.1619L186.319 91.8383L186.3 91.8571Z" fill="white"/>
<path d="M219.669 79.1428C217.991 79.6513 216.37 79.8585 214.805 79.7267C213.24 79.6137 211.789 79.2181 210.431 78.5212C209.093 77.8431 207.924 76.9201 206.943 75.7711C205.963 74.6221 205.228 73.2282 204.738 71.6271C204.248 70.0072 204.078 68.4627 204.248 66.9558C204.417 65.4489 204.87 64.0362 205.624 62.7177C206.378 61.3991 207.358 60.2501 208.602 59.2895C209.828 58.3288 211.317 57.5754 213.033 57.048C214.824 56.5017 216.558 56.2945 218.198 56.4452C219.839 56.5959 221.328 57.0857 222.685 57.9333L220.913 61.1543C219.82 60.5703 218.726 60.2313 217.633 60.1183C216.539 60.0241 215.408 60.1371 214.239 60.495C213.089 60.8529 212.109 61.3426 211.261 62.0019C210.431 62.6611 209.752 63.4334 209.262 64.3187C208.772 65.204 208.47 66.1647 208.357 67.2007C208.244 68.2366 208.357 69.3103 208.697 70.4028C209.036 71.4953 209.526 72.4371 210.205 73.247C210.884 74.057 211.657 74.6974 212.562 75.1495C213.466 75.6204 214.447 75.8841 215.484 75.9594C216.539 76.0348 217.633 75.9029 218.783 75.5639C219.839 75.2437 220.819 74.7539 221.705 74.1135C222.591 73.4731 223.364 72.6255 224.024 71.5518L227.172 73.8498C226.343 75.093 225.268 76.1478 223.93 77.0708C222.591 77.9749 221.158 78.6718 219.631 79.1239L219.669 79.1428ZM223.307 74.4902L220.876 66.4849L224.608 65.3547L227.21 73.8686L223.307 74.4902Z" fill="white"/>
<path d="M251.53 72.4559C249.815 72.6819 248.193 72.6066 246.685 72.2487C245.177 71.8908 243.801 71.2504 242.594 70.3462C241.387 69.4421 240.388 68.3496 239.615 67.0687C238.842 65.7691 238.333 64.281 238.107 62.6234C237.881 60.947 237.975 59.3836 238.39 57.9332C238.805 56.4828 239.483 55.1643 240.426 53.9776C241.369 52.791 242.519 51.8303 243.895 51.0769C245.252 50.3234 246.798 49.8337 248.514 49.6077C250.342 49.3628 252.039 49.457 253.623 49.8714C255.206 50.3046 256.601 51.058 257.808 52.1505L255.47 55.0136C254.528 54.2602 253.528 53.7328 252.473 53.4314C251.417 53.13 250.324 53.0547 249.174 53.2054C248.005 53.356 246.968 53.6951 246.063 54.2037C245.158 54.7122 244.385 55.3715 243.763 56.1626C243.141 56.9537 242.707 57.8579 242.424 58.8562C242.142 59.8545 242.085 60.9282 242.236 62.0772C242.387 63.2262 242.726 64.2433 243.254 65.1286C243.782 66.0328 244.442 66.7862 245.252 67.389C246.063 67.9917 246.968 68.4249 247.986 68.6698C249.004 68.9147 250.097 68.9712 251.247 68.8205C252.397 68.6698 253.434 68.3119 254.377 67.7468C255.319 67.1818 256.13 66.3906 256.847 65.3923L259.844 67.5396C258.977 68.9147 257.827 70.0072 256.413 70.836C254.999 71.6648 253.359 72.211 251.53 72.4559Z" fill="white"/>
<path d="M267.875 70.7229L263.709 70.7606L263.482 48.3456L267.649 48.3079L267.875 70.7229ZM279.696 61.0035L267.46 61.1165L267.423 57.5565L279.658 57.4434L279.696 61.0035ZM279.243 48.1949L283.372 48.1572L283.598 70.5722L279.469 70.6099L279.243 48.1949Z" fill="white"/>
<path d="M289.16 71.1186L290.97 48.779L295.118 49.1181L293.308 71.4577L289.16 71.1186ZM290.518 46.9142L295.193 42.8833L299.925 43.26L293.986 47.1779L290.536 46.8954L290.518 46.9142Z" fill="white"/>
<path d="M298.906 71.7969L302.714 49.7021L306.089 50.2861L317.024 69.7249L315.346 69.4424L318.287 52.3957L322.321 53.0927L318.513 75.1874L315.138 74.6035L304.242 55.1835L305.919 55.466L302.978 72.5127L298.906 71.8158V71.7969Z" fill="white"/>
<path d="M327.732 77.6547L323.754 76.4303L330.352 55.0137L334.33 56.238L327.732 77.6547ZM341.947 71.985L330.239 68.3873L331.295 64.9968L343.002 68.5945L341.947 71.985ZM345.416 59.6474L349.375 60.8529L342.776 82.2695L338.817 81.0452L345.434 59.6285L345.416 59.6474Z" fill="white"/>
<path d="M359.913 89.6911L368.19 72.7009L361.497 69.4423L363.043 66.2778L380.161 74.6034L378.615 77.7679L371.922 74.5092L363.646 91.4994L359.895 89.6723L359.913 89.6911Z" fill="white"/>
<path d="M372.583 96.0579L384.479 77.0522L392.303 81.9496C393.981 83.0045 395.263 84.1723 396.13 85.4532C396.997 86.734 397.45 88.0902 397.468 89.5218C397.468 90.9345 397.054 92.366 396.168 93.7787C395.3 95.1726 394.226 96.1709 392.944 96.7548C391.662 97.3388 390.267 97.5271 388.721 97.3199C387.175 97.1127 385.554 96.4723 383.876 95.4175L378.031 91.7633L380.577 91.1605L376.127 98.2806L372.602 96.0767L372.583 96.0579ZM380.313 91.5184L379.841 88.8437L385.516 92.3849C387.081 93.3643 388.457 93.7599 389.663 93.5715C390.87 93.402 391.85 92.7051 392.604 91.5184C393.359 90.3317 393.547 89.145 393.17 87.996C392.793 86.847 391.832 85.7734 390.267 84.8127L384.592 81.2715L387.231 80.4993L380.331 91.5184H380.313ZM385.026 103.818L384.536 93.9106L388.306 96.2651L388.815 106.192L385.007 103.818H385.026Z" fill="white"/>
<path d="M395.224 119.527C394.81 119.188 394.565 118.774 394.489 118.265C394.414 117.757 394.546 117.305 394.904 116.872C395.281 116.401 395.733 116.156 396.242 116.099C396.77 116.043 397.223 116.193 397.638 116.533C398.033 116.853 398.26 117.286 398.335 117.795C398.411 118.322 398.26 118.812 397.864 119.283C397.506 119.716 397.091 119.942 396.563 119.961C396.054 119.98 395.601 119.829 395.187 119.509L395.224 119.527ZM399.07 114.687C396.695 112.765 395.375 110.58 395.111 108.15C394.847 105.702 395.752 103.215 397.826 100.654L405.782 90.8589L409.025 93.4771L401.144 103.178C399.693 104.967 399.014 106.587 399.127 108.019C399.24 109.45 399.994 110.75 401.408 111.899C402.822 113.048 404.236 113.519 405.65 113.33C407.064 113.142 408.516 112.144 409.967 110.354L417.848 100.654L421.034 103.234L413.078 113.029C411.004 115.591 408.742 116.985 406.31 117.229C403.859 117.474 401.446 116.627 399.07 114.687ZM417.584 104.12L419.393 101.878L419.94 102.33C420.449 102.744 420.958 102.914 421.467 102.801C421.976 102.707 422.41 102.424 422.787 101.953C423.013 101.671 423.183 101.369 423.315 101.03C423.447 100.691 423.503 100.371 423.503 100.07L426.011 100.899C425.992 101.407 425.879 101.897 425.69 102.405C425.502 102.914 425.219 103.404 424.842 103.856C423.918 104.986 422.862 105.608 421.656 105.739C420.449 105.871 419.261 105.476 418.093 104.534L417.565 104.12H417.584Z" fill="white"/>
<path d="M417.904 132.091C416.698 130.848 415.811 129.511 415.208 128.06C414.605 126.629 414.303 125.159 414.322 123.652C414.322 122.146 414.624 120.695 415.208 119.301C415.793 117.907 416.698 116.627 417.904 115.459C419.13 114.291 420.43 113.443 421.844 112.897C423.258 112.351 424.729 112.125 426.237 112.181C427.745 112.238 429.216 112.596 430.63 113.255C432.044 113.914 433.363 114.856 434.551 116.099C435.833 117.418 436.757 118.849 437.36 120.375C437.963 121.901 438.171 123.464 438.001 125.084L434.306 124.896C434.362 123.69 434.193 122.579 433.816 121.543C433.439 120.526 432.835 119.584 432.044 118.755C431.233 117.907 430.347 117.267 429.385 116.834C428.443 116.401 427.462 116.175 426.444 116.137C425.445 116.118 424.446 116.288 423.484 116.664C422.504 117.041 421.599 117.625 420.77 118.435C419.94 119.226 419.318 120.111 418.903 121.072C418.489 122.033 418.281 123.012 418.262 124.01C418.243 125.009 418.451 126.007 418.847 126.968C419.243 127.928 419.846 128.832 420.675 129.68C421.467 130.509 422.391 131.13 423.39 131.545C424.408 131.959 425.521 132.166 426.746 132.129L426.784 135.821C425.162 135.934 423.598 135.651 422.089 135.011C420.581 134.37 419.167 133.372 417.885 132.035L417.904 132.091Z" fill="white"/>
<path d="M140.915 304.096C139.805 304.096 138.803 303.851 137.907 303.36C137.021 302.869 136.323 302.192 135.811 301.328C135.309 300.453 135.059 299.477 135.059 298.4C135.059 297.323 135.309 296.352 135.811 295.488C136.323 294.613 137.027 293.931 137.923 293.44C138.819 292.949 139.821 292.704 140.931 292.704C141.763 292.704 142.531 292.843 143.235 293.12C143.939 293.397 144.536 293.803 145.027 294.336L144.275 295.088C143.4 294.203 142.296 293.76 140.963 293.76C140.077 293.76 139.272 293.963 138.547 294.368C137.821 294.773 137.251 295.328 136.835 296.032C136.429 296.736 136.227 297.525 136.227 298.4C136.227 299.275 136.429 300.064 136.835 300.768C137.251 301.472 137.821 302.027 138.547 302.432C139.272 302.837 140.077 303.04 140.963 303.04C142.307 303.04 143.411 302.592 144.275 301.696L145.027 302.448C144.536 302.981 143.933 303.392 143.219 303.68C142.515 303.957 141.747 304.096 140.915 304.096ZM151.599 295.52C152.655 295.52 153.492 295.829 154.111 296.448C154.74 297.056 155.055 297.947 155.055 299.12V304H153.919V299.232C153.919 298.357 153.7 297.691 153.263 297.232C152.825 296.773 152.201 296.544 151.391 296.544C150.484 296.544 149.764 296.816 149.231 297.36C148.708 297.893 148.447 298.635 148.447 299.584V304H147.311V292.128H148.447V297.056C148.756 296.565 149.183 296.187 149.727 295.92C150.271 295.653 150.895 295.52 151.599 295.52ZM158.139 295.584H159.275V304H158.139V295.584ZM159.867 292.288H161.387L158.795 294.272H157.675L159.867 292.288ZM166.724 295.52C167.78 295.52 168.617 295.829 169.236 296.448C169.865 297.056 170.18 297.947 170.18 299.12V304H169.044V299.232C169.044 298.357 168.825 297.691 168.388 297.232C167.95 296.773 167.326 296.544 166.516 296.544C165.609 296.544 164.889 296.816 164.356 297.36C163.833 297.893 163.572 298.635 163.572 299.584V304H162.436V295.584H163.524V297.136C163.833 296.624 164.26 296.229 164.804 295.952C165.358 295.664 165.998 295.52 166.724 295.52ZM177.552 295.52C178.608 295.52 179.445 295.829 180.064 296.448C180.693 297.056 181.008 297.947 181.008 299.12V304H179.872V299.232C179.872 298.357 179.653 297.691 179.216 297.232C178.778 296.773 178.154 296.544 177.344 296.544C176.437 296.544 175.717 296.816 175.184 297.36C174.661 297.893 174.4 298.635 174.4 299.584V304H173.264V292.128H174.4V297.056C174.709 296.565 175.136 296.187 175.68 295.92C176.224 295.653 176.848 295.52 177.552 295.52ZM192.711 303.488C192.498 303.68 192.231 303.829 191.911 303.936C191.602 304.032 191.277 304.08 190.935 304.08C190.146 304.08 189.538 303.867 189.111 303.44C188.685 303.013 188.471 302.411 188.471 301.632V296.544H186.967V295.584H188.471V293.744H189.607V295.584H192.167V296.544H189.607V301.568C189.607 302.069 189.73 302.453 189.975 302.72C190.231 302.976 190.594 303.104 191.063 303.104C191.298 303.104 191.522 303.067 191.735 302.992C191.959 302.917 192.151 302.811 192.311 302.672L192.711 303.488ZM195.867 297.232C196.134 296.667 196.529 296.24 197.051 295.952C197.585 295.664 198.241 295.52 199.019 295.52V296.624L198.747 296.608C197.862 296.608 197.169 296.88 196.667 297.424C196.166 297.968 195.915 298.731 195.915 299.712V304H194.779V295.584H195.867V297.232ZM208.785 295.584V304H207.697V302.464C207.399 302.976 206.988 303.376 206.465 303.664C205.943 303.941 205.345 304.08 204.673 304.08C203.575 304.08 202.705 303.776 202.065 303.168C201.436 302.549 201.121 301.648 201.121 300.464V295.584H202.257V300.352C202.257 301.237 202.476 301.909 202.913 302.368C203.351 302.827 203.975 303.056 204.785 303.056C205.671 303.056 206.369 302.789 206.881 302.256C207.393 301.712 207.649 300.96 207.649 300V295.584H208.785ZM208.001 295.568H208.241C208.593 295.568 208.855 295.472 209.025 295.28C209.207 295.077 209.297 294.816 209.297 294.496C209.297 294.112 209.191 293.771 208.977 293.472L209.729 293.184C210.007 293.568 210.145 294.016 210.145 294.528C210.145 295.115 209.98 295.584 209.649 295.936C209.319 296.277 208.849 296.448 208.241 296.448H208.001V295.568ZM204.961 307.04C204.769 307.04 204.604 306.976 204.465 306.848C204.337 306.72 204.273 306.555 204.273 306.352C204.273 306.149 204.337 305.984 204.465 305.856C204.604 305.728 204.769 305.664 204.961 305.664C205.153 305.664 205.313 305.728 205.441 305.856C205.58 305.984 205.649 306.149 205.649 306.352C205.649 306.555 205.58 306.72 205.441 306.848C205.313 306.976 205.153 307.04 204.961 307.04ZM215.236 304.08C214.404 304.08 213.657 303.899 212.996 303.536C212.345 303.173 211.833 302.667 211.46 302.016C211.087 301.355 210.9 300.613 210.9 299.792C210.9 298.971 211.087 298.235 211.46 297.584C211.833 296.933 212.345 296.427 212.996 296.064C213.657 295.701 214.404 295.52 215.236 295.52C215.961 295.52 216.607 295.664 217.172 295.952C217.748 296.229 218.201 296.64 218.532 297.184L217.684 297.76C217.407 297.344 217.055 297.035 216.628 296.832C216.201 296.619 215.737 296.512 215.236 296.512C214.628 296.512 214.079 296.651 213.588 296.928C213.108 297.195 212.729 297.579 212.452 298.08C212.185 298.581 212.052 299.152 212.052 299.792C212.052 300.443 212.185 301.019 212.452 301.52C212.729 302.011 213.108 302.395 213.588 302.672C214.079 302.939 214.628 303.072 215.236 303.072C215.737 303.072 216.201 302.971 216.628 302.768C217.055 302.565 217.407 302.256 217.684 301.84L218.532 302.416C218.201 302.96 217.748 303.376 217.172 303.664C216.596 303.941 215.951 304.08 215.236 304.08ZM224.951 292.128H226.087V304H224.951V292.128ZM232.192 295.52C233.291 295.52 234.133 295.797 234.72 296.352C235.307 296.896 235.6 297.707 235.6 298.784V304H234.512V302.688C234.256 303.125 233.877 303.467 233.376 303.712C232.885 303.957 232.299 304.08 231.616 304.08C230.677 304.08 229.931 303.856 229.376 303.408C228.821 302.96 228.544 302.368 228.544 301.632C228.544 300.917 228.8 300.341 229.312 299.904C229.835 299.467 230.661 299.248 231.792 299.248H234.464V298.736C234.464 298.011 234.261 297.461 233.856 297.088C233.451 296.704 232.859 296.512 232.08 296.512C231.547 296.512 231.035 296.603 230.544 296.784C230.053 296.955 229.632 297.195 229.28 297.504L228.768 296.656C229.195 296.293 229.707 296.016 230.304 295.824C230.901 295.621 231.531 295.52 232.192 295.52ZM231.792 303.184C232.432 303.184 232.981 303.04 233.44 302.752C233.899 302.453 234.24 302.027 234.464 301.472V300.096H231.824C230.384 300.096 229.664 300.597 229.664 301.6C229.664 302.091 229.851 302.48 230.224 302.768C230.597 303.045 231.12 303.184 231.792 303.184ZM229.552 292.288H231.072L233.264 294.272H232.144L229.552 292.288ZM245.993 299.776L244.009 301.6V304H242.873V292.128H244.009V300.176L249.033 295.584H250.441L246.841 299.024L250.777 304H249.385L245.993 299.776ZM252.357 295.584H253.493V304H252.357V295.584ZM252.933 293.744C252.699 293.744 252.501 293.664 252.341 293.504C252.181 293.344 252.101 293.152 252.101 292.928C252.101 292.715 252.181 292.528 252.341 292.368C252.501 292.208 252.699 292.128 252.933 292.128C253.168 292.128 253.365 292.208 253.525 292.368C253.685 292.517 253.765 292.699 253.765 292.912C253.765 293.147 253.685 293.344 253.525 293.504C253.365 293.664 253.168 293.744 252.933 293.744ZM267.15 295.52C268.206 295.52 269.033 295.824 269.63 296.432C270.238 297.04 270.542 297.936 270.542 299.12V304H269.406V299.232C269.406 298.357 269.193 297.691 268.766 297.232C268.35 296.773 267.758 296.544 266.99 296.544C266.116 296.544 265.428 296.816 264.926 297.36C264.425 297.893 264.174 298.635 264.174 299.584V304H263.038V299.232C263.038 298.357 262.825 297.691 262.398 297.232C261.982 296.773 261.385 296.544 260.606 296.544C259.742 296.544 259.054 296.816 258.542 297.36C258.041 297.893 257.79 298.635 257.79 299.584V304H256.654V295.584H257.742V297.12C258.041 296.608 258.457 296.213 258.99 295.936C259.524 295.659 260.137 295.52 260.83 295.52C261.534 295.52 262.142 295.669 262.654 295.968C263.177 296.267 263.566 296.709 263.822 297.296C264.132 296.741 264.574 296.309 265.15 296C265.737 295.68 266.404 295.52 267.15 295.52ZM281.299 304.08C280.467 304.08 279.72 303.899 279.059 303.536C278.408 303.173 277.896 302.667 277.523 302.016C277.149 301.355 276.963 300.613 276.963 299.792C276.963 298.971 277.149 298.235 277.523 297.584C277.896 296.933 278.408 296.427 279.059 296.064C279.72 295.701 280.467 295.52 281.299 295.52C282.024 295.52 282.669 295.664 283.235 295.952C283.811 296.229 284.264 296.64 284.595 297.184L283.747 297.76C283.469 297.344 283.117 297.035 282.691 296.832C282.264 296.619 281.8 296.512 281.299 296.512C280.691 296.512 280.141 296.651 279.651 296.928C279.171 297.195 278.792 297.579 278.515 298.08C278.248 298.581 278.115 299.152 278.115 299.792C278.115 300.443 278.248 301.019 278.515 301.52C278.792 302.011 279.171 302.395 279.651 302.672C280.141 302.939 280.691 303.072 281.299 303.072C281.8 303.072 282.264 302.971 282.691 302.768C283.117 302.565 283.469 302.256 283.747 301.84L284.595 302.416C284.264 302.96 283.811 303.376 283.235 303.664C282.659 303.941 282.013 304.08 281.299 304.08ZM290.989 295.52C292.045 295.52 292.883 295.829 293.501 296.448C294.131 297.056 294.445 297.947 294.445 299.12V304H293.309V299.232C293.309 298.357 293.091 297.691 292.653 297.232C292.216 296.773 291.592 296.544 290.781 296.544C289.875 296.544 289.155 296.816 288.621 297.36C288.099 297.893 287.837 298.635 287.837 299.584V304H286.701V292.128H287.837V297.056C288.147 296.565 288.573 296.187 289.117 295.92C289.661 295.653 290.285 295.52 290.989 295.52ZM297.529 295.584H298.665V304H297.529V295.584ZM297.913 293.888C298.543 293.6 298.857 293.221 298.857 292.752C298.857 292.528 298.772 292.341 298.601 292.192C298.441 292.043 298.233 291.968 297.977 291.968C297.647 291.968 297.327 292.069 297.017 292.272L296.745 291.712C296.916 291.584 297.119 291.483 297.353 291.408C297.599 291.333 297.839 291.296 298.073 291.296C298.521 291.296 298.884 291.424 299.161 291.68C299.449 291.925 299.593 292.256 299.593 292.672C299.593 293.419 299.167 293.989 298.313 294.384L297.913 293.888ZM310.302 295.52C311.358 295.52 312.195 295.829 312.814 296.448C313.443 297.056 313.758 297.947 313.758 299.12V304H312.622V299.232C312.622 298.357 312.403 297.691 311.966 297.232C311.528 296.773 310.904 296.544 310.094 296.544C309.187 296.544 308.467 296.816 307.934 297.36C307.411 297.893 307.15 298.635 307.15 299.584V304H306.014V295.584H307.102V297.136C307.411 296.624 307.838 296.229 308.382 295.952C308.936 295.664 309.576 295.52 310.302 295.52ZM319.786 295.52C320.884 295.52 321.727 295.797 322.314 296.352C322.9 296.896 323.194 297.707 323.194 298.784V304H322.106V302.688C321.85 303.125 321.471 303.467 320.97 303.712C320.479 303.957 319.892 304.08 319.21 304.08C318.271 304.08 317.524 303.856 316.97 303.408C316.415 302.96 316.138 302.368 316.138 301.632C316.138 300.917 316.394 300.341 316.906 299.904C317.428 299.467 318.255 299.248 319.386 299.248H322.058V298.736C322.058 298.011 321.855 297.461 321.45 297.088C321.044 296.704 320.452 296.512 319.674 296.512C319.14 296.512 318.628 296.603 318.138 296.784C317.647 296.955 317.226 297.195 316.874 297.504L316.362 296.656C316.788 296.293 317.3 296.016 317.898 295.824C318.495 295.621 319.124 295.52 319.786 295.52ZM319.386 303.184C320.026 303.184 320.575 303.04 321.034 302.752C321.492 302.453 321.834 302.027 322.058 301.472V300.096H319.418C317.978 300.096 317.258 300.597 317.258 301.6C317.258 302.091 317.444 302.48 317.818 302.768C318.191 303.045 318.714 303.184 319.386 303.184ZM336.775 295.52C337.831 295.52 338.658 295.824 339.255 296.432C339.863 297.04 340.167 297.936 340.167 299.12V304H339.031V299.232C339.031 298.357 338.818 297.691 338.391 297.232C337.975 296.773 337.383 296.544 336.615 296.544C335.741 296.544 335.053 296.816 334.551 297.36C334.05 297.893 333.799 298.635 333.799 299.584V304H332.663V299.232C332.663 298.357 332.45 297.691 332.023 297.232C331.607 296.773 331.01 296.544 330.231 296.544C329.367 296.544 328.679 296.816 328.167 297.36C327.666 297.893 327.415 298.635 327.415 299.584V304H326.279V295.584H327.367V297.12C327.666 296.608 328.082 296.213 328.615 295.936C329.149 295.659 329.762 295.52 330.455 295.52C331.159 295.52 331.767 295.669 332.279 295.968C332.802 296.267 333.191 296.709 333.447 297.296C333.757 296.741 334.199 296.309 334.775 296C335.362 295.68 336.029 295.52 336.775 295.52ZM350.924 304.08C350.092 304.08 349.345 303.899 348.684 303.536C348.033 303.173 347.521 302.667 347.148 302.016C346.774 301.355 346.588 300.613 346.588 299.792C346.588 298.971 346.774 298.235 347.148 297.584C347.521 296.933 348.033 296.427 348.684 296.064C349.345 295.701 350.092 295.52 350.924 295.52C351.649 295.52 352.294 295.664 352.86 295.952C353.436 296.229 353.889 296.64 354.22 297.184L353.372 297.76C353.094 297.344 352.742 297.035 352.316 296.832C351.889 296.619 351.425 296.512 350.924 296.512C350.316 296.512 349.766 296.651 349.276 296.928C348.796 297.195 348.417 297.579 348.14 298.08C347.873 298.581 347.74 299.152 347.74 299.792C347.74 300.443 347.873 301.019 348.14 301.52C348.417 302.011 348.796 302.395 349.276 302.672C349.766 302.939 350.316 303.072 350.924 303.072C351.425 303.072 351.889 302.971 352.316 302.768C352.742 302.565 353.094 302.256 353.372 301.84L354.22 302.416C353.889 302.96 353.436 303.376 352.86 303.664C352.284 303.941 351.638 304.08 350.924 304.08ZM360.614 295.52C361.67 295.52 362.508 295.829 363.126 296.448C363.756 297.056 364.07 297.947 364.07 299.12V304H362.934V299.232C362.934 298.357 362.716 297.691 362.278 297.232C361.841 296.773 361.217 296.544 360.406 296.544C359.5 296.544 358.78 296.816 358.246 297.36C357.724 297.893 357.462 298.635 357.462 299.584V304H356.326V292.128H357.462V297.056C357.772 296.565 358.198 296.187 358.742 295.92C359.286 295.653 359.91 295.52 360.614 295.52ZM370.626 304.08C369.815 304.08 369.084 303.899 368.434 303.536C367.783 303.163 367.271 302.651 366.898 302C366.524 301.349 366.338 300.613 366.338 299.792C366.338 298.971 366.524 298.235 366.898 297.584C367.271 296.933 367.783 296.427 368.434 296.064C369.084 295.701 369.815 295.52 370.626 295.52C371.436 295.52 372.167 295.701 372.818 296.064C373.468 296.427 373.975 296.933 374.338 297.584C374.711 298.235 374.898 298.971 374.898 299.792C374.898 300.613 374.711 301.349 374.338 302C373.975 302.651 373.468 303.163 372.818 303.536C372.167 303.899 371.436 304.08 370.626 304.08ZM370.626 303.072C371.223 303.072 371.756 302.939 372.226 302.672C372.706 302.395 373.079 302.005 373.346 301.504C373.612 301.003 373.746 300.432 373.746 299.792C373.746 299.152 373.612 298.581 373.346 298.08C373.079 297.579 372.706 297.195 372.226 296.928C371.756 296.651 371.223 296.512 370.626 296.512C370.028 296.512 369.49 296.651 369.01 296.928C368.54 297.195 368.167 297.579 367.89 298.08C367.623 298.581 367.49 299.152 367.49 299.792C367.49 300.432 367.623 301.003 367.89 301.504C368.167 302.005 368.54 302.395 369.01 302.672C369.49 302.939 370.028 303.072 370.626 303.072ZM385.836 303.488C385.623 303.68 385.356 303.829 385.036 303.936C384.727 304.032 384.402 304.08 384.06 304.08C383.271 304.08 382.663 303.867 382.236 303.44C381.81 303.013 381.596 302.411 381.596 301.632V296.544H380.092V295.584H381.596V293.744H382.732V295.584H385.292V296.544H382.732V301.568C382.732 302.069 382.855 302.453 383.1 302.72C383.356 302.976 383.719 303.104 384.188 303.104C384.423 303.104 384.647 303.067 384.86 302.992C385.084 302.917 385.276 302.811 385.436 302.672L385.836 303.488ZM395.488 295.584V304H394.4V302.464C394.102 302.976 393.691 303.376 393.168 303.664C392.646 303.941 392.048 304.08 391.376 304.08C390.278 304.08 389.408 303.776 388.768 303.168C388.139 302.549 387.824 301.648 387.824 300.464V295.584H388.96V300.352C388.96 301.237 389.179 301.909 389.616 302.368C390.054 302.827 390.678 303.056 391.488 303.056C392.374 303.056 393.072 302.789 393.584 302.256C394.096 301.712 394.352 300.96 394.352 300V295.584H395.488ZM394.704 295.568H394.944C395.296 295.568 395.558 295.472 395.728 295.28C395.91 295.077 396 294.816 396 294.496C396 294.112 395.894 293.771 395.68 293.472L396.432 293.184C396.71 293.568 396.848 294.016 396.848 294.528C396.848 295.115 396.683 295.584 396.352 295.936C396.022 296.277 395.552 296.448 394.944 296.448H394.704V295.568ZM388.992 292.288H390.512L392.704 294.272H391.584L388.992 292.288ZM402.817 295.52C403.873 295.52 404.711 295.829 405.329 296.448C405.959 297.056 406.273 297.947 406.273 299.12V304H405.137V299.232C405.137 298.357 404.919 297.691 404.481 297.232C404.044 296.773 403.42 296.544 402.609 296.544C401.703 296.544 400.983 296.816 400.449 297.36C399.927 297.893 399.665 298.635 399.665 299.584V304H398.529V295.584H399.617V297.136C399.927 296.624 400.353 296.229 400.897 295.952C401.452 295.664 402.092 295.52 402.817 295.52ZM417.181 295.584V302.976C417.181 304.405 416.829 305.461 416.125 306.144C415.431 306.837 414.381 307.184 412.973 307.184C412.194 307.184 411.453 307.067 410.749 306.832C410.055 306.608 409.49 306.293 409.053 305.888L409.629 305.024C410.034 305.387 410.525 305.669 411.101 305.872C411.687 306.075 412.301 306.176 412.941 306.176C414.007 306.176 414.791 305.925 415.293 305.424C415.794 304.933 416.045 304.165 416.045 303.12V302.048C415.693 302.581 415.229 302.987 414.653 303.264C414.087 303.541 413.458 303.68 412.765 303.68C411.975 303.68 411.255 303.509 410.605 303.168C409.965 302.816 409.458 302.331 409.085 301.712C408.722 301.083 408.541 300.373 408.541 299.584C408.541 298.795 408.722 298.091 409.085 297.472C409.458 296.853 409.965 296.373 410.605 296.032C411.245 295.691 411.965 295.52 412.765 295.52C413.479 295.52 414.125 295.664 414.701 295.952C415.277 296.24 415.741 296.656 416.093 297.2V295.584H417.181ZM412.877 302.672C413.485 302.672 414.034 302.544 414.525 302.288C415.015 302.021 415.394 301.653 415.661 301.184C415.938 300.715 416.077 300.181 416.077 299.584C416.077 298.987 415.938 298.459 415.661 298C415.394 297.531 415.015 297.168 414.525 296.912C414.045 296.645 413.495 296.512 412.877 296.512C412.269 296.512 411.719 296.64 411.229 296.896C410.749 297.152 410.37 297.515 410.093 297.984C409.826 298.453 409.693 298.987 409.693 299.584C409.693 300.181 409.826 300.715 410.093 301.184C410.37 301.653 410.749 302.021 411.229 302.288C411.719 302.544 412.269 302.672 412.877 302.672ZM141.91 329.08C141.228 329.08 140.572 328.984 139.942 328.792C139.324 328.589 138.838 328.339 138.486 328.04L138.998 327.144C139.35 327.421 139.793 327.651 140.326 327.832C140.86 328.003 141.414 328.088 141.99 328.088C142.758 328.088 143.324 327.971 143.686 327.736C144.06 327.491 144.246 327.149 144.246 326.712C144.246 326.403 144.145 326.163 143.942 325.992C143.74 325.811 143.484 325.677 143.174 325.592C142.865 325.496 142.454 325.405 141.942 325.32C141.26 325.192 140.71 325.064 140.294 324.936C139.878 324.797 139.521 324.568 139.222 324.248C138.934 323.928 138.79 323.485 138.79 322.92C138.79 322.216 139.084 321.64 139.67 321.192C140.257 320.744 141.073 320.52 142.118 320.52C142.662 320.52 143.206 320.595 143.75 320.744C144.294 320.883 144.742 321.069 145.094 321.304L144.598 322.216C143.905 321.736 143.078 321.496 142.118 321.496C141.393 321.496 140.844 321.624 140.47 321.88C140.108 322.136 139.926 322.472 139.926 322.888C139.926 323.208 140.028 323.464 140.23 323.656C140.444 323.848 140.705 323.992 141.014 324.088C141.324 324.173 141.75 324.264 142.294 324.36C142.966 324.488 143.505 324.616 143.91 324.744C144.316 324.872 144.662 325.091 144.95 325.4C145.238 325.709 145.382 326.136 145.382 326.68C145.382 327.416 145.073 328.003 144.454 328.44C143.846 328.867 142.998 329.08 141.91 329.08ZM155.066 320.584V329H153.978V327.464C153.68 327.976 153.269 328.376 152.746 328.664C152.224 328.941 151.626 329.08 150.954 329.08C149.856 329.08 148.986 328.776 148.346 328.168C147.717 327.549 147.402 326.648 147.402 325.464V320.584H148.538V325.352C148.538 326.237 148.757 326.909 149.194 327.368C149.632 327.827 150.256 328.056 151.066 328.056C151.952 328.056 152.65 327.789 153.162 327.256C153.674 326.712 153.93 325.96 153.93 325V320.584H155.066ZM165.32 320.584L161.112 330.008C160.771 330.797 160.376 331.357 159.928 331.688C159.48 332.019 158.941 332.184 158.312 332.184C157.907 332.184 157.528 332.12 157.176 331.992C156.824 331.864 156.52 331.672 156.264 331.416L156.792 330.568C157.219 330.995 157.731 331.208 158.328 331.208C158.712 331.208 159.037 331.101 159.304 330.888C159.581 330.675 159.837 330.312 160.072 329.8L160.44 328.984L156.68 320.584H157.864L161.032 327.736L164.2 320.584H165.32ZM175.395 320.52C176.451 320.52 177.289 320.829 177.907 321.448C178.537 322.056 178.851 322.947 178.851 324.12V329H177.715V324.232C177.715 323.357 177.497 322.691 177.059 322.232C176.622 321.773 175.998 321.544 175.187 321.544C174.281 321.544 173.561 321.816 173.027 322.36C172.505 322.893 172.243 323.635 172.243 324.584V329H171.107V320.584H172.195V322.136C172.505 321.624 172.931 321.229 173.475 320.952C174.03 320.664 174.67 320.52 175.395 320.52ZM189.759 320.584V327.976C189.759 329.405 189.407 330.461 188.703 331.144C188.009 331.837 186.959 332.184 185.551 332.184C184.772 332.184 184.031 332.067 183.327 331.832C182.633 331.608 182.068 331.293 181.631 330.888L182.207 330.024C182.612 330.387 183.103 330.669 183.679 330.872C184.265 331.075 184.879 331.176 185.519 331.176C186.585 331.176 187.369 330.925 187.871 330.424C188.372 329.933 188.623 329.165 188.623 328.12V327.048C188.271 327.581 187.807 327.987 187.231 328.264C186.665 328.541 186.036 328.68 185.343 328.68C184.553 328.68 183.833 328.509 183.183 328.168C182.543 327.816 182.036 327.331 181.663 326.712C181.3 326.083 181.119 325.373 181.119 324.584C181.119 323.795 181.3 323.091 181.663 322.472C182.036 321.853 182.543 321.373 183.183 321.032C183.823 320.691 184.543 320.52 185.343 320.52C186.057 320.52 186.703 320.664 187.279 320.952C187.855 321.24 188.319 321.656 188.671 322.2V320.584H189.759ZM185.455 327.672C186.063 327.672 186.612 327.544 187.103 327.288C187.593 327.021 187.972 326.653 188.239 326.184C188.516 325.715 188.655 325.181 188.655 324.584C188.655 323.987 188.516 323.459 188.239 323C187.972 322.531 187.593 322.168 187.103 321.912C186.623 321.645 186.073 321.512 185.455 321.512C184.847 321.512 184.297 321.64 183.807 321.896C183.327 322.152 182.948 322.515 182.671 322.984C182.404 323.453 182.271 323.987 182.271 324.584C182.271 325.181 182.404 325.715 182.671 326.184C182.948 326.653 183.327 327.021 183.807 327.288C184.297 327.544 184.847 327.672 185.455 327.672ZM197.224 320.52C198.28 320.52 199.117 320.829 199.736 321.448C200.365 322.056 200.68 322.947 200.68 324.12V329H199.544V324.232C199.544 323.357 199.325 322.691 198.888 322.232C198.45 321.773 197.826 321.544 197.016 321.544C196.109 321.544 195.389 321.816 194.856 322.36C194.333 322.893 194.072 323.635 194.072 324.584V329H192.936V317.128H194.072V322.056C194.381 321.565 194.808 321.187 195.352 320.92C195.896 320.653 196.52 320.52 197.224 320.52ZM203.764 320.584H204.9V329H203.764V320.584ZM205.252 319.176C205.028 319.176 204.83 319.123 204.66 319.016C204.5 318.899 204.318 318.733 204.116 318.52C203.956 318.36 203.833 318.248 203.748 318.184C203.662 318.12 203.572 318.088 203.476 318.088C203.294 318.088 203.15 318.179 203.044 318.36C202.948 318.541 202.9 318.792 202.9 319.112H202.212C202.212 318.557 202.318 318.125 202.532 317.816C202.745 317.507 203.044 317.352 203.428 317.352C203.652 317.352 203.844 317.405 204.004 317.512C204.164 317.619 204.35 317.779 204.564 317.992C204.724 318.152 204.846 318.264 204.932 318.328C205.017 318.392 205.108 318.424 205.204 318.424C205.385 318.424 205.524 318.339 205.62 318.168C205.726 317.997 205.78 317.757 205.78 317.448H206.468C206.468 317.981 206.361 318.403 206.148 318.712C205.934 319.021 205.636 319.176 205.252 319.176ZM208.189 327.336C208.434 327.336 208.637 327.421 208.797 327.592C208.957 327.752 209.037 327.955 209.037 328.2C209.037 328.328 209.015 328.467 208.973 328.616C208.941 328.765 208.887 328.936 208.813 329.128L208.141 331.336H207.373L207.917 329.016C207.746 328.963 207.607 328.867 207.501 328.728C207.394 328.579 207.341 328.403 207.341 328.2C207.341 327.955 207.421 327.752 207.581 327.592C207.741 327.421 207.943 327.336 208.189 327.336ZM220.071 328.488C219.857 328.68 219.591 328.829 219.271 328.936C218.961 329.032 218.636 329.08 218.295 329.08C217.505 329.08 216.897 328.867 216.471 328.44C216.044 328.013 215.831 327.411 215.831 326.632V321.544H214.327V320.584H215.831V318.744H216.967V320.584H219.527V321.544H216.967V326.568C216.967 327.069 217.089 327.453 217.335 327.72C217.591 327.976 217.953 328.104 218.423 328.104C218.657 328.104 218.881 328.067 219.095 327.992C219.319 327.917 219.511 327.811 219.671 327.672L220.071 328.488ZM229.723 320.584V329H228.635V327.464C228.336 327.976 227.925 328.376 227.403 328.664C226.88 328.941 226.283 329.08 225.611 329.08C224.512 329.08 223.643 328.776 223.003 328.168C222.373 327.549 222.059 326.648 222.059 325.464V320.584H223.195V325.352C223.195 326.237 223.413 326.909 223.851 327.368C224.288 327.827 224.912 328.056 225.723 328.056C226.608 328.056 227.307 327.789 227.819 327.256C228.331 326.712 228.587 325.96 228.587 325V320.584H229.723ZM228.939 320.568H229.179C229.531 320.568 229.792 320.472 229.963 320.28C230.144 320.077 230.235 319.816 230.235 319.496C230.235 319.112 230.128 318.771 229.915 318.472L230.667 318.184C230.944 318.568 231.083 319.016 231.083 319.528C231.083 320.115 230.917 320.584 230.587 320.936C230.256 321.277 229.787 321.448 229.179 321.448H228.939V320.568ZM223.227 317.288H224.747L226.939 319.272H225.819L223.227 317.288ZM237.052 320.52C238.108 320.52 238.945 320.829 239.564 321.448C240.193 322.056 240.508 322.947 240.508 324.12V329H239.372V324.232C239.372 323.357 239.153 322.691 238.716 322.232C238.278 321.773 237.654 321.544 236.844 321.544C235.937 321.544 235.217 321.816 234.684 322.36C234.161 322.893 233.9 323.635 233.9 324.584V329H232.764V320.584H233.852V322.136C234.161 321.624 234.588 321.229 235.132 320.952C235.686 320.664 236.326 320.52 237.052 320.52ZM251.415 320.584V327.976C251.415 329.405 251.063 330.461 250.359 331.144C249.666 331.837 248.615 332.184 247.207 332.184C246.428 332.184 245.687 332.067 244.983 331.832C244.29 331.608 243.724 331.293 243.287 330.888L243.863 330.024C244.268 330.387 244.759 330.669 245.335 330.872C245.922 331.075 246.535 331.176 247.175 331.176C248.242 331.176 249.026 330.925 249.527 330.424C250.028 329.933 250.279 329.165 250.279 328.12V327.048C249.927 327.581 249.463 327.987 248.887 328.264C248.322 328.541 247.692 328.68 246.999 328.68C246.21 328.68 245.49 328.509 244.839 328.168C244.199 327.816 243.692 327.331 243.319 326.712C242.956 326.083 242.775 325.373 242.775 324.584C242.775 323.795 242.956 323.091 243.319 322.472C243.692 321.853 244.199 321.373 244.839 321.032C245.479 320.691 246.199 320.52 246.999 320.52C247.714 320.52 248.359 320.664 248.935 320.952C249.511 321.24 249.975 321.656 250.327 322.2V320.584H251.415ZM247.111 327.672C247.719 327.672 248.268 327.544 248.759 327.288C249.25 327.021 249.628 326.653 249.895 326.184C250.172 325.715 250.311 325.181 250.311 324.584C250.311 323.987 250.172 323.459 249.895 323C249.628 322.531 249.25 322.168 248.759 321.912C248.279 321.645 247.73 321.512 247.111 321.512C246.503 321.512 245.954 321.64 245.463 321.896C244.983 322.152 244.604 322.515 244.327 322.984C244.06 323.453 243.927 323.987 243.927 324.584C243.927 325.181 244.06 325.715 244.327 326.184C244.604 326.653 244.983 327.021 245.463 327.288C245.954 327.544 246.503 327.672 247.111 327.672ZM263.067 320.52C264.123 320.52 264.961 320.829 265.579 321.448C266.209 322.056 266.523 322.947 266.523 324.12V329H265.387V324.232C265.387 323.357 265.169 322.691 264.731 322.232C264.294 321.773 263.67 321.544 262.859 321.544C261.953 321.544 261.233 321.816 260.699 322.36C260.177 322.893 259.915 323.635 259.915 324.584V329H258.779V317.128H259.915V322.056C260.225 321.565 260.651 321.187 261.195 320.92C261.739 320.653 262.363 320.52 263.067 320.52ZM272.551 320.52C273.65 320.52 274.493 320.797 275.079 321.352C275.666 321.896 275.959 322.707 275.959 323.784V329H274.871V327.688C274.615 328.125 274.237 328.467 273.735 328.712C273.245 328.957 272.658 329.08 271.975 329.08C271.037 329.08 270.29 328.856 269.735 328.408C269.181 327.96 268.903 327.368 268.903 326.632C268.903 325.917 269.159 325.341 269.671 324.904C270.194 324.467 271.021 324.248 272.151 324.248H274.823V323.736C274.823 323.011 274.621 322.461 274.215 322.088C273.81 321.704 273.218 321.512 272.439 321.512C271.906 321.512 271.394 321.603 270.903 321.784C270.413 321.955 269.991 322.195 269.639 322.504L269.127 321.656C269.554 321.293 270.066 321.016 270.663 320.824C271.261 320.621 271.89 320.52 272.551 320.52ZM272.151 328.184C272.791 328.184 273.341 328.04 273.799 327.752C274.258 327.453 274.599 327.027 274.823 326.472V325.096H272.183C270.743 325.096 270.023 325.597 270.023 326.6C270.023 327.091 270.21 327.48 270.583 327.768C270.957 328.045 271.479 328.184 272.151 328.184ZM269.911 317.288H271.431L273.623 319.272H272.503L269.911 317.288ZM283.333 320.52C284.389 320.52 285.226 320.829 285.845 321.448C286.474 322.056 286.789 322.947 286.789 324.12V329H285.653V324.232C285.653 323.357 285.434 322.691 284.997 322.232C284.56 321.773 283.936 321.544 283.125 321.544C282.218 321.544 281.498 321.816 280.965 322.36C280.442 322.893 280.181 323.635 280.181 324.584V329H279.045V320.584H280.133V322.136C280.442 321.624 280.869 321.229 281.413 320.952C281.968 320.664 282.608 320.52 283.333 320.52ZM294.161 320.52C295.217 320.52 296.054 320.829 296.673 321.448C297.302 322.056 297.617 322.947 297.617 324.12V329H296.481V324.232C296.481 323.357 296.262 322.691 295.825 322.232C295.388 321.773 294.764 321.544 293.953 321.544C293.046 321.544 292.326 321.816 291.793 322.36C291.27 322.893 291.009 323.635 291.009 324.584V329H289.873V317.128H291.009V322.056C291.318 321.565 291.745 321.187 292.289 320.92C292.833 320.653 293.457 320.52 294.161 320.52ZM312.569 317.128V329H311.481V327.336C311.139 327.901 310.686 328.333 310.121 328.632C309.566 328.931 308.937 329.08 308.233 329.08C307.443 329.08 306.729 328.899 306.089 328.536C305.449 328.173 304.947 327.667 304.585 327.016C304.222 326.365 304.041 325.624 304.041 324.792C304.041 323.96 304.222 323.219 304.585 322.568C304.947 321.917 305.449 321.416 306.089 321.064C306.729 320.701 307.443 320.52 308.233 320.52C308.915 320.52 309.529 320.664 310.073 320.952C310.627 321.229 311.081 321.64 311.433 322.184V317.128H312.569ZM308.329 328.072C308.915 328.072 309.443 327.939 309.913 327.672C310.393 327.395 310.766 327.005 311.033 326.504C311.31 326.003 311.449 325.432 311.449 324.792C311.449 324.152 311.31 323.581 311.033 323.08C310.766 322.579 310.393 322.195 309.913 321.928C309.443 321.651 308.915 321.512 308.329 321.512C307.731 321.512 307.193 321.651 306.713 321.928C306.243 322.195 305.87 322.579 305.593 323.08C305.326 323.581 305.193 324.152 305.193 324.792C305.193 325.432 305.326 326.003 305.593 326.504C305.87 327.005 306.243 327.395 306.713 327.672C307.193 327.939 307.731 328.072 308.329 328.072ZM307.913 318.456H314.153V319.288H307.913V318.456ZM319.172 329.08C318.362 329.08 317.631 328.899 316.98 328.536C316.33 328.163 315.818 327.651 315.444 327C315.071 326.349 314.884 325.613 314.884 324.792C314.884 323.971 315.071 323.235 315.444 322.584C315.818 321.933 316.33 321.427 316.98 321.064C317.631 320.701 318.362 320.52 319.172 320.52C319.983 320.52 320.714 320.701 321.364 321.064C322.015 321.427 322.522 321.933 322.884 322.584C323.258 323.235 323.444 323.971 323.444 324.792C323.444 325.613 323.258 326.349 322.884 327C322.522 327.651 322.015 328.163 321.364 328.536C320.714 328.899 319.983 329.08 319.172 329.08ZM319.172 328.072C319.77 328.072 320.303 327.939 320.772 327.672C321.252 327.395 321.626 327.005 321.892 326.504C322.159 326.003 322.292 325.432 322.292 324.792C322.292 324.152 322.159 323.581 321.892 323.08C321.626 322.579 321.252 322.195 320.772 321.928C320.303 321.651 319.77 321.512 319.172 321.512C318.575 321.512 318.036 321.651 317.556 321.928C317.087 322.195 316.714 322.579 316.436 323.08C316.17 323.581 316.036 324.152 316.036 324.792C316.036 325.432 316.17 326.003 316.436 326.504C316.714 327.005 317.087 327.395 317.556 327.672C318.036 327.939 318.575 328.072 319.172 328.072ZM319.156 332.04C318.964 332.04 318.799 331.976 318.66 331.848C318.532 331.72 318.468 331.555 318.468 331.352C318.468 331.149 318.532 330.984 318.66 330.856C318.799 330.728 318.964 330.664 319.156 330.664C319.348 330.664 319.508 330.728 319.636 330.856C319.775 330.984 319.844 331.149 319.844 331.352C319.844 331.555 319.775 331.72 319.636 331.848C319.508 331.976 319.348 332.04 319.156 332.04ZM320.74 319.272L319.156 317.944L317.572 319.272H316.516L318.58 317.288H319.732L321.796 319.272H320.74ZM330.052 320.52C331.108 320.52 331.945 320.829 332.564 321.448C333.193 322.056 333.508 322.947 333.508 324.12V329H332.372V324.232C332.372 323.357 332.153 322.691 331.716 322.232C331.278 321.773 330.654 321.544 329.844 321.544C328.937 321.544 328.217 321.816 327.684 322.36C327.161 322.893 326.9 323.635 326.9 324.584V329H325.764V320.584H326.852V322.136C327.161 321.624 327.588 321.229 328.132 320.952C328.686 320.664 329.326 320.52 330.052 320.52ZM344.415 320.584V327.976C344.415 329.405 344.063 330.461 343.359 331.144C342.666 331.837 341.615 332.184 340.207 332.184C339.428 332.184 338.687 332.067 337.983 331.832C337.29 331.608 336.724 331.293 336.287 330.888L336.863 330.024C337.268 330.387 337.759 330.669 338.335 330.872C338.922 331.075 339.535 331.176 340.175 331.176C341.242 331.176 342.026 330.925 342.527 330.424C343.028 329.933 343.279 329.165 343.279 328.12V327.048C342.927 327.581 342.463 327.987 341.887 328.264C341.322 328.541 340.692 328.68 339.999 328.68C339.21 328.68 338.49 328.509 337.839 328.168C337.199 327.816 336.692 327.331 336.319 326.712C335.956 326.083 335.775 325.373 335.775 324.584C335.775 323.795 335.956 323.091 336.319 322.472C336.692 321.853 337.199 321.373 337.839 321.032C338.479 320.691 339.199 320.52 339.999 320.52C340.714 320.52 341.359 320.664 341.935 320.952C342.511 321.24 342.975 321.656 343.327 322.2V320.584H344.415ZM340.111 327.672C340.719 327.672 341.268 327.544 341.759 327.288C342.25 327.021 342.628 326.653 342.895 326.184C343.172 325.715 343.311 325.181 343.311 324.584C343.311 323.987 343.172 323.459 342.895 323C342.628 322.531 342.25 322.168 341.759 321.912C341.279 321.645 340.73 321.512 340.111 321.512C339.503 321.512 338.954 321.64 338.463 321.896C337.983 322.152 337.604 322.515 337.327 322.984C337.06 323.453 336.927 323.987 336.927 324.584C336.927 325.181 337.06 325.715 337.327 326.184C337.604 326.653 337.983 327.021 338.463 327.288C338.954 327.544 339.503 327.672 340.111 327.672ZM355.267 329.08C354.435 329.08 353.689 328.899 353.027 328.536C352.377 328.173 351.865 327.667 351.491 327.016C351.118 326.355 350.931 325.613 350.931 324.792C350.931 323.971 351.118 323.235 351.491 322.584C351.865 321.933 352.377 321.427 353.027 321.064C353.689 320.701 354.435 320.52 355.267 320.52C355.993 320.52 356.638 320.664 357.203 320.952C357.779 321.229 358.233 321.64 358.563 322.184L357.715 322.76C357.438 322.344 357.086 322.035 356.659 321.832C356.233 321.619 355.769 321.512 355.267 321.512C354.659 321.512 354.11 321.651 353.619 321.928C353.139 322.195 352.761 322.579 352.483 323.08C352.217 323.581 352.083 324.152 352.083 324.792C352.083 325.443 352.217 326.019 352.483 326.52C352.761 327.011 353.139 327.395 353.619 327.672C354.11 327.939 354.659 328.072 355.267 328.072C355.769 328.072 356.233 327.971 356.659 327.768C357.086 327.565 357.438 327.256 357.715 326.84L358.563 327.416C358.233 327.96 357.779 328.376 357.203 328.664C356.627 328.941 355.982 329.08 355.267 329.08ZM368.379 320.584V329H367.291V327.464C366.992 327.976 366.582 328.376 366.059 328.664C365.536 328.941 364.939 329.08 364.267 329.08C363.168 329.08 362.299 328.776 361.659 328.168C361.03 327.549 360.715 326.648 360.715 325.464V320.584H361.851V325.352C361.851 326.237 362.07 326.909 362.507 327.368C362.944 327.827 363.568 328.056 364.379 328.056C365.264 328.056 365.963 327.789 366.475 327.256C366.987 326.712 367.243 325.96 367.243 325V320.584H368.379ZM364.363 318.888C364.992 318.6 365.307 318.221 365.307 317.752C365.307 317.528 365.222 317.341 365.051 317.192C364.891 317.043 364.683 316.968 364.427 316.968C364.096 316.968 363.776 317.069 363.467 317.272L363.195 316.712C363.366 316.584 363.568 316.483 363.803 316.408C364.048 316.333 364.288 316.296 364.523 316.296C364.971 316.296 365.334 316.424 365.611 316.68C365.899 316.925 366.043 317.256 366.043 317.672C366.043 318.419 365.616 318.989 364.763 319.384L364.363 318.888ZM374.505 320.52C375.603 320.52 376.446 320.797 377.033 321.352C377.619 321.896 377.913 322.707 377.913 323.784V329H376.825V327.688C376.569 328.125 376.19 328.467 375.689 328.712C375.198 328.957 374.611 329.08 373.929 329.08C372.99 329.08 372.243 328.856 371.689 328.408C371.134 327.96 370.857 327.368 370.857 326.632C370.857 325.917 371.113 325.341 371.625 324.904C372.147 324.467 372.974 324.248 374.105 324.248H376.777V323.736C376.777 323.011 376.574 322.461 376.169 322.088C375.763 321.704 375.171 321.512 374.393 321.512C373.859 321.512 373.347 321.603 372.857 321.784C372.366 321.955 371.945 322.195 371.593 322.504L371.081 321.656C371.507 321.293 372.019 321.016 372.617 320.824C373.214 320.621 373.843 320.52 374.505 320.52ZM374.105 328.184C374.745 328.184 375.294 328.04 375.753 327.752C376.211 327.453 376.553 327.027 376.777 326.472V325.096H374.137C372.697 325.096 371.977 325.597 371.977 326.6C371.977 327.091 372.163 327.48 372.537 327.768C372.91 328.045 373.433 328.184 374.105 328.184ZM395.682 320.52C396.738 320.52 397.564 320.824 398.162 321.432C398.77 322.04 399.074 322.936 399.074 324.12V329H397.938V324.232C397.938 323.357 397.724 322.691 397.298 322.232C396.882 321.773 396.29 321.544 395.522 321.544C394.647 321.544 393.959 321.816 393.458 322.36C392.956 322.893 392.706 323.635 392.706 324.584V329H391.57V324.232C391.57 323.357 391.356 322.691 390.93 322.232C390.514 321.773 389.916 321.544 389.138 321.544C388.274 321.544 387.586 321.816 387.074 322.36C386.572 322.893 386.322 323.635 386.322 324.584V329H385.186V320.584H386.274V322.12C386.572 321.608 386.988 321.213 387.522 320.936C388.055 320.659 388.668 320.52 389.362 320.52C390.066 320.52 390.674 320.669 391.186 320.968C391.708 321.267 392.098 321.709 392.354 322.296C392.663 321.741 393.106 321.309 393.682 321C394.268 320.68 394.935 320.52 395.682 320.52ZM405.626 329.08C404.815 329.08 404.084 328.899 403.434 328.536C402.783 328.163 402.271 327.651 401.898 327C401.524 326.349 401.338 325.613 401.338 324.792C401.338 323.971 401.524 323.235 401.898 322.584C402.271 321.933 402.783 321.427 403.434 321.064C404.084 320.701 404.815 320.52 405.626 320.52C406.436 320.52 407.167 320.701 407.818 321.064C408.468 321.427 408.975 321.933 409.338 322.584C409.711 323.235 409.898 323.971 409.898 324.792C409.898 325.613 409.711 326.349 409.338 327C408.975 327.651 408.468 328.163 407.818 328.536C407.167 328.899 406.436 329.08 405.626 329.08ZM405.626 328.072C406.223 328.072 406.756 327.939 407.226 327.672C407.706 327.395 408.079 327.005 408.346 326.504C408.612 326.003 408.746 325.432 408.746 324.792C408.746 324.152 408.612 323.581 408.346 323.08C408.079 322.579 407.706 322.195 407.226 321.928C406.756 321.651 406.223 321.512 405.626 321.512C405.028 321.512 404.49 321.651 404.01 321.928C403.54 322.195 403.167 322.579 402.89 323.08C402.623 323.581 402.49 324.152 402.49 324.792C402.49 325.432 402.623 326.003 402.89 326.504C403.167 327.005 403.54 327.395 404.01 327.672C404.49 327.939 405.028 328.072 405.626 328.072ZM407.162 319.272L405.61 318.328L404.058 319.272H402.97L405.05 317.768H406.17L408.25 319.272H407.162ZM406.682 317.256C406.436 317.256 406.218 317.213 406.026 317.128C405.844 317.043 405.636 316.92 405.402 316.76C405.231 316.632 405.082 316.541 404.954 316.488C404.836 316.424 404.714 316.392 404.586 316.392C404.351 316.392 404.164 316.461 404.026 316.6C403.898 316.739 403.828 316.936 403.818 317.192H403.13C403.14 316.733 403.274 316.376 403.53 316.12C403.786 315.853 404.127 315.72 404.554 315.72C404.778 315.72 404.98 315.763 405.162 315.848C405.354 315.933 405.567 316.056 405.802 316.216C405.994 316.344 406.148 316.44 406.266 316.504C406.383 316.557 406.506 316.584 406.634 316.584C406.879 316.584 407.066 316.515 407.194 316.376C407.332 316.237 407.407 316.045 407.418 315.8H408.09C408.079 316.248 407.946 316.605 407.69 316.872C407.444 317.128 407.108 317.256 406.682 317.256ZM412.217 320.584H413.353V329H412.217V320.584ZM412.793 318.744C412.558 318.744 412.361 318.664 412.201 318.504C412.041 318.344 411.961 318.152 411.961 317.928C411.961 317.715 412.041 317.528 412.201 317.368C412.361 317.208 412.558 317.128 412.793 317.128C413.027 317.128 413.225 317.208 413.385 317.368C413.545 317.517 413.625 317.699 413.625 317.912C413.625 318.147 413.545 318.344 413.385 318.504C413.225 318.664 413.027 318.744 412.793 318.744ZM202.674 354.08C201.842 354.08 201.095 353.899 200.434 353.536C199.783 353.173 199.271 352.667 198.898 352.016C198.524 351.355 198.338 350.613 198.338 349.792C198.338 348.971 198.524 348.235 198.898 347.584C199.271 346.933 199.783 346.427 200.434 346.064C201.095 345.701 201.842 345.52 202.674 345.52C203.399 345.52 204.044 345.664 204.61 345.952C205.186 346.229 205.639 346.64 205.97 347.184L205.122 347.76C204.844 347.344 204.492 347.035 204.066 346.832C203.639 346.619 203.175 346.512 202.674 346.512C202.066 346.512 201.516 346.651 201.026 346.928C200.546 347.195 200.167 347.579 199.89 348.08C199.623 348.581 199.49 349.152 199.49 349.792C199.49 350.443 199.623 351.019 199.89 351.52C200.167 352.011 200.546 352.395 201.026 352.672C201.516 352.939 202.066 353.072 202.674 353.072C203.175 353.072 203.639 352.971 204.066 352.768C204.492 352.565 204.844 352.256 205.122 351.84L205.97 352.416C205.639 352.96 205.186 353.376 204.61 353.664C204.034 353.941 203.388 354.08 202.674 354.08ZM211.501 354.08C210.69 354.08 209.959 353.899 209.309 353.536C208.658 353.163 208.146 352.651 207.773 352C207.399 351.349 207.213 350.613 207.213 349.792C207.213 348.971 207.399 348.235 207.773 347.584C208.146 346.933 208.658 346.427 209.309 346.064C209.959 345.701 210.69 345.52 211.501 345.52C212.311 345.52 213.042 345.701 213.693 346.064C214.343 346.427 214.85 346.933 215.213 347.584C215.586 348.235 215.773 348.971 215.773 349.792C215.773 350.613 215.586 351.349 215.213 352C214.85 352.651 214.343 353.163 213.693 353.536C213.042 353.899 212.311 354.08 211.501 354.08ZM211.501 353.072C212.098 353.072 212.631 352.939 213.101 352.672C213.581 352.395 213.954 352.005 214.221 351.504C214.487 351.003 214.621 350.432 214.621 349.792C214.621 349.152 214.487 348.581 214.221 348.08C213.954 347.579 213.581 347.195 213.101 346.928C212.631 346.651 212.098 346.512 211.501 346.512C210.903 346.512 210.365 346.651 209.885 346.928C209.415 347.195 209.042 347.579 208.765 348.08C208.498 348.581 208.365 349.152 208.365 349.792C208.365 350.432 208.498 351.003 208.765 351.504C209.042 352.005 209.415 352.395 209.885 352.672C210.365 352.939 210.903 353.072 211.501 353.072ZM222.38 345.52C223.436 345.52 224.273 345.829 224.892 346.448C225.521 347.056 225.836 347.947 225.836 349.12V354H224.7V349.232C224.7 348.357 224.481 347.691 224.044 347.232C223.606 346.773 222.982 346.544 222.172 346.544C221.265 346.544 220.545 346.816 220.012 347.36C219.489 347.893 219.228 348.635 219.228 349.584V354H218.092V345.584H219.18V347.136C219.489 346.624 219.916 346.229 220.46 345.952C221.014 345.664 221.654 345.52 222.38 345.52ZM237.395 345.52C238.451 345.52 239.289 345.829 239.907 346.448C240.537 347.056 240.851 347.947 240.851 349.12V354H239.715V349.232C239.715 348.357 239.497 347.691 239.059 347.232C238.622 346.773 237.998 346.544 237.187 346.544C236.281 346.544 235.561 346.816 235.027 347.36C234.505 347.893 234.243 348.635 234.243 349.584V354H233.107V345.584H234.195V347.136C234.505 346.624 234.931 346.229 235.475 345.952C236.03 345.664 236.67 345.52 237.395 345.52ZM251.759 345.584V352.976C251.759 354.405 251.407 355.461 250.703 356.144C250.009 356.837 248.959 357.184 247.551 357.184C246.772 357.184 246.031 357.067 245.327 356.832C244.633 356.608 244.068 356.293 243.631 355.888L244.207 355.024C244.612 355.387 245.103 355.669 245.679 355.872C246.265 356.075 246.879 356.176 247.519 356.176C248.585 356.176 249.369 355.925 249.871 355.424C250.372 354.933 250.623 354.165 250.623 353.12V352.048C250.271 352.581 249.807 352.987 249.231 353.264C248.665 353.541 248.036 353.68 247.343 353.68C246.553 353.68 245.833 353.509 245.183 353.168C244.543 352.816 244.036 352.331 243.663 351.712C243.3 351.083 243.119 350.373 243.119 349.584C243.119 348.795 243.3 348.091 243.663 347.472C244.036 346.853 244.543 346.373 245.183 346.032C245.823 345.691 246.543 345.52 247.343 345.52C248.057 345.52 248.703 345.664 249.279 345.952C249.855 346.24 250.319 346.656 250.671 347.2V345.584H251.759ZM247.455 352.672C248.063 352.672 248.612 352.544 249.103 352.288C249.593 352.021 249.972 351.653 250.239 351.184C250.516 350.715 250.655 350.181 250.655 349.584C250.655 348.987 250.516 348.459 250.239 348C249.972 347.531 249.593 347.168 249.103 346.912C248.623 346.645 248.073 346.512 247.455 346.512C246.847 346.512 246.297 346.64 245.807 346.896C245.327 347.152 244.948 347.515 244.671 347.984C244.404 348.453 244.271 348.987 244.271 349.584C244.271 350.181 244.404 350.715 244.671 351.184C244.948 351.653 245.327 352.021 245.807 352.288C246.297 352.544 246.847 352.672 247.455 352.672ZM262.52 345.584V354H261.432V352.464C261.133 352.976 260.722 353.376 260.2 353.664C259.677 353.941 259.08 354.08 258.408 354.08C257.309 354.08 256.44 353.776 255.8 353.168C255.17 352.549 254.856 351.648 254.856 350.464V345.584H255.992V350.352C255.992 351.237 256.21 351.909 256.648 352.368C257.085 352.827 257.709 353.056 258.52 353.056C259.405 353.056 260.104 352.789 260.616 352.256C261.128 351.712 261.384 350.96 261.384 350V345.584H262.52ZM261.736 345.568H261.976C262.328 345.568 262.589 345.472 262.76 345.28C262.941 345.077 263.032 344.816 263.032 344.496C263.032 344.112 262.925 343.771 262.712 343.472L263.464 343.184C263.741 343.568 263.88 344.016 263.88 344.528C263.88 345.115 263.714 345.584 263.384 345.936C263.053 346.277 262.584 346.448 261.976 346.448H261.736V345.568ZM271.514 346.336C272.048 346.72 272.458 347.211 272.746 347.808C273.045 348.395 273.194 349.056 273.194 349.792C273.194 350.613 273.008 351.349 272.634 352C272.272 352.651 271.765 353.163 271.114 353.536C270.464 353.899 269.733 354.08 268.922 354.08C268.112 354.08 267.381 353.899 266.73 353.536C266.08 353.163 265.568 352.651 265.194 352C264.821 351.349 264.634 350.613 264.634 349.792C264.634 348.971 264.821 348.235 265.194 347.584C265.568 346.933 266.08 346.427 266.73 346.064C267.381 345.701 268.112 345.52 268.922 345.52C269.136 345.52 269.344 345.531 269.546 345.552C269.749 345.563 269.893 345.568 269.978 345.568C270.266 345.6 270.576 345.616 270.906 345.616C271.333 345.616 271.653 345.509 271.866 345.296C272.09 345.083 272.202 344.816 272.202 344.496C272.202 344.165 272.096 343.824 271.882 343.472L272.618 343.184C272.906 343.621 273.05 344.069 273.05 344.528C273.05 344.987 272.917 345.376 272.65 345.696C272.384 346.016 272.005 346.229 271.514 346.336ZM268.922 353.072C269.509 353.072 270.037 352.939 270.506 352.672C270.986 352.395 271.36 352.005 271.626 351.504C271.904 351.003 272.042 350.432 272.042 349.792C272.042 349.152 271.909 348.581 271.642 348.08C271.376 347.579 271.002 347.195 270.522 346.928C270.053 346.651 269.52 346.512 268.922 346.512C268.325 346.512 267.786 346.651 267.306 346.928C266.837 347.195 266.464 347.579 266.186 348.08C265.92 348.581 265.786 349.152 265.786 349.792C265.786 350.432 265.92 351.003 266.186 351.504C266.464 352.005 266.837 352.395 267.306 352.672C267.786 352.939 268.325 353.072 268.922 353.072ZM266.25 342.288H267.77L269.962 344.272H268.842L266.25 342.288ZM275.514 345.584H276.65V354H275.514V345.584ZM276.09 343.744C275.855 343.744 275.658 343.664 275.498 343.504C275.338 343.344 275.258 343.152 275.258 342.928C275.258 342.715 275.338 342.528 275.498 342.368C275.658 342.208 275.855 342.128 276.09 342.128C276.324 342.128 276.522 342.208 276.682 342.368C276.842 342.517 276.922 342.699 276.922 342.912C276.922 343.147 276.842 343.344 276.682 343.504C276.522 343.664 276.324 343.744 276.09 343.744ZM288.43 342.8C289.859 342.8 290.979 343.141 291.79 343.824C292.601 344.507 293.006 345.445 293.006 346.64C293.006 347.835 292.601 348.773 291.79 349.456C290.979 350.128 289.859 350.464 288.43 350.464H285.422V354H284.238V342.8H288.43ZM288.398 349.424C289.507 349.424 290.355 349.184 290.942 348.704C291.529 348.213 291.822 347.525 291.822 346.64C291.822 345.733 291.529 345.04 290.942 344.56C290.355 344.069 289.507 343.824 288.398 343.824H285.422V349.424H288.398ZM295.107 345.584H296.243V354H295.107V345.584ZM295.683 343.744C295.449 343.744 295.251 343.664 295.091 343.504C294.931 343.344 294.851 343.152 294.851 342.928C294.851 342.715 294.931 342.528 295.091 342.368C295.251 342.208 295.449 342.128 295.683 342.128C295.918 342.128 296.115 342.208 296.275 342.368C296.435 342.517 296.515 342.699 296.515 342.912C296.515 343.147 296.435 343.344 296.275 343.504C296.115 343.664 295.918 343.744 295.683 343.744ZM311.72 348.4H312.856V352.672C312.333 353.131 311.714 353.483 311 353.728C310.285 353.973 309.533 354.096 308.744 354.096C307.624 354.096 306.616 353.851 305.72 353.36C304.824 352.869 304.12 352.192 303.608 351.328C303.096 350.453 302.84 349.477 302.84 348.4C302.84 347.323 303.096 346.352 303.608 345.488C304.12 344.613 304.824 343.931 305.72 343.44C306.616 342.949 307.629 342.704 308.76 342.704C309.613 342.704 310.397 342.843 311.112 343.12C311.826 343.387 312.429 343.787 312.92 344.32L312.184 345.072C311.298 344.197 310.173 343.76 308.808 343.76C307.901 343.76 307.08 343.963 306.344 344.368C305.618 344.763 305.048 345.317 304.632 346.032C304.216 346.736 304.008 347.525 304.008 348.4C304.008 349.275 304.216 350.064 304.632 350.768C305.048 351.472 305.618 352.027 306.344 352.432C307.069 352.837 307.885 353.04 308.792 353.04C309.944 353.04 310.92 352.752 311.72 352.176V348.4ZM317.055 347.232C317.321 346.667 317.716 346.24 318.239 345.952C318.772 345.664 319.428 345.52 320.207 345.52V346.624L319.935 346.608C319.049 346.608 318.356 346.88 317.855 347.424C317.353 347.968 317.103 348.731 317.103 349.712V354H315.967V345.584H317.055V347.232ZM325.626 354.08C324.815 354.08 324.084 353.899 323.434 353.536C322.783 353.163 322.271 352.651 321.898 352C321.524 351.349 321.338 350.613 321.338 349.792C321.338 348.971 321.524 348.235 321.898 347.584C322.271 346.933 322.783 346.427 323.434 346.064C324.084 345.701 324.815 345.52 325.626 345.52C326.436 345.52 327.167 345.701 327.818 346.064C328.468 346.427 328.975 346.933 329.338 347.584C329.711 348.235 329.898 348.971 329.898 349.792C329.898 350.613 329.711 351.349 329.338 352C328.975 352.651 328.468 353.163 327.818 353.536C327.167 353.899 326.436 354.08 325.626 354.08ZM325.626 353.072C326.223 353.072 326.756 352.939 327.226 352.672C327.706 352.395 328.079 352.005 328.346 351.504C328.612 351.003 328.746 350.432 328.746 349.792C328.746 349.152 328.612 348.581 328.346 348.08C328.079 347.579 327.706 347.195 327.226 346.928C326.756 346.651 326.223 346.512 325.626 346.512C325.028 346.512 324.49 346.651 324.01 346.928C323.54 347.195 323.167 347.579 322.89 348.08C322.623 348.581 322.49 349.152 322.49 349.792C322.49 350.432 322.623 351.003 322.89 351.504C323.167 352.005 323.54 352.395 324.01 352.672C324.49 352.939 325.028 353.072 325.626 353.072ZM339.801 345.584V354H338.713V352.464C338.414 352.976 338.003 353.376 337.481 353.664C336.958 353.941 336.361 354.08 335.689 354.08C334.59 354.08 333.721 353.776 333.081 353.168C332.451 352.549 332.137 351.648 332.137 350.464V345.584H333.273V350.352C333.273 351.237 333.491 351.909 333.929 352.368C334.366 352.827 334.99 353.056 335.801 353.056C336.686 353.056 337.385 352.789 337.897 352.256C338.409 351.712 338.665 350.96 338.665 350V345.584H339.801ZM347.318 345.52C348.108 345.52 348.822 345.701 349.462 346.064C350.102 346.416 350.604 346.917 350.966 347.568C351.329 348.219 351.51 348.96 351.51 349.792C351.51 350.635 351.329 351.381 350.966 352.032C350.604 352.683 350.102 353.189 349.462 353.552C348.833 353.904 348.118 354.08 347.318 354.08C346.636 354.08 346.017 353.941 345.462 353.664C344.918 353.376 344.47 352.96 344.118 352.416V357.104H342.982V345.584H344.07V347.248C344.412 346.693 344.86 346.267 345.414 345.968C345.98 345.669 346.614 345.52 347.318 345.52ZM347.238 353.072C347.825 353.072 348.358 352.939 348.838 352.672C349.318 352.395 349.692 352.005 349.958 351.504C350.236 351.003 350.374 350.432 350.374 349.792C350.374 349.152 350.236 348.587 349.958 348.096C349.692 347.595 349.318 347.205 348.838 346.928C348.358 346.651 347.825 346.512 347.238 346.512C346.641 346.512 346.102 346.651 345.622 346.928C345.153 347.205 344.78 347.595 344.502 348.096C344.236 348.587 344.102 349.152 344.102 349.792C344.102 350.432 344.236 351.003 344.502 351.504C344.78 352.005 345.153 352.395 345.622 352.672C346.102 352.939 346.641 353.072 347.238 353.072ZM353.704 354.08C353.469 354.08 353.266 353.995 353.096 353.824C352.936 353.653 352.856 353.445 352.856 353.2C352.856 352.955 352.936 352.752 353.096 352.592C353.266 352.421 353.469 352.336 353.704 352.336C353.938 352.336 354.141 352.421 354.312 352.592C354.482 352.752 354.568 352.955 354.568 353.2C354.568 353.445 354.482 353.653 354.312 353.824C354.141 353.995 353.938 354.08 353.704 354.08Z" fill="#555555"/>
<path d="M280.372 192.109C278.611 192.208 276.804 192.43 275.035 192.3C273.611 192.193 272.248 191.649 270.801 191.672C267.532 191.726 264.982 192.874 261.421 191.994C260.541 191.779 259.216 190.761 258.596 191.374C257.746 192.208 256.468 196.037 256.246 197.293C256.092 198.135 256.062 200.379 255.763 200.846C254.676 202.562 253.451 198.901 252.18 201.298C251.407 202.745 251.858 204.782 252.854 206.023C253.849 207.264 254.24 206.743 255.396 207.118C256.108 207.355 256.72 209.982 257.103 210.855C257.34 211.399 257.616 211.958 257.899 212.478C258.343 213.306 260.487 216.085 260.434 216.606C260.373 217.226 259.507 217.686 258.91 217.334C258.144 216.889 256.628 214.477 256.161 213.62C255.748 212.869 254.454 209.408 254.278 209.239C254.002 208.979 252.655 208.696 251.973 208.114C249.454 205.992 248.581 200.41 251.958 198.74C250.327 196.267 249.883 193.77 250.434 190.86C250.557 190.21 251.07 189.206 251.093 188.716C251.116 188.257 250.649 187.315 250.564 186.71C250.12 183.486 251.146 180.737 254.033 179.129C254.722 178.746 256.353 178.378 256.736 178.095C256.904 177.972 257.149 177.321 257.402 177.046C260.464 173.715 263.619 172.152 268.236 173.462C269.032 173.684 270.678 174.687 271.214 174.718C271.75 174.748 272.6 174.373 273.228 174.327C277.669 173.983 281.099 176.196 283.947 179.335C284.996 178.868 287.278 177.49 287.255 179.657C287.232 181.824 285.785 185.309 285.862 187.353C285.885 187.874 286.543 188.693 286.734 189.268C287.715 192.147 287.37 195.425 285.854 198.051C290.387 200.632 288.036 209.224 282.791 208.726C282.209 209.745 281.337 213.895 279.775 213.405C278.213 212.915 279.752 210.916 280.081 210.051C280.41 209.186 281 206.329 281.911 206.207C282.5 206.13 282.845 206.643 283.511 206.643C286.084 206.643 287.255 200.632 285.027 200.035C284.392 199.858 282.898 202.462 282.095 200.77C281.796 200.142 281.689 197.515 281.497 196.527C281.199 195.026 280.77 193.579 280.364 192.109H280.372ZM284.828 181.395C282.638 182.261 282.156 180.346 280.9 179.167C279.2 177.551 276.406 176.288 274.024 176.334C273.113 176.357 271.429 177.015 270.801 176.946C270.487 176.916 269.193 176.05 268.672 175.843C265.365 174.511 262.356 174.925 259.791 177.452C259.201 178.034 258.382 179.565 257.968 179.864C257.455 180.239 255.962 180.484 255.166 180.898C252.961 182.054 252.287 183.67 252.532 186.128C252.616 187.001 253.168 187.958 253.145 188.747C253.122 189.536 252.455 190.669 252.348 191.603C252.096 193.732 252.348 196.543 254.14 197.936C254.132 196.007 256.031 190.386 257.578 189.367C259.124 188.349 259.837 189.382 261.207 189.765C264.783 190.776 266.62 189.873 269.982 189.658C272.684 189.482 275.188 190.409 278.067 190.278C278.94 190.24 279.675 189.796 280.54 189.995C282.86 190.554 283.258 195.057 283.618 197.025C283.679 197.354 283.48 197.377 284.009 197.331C285.058 195.042 285.617 192.943 284.958 190.432C284.744 189.597 284.078 188.846 283.902 188.264C283.48 186.901 285.065 181.64 284.82 181.395H284.828Z" fill="#4C73A8"/>
<path d="M252.142 262.469C251.506 262.469 250.993 261.956 250.993 261.32V246.77C250.993 246.135 251.506 245.622 252.142 245.622C252.777 245.622 253.29 246.135 253.29 246.77V261.32C253.29 261.956 252.777 262.469 252.142 262.469Z" fill="#4C73A8"/>
<path d="M263.964 224.195L263.827 224.18C263.827 224.18 261.193 223.766 260.902 223.72C260.672 223.322 263.16 219.784 261.422 219.248C261.277 219.202 261.139 219.187 261.009 219.179C259.233 219.087 259.256 222.694 258.153 223.812C257.801 224.172 256.959 224.593 256.323 225.106C250.09 229.142 242.319 232.113 239.417 239.327C236.99 245.43 238.621 254.665 238.001 261.282C237.962 263.058 239.838 263.763 240.458 261.902C240.933 256.197 240.022 249.895 240.52 244.274C241.408 234.364 251.997 230.895 259.156 226.155L259.194 226.132C259.347 226.025 259.501 225.926 259.654 225.818H259.677L259.7 225.811L263.084 226.324C263.084 226.324 263.107 226.324 263.122 226.324C263.398 226.362 263.643 226.354 263.834 226.324C263.857 226.324 263.873 226.324 263.888 226.316C264.041 226.316 264.186 226.27 264.324 226.201C264.631 226.048 264.853 225.749 264.899 225.389C264.975 224.8 264.562 224.264 263.972 224.187L263.964 224.195Z" fill="#4C73A8"/>
<path d="M313.978 235.146V241.019C313.978 241.486 313.771 241.938 313.419 242.244L293.022 259.888C292.417 260.416 291.506 260.416 290.901 259.888L270.511 242.244C270.151 241.938 269.944 241.486 269.944 241.019V229.211C269.944 228.652 270.243 228.116 270.725 227.825L279.094 222.694C279.355 222.541 279.653 222.457 279.944 222.457C280.22 222.457 280.495 222.526 280.74 222.663L290.227 228.009C291.299 228.614 292.631 228.614 293.695 228.009L303.182 222.663C303.695 222.38 304.331 222.388 304.828 222.694L307.952 224.608L309.323 223.207L305.831 221.063C304.736 220.397 303.366 220.374 302.248 221.002L292.761 226.339C292.271 226.615 291.659 226.615 291.169 226.339L281.682 221.002C280.564 220.366 279.194 220.397 278.099 221.063L269.722 226.194C268.681 226.829 268.03 227.986 268.03 229.211V241.019C268.03 242.045 268.482 243.018 269.255 243.692L289.645 261.335C290.311 261.91 291.138 262.193 291.965 262.193C292.792 262.193 293.619 261.91 294.277 261.335L314.667 243.692C315.448 243.018 315.892 242.045 315.892 241.019V233.76L313.978 235.146Z" fill="#4C73A8"/>
<path d="M280.28 240.835C278.382 240.835 276.835 239.289 276.835 237.389C276.835 235.49 278.382 233.943 280.28 233.943C282.179 233.943 283.726 235.49 283.726 237.389C283.726 239.289 282.179 240.835 280.28 240.835ZM280.28 235.858C279.438 235.858 278.749 236.547 278.749 237.389C278.749 238.232 279.438 238.921 280.28 238.921C281.123 238.921 281.812 238.232 281.812 237.389C281.812 236.547 281.123 235.858 280.28 235.858Z" fill="#4C73A8"/>
<path d="M282.455 239.495L291.965 247.643L315.892 226.469" stroke="#4C73A8" stroke-width="4" stroke-miterlimit="10" stroke-linecap="round"/>
</svg>
