<svg width="19" height="18" viewBox="0 0 19 18" fill="none" xmlns="http://www.w3.org/2000/svg">
<path d="M16.9184 5.77933C16.9332 6.19328 17.2807 6.5169 17.6947 6.50216C18.1086 6.48742 18.4322 6.1399 18.4175 5.72595L16.9184 5.77933ZM13.0248 1.41931V2.16931C13.0332 2.16931 13.0415 2.16917 13.0499 2.16889L13.0248 1.41931ZM6.06114 1.41931L6.03608 2.16889C6.04443 2.16917 6.05278 2.16931 6.06114 2.16931V1.41931ZM0.668444 5.72595C0.653703 6.1399 0.977328 6.48742 1.39128 6.50216C1.80523 6.5169 2.15275 6.19328 2.16749 5.77933L0.668444 5.72595ZM18.418 5.75264C18.418 5.33843 18.0822 5.00264 17.668 5.00264C17.2538 5.00264 16.918 5.33843 16.918 5.75264H18.418ZM17.668 12.2526L18.4175 12.2793C18.4178 12.2704 18.418 12.2615 18.418 12.2526H17.668ZM13.0248 16.586L13.0499 15.8364C13.0415 15.8361 13.0332 15.836 13.0248 15.836V16.586ZM6.06114 16.586V15.836C6.05278 15.836 6.04443 15.8361 6.03608 15.8364L6.06114 16.586ZM1.41797 12.2526H0.667969C0.667969 12.2615 0.668127 12.2704 0.668444 12.2793L1.41797 12.2526ZM2.16797 5.75264C2.16797 5.33843 1.83218 5.00264 1.41797 5.00264C1.00376 5.00264 0.667969 5.33843 0.667969 5.75264H2.16797ZM18.0463 6.40024C18.4039 6.19131 18.5245 5.732 18.3156 5.37434C18.1066 5.01668 17.6473 4.89611 17.2897 5.10504L18.0463 6.40024ZM11.9653 9.08389L11.587 8.43626L11.5808 8.43997L11.9653 9.08389ZM7.12064 9.08389L7.5052 8.43995L7.49894 8.43629L7.12064 9.08389ZM1.79627 5.10504C1.43861 4.89611 0.979297 5.01668 0.770367 5.37434C0.561437 5.732 0.682007 6.19131 1.03967 6.40024L1.79627 5.10504ZM17.668 5.75264L18.4175 5.72595C18.3146 2.83506 15.8909 0.573094 12.9997 0.669724L13.0248 1.41931L13.0499 2.16889C15.1143 2.09989 16.8449 3.71506 16.9184 5.77933L17.668 5.75264ZM13.0248 1.41931V0.669306H6.06114V1.41931V2.16931H13.0248V1.41931ZM6.06114 1.41931L6.08619 0.669724C3.19508 0.573094 0.771386 2.83506 0.668444 5.72595L1.41797 5.75264L2.16749 5.77933C2.241 3.71506 3.97166 2.09989 6.03608 2.16889L6.06114 1.41931ZM17.668 5.75264H16.918V12.2526H17.668H18.418V5.75264H17.668ZM17.668 12.2526L16.9184 12.2259C16.8449 14.2902 15.1143 15.9054 13.0499 15.8364L13.0248 16.586L12.9997 17.3356C15.8909 17.4322 18.3146 15.1702 18.4175 12.2793L17.668 12.2526ZM13.0248 16.586V15.836H6.06114V16.586V17.336H13.0248V16.586ZM6.06114 16.586L6.03608 15.8364C3.97166 15.9054 2.241 14.2902 2.16749 12.2259L1.41797 12.2526L0.668444 12.2793C0.771386 15.1702 3.19508 17.4322 6.08619 17.3356L6.06114 16.586ZM1.41797 12.2526H2.16797V5.75264H1.41797H0.667969V12.2526H1.41797ZM17.668 5.75264L17.2897 5.10504L11.587 8.43629L11.9653 9.08389L12.3436 9.73149L18.0463 6.40024L17.668 5.75264ZM11.9653 9.08389L11.5808 8.43997C10.3256 9.18954 8.76031 9.18954 7.50518 8.43998L7.12064 9.08389L6.73609 9.7278C8.46493 10.7603 10.621 10.7603 12.3498 9.7278L11.9653 9.08389ZM7.12064 9.08389L7.49894 8.43629L1.79627 5.10504L1.41797 5.75264L1.03967 6.40024L6.74233 9.73149L7.12064 9.08389Z" fill="#20446F"/>
</svg>
