<svg width="20" height="20" viewBox="0 0 20 20" fill="none" xmlns="http://www.w3.org/2000/svg">
<path fill-rule="evenodd" clip-rule="evenodd" d="M14.3033 3.37357C15.7055 4.70958 16.4991 6.56178 16.4991 8.49857C16.4991 10.4354 15.7055 12.2876 14.3033 13.6236L8.99956 18.7486L3.69581 13.6236C2.29358 12.2876 1.5 10.4354 1.5 8.49857C1.5 6.56178 2.29358 4.70958 3.69581 3.37357C6.66481 0.542142 11.3343 0.542142 14.3033 3.37357Z" stroke="#20446F" stroke-width="1.5" stroke-linecap="round" stroke-linejoin="round"/>
<path fill-rule="evenodd" clip-rule="evenodd" d="M12 8.05351C11.9891 8.83824 11.6669 9.58651 11.1043 10.1337C10.5417 10.6808 9.78473 10.982 9 10.971C8.21527 10.982 7.45831 10.6808 6.89568 10.1337C6.33306 9.58651 6.01086 8.83824 6 8.05351C6.02331 6.41986 7.36635 5.11432 9 5.13726C10.6337 5.11432 11.9767 6.41986 12 8.05351V8.05351Z" stroke="#20446F" stroke-width="1.5" stroke-linecap="round" stroke-linejoin="round"/>
</svg>
