<svg width="175" height="176" viewBox="0 0 175 176" fill="none" xmlns="http://www.w3.org/2000/svg">
<path d="M96.126 56.1006C97.5146 56.0355 98.8688 55.9975 100.089 56.0918L100.603 56.1406C101.122 56.2003 101.444 56.3493 101.623 56.666C101.635 56.7426 101.633 56.8542 101.597 56.9844C101.554 57.1374 101.484 57.26 101.421 57.3262C101.389 57.3585 101.28 57.4309 101.018 57.499C100.77 57.5633 100.446 57.6095 100.055 57.6396C99.2736 57.7 98.2957 57.6903 97.2715 57.6631C96.2588 57.6361 95.1955 57.5923 94.2871 57.5879C93.3981 57.5836 92.5675 57.6146 92.0439 57.7705L91.9277 57.8057L91.8398 57.8896C90.6085 59.0756 89.5055 60.3836 88.4316 61.6816C87.4872 62.8232 86.5677 63.9542 85.5898 65.0146L85.167 65.4648L85.1631 65.4688C84.993 65.6506 84.7622 65.9113 84.4795 66.2109C84.3473 66.351 84.2203 66.4814 84.1133 66.584C84.0597 66.6353 84.0146 66.6766 83.9785 66.707C83.9514 66.7299 83.9357 66.7405 83.9307 66.7441C83.8503 66.7897 83.6931 66.8437 83.4346 66.8877C83.1836 66.9304 82.8735 66.9584 82.5146 66.9736C81.7965 67.0041 80.9248 66.982 80.0205 66.9443C79.1311 66.9073 78.1847 66.8533 77.3799 66.8242C76.6997 66.7996 76.0694 66.7904 75.5918 66.8262L72.2119 63.5391L72.0693 63.4014L71.8721 63.3984L68.0869 63.3291L68.0781 63.8281L68.0869 63.3281H67.835L67.6855 63.5068L65.1582 66.5088L64.8584 66.8652L65.1924 67.1904C67.6782 69.6007 65.7035 73.4881 62.3477 72.9688L62.0186 72.9043C60.5968 72.5707 59.7881 71.3096 59.707 69.9189C59.626 68.5274 60.2831 67.1505 61.6494 66.6133C61.9182 66.509 62.2527 66.4652 62.6719 66.3984C62.9992 66.3463 63.4036 66.2775 63.748 66.1074L63.8916 66.0273L63.8955 66.0254C64.0858 65.9053 64.2972 65.6709 64.4795 65.4541C64.6786 65.2172 64.9021 64.9278 65.1211 64.6387C65.4625 64.188 65.7817 63.7551 66.0195 63.4639L66.2275 63.2246C66.4033 63.0429 66.6377 62.7796 66.918 62.498C67.0512 62.3642 67.1777 62.2452 67.2842 62.1562C67.3357 62.1132 67.3732 62.0863 67.3975 62.0693H72.6152L75.9463 65.4482L76.0918 65.5957L76.2998 65.5967L82.8096 65.6367L83.0303 65.6377L83.1797 65.4766L91.71 56.2539C93.1004 56.2694 94.6365 56.1703 96.126 56.1006ZM63.8574 67.9414C63.4385 67.7342 62.9392 67.6755 62.3906 67.7969L62.1533 67.8594C61.5844 68.0337 61.2349 68.4606 61.082 68.9404C60.9332 69.4077 60.9643 69.9333 61.1328 70.3916C61.3019 70.8514 61.6271 71.2885 62.1143 71.5312C62.6152 71.7807 63.22 71.7911 63.8662 71.5117L63.8652 71.5107C64.9397 71.0498 65.1628 69.8796 64.8291 69.0195C64.6574 68.5772 64.3304 68.1755 63.8574 67.9414Z" fill="#888888" stroke="#4C73A8"/>
<path d="M56.1904 59.0781C55.3064 59.0396 54.6567 59.3738 54.3184 59.9648C54.0012 60.519 54.0189 61.1958 54.2109 61.752C54.4027 62.3072 54.8064 62.85 55.4004 63.0811C56.0354 63.328 56.7476 63.168 57.4053 62.5752L57.4043 62.5742C58.1526 61.9042 58.1893 61.0137 57.8779 60.3242C57.5844 59.6745 56.9367 59.1079 56.1895 59.0781H56.1904ZM78.7314 47.4805L78.4854 47.5117H78.4844C77.908 47.6162 77.4936 47.946 77.2529 48.3799C77.02 48.8 76.96 49.2949 77.0225 49.749C77.1422 50.6182 77.7871 51.6239 78.9502 51.5742L78.9512 51.5752C79.6613 51.5448 80.2083 51.2568 80.5488 50.7988C80.8802 50.3529 80.9781 49.7977 80.9043 49.2891C80.8305 48.7807 80.5806 48.2781 80.1631 47.9277C79.788 47.6131 79.2964 47.4389 78.7314 47.4805ZM76.1602 51.9746L76.1582 51.9531C76.1075 51.3786 75.9102 50.8536 75.7783 50.4297C75.6574 50.0409 75.5733 49.693 75.5889 49.3154L75.6016 49.1514V49.1504C75.8848 46.6784 78.6532 45.3953 80.7822 46.751V46.75C81.9994 47.5262 82.4267 48.9209 82.1611 50.2139C81.9124 51.4246 81.0705 52.476 79.7725 52.7881L79.5068 52.8408H79.5049C79.2181 52.8867 78.9171 52.8459 78.5459 52.7998C78.2681 52.7653 77.8814 52.7144 77.5234 52.8115L77.3721 52.8623C77.0875 52.9781 76.8033 53.1911 76.5479 53.4043C76.2867 53.6222 76.0029 53.8871 75.7373 54.126C75.4631 54.3726 75.1974 54.6013 74.9414 54.7822C74.7005 54.9525 74.496 55.0574 74.3281 55.1045L65.3057 55.2725L65.1523 55.2754L65.0273 55.3633L59.5771 59.1885L59.4492 59.2783L59.3945 59.4258L59.2461 59.832L59.1846 60L59.2441 60.1699C59.5206 60.954 59.4013 61.886 58.9756 62.6934C58.5762 63.4506 57.9371 64.0421 57.2021 64.2822L57.0547 64.3252C55.0299 64.8444 53.516 63.7523 52.9463 62.2949C52.395 60.8843 52.7414 59.1739 54.4277 58.25L54.5957 58.1631C55.3745 57.7806 55.8435 57.7306 56.2881 57.792C56.5283 57.8252 56.7771 57.8937 57.0889 57.9883C57.3934 58.0806 57.7573 58.1976 58.1846 58.3076L58.4072 58.3652L58.5957 58.2334L64.752 53.9209C65.9918 53.7369 67.503 53.8328 69.0742 53.9326C70.5549 54.0267 72.0982 54.1246 73.3799 53.9287L73.6328 53.8857L73.6348 53.8848C73.9021 53.8329 74.1399 53.6962 74.334 53.5605C74.531 53.4229 74.726 53.2548 74.8994 53.1055C75.0812 52.949 75.2441 52.8098 75.4033 52.6963C75.5635 52.5821 75.6896 52.5165 75.79 52.4893L76.1602 52.3896V51.9746Z" fill="#888888" stroke="#4C73A8"/>
<path d="M65.6113 78.1509C65.7774 77.9326 66.0863 77.8053 66.4746 78.0054L81.5986 90.8071L81.7422 90.9292L81.9307 90.9253L88.124 90.8062L88.3037 90.8032L88.4404 90.686L91.7305 87.8618L91.8135 87.7896L91.8594 87.689C92.0747 87.215 91.93 86.7859 91.8115 86.4956C91.7105 86.2481 91.6268 86.0831 91.5791 85.9136L91.5439 85.7388C91.1578 82.5034 94.75 80.6537 97.0557 82.6206L97.1855 82.7437C99.2967 84.7266 97.8763 88.4452 94.9629 88.5679L94.8301 88.5659C94.6982 88.5555 94.5662 88.5226 94.4082 88.479C94.2181 88.4266 93.9396 88.3403 93.6436 88.3403C93.3926 88.3404 93.1554 88.4488 92.9707 88.5552C92.7725 88.6693 92.5634 88.824 92.3545 88.9956C91.9369 89.3386 91.465 89.7938 91.0039 90.2427C90.535 90.6991 90.0738 91.1513 89.6562 91.5142C89.2626 91.8563 88.9659 92.064 88.7754 92.145L81.2012 92.1841L65.6953 79.1167C65.3874 78.7456 65.4407 78.3753 65.6113 78.1509ZM96.0889 83.6079C95.4283 83.0977 94.729 83.015 94.1279 83.269C93.5586 83.5097 93.1519 84.0207 92.9561 84.5591C92.7609 85.0956 92.7438 85.7535 93.0908 86.2886C93.4535 86.8476 94.1229 87.1372 95.0127 87.1001L95.0117 87.0991C95.1846 87.0926 95.4158 87.0608 95.6328 87.0044C95.802 86.9604 96.0422 86.8823 96.2295 86.7407L96.3066 86.6763L96.3164 86.6665C96.7097 86.273 96.8121 85.6302 96.7773 85.1138C96.7444 84.6247 96.5746 84.0408 96.1719 83.6772L96.0889 83.6079Z" fill="#888888" stroke="#4C73A8"/>
<path d="M124.388 62.0288C125.402 61.6487 126.584 61.7913 127.419 62.6265L127.55 62.7573C128.689 64.0626 128.333 66.2644 126.825 67.1323L126.671 67.2144C126.384 67.354 125.965 67.4072 125.512 67.436C125.309 67.4489 125.073 67.4579 124.899 67.4731C124.808 67.4811 124.712 67.4931 124.623 67.5112C124.564 67.5233 124.48 67.5428 124.394 67.5835L124.318 67.6255C123.902 67.8836 123.479 68.268 123.067 68.6909C122.653 69.1171 122.227 69.6071 121.81 70.0903C121.001 71.0259 120.236 71.9085 119.556 72.4263L103.629 72.5845L103.427 72.5864L103.283 72.7271L97.7637 78.1479C97.5769 78.2158 97.3345 78.1747 97.0938 78.0103L97.1631 76.9722L102.771 71.3911L118.661 71.2358L118.861 71.2339L119.006 71.0933L122.899 67.2876L122.968 67.2212L123.007 67.1353C123.135 66.8499 123.11 66.551 123.062 66.3179C123.012 66.0811 122.921 65.8328 122.839 65.6138C122.681 65.1898 122.553 64.8458 122.535 64.5464L122.534 64.4204C122.596 63.2864 123.372 62.4095 124.388 62.0288ZM125.354 63.1509C124.98 63.1669 124.661 63.2995 124.417 63.5229C124.147 63.7699 124.002 64.0961 123.943 64.4067C123.886 64.7161 123.907 65.0449 124.01 65.3296C124.098 65.5724 124.267 65.837 124.549 65.9819L124.677 66.0356L124.681 66.0366C125.248 66.2268 125.765 66.2085 126.179 65.978C126.589 65.7492 126.816 65.3556 126.889 64.9604C126.96 64.5698 126.888 64.1417 126.661 63.7944C126.455 63.4787 126.127 63.2426 125.705 63.1714L125.519 63.1509H125.354Z" fill="#888888" stroke="#4C73A8"/>
<path d="M111.714 80.7573C111.8 80.7589 111.913 80.7694 112.033 80.7954C112.122 80.8146 112.201 80.8391 112.262 80.8647C112.291 80.8769 112.31 80.8884 112.323 80.896L112.329 80.9019C112.439 81.0099 112.479 81.1656 112.388 81.4253C112.316 81.6268 112.18 81.832 112.027 81.9927L111.872 82.1372L111.863 82.144L93.4814 97.5327L93.2168 97.7554L93.3311 98.0815C93.8702 99.6254 93.6943 101.052 93.0264 102.005C92.4135 102.88 91.3282 103.439 89.7773 103.281L89.4609 103.24C88.2171 103.043 87.3712 102.024 87.1201 100.776C86.8847 99.6063 87.1971 98.3402 88.1201 97.5327L88.3135 97.3774V97.3765C88.9331 96.9161 89.4661 96.7896 90.0371 96.7778C90.3359 96.7717 90.6476 96.7969 91.0039 96.8306C91.1786 96.8471 91.364 96.8651 91.5586 96.8813L92.1689 96.9204L92.3604 96.9272L92.5078 96.8042L111.714 80.7573ZM91.6982 98.5435C91.2926 98.1606 90.7246 97.9796 90.0469 98.061L89.75 98.1118L89.749 98.1128C88.7955 98.3271 88.3247 99.1532 88.2852 99.9272C88.2485 100.646 88.5787 101.457 89.3584 101.805L89.5205 101.869L89.5234 101.87C90.3201 102.133 91.0167 102.034 91.5283 101.649C92.023 101.276 92.268 100.692 92.2979 100.131C92.3275 99.5708 92.1453 98.9657 91.6982 98.5435Z" fill="#888888" stroke="#4C73A8"/>
<path d="M97.8203 47.7261C99.3264 45.3648 102.965 45.8657 103.695 48.5327L103.922 49.3628L104.381 48.9019L106.643 49.0366L113.181 55.1187L113.33 55.2573L113.534 55.2524L117.706 55.1431L117.846 55.1392L117.962 55.0649C118.281 54.861 118.707 54.4459 119.144 53.9897C119.593 53.5198 120.101 52.9535 120.594 52.4116C121.091 51.8649 121.571 51.3424 121.978 50.9429C122.181 50.7428 122.358 50.5818 122.503 50.4663C122.575 50.4087 122.634 50.3673 122.68 50.3394C122.707 50.3224 122.724 50.3128 122.732 50.3091C122.985 50.2411 123.267 50.2946 123.603 50.4292C123.606 50.4347 123.61 50.4417 123.615 50.4497C123.641 50.4913 123.668 50.5505 123.692 50.6216C123.716 50.6917 123.733 50.7636 123.742 50.8276C123.745 50.8513 123.744 50.8722 123.745 50.8892C123.742 50.893 123.74 50.8976 123.737 50.9019C123.689 50.9717 123.615 51.0683 123.52 51.188C123.33 51.4256 123.074 51.7299 122.804 52.0435C122.534 52.3567 122.253 52.6758 122.018 52.9409L121.505 53.5142C121.263 53.7804 120.61 54.4729 119.959 55.1226C119.633 55.4476 119.313 55.7579 119.047 55.9966C118.914 56.1161 118.799 56.2134 118.707 56.2847C118.616 56.3556 118.574 56.379 118.57 56.3813C118.292 56.4922 117.9 56.5556 117.409 56.5786C116.921 56.6015 116.372 56.5838 115.799 56.5542C114.751 56.5001 113.574 56.4027 112.7 56.4995C112.573 56.4366 112.407 56.3336 112.205 56.1802C111.953 55.9887 111.667 55.74 111.356 55.4497C110.735 54.8689 110.04 54.1436 109.354 53.4165C108.672 52.6951 107.995 51.9682 107.425 51.4058C107.14 51.1246 106.872 50.8756 106.637 50.6841C106.447 50.5294 106.232 50.3727 106.022 50.2896L105.933 50.2593C105.409 50.1064 104.981 50.0417 104.624 50.0923C104.23 50.1481 103.96 50.3382 103.767 50.5923C103.606 50.8039 103.487 51.0869 103.397 51.27C103.321 51.4274 103.24 51.576 103.134 51.7173L103.018 51.856L103.017 51.8569C101.716 53.268 99.8774 53.1405 98.5977 52.1714C97.96 51.6885 97.4888 51.0113 97.3135 50.2495C97.1403 49.497 97.2481 48.6278 97.8213 47.7271L97.8203 47.7261ZM100.918 47.5122C99.8553 47.3172 99.1097 47.938 98.793 48.686C98.4926 49.3955 98.5224 50.3488 99.1074 50.9634V50.9644C99.6679 51.5557 100.337 51.7296 100.961 51.5591C101.549 51.3985 102.022 50.9535 102.305 50.4536C102.587 49.9549 102.725 49.3165 102.522 48.728C102.307 48.1046 101.754 47.6633 100.917 47.5122H100.918Z" fill="#888888" stroke="#4C73A8"/>
<path d="M117.037 62.2573C117.493 62.4253 117.598 62.6382 117.613 62.7554C117.63 62.8847 117.572 63.1172 117.282 63.3989L99.3379 63.5562L99.1357 63.5581L98.9922 63.6997L88.248 74.2349C88.195 74.2476 88.116 74.2657 88.0049 74.2817C87.8277 74.3074 87.6034 74.33 87.3428 74.3491C86.8221 74.3873 86.1789 74.41 85.5225 74.4204C84.2014 74.4414 82.8768 74.4114 82.4141 74.3608H82.415C81.7668 74.2849 81.5826 73.9537 81.5527 73.7153C81.5193 73.4482 81.6464 73.2327 81.8047 73.146L81.874 73.1177L81.875 73.1167C82.14 73.038 82.5306 73.0093 83.0283 73.0171C83.5181 73.0247 84.0612 73.0665 84.6221 73.106C85.1739 73.1448 85.7435 73.181 86.252 73.1724C86.7472 73.164 87.2539 73.1127 87.6475 72.9341L87.7266 72.8989L87.7891 72.8384L98.6621 62.2964L117.037 62.2573Z" fill="#888888" stroke="#4C73A8"/>
<path d="M70.5146 71.3081C70.7146 71.2763 70.8868 71.3551 71.1885 71.6089L81.4561 80.9644L81.5137 81.0171L81.5859 81.0503C82.0399 81.2563 82.6738 81.311 83.3145 81.3169C83.9748 81.323 84.7312 81.2757 85.4746 81.2251C86.2265 81.1739 86.9661 81.1201 87.624 81.1089C88.2093 81.0989 88.686 81.1238 89.0254 81.1978L89.1631 81.2329C89.3972 81.302 89.5463 81.5477 89.4941 81.8159C89.4542 82.0211 89.2511 82.3588 88.5547 82.4585L88.4082 82.4751H88.4062C87.8299 82.527 86.1337 82.5624 84.4707 82.5327C83.6425 82.5179 82.8342 82.4865 82.1885 82.4351C81.8653 82.4093 81.5902 82.379 81.377 82.3442C81.2703 82.3269 81.1842 82.3094 81.1191 82.2925C81.095 82.2862 81.0754 82.28 81.0596 82.2749L70.1455 72.5513C69.8795 72.2933 69.8269 71.996 69.8887 71.7749C69.9401 71.5909 70.0836 71.4134 70.3525 71.3315L70.3564 71.3335L70.5146 71.3081Z" fill="#888888" stroke="#4C73A8"/>
<path d="M68.1689 41.4863C68.195 41.4945 68.2227 41.5058 68.2783 41.5283C68.3291 41.5489 68.3988 41.5764 68.4805 41.6025V41.6035L68.4893 41.6055C68.4796 41.6026 68.4925 41.6068 68.5439 41.6299C68.5885 41.6499 68.6478 41.6779 68.7207 41.7139C68.8663 41.7857 69.0566 41.8839 69.2783 42.001C69.7214 42.2349 70.28 42.5395 70.8359 42.8486C71.3919 43.1578 71.943 43.4699 72.3701 43.7197C72.5838 43.8447 72.7638 43.9529 72.8975 44.0361L73.0889 44.1592L73.0918 44.1611C73.349 44.3964 73.4078 44.7106 73.334 44.9727C73.2685 45.2049 73.1113 45.3668 72.9082 45.4189L72.8184 45.4346L72.8154 45.4355C72.7788 45.439 72.6994 45.4336 72.5635 45.3926C72.4313 45.3526 72.2727 45.2867 72.0889 45.1963C71.7195 45.0146 71.2958 44.7577 70.8438 44.4775C70.4007 44.2029 69.9292 43.9052 69.4941 43.668C69.0711 43.4373 68.6199 43.2275 68.2197 43.1689L68.1143 43.1533L68.0127 43.1816C67.5558 43.3096 66.927 43.6794 66.2803 44.0986C65.6141 44.5305 64.8546 45.0666 64.1221 45.5742C63.3825 46.0867 62.6697 46.5703 62.0752 46.9189C61.7776 47.0935 61.5221 47.227 61.3164 47.3115C61.2141 47.3535 61.1325 47.38 61.0703 47.3945C61.0424 47.4011 61.0216 47.4017 61.0078 47.4033C60.6834 47.3002 60.4995 47.093 60.4395 46.8994C60.3834 46.7185 60.4104 46.4748 60.6699 46.2275L68.1338 41.4785C68.1471 41.4805 68.158 41.4829 68.1689 41.4863Z" fill="#888888" stroke="#4C73A8"/>
<path d="M111.24 40.3359C111.57 40.5635 112.159 40.928 112.849 41.3486C113.617 41.8175 114.532 42.371 115.418 42.9268C116.306 43.4835 117.155 44.0362 117.795 44.502C118.116 44.7356 118.374 44.9391 118.554 45.1055C118.644 45.1888 118.706 45.2549 118.745 45.3037C118.758 45.3199 118.766 45.3323 118.771 45.3398C118.783 45.4014 118.788 45.5328 118.755 45.6924C118.739 45.7718 118.717 45.8425 118.692 45.8975C118.681 45.9224 118.67 45.9398 118.662 45.9521L118.648 45.9658C118.621 45.993 118.481 46.0692 118.23 46.0947C117.993 46.1189 117.807 46.0813 117.731 46.042L111.274 41.9238L111.172 41.8594L111.052 41.8477L110.973 41.8457C110.898 41.8491 110.838 41.8663 110.809 41.875C110.757 41.8901 110.708 41.91 110.665 41.9287C110.579 41.9663 110.48 42.0172 110.378 42.0732C110.172 42.186 109.905 42.3446 109.613 42.5166C109.019 42.8665 108.294 43.2894 107.604 43.6123C107.259 43.7735 106.934 43.9043 106.646 43.9883C106.352 44.0743 106.135 44.0997 105.992 44.084C105.868 44.0703 105.847 44.0344 105.836 44.0146C105.814 43.977 105.78 43.8809 105.788 43.6836L105.812 43.4512V43.4492C105.833 43.3041 105.93 43.1597 106.161 42.9854C106.274 42.9 106.404 42.8192 106.548 42.7334L106.988 42.4668H106.989C107.295 42.2662 108.081 41.7859 108.865 41.332C109.256 41.1057 109.642 40.8883 109.964 40.7178C110.299 40.54 110.524 40.4344 110.616 40.4053C110.886 40.3236 111.067 40.2997 111.24 40.3359Z" fill="#888888" stroke="#4C73A8"/>
<path d="M120.315 119.049C122.386 118.203 124.473 117.878 126.725 118.806L127.178 119.008C127.698 119.262 128.845 120.021 129.681 120.881C130.101 121.315 130.402 121.732 130.528 122.088C130.644 122.414 130.603 122.634 130.416 122.827L96.5547 143.155C94.9311 143.641 93.685 143.568 92.1143 143.208L91.4111 143.036H91.4102C86.9824 141.892 82.5434 140.387 78.082 138.864C73.6269 137.343 69.1484 135.803 64.6699 134.604L64.6084 134.587L64.5439 134.586L57.2412 134.527L56.8652 134.524L56.7578 134.884C56.6001 135.413 56.2694 135.962 55.8291 136.402C55.4434 136.787 54.9951 137.07 54.5352 137.196L54.3369 137.24C52.9018 137.487 51.8861 137.118 51.2275 136.506C50.5563 135.882 50.2024 134.955 50.2012 134.001C50.2001 133.048 50.5519 132.115 51.2285 131.481C51.8518 130.897 52.7956 130.524 54.1162 130.669L54.3848 130.706C54.9179 130.789 55.3823 131.117 55.8291 131.601C56.2861 132.096 56.6507 132.663 57.0547 133.206L57.2021 133.404L57.4502 133.407L65.085 133.485L92.542 142.163L92.5791 142.174L92.6172 142.18C94.0259 142.395 95.5691 142.408 96.9678 141.752L96.9922 141.741L97.0156 141.727L128.566 122.502L129.044 122.212L128.702 121.77C127.636 120.39 126.416 119.675 125.102 119.452C123.805 119.231 122.472 119.498 121.184 119.971C119.895 120.445 118.609 121.143 117.399 121.825C116.175 122.515 115.04 123.182 114.004 123.64L113.61 123.814L113.724 124.228C114.208 126.011 113.195 127.415 111.754 127.994C110.353 128.557 108.67 128.289 107.719 126.848L107.63 126.706C107.08 125.783 106.973 124.913 107.138 124.172C107.304 123.425 107.753 122.772 108.378 122.304C109.627 121.369 111.533 121.202 113.101 122.527L113.351 122.739L113.645 122.593C114.772 122.035 115.896 121.368 116.997 120.739C118.108 120.105 119.204 119.504 120.315 119.049ZM53.21 131.817L52.9395 131.863L52.9385 131.864C51.619 132.153 51.1706 133.444 51.3828 134.459C51.4918 134.981 51.7781 135.489 52.2559 135.823C52.6816 136.121 53.2218 136.255 53.8418 136.177L54.1123 136.13H54.1143C55.4336 135.841 55.8811 134.549 55.6689 133.534C55.5599 133.012 55.2744 132.505 54.7969 132.17C54.371 131.873 53.8302 131.739 53.21 131.817ZM110.808 122.708C110.228 122.658 109.646 122.859 109.19 123.192C108.734 123.525 108.359 124.023 108.245 124.618C108.142 125.156 108.264 125.722 108.65 126.245L108.832 126.465V126.466C109.669 127.382 110.908 127.29 111.716 126.711C112.126 126.418 112.454 125.984 112.589 125.455C112.725 124.918 112.653 124.321 112.324 123.727C111.97 123.086 111.409 122.761 110.808 122.708Z" fill="#888888" stroke="#4C73A8"/>
<path d="M65.1797 116.771C72.6148 114.185 80.7867 112.803 86.4902 118.864L86.7598 119.158L86.7617 119.16C86.8728 119.283 87.0611 119.545 87.3037 119.903C87.5407 120.254 87.8064 120.662 88.0732 121.064C88.3368 121.462 88.6008 121.855 88.8232 122.156C88.9338 122.306 89.0417 122.443 89.1387 122.55C89.1869 122.603 89.2403 122.657 89.2959 122.704C89.33 122.733 89.3892 122.78 89.4678 122.817L89.5527 122.851L89.6035 122.866L89.6572 122.871C91.4963 123.028 93.4179 122.957 95.2969 122.888C96.9518 122.827 98.5738 122.768 100.124 122.854L100.784 122.9C102.27 123.029 103.336 123.625 104.033 124.432C104.735 125.244 105.088 126.302 105.088 127.387C105.087 129.547 103.692 131.744 100.99 132.228L88.1123 132.258H87.7285L87.624 132.618C86.8205 135.384 83.2467 136 81.6572 133.698L81.5098 133.467V133.466C80.9579 132.524 80.8745 131.645 81.0674 130.897C81.2626 130.141 81.7505 129.482 82.3994 129.019C83.6665 128.113 85.4316 128.008 86.666 129.228L86.7842 129.351C86.8509 129.423 86.9203 129.531 87.001 129.685C87.0404 129.76 87.079 129.839 87.1211 129.925C87.1621 130.009 87.2071 130.1 87.2539 130.189C87.4203 130.507 87.7121 131.011 88.2891 131.119L88.335 131.127H100.87L100.94 131.106C102.927 130.516 104.002 128.884 103.957 127.292C103.934 126.497 103.629 125.72 103.028 125.117C102.464 124.551 101.664 124.164 100.65 124.037L100.445 124.016C98.4959 123.844 96.4393 123.922 94.416 123.997C92.4383 124.071 90.491 124.139 88.6396 123.987C88.2067 123.582 87.898 123.085 87.5791 122.507C87.2841 121.972 86.9724 121.354 86.543 120.77L86.3516 120.521C83.466 116.966 79.8365 115.725 76.0322 115.711C72.7277 115.699 69.2828 116.612 66.0557 117.715L64.6865 118.196L64.6855 118.197C64.2134 118.369 63.5839 118.699 63.0342 118.977C62.7504 119.12 62.4814 119.252 62.2441 119.357C62.0609 119.439 61.9142 119.496 61.8037 119.529L61.7051 119.554L61.7031 119.555C61.1067 119.678 60.381 119.659 59.5801 119.616C58.8086 119.575 57.9586 119.512 57.2168 119.586L56.9316 119.615L56.8115 119.875C55.8253 122.02 53.8389 122.488 52.2891 121.895C51.5081 121.595 50.8476 121.029 50.4775 120.272C50.111 119.523 50.0117 118.55 50.415 117.396C50.7841 116.347 51.7201 115.686 52.8154 115.491C53.8463 115.308 54.9552 115.552 55.7529 116.222L55.9082 116.361C56.1425 116.588 56.279 116.854 56.4365 117.192C56.586 117.513 56.766 117.931 57.0957 118.291L57.2529 118.463L57.4863 118.453C58.0053 118.43 58.59 118.472 59.2227 118.504C59.7585 118.531 60.3274 118.549 60.8535 118.495L61.0762 118.468L61.0811 118.467C61.3561 118.423 61.6936 118.304 62.0312 118.168C62.3778 118.028 62.7631 117.853 63.1455 117.675C63.7336 117.401 64.3027 117.126 64.7607 116.934L65.1787 116.771H65.1797ZM85.9072 130.093C85.4684 129.636 84.8321 129.393 84.0654 129.506L83.9111 129.533H83.9092C82.8668 129.75 82.2672 130.648 82.1562 131.517C82.0513 132.338 82.3735 133.273 83.291 133.668L83.4824 133.739L83.4834 133.74C84.3977 134.03 85.1729 133.931 85.7334 133.509C86.28 133.097 86.5267 132.449 86.5449 131.832C86.563 131.216 86.3569 130.561 85.9072 130.093ZM54.6094 116.852C54.1506 116.589 53.5883 116.501 52.958 116.632L52.6836 116.701C52.0736 116.883 51.6743 117.326 51.4746 117.836C51.2785 118.337 51.268 118.913 51.417 119.429C51.5665 119.946 51.8887 120.443 52.3994 120.745C52.8557 121.015 53.4159 121.1 54.043 120.961L54.3154 120.888C55.5812 120.486 55.9126 119.147 55.6133 118.15C55.4581 117.634 55.1255 117.147 54.6094 116.852Z" fill="#888888" stroke="#4C73A8"/>
<path d="M43.166 114.842C43.7408 114.843 44.3171 114.853 44.7842 114.87C45.273 114.888 45.5904 114.914 45.6865 114.935V114.934C46.1532 115.039 46.5504 115.488 46.8545 116.21C47.1126 116.823 47.2585 117.531 47.3223 118.097L47.3447 118.33C47.6958 122.793 47.7174 130.382 47.4102 135.235L47.3447 136.168V136.169C47.2924 136.853 47.1534 137.659 46.8564 138.338C46.5778 138.975 46.1871 139.445 45.6514 139.655L45.542 139.693C45.3898 139.739 45.0509 139.787 44.5742 139.82C44.109 139.853 43.5548 139.868 43.0059 139.86C42.4553 139.852 41.9207 139.822 41.4922 139.766C41.2776 139.737 41.0997 139.704 40.9639 139.667C40.8899 139.647 40.8398 139.629 40.8086 139.616L40.7646 139.595C40.5406 139.421 40.4729 139.144 40.5439 138.887C40.6166 138.624 40.7956 138.49 40.9863 138.49H45.7197L45.7979 138.084C45.9516 137.281 46.1286 136.424 46.2119 135.559L46.2412 135.188V135.187C46.5023 130.87 46.5633 124.536 46.2988 119.983L46.2412 119.098C46.2088 118.619 46.1148 118.151 46.0264 117.717C45.9583 117.383 45.8932 117.071 45.8496 116.766L45.8145 116.462L45.7783 116.068L45.3867 116.012L45.1084 115.981C44.4424 115.927 43.6739 115.987 42.9805 116.034C42.1459 116.091 41.4191 116.129 40.8916 116.018L40.8613 116.011C40.6751 115.96 40.5204 115.771 40.502 115.462C40.4844 115.167 40.5985 115.004 40.7031 114.945L40.7471 114.927L40.75 114.926C40.7473 114.927 40.7642 114.922 40.8125 114.915C40.8583 114.909 40.9189 114.903 40.9941 114.896C41.1445 114.884 41.3397 114.874 41.5674 114.865C42.0219 114.849 42.5912 114.841 43.166 114.842Z" fill="#888888" stroke="#4C73A8"/>
<path d="M132.576 44.5753L116.503 34.7354C114.968 33.794 113.055 33.7643 111.489 34.6462L93.286 44.9023C91.7798 45.7545 89.9367 45.7545 88.4205 44.9023L70.2172 34.6363C68.6515 33.7544 66.7291 33.794 65.2031 34.7255L49.1203 44.5753C47.6537 45.477 46.752 47.0724 46.752 48.7966V71.4592C46.752 72.896 47.3762 74.2635 48.4663 75.2049L69.3749 93.2893L87.608 109.065C89.4709 110.68 92.2257 110.68 94.0886 109.065L95.2579 108.054L133.23 75.195C134.32 74.2536 134.945 72.8861 134.945 71.4492V48.7867C134.945 47.0625 134.053 45.4572 132.576 44.5654V44.5753Z" stroke="#4C73A8" stroke-width="4" stroke-miterlimit="10"/>
<circle cx="87.5" cy="88.5" r="87" stroke="#C48C5E" stroke-opacity="0.1"/>
<path d="M92.4902 0C113.721 1.15971 134.616 9.84694 150.834 26.0645L148.713 28.1855C114.951 -5.57597 60.2109 -5.57597 26.4492 28.1855L24.3281 26.0645C40.5457 9.84694 61.4416 1.15971 82.6719 0H92.4902Z" fill="#C48C5E"/>
</svg>
