<svg width="177" height="177" viewBox="0 0 177 177" fill="none" xmlns="http://www.w3.org/2000/svg">
<circle cx="87.5" cy="87.5" r="87" stroke="#C48C5E" stroke-opacity="0.1"/>
<path d="M174.953 86.9324C174.953 135.507 135.575 174.886 86.9998 174.886" stroke="#C48C5E" stroke-width="3" stroke-miterlimit="10"/>
<path d="M95.7887 55.355C93.6363 55.4767 91.4278 55.7481 89.266 55.589C87.5254 55.458 85.8597 54.7935 84.091 54.8215C80.095 54.8871 76.9788 56.291 72.6272 55.2146C71.551 54.9526 69.9321 53.7077 69.174 54.4565C68.1353 55.4767 66.5725 60.1565 66.3011 61.6915C66.1139 62.721 66.0765 65.4634 65.7115 66.0343C64.3827 68.1308 62.8854 63.657 61.3319 66.5865C60.3867 68.3555 60.9389 70.8451 62.1554 72.3614C63.372 73.8776 63.8492 73.2412 65.2623 73.6998C66.1326 73.9899 66.8813 77.2003 67.3492 78.2672C67.6393 78.9318 67.9762 79.615 68.3225 80.2515C68.8652 81.2623 71.4855 84.6598 71.42 85.2963C71.3451 86.0544 70.2877 86.616 69.5577 86.1854C68.6219 85.6426 66.769 82.6943 66.1981 81.646C65.6928 80.7288 64.1113 76.4983 63.896 76.2924C63.5591 75.9741 61.9121 75.6278 61.0792 74.9165C58.0004 72.3239 56.9336 65.5008 61.0605 63.4604C59.0672 60.4373 58.5245 57.3861 59.1982 53.8294C59.348 53.0339 59.975 51.8078 60.003 51.2087C60.0311 50.6472 59.4603 49.4959 59.3573 48.7565C58.8146 44.8162 60.0686 41.4561 63.5966 39.4906C64.4388 39.0226 66.4321 38.5733 66.9 38.227C67.1059 38.0773 67.4054 37.2817 67.7142 36.9448C71.4574 32.8734 75.313 30.964 80.956 32.5645C81.9292 32.8359 83.9412 34.062 84.5963 34.0995C85.2514 34.1369 86.2901 33.6783 87.0575 33.6221C92.4852 33.2009 96.6777 35.9059 100.159 39.7433C101.441 39.1723 104.23 37.4876 104.202 40.1364C104.174 42.7851 102.405 47.0437 102.498 49.5427C102.527 50.1792 103.331 51.1807 103.565 51.8826C104.763 55.4018 104.342 59.4077 102.489 62.6181C108.029 65.7722 105.156 76.2737 98.7458 75.6653C98.0346 76.9101 96.9678 81.983 95.0587 81.384C93.1497 80.785 95.0307 78.3421 95.4331 77.2845C95.8355 76.2269 96.556 72.7357 97.6697 72.586C98.3902 72.4924 98.8114 73.1195 99.6255 73.1195C102.77 73.1195 104.202 65.7722 101.478 65.0422C100.702 64.8269 98.8769 68.0092 97.8943 65.9407C97.5293 65.1732 97.3983 61.9629 97.1643 60.7555C96.7993 58.921 96.2753 57.1521 95.7793 55.355H95.7887ZM101.235 42.261C98.5587 43.3186 97.9691 40.9787 96.4344 39.5374C94.3569 37.5625 90.9411 36.0182 88.0307 36.0743C86.9171 36.1024 84.8583 36.9073 84.091 36.8231C83.7073 36.7857 82.1257 35.728 81.4894 35.4753C77.4467 33.8468 73.7689 34.3522 70.6339 37.4408C69.9133 38.1522 68.912 40.0241 68.4067 40.3891C67.7797 40.8477 65.9548 41.1472 64.9816 41.6526C62.2864 43.0659 61.4629 45.0408 61.7624 48.0452C61.8653 49.1122 62.5391 50.2821 62.511 51.2462C62.483 52.2102 61.6688 53.5954 61.5378 54.7373C61.229 57.3393 61.5378 60.7742 63.7276 62.4777C63.7182 60.119 66.0391 53.2491 67.9294 52.0043C69.8198 50.7595 70.6901 52.023 72.3652 52.491C76.7354 53.7265 78.9814 52.622 83.0896 52.36C86.3931 52.1447 89.4532 53.2772 92.9719 53.1181C94.0387 53.0713 94.9371 52.5284 95.9945 52.7718C98.8301 53.455 99.3167 58.9585 99.7565 61.3639C99.8314 61.7663 99.5881 61.7944 100.234 61.7383C101.516 58.9397 102.199 56.3752 101.394 53.3053C101.132 52.2851 100.318 51.3679 100.103 50.6565C99.5881 48.9905 101.525 42.5605 101.226 42.261H101.235Z" fill="#4C73A8"/>
<path d="M61.2846 141.351C60.5079 141.351 59.8809 140.724 59.8809 139.947V122.164C59.8809 121.387 60.5079 120.76 61.2846 120.76C62.0613 120.76 62.6883 121.387 62.6883 122.164V139.947C62.6883 140.724 62.0613 141.351 61.2846 141.351Z" fill="#4C73A8"/>
<path d="M75.7342 94.5716L75.5658 94.5529C75.5658 94.5529 72.3466 94.0475 71.991 93.9913C71.7102 93.5046 74.7516 89.1805 72.6273 88.5253C72.4495 88.4692 72.2811 88.4504 72.122 88.4411C69.9509 88.3288 69.979 92.7371 68.6314 94.1036C68.2009 94.5435 67.1715 95.0583 66.3948 95.6854C58.7772 100.618 49.2787 104.249 45.732 113.066C42.7654 120.526 44.7587 131.813 44.0007 139.9C43.9539 142.071 46.2467 142.932 47.0047 140.658C47.5849 133.685 46.4713 125.982 47.0795 119.112C48.1651 107.001 61.1074 102.761 69.8573 96.9676L69.9041 96.9396C70.0913 96.8085 70.2784 96.6868 70.4656 96.5558H70.4937L70.5217 96.5465L74.6581 97.1735C74.6581 97.1735 74.6861 97.1735 74.7048 97.1735C75.0417 97.2203 75.3412 97.211 75.5752 97.1735C75.6032 97.1735 75.6219 97.1735 75.6407 97.1642C75.8278 97.1642 76.0056 97.108 76.1741 97.0238C76.5484 96.8366 76.8198 96.4716 76.8759 96.0317C76.9695 95.311 76.4642 94.6558 75.7436 94.5622L75.7342 94.5716Z" fill="#4C73A8"/>
<path d="M136.861 107.955V115.134C136.861 115.705 136.609 116.257 136.178 116.632L111.248 138.196C110.509 138.842 109.395 138.842 108.656 138.196L83.7352 116.632C83.2953 116.257 83.0427 115.705 83.0427 115.134V100.702C83.0427 100.019 83.4076 99.3634 83.9972 99.0077L94.2257 92.7368C94.5438 92.5496 94.9088 92.4467 95.2644 92.4467C95.6013 92.4467 95.9382 92.5309 96.2377 92.6994L107.832 99.2324C109.143 99.9718 110.771 99.9718 112.072 99.2324L123.666 92.6994C124.293 92.3531 125.07 92.3625 125.678 92.7368L129.497 95.0767L131.172 93.3639L126.904 90.7433C125.566 89.929 123.891 89.9009 122.525 90.6684L110.93 97.192C110.331 97.5289 109.582 97.5289 108.983 97.192L97.3887 90.6684C96.0224 89.8915 94.3473 89.929 93.0091 90.7433L82.7713 97.0142C81.4986 97.791 80.7031 99.2043 80.7031 100.702V115.134C80.7031 116.388 81.2553 117.577 82.2004 118.401L107.121 139.965C107.935 140.667 108.946 141.013 109.957 141.013C110.967 141.013 111.978 140.667 112.783 139.965L137.704 118.401C138.658 117.577 139.201 116.388 139.201 115.134V106.261L136.861 107.955Z" fill="#4C73A8"/>
<path d="M95.677 114.909C93.3562 114.909 91.4658 113.019 91.4658 110.698C91.4658 108.376 93.3562 106.486 95.677 106.486C97.9978 106.486 99.8882 108.376 99.8882 110.698C99.8882 113.019 97.9978 114.909 95.677 114.909ZM95.677 108.826C94.6476 108.826 93.8054 109.668 93.8054 110.698C93.8054 111.727 94.6476 112.57 95.677 112.57C96.7064 112.57 97.5486 111.727 97.5486 110.698C97.5486 109.668 96.7064 108.826 95.677 108.826Z" fill="#4C73A8"/>
<path d="M98.334 113.272L109.957 123.23L139.201 97.3511" stroke="#4C73A8" stroke-width="4" stroke-miterlimit="10" stroke-linecap="round"/>
</svg>
