<svg width="366" height="50" viewBox="0 0 366 50" fill="none" xmlns="http://www.w3.org/2000/svg">
<path d="M82.7061 0.000488281H92.7518V50.0005C87.203 50.0005 82.7061 45.524 82.7061 40.0005V0.000488281Z" fill="#243B5A"/>
<path d="M10.0524 10.0081H57.5831V25.0081H-0.000976562V50.0005H10.0372V35.0005H67.6289V0.000488281H-0.000976562C-0.000976562 5.52401 4.49599 10.0081 10.0524 10.0081Z" fill="#243B5A"/>
<path d="M355.962 0.000488281V20.0081H308.416V0.000488281H298.362V30.0005H355.954V40.0081H308.4C302.859 40.0081 298.362 44.4846 298.362 50.0005H365.992V0.000488281H355.954H355.962Z" fill="#243B5A"/>
<path d="M117.881 39.9929V9.9929H165.427C170.968 9.9929 175.465 5.51642 175.465 0.000488281H107.835V50.0005H175.465C175.465 44.477 170.968 39.9929 165.411 39.9929H117.881Z" fill="#243B5A"/>
<path d="M190.534 40.0005C190.534 45.524 195.031 50.0005 200.58 50.0005V0.000488281H190.534V40.0005Z" fill="#243B5A"/>
<path d="M225.709 10.0081H244.459V50.0005H254.513V10.0081H273.247C278.796 10.0081 283.301 5.5316 283.301 0.000488281H215.671C215.671 5.52401 220.168 10.0081 225.724 10.0081H225.709Z" fill="#243B5A"/>
</svg>
