<svg width="272" height="518" viewBox="0 0 272 518" fill="none" xmlns="http://www.w3.org/2000/svg">
<g opacity="0.4">
<path d="M-257.189 215.693C-230.467 90.4483 -113.477 7.22437 23.9133 14.6789" stroke="#4C73A8" stroke-width="0.75" stroke-linecap="round"/>
<path d="M23.7229 16.6135C24.8644 16.6609 25.823 15.8424 25.8742 14.7871C25.9254 13.7318 25.04 12.8457 23.8985 12.7983C22.757 12.751 21.7985 13.5695 21.7472 14.6248C21.696 15.68 22.5814 16.5662 23.7229 16.6135Z" fill="#4C73A8"/>
<path d="M-49.0995 447.277C-90.5595 436.9 -122.77 418.596 -151.476 390.07C-280.21 255.713 -164.699 49.7601 27.0008 67.7875" stroke="#4C73A8" stroke-width="0.75" stroke-linecap="round"/>
<path d="M26.7084 69.7085C27.8426 69.8032 28.8451 69.0321 28.9475 67.9836C29.05 66.9351 28.2158 66.0083 27.0816 65.9136C25.9474 65.8189 24.9449 66.5901 24.8425 67.6386C24.7401 68.6871 25.5742 69.6138 26.7084 69.7085Z" fill="#4C73A8"/>
<path d="M-163.989 218.109C-127.615 97.7203 30.8202 58.4726 127.629 144.889" stroke="#4C73A8" stroke-width="0.75" stroke-linecap="round"/>
<path d="M126.115 146.215C126.941 146.939 128.244 146.912 129.034 146.148C129.817 145.383 129.788 144.179 128.961 143.449C128.134 142.725 126.832 142.752 126.041 143.516C125.258 144.281 125.288 145.485 126.115 146.215Z" fill="#4C73A8"/>
<path d="M-129.641 222.215C-92.6149 113.387 63.9395 96.9018 126.378 195.353" stroke="#4C73A8" stroke-width="0.75" stroke-linecap="round"/>
<path d="M124.533 196.259C125.119 197.166 126.385 197.463 127.358 196.922C128.338 196.381 128.66 195.211 128.075 194.311C127.49 193.405 126.224 193.107 125.251 193.648C124.27 194.189 123.948 195.359 124.533 196.259Z" fill="#4C73A8"/>
<path d="M33.6082 408.523C-144.049 437.367 -234.784 220.388 -81.8081 131.57" stroke="#4C73A8" stroke-width="0.75" stroke-linecap="round"/>
<path d="M33.1696 406.629C34.2964 406.46 35.3575 407.164 35.5404 408.205C35.7233 409.247 34.9623 410.228 33.8354 410.397C32.7086 410.566 31.6476 409.863 31.4646 408.821C31.2817 407.779 32.0427 406.798 33.1696 406.629Z" fill="#4C73A8"/>
<path d="M-184.155 101.4C-112.819 31.0829 -9.51974 7.16358 89.5131 38.4157C305.506 112.122 317.96 385.341 109.848 475.58" stroke="#4C73A8" stroke-width="0.75" stroke-linecap="round"/>
<path d="M109.029 473.794C108.004 474.254 107.572 475.39 108.07 476.344C108.568 477.291 109.797 477.69 110.829 477.23C111.853 476.77 112.285 475.634 111.787 474.68C111.29 473.726 110.06 473.334 109.029 473.794Z" fill="#4C73A8"/>
<path d="M-63.1777 197.93C-26.9277 164.986 28.889 163.289 67.3123 195.163" stroke="#4C73A8" stroke-width="0.75" stroke-linecap="round"/>
<path d="M65.8484 196.543C66.6972 197.24 68.007 197.172 68.7607 196.381C69.5144 195.596 69.4412 194.385 68.5851 193.688C67.7363 192.991 66.4265 193.059 65.6728 193.851C64.9191 194.635 64.9923 195.846 65.8484 196.543Z" fill="#4C73A8"/>
<path d="M96.3395 357.87C20.9563 416.776 -92.3527 390.002 -127.249 303.964" stroke="#4C73A8" stroke-width="0.75" stroke-linecap="round"/>
<path d="M94.927 356.416C95.8124 355.753 97.1075 355.875 97.832 356.686C98.5491 357.505 98.4173 358.702 97.5393 359.372C96.6539 360.035 95.3587 359.913 94.6343 359.101C93.9172 358.283 94.0489 357.085 94.927 356.416Z" fill="#4C73A8"/>
<path d="M186.709 409.855C117.158 479.977 16.5301 501.718 -77.6074 471.419" stroke="#4C73A8" stroke-width="0.75" stroke-linecap="round"/>
<path d="M185.114 408.604C185.889 407.833 187.199 407.799 188.033 408.516C188.868 409.233 188.904 410.444 188.129 411.215C187.353 411.986 186.043 412.02 185.209 411.303C184.375 410.586 184.338 409.375 185.114 408.604Z" fill="#4C73A8"/>
<path d="M74.0376 246.513C80.8646 280.45 59.9663 313.265 21.4552 323.134C-31.6979 334.188 -75.8215 293.073 -65.4748 244.991" stroke="#4C73A8" stroke-width="0.75" stroke-linecap="round"/>
<path d="M72.0031 246.966C71.7909 245.931 72.53 244.937 73.6495 244.741C74.7691 244.544 75.8447 245.228 76.0569 246.263C76.2691 247.298 75.5301 248.292 74.4105 248.488C73.291 248.684 72.2153 248.001 72.0031 246.966Z" fill="#4C73A8"/>
<path d="M96.1282 276.243C89.967 303.754 71.6371 325.955 43.4727 338.409" stroke="#4C73A8" stroke-width="0.75" stroke-linecap="round"/>
<path d="M94.0569 275.925C94.2984 274.896 95.396 274.24 96.5082 274.464C97.6205 274.687 98.3302 275.701 98.0888 276.73C97.8473 277.758 96.7497 278.414 95.6375 278.191C94.5252 277.968 93.8155 276.953 94.0569 275.925Z" fill="#4C73A8"/>
<path d="M42.6458 336.623C41.6214 337.089 41.2043 338.232 41.7019 339.173C42.1994 340.113 43.4434 340.505 44.4605 340.045C45.4849 339.579 45.902 338.435 45.4044 337.495C44.8995 336.548 43.6629 336.163 42.6458 336.623Z" fill="#4C73A8"/>
<path d="M-43.3994 49.6382C178.199 8.21908 329.807 250.382 174.474 406.629" stroke="#4C73A8" stroke-width="0.75" stroke-linecap="round"/>
<path d="M172.981 405.262C172.22 406.047 172.294 407.251 173.142 407.955C173.991 408.658 175.294 408.591 176.055 407.806C176.816 407.021 176.743 405.817 175.894 405.114C175.045 404.41 173.742 404.478 172.981 405.262Z" fill="#4C73A8"/>
<path d="M105.085 230.947C134.362 321.382 23.4454 394.486 -59.4746 338.077" stroke="#4C73A8" stroke-width="0.75" stroke-linecap="round"/>
<path d="M103.109 231.59C102.787 230.582 103.409 229.52 104.507 229.222C105.597 228.925 106.746 229.5 107.068 230.515C107.39 231.522 106.768 232.584 105.67 232.882C104.58 233.18 103.431 232.605 103.109 231.59Z" fill="#4C73A8"/>
<path d="M187.382 327.673C148.117 416.025 46.0992 463.478 -56.6143 434.309" stroke="#4C73A8" stroke-width="0.75" stroke-linecap="round"/>
<path d="M185.414 326.997C185.86 326.03 187.075 325.576 188.122 325.989C189.168 326.402 189.658 327.525 189.212 328.492C188.765 329.459 187.551 329.912 186.504 329.5C185.458 329.087 184.968 327.964 185.414 326.997Z" fill="#4C73A8"/>
<path d="M93.9473 174.626C127.695 206.02 140.303 249.137 127.314 292.457" stroke="#4C73A8" stroke-width="0.75" stroke-linecap="round"/>
<path d="M92.4988 176.047C91.7086 175.289 91.7378 174.078 92.5647 173.348C93.3842 172.617 94.694 172.644 95.4843 173.408C96.2746 174.173 96.2453 175.377 95.4184 176.107C94.5989 176.838 93.2891 176.811 92.4988 176.047Z" fill="#4C73A8"/>
<path d="M125.296 291.876C125.01 292.897 125.676 293.939 126.781 294.196C127.886 294.46 129.013 293.844 129.291 292.823C129.576 291.801 128.91 290.76 127.805 290.502C126.7 290.239 125.581 290.854 125.296 291.876Z" fill="#4C73A8"/>
<path d="M178.916 274.322C161.098 437.996 -78.2665 478.204 -154.477 326.294" stroke="#4C73A8" stroke-width="0.75" stroke-linecap="round"/>
<path d="M176.823 274.2C176.948 273.151 177.972 272.401 179.106 272.516C180.24 272.631 181.053 273.578 180.928 274.626C180.804 275.675 179.779 276.425 178.645 276.31C177.511 276.195 176.699 275.248 176.823 274.2Z" fill="#4C73A8"/>
<path d="M212.451 194.081C238.969 268.22 221.02 346.181 160.513 403.964" stroke="#4C73A8" stroke-width="0.75" stroke-linecap="round"/>
<path d="M210.49 194.764C210.139 193.763 210.739 192.688 211.822 192.363C212.905 192.038 214.068 192.593 214.419 193.594C214.771 194.595 214.171 195.671 213.088 195.995C212.005 196.32 210.841 195.765 210.49 194.764Z" fill="#4C73A8"/>
<path d="M159.072 402.564C158.289 403.328 158.318 404.532 159.145 405.263C159.972 405.987 161.274 405.96 162.064 405.195C162.847 404.431 162.818 403.227 161.991 402.496C161.164 401.766 159.862 401.799 159.072 402.564Z" fill="#4C73A8"/>
</g>
</svg>
