<svg width="1017" height="1045" viewBox="0 0 1017 1045" fill="none" xmlns="http://www.w3.org/2000/svg">
<path d="M509.823 698.229L509.803 698.269L509.823 698.329L509.823 698.229Z" fill="url(#paint0_linear_2047_1043)"/>
<path d="M514.384 831.044C472.723 836.455 430.068 832.474 389.719 819.324L389.718 819.323L388.023 818.765C316.407 794.902 258.211 744.8 223.995 677.461L223.985 677.465C189.443 609.587 183.481 532.303 207.101 459.931L207.102 459.929C208.654 455.281 211.882 451.432 216.277 449.193L216.277 449.192L273.041 420.341L273.041 420.34C282.132 415.763 293.253 419.387 297.891 428.459L297.892 428.46L326.703 485.203C328.923 489.536 329.313 494.566 327.78 499.275L327.78 499.276L327.178 501.16C314.771 540.765 318.294 582.875 337.134 619.969C355.973 657.063 387.934 684.77 427.246 698.101L429.123 698.724C448.94 705.152 469.802 707.654 490.353 706.042L490.859 706.002L490.583 706.427L456.304 759.108L456.302 759.114L456.088 759.431C455.599 760.179 455.165 760.957 454.76 761.753C451.957 767.262 451.064 773.509 452.232 779.669L452.352 780.265C453.926 787.629 458.221 793.941 464.533 798.048L514.487 830.587L515.056 830.957L514.384 831.044Z" fill="#3B5E8D" stroke="#8FFFFF" stroke-width="0.5" stroke-miterlimit="10"/>
<path d="M691.45 435.225C691.085 439.95 688.927 444.259 685.372 447.472L685.371 447.474L685.02 447.778C681.366 450.873 676.793 452.432 672.043 452.183L608.469 448.778L608.466 448.778L608.028 448.744C603.503 448.347 599.123 446.255 596.042 442.913L596.044 442.913L595.391 442.232L595.386 442.227C577.005 421.857 553.438 406.56 527.169 397.952L525.411 397.39C450.934 374.019 371.584 408.853 337.162 476.505C336.871 477.078 336.598 477.663 336.321 478.256C336.044 478.848 335.764 479.45 335.457 480.052L335.235 480.49L335.012 480.053L306.515 423.971C299.569 410.306 282.964 404.735 269.263 411.276L268.612 411.597L215.441 438.614L214.757 438.962L215.122 438.244C217.869 431.564 220.895 425.025 224.139 418.648C287.886 293.361 431.028 233.873 564.96 276.724L566.535 277.233C614.251 292.776 657.02 320.611 690.157 357.905C693.292 361.42 695.013 366.03 694.865 370.719L694.846 371.173L691.48 434.767L691.45 435.225Z" fill="#C48C5E" stroke="#E5AE80" stroke-width="0.5" stroke-miterlimit="10"/>
<path d="M732.094 677.85C693.239 754.215 622.961 808.414 538.969 826.852L536.982 827.281L536.979 827.282L536.522 827.368C531.805 828.203 527.045 827.291 523.095 824.69L469.758 789.928C465.643 787.224 462.814 783.089 461.774 778.239L461.774 778.238C460.774 773.408 461.701 768.489 464.364 764.354L464.364 764.354L499.086 710.996L499.087 710.994C501.769 706.921 505.9 704.095 510.962 703.015L511.07 702.98L511.082 702.976L511.096 702.974C565.662 691.335 610.327 651.485 628.059 598.632L628.473 597.381C643.752 550.52 636.048 499.124 608.544 458.888L608.258 458.47L608.764 458.497L671.558 461.857C678.832 462.234 685.826 459.857 691.352 455.113L691.883 454.647C697.37 449.731 700.636 443.128 701.189 435.895L701.234 435.192L704.391 375.655L704.427 374.974L704.841 375.517C761.111 449.53 778.252 547.562 749.132 636.666L748.256 639.32C743.809 652.57 738.371 665.512 732.094 677.85Z" fill="#304E76" stroke="#00B8FA" stroke-width="0.5" stroke-miterlimit="10"/>
<path d="M677.226 572.62L697.402 575.09L698.385 567.124L703.077 567.717L700.43 589.368L695.738 588.775L696.722 580.81L676.546 578.34L677.243 572.579L677.226 572.62Z" fill="white"/>
<path d="M695.939 595.054C696.127 594.019 696.593 593.244 697.339 592.731C698.043 592.201 698.834 592.045 699.687 592.205C700.54 592.366 701.215 592.839 701.67 593.609C702.125 594.379 702.246 595.252 702.058 596.288C701.846 597.264 701.421 598.056 700.717 598.586C700.013 599.117 699.263 599.29 698.41 599.129C697.516 598.952 696.8 598.461 696.328 597.733C695.873 596.963 695.751 596.089 695.939 595.054ZM674.96 587.991L693.806 591.797L692.706 597.246L673.859 593.439L674.96 587.991Z" fill="white"/>
<path d="M670.259 606.66C670.851 604.534 671.794 602.844 673.041 601.474C674.329 600.121 675.768 599.218 677.46 598.758C679.151 598.299 680.894 598.296 682.756 598.827C684.575 599.34 686.1 600.215 687.312 601.493C688.541 602.729 689.327 604.217 689.711 605.974C690.096 607.731 690.039 609.498 689.492 611.401C688.978 613.221 688.103 614.745 686.925 615.95C685.73 617.197 684.325 618.017 682.634 618.477C680.942 618.936 679.133 618.863 677.148 618.281C676.942 618.195 676.736 618.11 676.471 618.048C676.206 617.987 675.975 617.842 675.769 617.757L680.023 602.727L683.15 603.589L679.68 615.798L679.353 613.436C680.296 613.731 681.2 613.767 682.049 613.587C682.857 613.39 683.593 613.018 684.173 612.436C684.754 611.854 685.203 611.121 685.439 610.203C685.675 609.284 685.736 608.438 685.498 607.613C685.301 606.805 684.87 606.094 684.288 605.513C683.706 604.933 682.873 604.491 681.872 604.22L681.053 603.977C680.011 603.69 679.048 603.677 678.182 603.898C677.315 604.12 676.529 604.616 675.914 605.28C675.299 605.945 674.822 606.86 674.501 607.985C674.247 608.945 674.111 609.856 674.208 610.671C674.306 611.486 674.544 612.311 674.982 613.122L671.071 615.081C670.33 613.95 669.899 612.658 669.759 611.245C669.62 609.831 669.79 608.256 670.235 606.601L670.259 606.66ZM693.627 604.937L697.311 610.871L695.962 615.636L689.728 618.76L690.834 614.814L696.269 611.165L695.26 614.763L692.497 608.825L693.603 604.879L693.627 604.937ZM663.512 603.907C663.686 603.254 664.05 602.727 664.627 602.386C665.205 602.045 665.82 601.961 666.515 602.153C667.21 602.345 667.719 602.75 668.06 603.327C668.402 603.904 668.427 604.544 668.252 605.198C668.078 605.851 667.672 606.361 667.095 606.702C666.518 607.043 665.861 607.109 665.166 606.918C664.471 606.726 663.962 606.321 663.662 605.761C663.362 605.201 663.337 604.561 663.512 603.907Z" fill="white"/>
<path d="M680.928 636.113C680.345 637.517 679.566 638.694 678.525 639.569C677.484 640.444 676.299 640.968 674.868 641.149C673.438 641.33 671.814 641.043 670.039 640.306L659.848 636.172L661.99 631.011L671.356 634.802C672.801 635.402 673.97 635.5 674.929 635.172C675.888 634.844 676.596 634.073 677.034 632.9C677.377 632.074 677.462 631.286 677.406 630.489C677.308 629.674 677.019 628.973 676.471 628.31C675.923 627.647 675.125 627.122 673.969 626.642L665.14 623.073L667.283 617.912L685.064 625.1L683.024 630.014L678.135 628.032L680.016 627.7C680.956 628.816 681.487 630.101 681.651 631.573C681.814 633.045 681.596 634.503 680.962 636.031L680.928 636.113Z" fill="white"/>
<path d="M653.505 648.302L670.244 657.768L667.499 662.631L650.76 653.165L653.505 648.302ZM672.624 658.563L674.721 665.29L671.78 670.507L670.466 662.362L672.624 658.563Z" fill="white"/>
<path d="M643.333 664.409C644.493 662.664 645.847 661.387 647.469 660.511C649.049 659.618 650.748 659.259 652.515 659.315C654.283 659.371 655.927 659.957 657.524 661.007C659.121 662.057 660.299 663.417 661.01 664.971C661.744 666.583 662.022 668.247 661.849 670.062C661.676 671.878 660.997 673.63 659.837 675.375C658.711 677.037 657.375 678.273 655.829 679.084C654.282 679.894 652.694 680.106 651.029 679.802L651.449 674.942C652.495 674.989 653.385 674.826 654.162 674.471C654.897 674.099 655.519 673.534 656.027 672.777C656.535 672.019 656.836 671.176 656.897 670.33C656.975 669.443 656.819 668.652 656.398 667.8C656.002 667.006 655.33 666.292 654.384 665.657C653.437 665.022 652.512 664.686 651.607 664.649C650.703 664.613 649.871 664.752 649.077 665.148C648.325 665.562 647.644 666.151 647.136 666.908C646.646 667.624 646.361 668.425 646.301 669.271C646.24 670.117 646.444 671.025 646.93 671.953L642.6 674.221C641.68 672.823 641.31 671.266 641.449 669.532C641.587 667.799 642.208 666.072 643.333 664.409Z" fill="white"/>
<path d="M601.7 757.379L592.998 750.691L583.949 756.901L587.62 746.558L578.917 739.871L589.888 740.166L593.559 729.823L596.669 740.348L607.64 740.644L598.591 746.853L601.7 757.379Z" fill="white"/>
<path d="M645.241 694.679C644.262 695.87 643.139 696.711 641.936 697.276C640.692 697.825 639.378 697.957 637.995 697.673C636.595 697.431 635.136 696.632 633.608 695.416L625.115 688.357L628.682 684.078L636.494 690.564C637.685 691.542 638.782 692.046 639.797 691.935C640.794 691.865 641.722 691.379 642.498 690.443C643.071 689.761 643.421 689.035 643.606 688.24C643.749 687.428 643.676 686.672 643.362 685.912C643.048 685.153 642.411 684.356 641.474 683.58L634.172 677.499L637.74 673.22L658.151 690.164L654.584 694.443L644.858 686.388L646.908 686.465C647.463 687.809 647.603 689.222 647.302 690.646C647.001 692.07 646.336 693.44 645.282 694.696L645.241 694.679Z" fill="white"/>
<path d="M605.836 702.908C607.409 701.513 609.169 700.372 611.088 699.414C613.007 698.456 614.88 697.888 616.638 697.74L618.088 703.548C616.691 703.67 615.262 704.013 613.759 704.676C612.276 705.289 610.981 706.155 609.793 707.183C608.494 708.34 607.656 709.513 607.38 710.743C607.103 711.974 607.37 713.021 608.161 713.934C608.665 714.552 609.322 714.942 610.032 715.062C610.743 715.181 611.558 715.051 612.546 714.643C613.535 714.234 614.71 713.377 616.1 712.141L621.845 707.038L631.99 720.784L618.127 733.045L614.389 728.803L626.335 718.203L625.751 722.991L618.545 713.155L623.341 713.157L618.551 717.369C616.317 719.367 614.254 720.675 612.33 721.222C610.436 721.839 608.67 721.866 607.132 721.345C605.523 720.852 604.15 719.932 602.964 718.562C601.807 717.263 601.044 715.718 600.706 713.998C600.367 712.278 600.601 710.445 601.338 708.528C602.076 706.611 603.586 704.664 605.707 702.796L605.836 702.908Z" fill="white"/>
<path d="M498.021 594.317L498.021 579.201" stroke="#C48C5E" stroke-width="2" stroke-miterlimit="10"/>
<path d="M498.021 579.201L498.021 572.653L493.356 568.019" stroke="#C48C5E" stroke-width="2" stroke-miterlimit="10"/>
<path d="M493.354 568.019L491.273 565.952" stroke="#C48C5E" stroke-width="2" stroke-miterlimit="10"/>
<path d="M489.959 567.256L492.585 564.648L490.499 562.576L487.873 565.184L489.959 567.256Z" fill="#C48C5E"/>
<path d="M482.207 556.929C479.633 559.485 479.575 563.582 482.078 566.069C484.581 568.555 488.706 568.497 491.28 565.94C493.854 563.384 493.912 559.287 491.409 556.8C488.906 554.314 484.781 554.372 482.207 556.929ZM484.757 559.473C485.886 558.353 487.684 558.329 488.788 559.415C489.893 560.501 489.858 562.298 488.73 563.419C487.601 564.539 485.803 564.563 484.699 563.477C483.606 562.392 483.629 560.594 484.757 559.473Z" fill="#C48C5E"/>
<path d="M477.283 598.917L477.283 585.412" stroke="#C48C5E" stroke-width="2" stroke-miterlimit="10"/>
<path d="M477.283 585.411L477.283 578.85L470.69 578.85" stroke="#C48C5E" stroke-width="2" stroke-miterlimit="10"/>
<path d="M470.689 578.851L467.693 578.851" stroke="#C48C5E" stroke-width="2" stroke-miterlimit="10"/>
<path d="M467.693 578.85L464.685 578.85" stroke="#C48C5E" stroke-width="2" stroke-miterlimit="10"/>
<path d="M464.683 578.851L461.686 578.851" stroke="#C48C5E" stroke-width="2" stroke-miterlimit="10"/>
<path d="M461.688 578.85L458.691 578.85" stroke="#C48C5E" stroke-width="2" stroke-miterlimit="10"/>
<path d="M455.694 580.696L458.69 580.696L458.69 577.007L455.694 577.007L455.694 580.696Z" fill="#C48C5E"/>
<path d="M445.606 578.851C445.606 582.47 448.533 585.4 452.141 585.4C455.748 585.4 458.675 582.458 458.675 578.851C458.675 575.244 455.748 572.303 452.141 572.303C448.533 572.303 445.606 575.244 445.606 578.851ZM449.285 578.851C449.285 577.276 450.566 575.98 452.141 575.98C453.715 575.98 454.996 577.264 454.996 578.851C454.996 580.439 453.715 581.723 452.141 581.723C450.566 581.723 449.285 580.439 449.285 578.851Z" fill="#C48C5E"/>
<path d="M528.546 552.273L508.414 552.273" stroke="#C48C5E" stroke-width="2" stroke-miterlimit="10"/>
<path d="M508.413 552.272L501.82 552.272L497.154 547.638" stroke="#C48C5E" stroke-width="2" stroke-miterlimit="10"/>
<path d="M497.156 547.637L494.547 545.046" stroke="#C48C5E" stroke-width="2" stroke-miterlimit="10"/>
<path d="M494.546 545.046L491.937 542.455" stroke="#C48C5E" stroke-width="2" stroke-miterlimit="10"/>
<path d="M491.936 542.456L487.27 537.821L487.27 531.273" stroke="#C48C5E" stroke-width="2" stroke-miterlimit="10"/>
<path d="M487.272 531.271L487.272 528.318" stroke="#C48C5E" stroke-width="2" stroke-miterlimit="10"/>
<path d="M487.272 528.318L487.272 525.365" stroke="#C48C5E" stroke-width="2" stroke-miterlimit="10"/>
<path d="M485.421 525.364L489.135 525.364L489.135 522.411L485.421 522.411L485.421 525.364Z" fill="#C48C5E"/>
<path d="M487.276 512.502C483.633 512.502 480.683 515.385 480.683 518.934C480.683 522.483 483.645 525.366 487.276 525.366C490.908 525.366 493.869 522.483 493.869 518.934C493.869 515.385 490.908 512.502 487.276 512.502ZM487.276 516.121C488.863 516.121 490.167 517.381 490.167 518.934C490.167 520.486 488.874 521.747 487.276 521.747C485.678 521.747 484.385 520.486 484.385 518.934C484.385 517.381 485.678 516.121 487.276 516.121Z" fill="#C48C5E"/>
<path d="M526.441 531.45L506.568 531.45" stroke="#C48C5E" stroke-width="2" stroke-miterlimit="10"/>
<path d="M503.641 533.293L506.567 533.293L506.567 529.604L503.641 529.604L503.641 533.293Z" fill="#C48C5E"/>
<path d="M493.813 531.447C493.813 535.065 496.669 537.995 500.183 537.995C503.697 537.995 506.553 535.054 506.553 531.447C506.553 527.84 503.697 524.898 500.183 524.898C496.669 524.898 493.813 527.84 493.813 531.447ZM497.409 531.447C497.409 529.871 498.655 528.575 500.195 528.575C501.734 528.575 502.98 529.859 502.98 531.447C502.98 533.034 501.734 534.318 500.195 534.318C498.655 534.318 497.409 533.034 497.409 531.447Z" fill="#C48C5E"/>
<path d="M472.381 495.167L472.381 517.672" stroke="#C48C5E" stroke-width="2" stroke-miterlimit="10"/>
<path d="M472.381 517.672L472.381 520.707" stroke="#C48C5E" stroke-width="2" stroke-miterlimit="10"/>
<path d="M472.381 520.705L472.381 523.752" stroke="#C48C5E" stroke-width="2" stroke-miterlimit="10"/>
<path d="M472.381 523.752L472.381 526.787" stroke="#C48C5E" stroke-width="2" stroke-miterlimit="10"/>
<path d="M472.381 526.79L472.381 529.825" stroke="#C48C5E" stroke-width="2" stroke-miterlimit="10"/>
<path d="M472.381 529.823L472.381 532.87" stroke="#C48C5E" stroke-width="2" stroke-miterlimit="10"/>
<path d="M472.381 532.872L472.381 539.42L467.715 544.054" stroke="#C48C5E" stroke-width="2" stroke-miterlimit="10"/>
<path d="M467.713 544.052L465.656 546.095" stroke="#C48C5E" stroke-width="2" stroke-miterlimit="10"/>
<path d="M465.66 546.094L463.604 548.137" stroke="#C48C5E" stroke-width="2" stroke-miterlimit="10"/>
<path d="M463.602 548.139L461.545 550.182" stroke="#C48C5E" stroke-width="2" stroke-miterlimit="10"/>
<path d="M461.544 550.18L459.487 552.223" stroke="#C48C5E" stroke-width="2" stroke-miterlimit="10"/>
<path d="M458.739 555.579L460.8 553.532L458.174 550.924L456.113 552.971L458.739 555.579Z" fill="#C48C5E"/>
<path d="M450.518 561.13C453.091 563.687 457.193 563.768 459.661 561.317C462.129 558.866 462.047 554.792 459.473 552.236C456.899 549.679 452.798 549.598 450.33 552.049C447.862 554.5 447.944 558.574 450.518 561.13ZM453.033 558.632C451.904 557.512 451.869 555.726 452.95 554.664C454.032 553.59 455.83 553.625 456.946 554.745C458.063 555.866 458.11 557.652 457.028 558.714C455.947 559.788 454.149 559.753 453.033 558.632Z" fill="#C48C5E"/>
<path d="M424.198 535.662L440.134 535.662" stroke="#C48C5E" stroke-width="2" stroke-miterlimit="10"/>
<path d="M440.132 535.664L446.725 535.664L451.391 531.03" stroke="#C48C5E" stroke-width="2" stroke-miterlimit="10"/>
<path d="M451.394 531.03L453.438 528.999" stroke="#C48C5E" stroke-width="2" stroke-miterlimit="10"/>
<path d="M454.753 530.298L456.797 528.267L454.171 525.659L452.127 527.689L454.753 530.298Z" fill="#C48C5E"/>
<path d="M462.355 520.137C459.781 517.58 455.691 517.487 453.235 519.926C450.779 522.366 450.873 526.428 453.447 528.985C456.02 531.541 460.11 531.634 462.566 529.195C465.023 526.755 464.929 522.693 462.355 520.137ZM459.84 522.635C460.968 523.755 461.003 525.529 459.934 526.603C458.864 527.666 457.066 527.631 455.938 526.51C454.81 525.389 454.775 523.615 455.844 522.541C456.914 521.479 458.712 521.514 459.84 522.635Z" fill="#C48C5E"/>
<path d="M476.511 495.005C447.621 495.005 424.201 518.266 424.201 546.961C424.201 575.656 447.621 598.917 476.511 598.917C505.401 598.917 528.82 575.655 528.82 546.961C528.82 518.266 505.401 495.005 476.511 495.005Z" stroke="#C48C5E" stroke-width="2" stroke-linejoin="round"/>
<path d="M476.508 483.415C441.173 483.415 412.528 511.866 412.528 546.963C412.528 582.059 441.173 610.51 476.508 610.51C511.843 610.51 540.487 582.059 540.487 546.963C540.487 511.866 511.843 483.415 476.508 483.415Z" stroke="#C48C5E" stroke-width="2" stroke-linejoin="round"/>
<path d="M430.615 591.773L413.774 608.99" stroke="#C48C5E" stroke-width="3.16" stroke-miterlimit="10"/>
<path d="M521.226 502.021L537.409 485.948" stroke="#C48C5E" stroke-width="3.16" stroke-miterlimit="10"/>
<path d="M430.99 501.902L414.514 486.027" stroke="#C48C5E" stroke-width="3.16" stroke-miterlimit="10"/>
<path d="M521.344 591.888L537.409 607.845" stroke="#C48C5E" stroke-width="3.16" stroke-miterlimit="10"/>
<path d="M412.131 546.785L376.498 547.135" stroke="#C48C5E" stroke-width="3.16" stroke-miterlimit="10"/>
<path d="M540.079 546.961L575.712 546.961" stroke="#C48C5E" stroke-width="3.16" stroke-miterlimit="10"/>
<path d="M476.282 483.411L475.93 448.018" stroke="#C48C5E" stroke-width="3.16" stroke-miterlimit="10"/>
<path d="M476.104 610.496L476.104 645.889" stroke="#C48C5E" stroke-width="3.16" stroke-miterlimit="10"/>
<path d="M464.409 253.524C638.065 246.779 778.907 378.049 783.897 552.074" stroke="#009BF6" stroke-width="0.75" stroke-linecap="round"/>
<path d="M464.591 256.146C463.169 256.181 461.993 255.05 461.958 253.629C461.923 252.207 463.054 251.031 464.476 250.996C465.897 250.961 467.074 252.092 467.109 253.514C467.144 254.935 466.012 256.112 464.591 256.146Z" fill="#009BF6"/>
<path d="M781.267 552.067C781.335 553.485 782.536 554.588 783.953 554.52C785.371 554.453 786.474 553.252 786.406 551.834C786.339 550.416 785.138 549.313 783.72 549.381C782.302 549.449 781.199 550.65 781.267 552.067Z" fill="#009BF6"/>
<path d="M680.859 292.334C816.427 398.729 850.352 579.801 763.63 728.052" stroke="#00396F" stroke-width="0.75" stroke-linecap="round"/>
<path d="M679.309 294.454C678.209 293.556 678.036 291.942 678.93 290.829C679.828 289.729 681.443 289.556 682.555 290.45C683.656 291.349 683.828 292.963 682.934 294.076C682.044 295.18 680.422 295.349 679.309 294.454Z" fill="#00396F"/>
<path d="M761.41 726.658C760.707 727.898 761.149 729.465 762.39 730.168C763.631 730.871 765.198 730.429 765.901 729.188C766.604 727.948 766.162 726.38 764.921 725.677C763.68 724.975 762.113 725.417 761.41 726.658Z" fill="#00396F"/>
<path d="M298.122 290.968C297.159 292.015 295.525 292.085 294.478 291.122C293.431 290.159 293.36 288.525 294.323 287.478C295.286 286.431 296.921 286.361 297.967 287.324C299.014 288.287 299.085 289.921 298.122 290.968Z" fill="#0085F0"/>
<path d="M893.644 562.629C892.888 563.833 893.249 565.42 894.452 566.175C895.656 566.931 897.243 566.571 897.999 565.367C898.755 564.164 898.394 562.577 897.191 561.821C895.987 561.065 894.4 561.425 893.644 562.629Z" fill="#0085F0"/>
<path d="M410.906 903.019C409.508 903.271 408.171 902.334 407.919 900.936C407.667 899.537 408.604 898.2 410.002 897.949C411.401 897.697 412.738 898.633 412.989 900.032C413.241 901.43 412.305 902.767 410.906 903.019Z" fill="#0085F0"/>
<path d="M780.779 343.348C781.867 344.27 783.486 344.131 784.408 343.043C785.331 341.955 785.191 340.336 784.103 339.414C783.015 338.492 781.397 338.631 780.474 339.719C779.552 340.807 779.691 342.426 780.779 343.348Z" fill="#0085F0"/>
<path d="M623.529 396.511C622.487 395.54 622.433 393.914 623.396 392.867C624.367 391.824 625.993 391.77 627.039 392.733C628.082 393.704 628.136 395.33 627.173 396.377C626.202 397.42 624.576 397.474 623.529 396.511Z" fill="#005AC9"/>
<path d="M820.431 666.145C819.092 666.622 818.388 668.087 818.86 669.434C819.337 670.773 820.802 671.477 822.149 671.005C823.488 670.528 824.192 669.063 823.72 667.716C823.243 666.377 821.778 665.673 820.431 666.145Z" fill="#005AC9"/>
<path d="M395.829 241.672C394.824 240.669 394.81 239.043 395.818 238.029C396.826 237.016 398.447 237.011 399.461 238.018C400.467 239.022 400.48 240.647 399.472 241.661C398.469 242.667 396.843 242.68 395.829 241.672Z" fill="#00D5FF"/>
<path d="M108.257 664.584C106.835 664.68 105.76 665.906 105.861 667.319C105.957 668.741 107.183 669.816 108.596 669.716C110.018 669.619 111.093 668.393 110.992 666.98C110.896 665.558 109.67 664.483 108.257 664.584Z" fill="#00D5FF"/>
<path d="M166.151 757.767C165.716 759.124 164.27 759.873 162.913 759.439C161.556 759.005 160.806 757.558 161.241 756.201C161.675 754.844 163.122 754.094 164.479 754.529C165.836 754.963 166.585 756.41 166.151 757.767Z" fill="#0085F0"/>
<path d="M776.852 581.338C776.993 582.752 778.26 583.786 779.678 583.636C781.092 583.495 782.126 582.228 781.977 580.81C781.836 579.396 780.569 578.362 779.15 578.511C777.736 578.652 776.702 579.919 776.852 581.338Z" fill="#0085F0"/>
<path d="M831.256 454.362C830.06 453.59 829.712 451.998 830.484 450.803C831.256 449.608 832.848 449.26 834.043 450.032C835.238 450.804 835.586 452.395 834.814 453.59C834.042 454.786 832.451 455.134 831.256 454.362Z" fill="#00D5FF"/>
<path d="M526.604 936.504C526.766 937.918 528.045 938.928 529.464 938.758C530.878 938.597 531.887 937.317 531.718 935.899C531.556 934.485 530.277 933.475 528.858 933.645C527.444 933.806 526.435 935.086 526.604 936.504Z" fill="#00D5FF"/>
<path d="M777.042 443.534C821.274 565.927 791.594 695.466 697.947 786.485C487.029 981.607 151.252 828.202 160.456 541.482" stroke="#0073E5" stroke-width="0.75" stroke-linecap="round"/>
<path d="M774.626 444.518C774.161 443.175 774.866 441.709 776.205 441.233C777.547 440.769 779.013 441.473 779.489 442.812C779.954 444.155 779.249 445.62 777.91 446.097C776.567 446.561 775.102 445.856 774.626 444.518Z" fill="#0073E5"/>
<path d="M163.069 541.664C163.096 540.243 161.973 539.067 160.544 539.036C159.123 539.01 157.947 540.133 157.916 541.562C157.89 542.983 159.013 544.159 160.442 544.189C161.863 544.216 163.039 543.093 163.069 541.664Z" fill="#0073E5"/>
<path d="M370.933 115.488C370.112 114.322 370.385 112.719 371.55 111.898C372.716 111.077 374.319 111.35 375.14 112.516C375.961 113.681 375.688 115.284 374.522 116.105C373.357 116.926 371.754 116.653 370.933 115.488Z" fill="#0078E8"/>
<path d="M800.807 438.578C800.312 439.914 800.996 441.389 802.332 441.884C803.668 442.38 805.143 441.696 805.638 440.36C806.133 439.024 805.449 437.549 804.113 437.053C802.777 436.558 801.302 437.242 800.807 438.578Z" fill="#0078E8"/>
<path d="M132.468 574.056C122.375 342.138 327.918 166.761 556.758 216.382" stroke="#0067AC" stroke-width="0.75" stroke-linecap="round"/>
<path d="M135.067 573.841C135.115 575.259 134.003 576.456 132.586 576.503C131.164 576.558 129.972 575.439 129.924 574.022C129.877 572.604 130.988 571.407 132.406 571.36C133.823 571.313 135.02 572.424 135.067 573.841Z" fill="#0067AC"/>
<path d="M556.1 218.905C557.491 219.193 558.857 218.3 559.144 216.909C559.432 215.519 558.539 214.152 557.148 213.865C555.758 213.577 554.391 214.47 554.104 215.861C553.816 217.252 554.709 218.618 556.1 218.905Z" fill="#0067AC"/>
<path d="M750.82 355.36C750.397 353.997 751.158 352.56 752.513 352.133C753.876 351.71 755.312 352.471 755.74 353.826C756.167 355.181 755.402 356.625 754.047 357.053C752.684 357.476 751.248 356.714 750.82 355.36Z" fill="#009CDF"/>
<path d="M864.984 296.19C863.665 296.708 863.005 298.206 863.531 299.529C864.049 300.847 865.547 301.507 866.87 300.982C868.188 300.464 868.848 298.966 868.323 297.643C867.805 296.324 866.307 295.664 864.984 296.19Z" fill="#009CDF"/>
<path d="M717.057 267.01C717.354 268.4 716.474 269.767 715.088 270.075C713.697 270.372 712.331 269.492 712.022 268.106C711.726 266.715 712.605 265.349 713.992 265.04C715.383 264.744 716.749 265.623 717.057 267.01Z" fill="#0064D5"/>
<path d="M630.104 221.68C631.52 221.817 632.777 220.776 632.913 219.36C633.05 217.944 632.009 216.687 630.593 216.55C629.177 216.414 627.92 217.455 627.783 218.871C627.647 220.287 628.687 221.544 630.104 221.68Z" fill="#0064D5"/>
<path d="M196.036 667.207C151.03 546.921 181.819 421.686 271.548 335.527" stroke="#00B8FA" stroke-width="0.75" stroke-linecap="round"/>
<path d="M198.445 666.199C198.933 667.534 198.233 669.011 196.898 669.5C195.563 669.989 194.086 669.288 193.597 667.954C193.108 666.619 193.808 665.141 195.143 664.652C196.478 664.163 197.956 664.864 198.445 666.199Z" fill="#00B8FA"/>
<path d="M273.278 337.484C274.298 336.486 274.309 334.853 273.316 333.845C272.318 332.825 270.685 332.814 269.677 333.807C268.657 334.805 268.646 336.438 269.639 337.446C270.637 338.466 272.271 338.477 273.278 337.484Z" fill="#00B8FA"/>
<path d="M635.202 265.869C636.567 266.266 637.345 267.697 636.948 269.063C636.55 270.428 635.119 271.206 633.754 270.808C632.389 270.411 631.611 268.98 632.008 267.615C632.406 266.249 633.836 265.471 635.202 265.869Z" fill="#00D2FE"/>
<path d="M335.931 271.867C337.056 272.737 338.675 272.536 339.545 271.411C340.414 270.286 340.213 268.667 339.088 267.797C337.963 266.928 336.344 267.129 335.475 268.254C334.605 269.379 334.806 270.998 335.931 271.867Z" fill="#00D2FE"/>
<path d="M216.406 804.539C217.506 805.438 217.675 807.06 216.777 808.16C215.879 809.261 214.256 809.429 213.156 808.531C212.055 807.633 211.887 806.011 212.785 804.91C213.683 803.81 215.306 803.641 216.406 804.539Z" fill="#00D5FF"/>
<path d="M311.38 218.238C311.398 216.813 310.258 215.649 308.845 215.627C307.42 215.608 306.256 216.748 306.234 218.161C306.216 219.586 307.356 220.75 308.768 220.772C310.194 220.79 311.357 219.651 311.38 218.238Z" fill="#00D5FF"/>
<path d="M759.662 631.782C684.088 903.615 306.926 923.998 206.841 655.575" stroke="#00B2EC" stroke-width="0.75" stroke-linecap="round"/>
<path d="M757.121 631.175C757.519 629.81 758.954 629.023 760.315 629.429C761.68 629.826 762.467 631.261 762.061 632.623C761.663 633.988 760.229 634.774 758.867 634.369C757.502 633.971 756.716 632.536 757.121 631.175Z" fill="#00B2EC"/>
<path d="M209.329 654.75C208.816 653.423 207.326 652.768 205.999 653.281C204.672 653.795 204.016 655.285 204.53 656.611C205.043 657.938 206.533 658.594 207.86 658.081C209.187 657.567 209.843 656.077 209.329 654.75Z" fill="#00B2EC"/>
<path d="M662.454 871.096C663.849 871.355 664.775 872.697 664.512 874.1C664.253 875.495 662.911 876.421 661.508 876.158C660.113 875.899 659.187 874.557 659.45 873.154C659.709 871.759 661.051 870.833 662.454 871.096Z" fill="#00C2FB"/>
<path d="M438.64 238.841C439.911 238.197 440.412 236.648 439.767 235.378C439.123 234.107 437.574 233.606 436.304 234.251C435.033 234.895 434.532 236.444 435.177 237.714C435.821 238.985 437.37 239.486 438.64 238.841Z" fill="#00C2FB"/>
<path d="M474.566 902.397C475.477 903.486 475.335 905.114 474.246 906.025C473.158 906.937 471.529 906.795 470.618 905.706C469.707 904.617 469.849 902.989 470.938 902.077C472.026 901.166 473.655 901.308 474.566 902.397Z" fill="#006FB7"/>
<path d="M186.736 355.502C187.712 354.471 187.662 352.837 186.623 351.858C185.585 350.879 183.959 350.933 182.979 351.971C182 353.01 182.054 354.636 183.093 355.615C184.123 356.59 185.757 356.54 186.736 355.502Z" fill="#006FB7"/>
<path d="M720.077 770.948C721.436 770.533 722.876 771.307 723.287 772.673C723.703 774.032 722.929 775.473 721.562 775.884C720.195 776.295 718.763 775.525 718.352 774.158C717.937 772.799 718.71 771.359 720.077 770.948Z" fill="#00579A"/>
<path d="M251.647 828.106C250.58 827.163 248.949 827.266 248.015 828.337C247.072 829.405 247.175 831.035 248.247 831.97C249.314 832.912 250.944 832.809 251.879 831.738C252.822 830.67 252.719 829.04 251.647 828.106Z" fill="#00579A"/>
<path d="M119.861 766.588C121.053 767.368 121.376 768.967 120.596 770.158C119.816 771.35 118.217 771.673 117.026 770.893C115.834 770.113 115.511 768.514 116.291 767.323C117.071 766.131 118.67 765.808 119.861 766.588Z" fill="#0070B8"/>
<path d="M749.825 202.851C751.25 202.89 752.426 201.767 752.465 200.342C752.503 198.917 751.38 197.741 749.955 197.702C748.53 197.664 747.354 198.787 747.316 200.212C747.277 201.637 748.4 202.813 749.825 202.851Z" fill="#0070B8"/>
<path d="M769.142 746.037C716.066 824.615 643.754 873.201 553.838 894.04" stroke="#00D1FE" stroke-width="0.75" stroke-linecap="round"/>
<path d="M766.913 744.637C767.73 743.475 769.333 743.184 770.495 744.001C771.657 744.818 771.948 746.421 771.132 747.583C770.315 748.745 768.712 749.036 767.55 748.219C766.387 747.403 766.096 745.8 766.913 744.637Z" fill="#00D1FE"/>
<path d="M553.333 891.468C551.95 891.809 551.116 893.208 551.457 894.591C551.799 895.974 553.198 896.809 554.58 896.467C555.963 896.126 556.798 894.727 556.456 893.344C556.115 891.961 554.716 891.126 553.333 891.468Z" fill="#00D1FE"/>
<path d="M528.07 892.503C529.473 892.725 530.428 894.051 530.206 895.454C529.983 896.857 528.658 897.812 527.254 897.59C525.851 897.368 524.897 896.042 525.119 894.638C525.341 893.235 526.667 892.281 528.07 892.503Z" fill="#0070E2"/>
<path d="M146.708 719.315C146.231 717.976 144.766 717.272 143.419 717.744C142.08 718.221 141.376 719.686 141.848 721.033C142.325 722.372 143.79 723.076 145.137 722.604C146.476 722.127 147.181 720.662 146.708 719.315Z" fill="#0070E2"/>
<path d="M408.13 881.978C141.942 821.387 55.095 494.547 255.029 309.574" stroke="#0067D9" stroke-width="0.75" stroke-linecap="round"/>
<path d="M408.609 879.405C409.987 879.737 410.848 881.128 410.515 882.506C410.183 883.884 408.792 884.744 407.414 884.411C406.036 884.079 405.176 882.689 405.509 881.311C405.841 879.933 407.231 879.072 408.609 879.405Z" fill="#0067D9"/>
<path d="M256.735 311.558C257.767 310.577 257.815 308.952 256.834 307.92C255.853 306.888 254.228 306.84 253.196 307.821C252.164 308.802 252.116 310.427 253.097 311.459C254.078 312.491 255.703 312.539 256.735 311.558Z" fill="#0067D9"/>
<g clip-path="url(#clip0_2047_1043)">
<path d="M426.068 759.579L430.605 782.935L425.249 781.755L421.365 761.101L424.505 761.787L412.187 778.874L407.288 777.792L421.215 758.506L426.085 759.586L426.068 759.579Z" fill="white"/>
<path d="M405.489 774.008L400.185 777L396.093 775.662L393.568 770.121L396.95 771.218L399.925 776.085L396.845 775.083L402.113 772.895L405.495 773.991L405.489 774.008ZM402.522 753.134L401.506 756.247L401.581 757.018L399.763 762.601C399.446 763.592 399.492 764.459 399.918 765.207C400.343 765.956 401.169 766.536 402.418 766.938C403.269 767.217 404.146 767.361 405.056 767.352C405.966 767.343 406.786 767.219 407.535 766.959L408.106 770.72C407.031 771.061 405.832 771.206 404.487 771.135C403.154 771.059 401.861 770.814 400.595 770.405C398.159 769.616 396.465 768.418 395.493 766.833C394.522 765.248 394.437 763.235 395.231 760.811L398.201 751.713L402.529 753.117L402.522 753.134ZM407.461 754.476C408.682 754.876 409.675 755.427 410.423 756.151C411.17 756.875 411.672 757.674 411.918 758.554C412.168 759.445 412.144 760.342 411.838 761.26C411.536 762.189 411.035 762.94 410.334 763.511C409.634 764.083 408.715 764.4 407.578 764.463C406.442 764.526 405.056 764.292 403.409 763.767L399.204 762.393L400.077 759.728L403.817 760.951C404.909 761.308 405.711 761.373 406.228 761.155C406.758 760.932 407.097 760.554 407.275 760.022C407.468 759.429 407.39 758.881 407.045 758.389C406.694 757.886 406.124 757.516 405.335 757.253C404.546 756.99 403.777 756.939 403.04 757.097C402.304 757.255 401.683 757.654 401.189 758.291L401.18 755.9C401.833 755.016 402.705 754.456 403.774 754.2C404.843 753.944 406.077 754.048 407.476 754.511L407.461 754.476ZM407.78 747.96C408.357 748.147 408.775 748.483 409.063 748.971C409.335 749.452 409.385 749.998 409.19 750.62C408.989 751.231 408.635 751.671 408.103 751.922C407.577 752.185 407.037 752.218 406.461 752.031C405.884 751.845 405.461 751.497 405.203 750.982C404.933 750.473 404.902 749.905 405.102 749.294C405.302 748.684 405.65 748.261 406.163 748.031C406.68 747.814 407.22 747.78 407.785 747.972L407.78 747.96Z" fill="white"/>
<path d="M378.365 761.884C377.142 761.346 376.16 760.624 375.407 759.723C374.654 758.821 374.227 757.741 374.108 756.504C373.989 755.266 374.282 753.856 374.967 752.294L378.827 743.499L383.291 745.456L379.739 753.567C379.195 754.807 379.075 755.84 379.353 756.664C379.631 757.489 380.27 758.12 381.271 758.557C381.982 758.867 382.672 758.992 383.368 758.935C384.063 758.878 384.703 758.622 385.271 758.162C385.844 757.713 386.343 756.991 386.767 756.024L390.09 748.424L394.549 750.369L387.811 765.746L383.552 763.883L385.415 759.624L385.646 761.258C384.645 762.038 383.506 762.49 382.235 762.595C380.965 762.701 379.671 762.456 378.365 761.884Z" fill="white"/>
<path d="M350.13 746.793C348.992 746.095 348.122 745.243 347.507 744.242C346.892 743.241 346.611 742.113 346.67 740.87C346.728 739.627 347.212 738.275 348.096 736.823L353.144 728.65L357.278 731.203L352.626 738.739C351.921 739.893 351.65 740.894 351.816 741.751C351.983 742.608 352.52 743.324 353.449 743.888C354.103 744.291 354.78 744.519 355.475 744.559C356.17 744.598 356.833 744.43 357.469 744.066C358.105 743.702 358.696 743.065 359.253 742.153L363.605 735.089L367.738 737.642L355.592 757.342L351.459 754.789L357.237 745.423L357.43 747.197C356.33 747.84 355.145 748.117 353.868 748.045C352.592 747.972 351.35 747.554 350.13 746.793Z" fill="white"/>
<path d="M333.532 737.744L335.323 744.701L331.154 741.569L330.491 735.452L333.532 737.744ZM341.716 720.209L339.743 722.825L339.567 723.591L336.045 728.284C335.425 729.113 335.186 729.961 335.343 730.794C335.505 731.64 336.098 732.457 337.15 733.246C337.863 733.79 338.643 734.196 339.516 734.494C340.372 734.784 341.197 734.935 341.981 734.924L341.312 738.666C340.181 738.643 338.997 738.394 337.76 737.89C336.524 737.386 335.365 736.738 334.308 735.936C332.264 734.401 331.036 732.731 330.629 730.908C330.227 729.098 330.783 727.161 332.318 725.117L338.07 717.465L341.711 720.197L341.716 720.209ZM345.955 723.078C346.985 723.849 347.742 724.693 348.213 725.616C348.696 726.534 348.904 727.457 348.849 728.38C348.795 729.303 348.482 730.14 347.906 730.909C347.322 731.694 346.607 732.231 345.757 732.547C344.907 732.863 343.94 732.868 342.84 732.555C341.744 732.255 340.507 731.585 339.128 730.545L335.586 727.882L337.271 725.636L340.41 727.998C341.321 728.681 342.066 729.005 342.629 728.962C343.192 728.919 343.643 728.674 343.981 728.227C344.352 727.725 344.456 727.183 344.282 726.605C344.108 726.028 343.698 725.48 343.028 724.973C342.363 724.478 341.656 724.18 340.908 724.079C340.159 723.979 339.449 724.167 338.768 724.619L339.54 722.343C340.444 721.727 341.445 721.472 342.536 721.567C343.628 721.661 344.768 722.165 345.945 723.054L345.955 723.078Z" fill="white"/>
<path d="M316.044 720.819C315.057 719.919 314.35 718.929 313.93 717.832C313.51 716.735 313.437 715.575 313.717 714.364C314.008 713.148 314.719 711.908 315.865 710.65L322.308 703.524L325.914 706.797L319.97 713.367C319.064 714.372 318.613 715.309 318.619 716.178C318.625 717.048 319.035 717.858 319.834 718.574C320.401 719.097 321.025 719.43 321.706 719.6C322.387 719.771 323.071 719.718 323.756 719.472C324.441 719.225 325.138 718.71 325.859 717.923L331.427 711.774L335.027 715.035L323.774 727.479L320.33 724.36L323.45 720.916L323.154 722.549C321.948 722.973 320.731 723.042 319.493 722.732C318.255 722.422 317.107 721.798 316.038 720.836L316.044 720.819Z" fill="white"/>
<path d="M300.085 704.663C299.188 703.683 298.589 702.621 298.275 701.479C297.965 700.349 298.002 699.185 298.405 698.005C298.809 696.825 299.634 695.661 300.898 694.52L308.008 688.054L311.283 691.661L304.721 697.618C303.718 698.525 303.179 699.416 303.105 700.292C303.03 701.168 303.353 702.001 304.078 702.803C304.595 703.375 305.181 703.779 305.841 704C306.502 704.22 307.18 704.253 307.895 704.077C308.605 703.889 309.349 703.452 310.127 702.737L316.264 697.151L319.539 700.757L302.414 716.322L299.139 712.716L307.293 705.313L306.99 707.06C305.752 707.374 304.537 707.317 303.33 706.883C302.128 706.461 301.051 705.71 300.08 704.651L300.085 704.663Z" fill="white"/>
<path d="M295.935 671.399C296.963 672.89 297.566 674.422 297.755 675.99C297.949 677.57 297.726 679.048 297.102 680.459C296.473 681.859 295.486 683.036 294.109 683.975C292.725 684.931 291.268 685.447 289.759 685.514C288.239 685.586 286.785 685.256 285.369 684.523C283.953 683.789 282.739 682.68 281.71 681.189C280.708 679.728 280.13 678.254 279.994 676.747C279.859 675.24 280.178 673.86 280.957 672.618L284.778 674.527C284.392 675.354 284.221 676.132 284.293 676.863C284.353 677.599 284.612 678.279 285.045 678.914C285.505 679.579 286.078 680.085 286.747 680.427C287.428 680.763 288.156 680.914 288.944 680.845C289.732 680.777 290.53 680.469 291.338 679.921C292.146 679.374 292.72 678.731 293.065 678.004C293.415 677.29 293.544 676.543 293.479 675.795C293.397 675.041 293.14 674.332 292.676 673.655C292.243 673.021 291.684 672.55 291.02 672.22C290.355 671.89 289.557 671.769 288.624 671.857L288.194 667.608C289.613 667.33 291.013 667.53 292.382 668.186C293.752 668.842 294.934 669.909 295.932 671.358L295.935 671.399Z" fill="white"/>
<path d="M270.466 662.814C269.822 661.645 269.481 660.473 269.432 659.303C269.383 658.133 269.697 657.005 270.361 655.95C271.025 654.896 272.093 653.948 273.589 653.125L281.998 648.467L284.355 652.722L276.61 657.018C275.43 657.666 274.694 658.419 274.422 659.253C274.15 660.087 274.275 660.976 274.796 661.92C275.164 662.596 275.644 663.113 276.232 663.489C276.819 663.865 277.476 664.046 278.204 664.03C278.931 664.015 279.76 663.749 280.697 663.245L287.949 659.225L290.306 663.48L270.069 674.706L267.711 670.451L277.343 665.112L276.647 666.748C275.365 666.761 274.203 666.433 273.122 665.739C272.046 665.056 271.166 664.084 270.47 662.826L270.466 662.814Z" fill="white"/>
<path d="M277.794 638.44C278.32 639.756 278.529 641.01 278.439 642.211C278.337 643.417 277.883 644.508 277.063 645.489C276.244 646.471 275.047 647.279 273.473 647.913L264.674 651.448L262.86 646.937L270.96 643.682C272.275 643.157 273.119 642.497 273.503 641.699C273.887 640.9 273.883 640.002 273.474 638.997C273.182 638.304 272.796 637.746 272.262 637.334C271.741 636.917 271.099 636.674 270.349 636.602C269.599 636.53 268.765 636.687 267.842 637.061L260.107 640.163L258.303 635.675L273.874 629.416L275.594 633.704L271.283 635.434L272.249 634.142C273.551 634.244 274.666 634.689 275.621 635.478C276.571 636.255 277.295 637.252 277.771 638.45L277.794 638.44Z" fill="white"/>
<path d="M248.365 619.588L247.6 621.059C247.279 620.724 246.99 620.499 246.706 620.383C246.439 620.274 246.194 620.252 245.996 620.308C245.739 620.388 245.557 620.548 245.455 620.798C245.353 621.049 245.353 621.312 245.441 621.621C245.562 622.041 245.816 622.446 246.197 622.826L245.003 624.034C244.683 623.767 244.402 623.429 244.165 623.03C243.928 622.631 243.738 622.213 243.597 621.746C243.343 620.912 243.352 620.174 243.632 619.558C243.908 618.93 244.41 618.511 245.122 618.295C245.723 618.111 246.309 618.155 246.887 618.41C247.465 618.666 247.953 619.069 248.354 619.593L248.365 619.588ZM254.08 630.211L249.48 627.273L248.254 623.207L250.457 618.21L251.502 621.647L250.035 626.486L249.151 623.563L253.052 626.781L254.096 630.218L254.08 630.211ZM269.515 615.828L266.382 616.772L265.789 617.271L260.176 618.967C259.183 619.274 258.496 619.812 258.126 620.577C257.748 621.359 257.757 622.366 258.132 623.62C258.396 624.478 258.773 625.275 259.295 626.024C259.818 626.773 260.391 627.377 261.036 627.825L258.279 630.452C257.38 629.764 256.57 628.859 255.873 627.727C255.175 626.594 254.625 625.386 254.245 624.12C253.507 621.675 253.506 619.599 254.253 617.887C255.005 616.186 256.595 614.964 259.04 614.226L268.2 611.453L269.521 615.811L269.515 615.828ZM271.228 620.658C271.593 621.889 271.708 623.018 271.549 624.054C271.396 625.073 271.018 625.952 270.429 626.657C269.839 627.361 269.092 627.856 268.17 628.133C267.237 628.415 266.332 628.435 265.467 628.19C264.602 627.945 263.81 627.378 263.109 626.468C262.408 625.559 261.799 624.306 261.307 622.644L260.024 618.408L262.713 617.595L263.851 621.353C264.185 622.444 264.591 623.146 265.075 623.44C265.559 623.735 266.063 623.814 266.6 623.643C267.201 623.46 267.598 623.085 267.801 622.515C268.004 621.945 267.992 621.258 267.753 620.459C267.513 619.66 267.116 619.011 266.578 618.489C266.04 617.968 265.343 617.693 264.539 617.658L266.506 616.277C267.601 616.314 268.565 616.698 269.387 617.432C270.208 618.167 270.824 619.237 271.252 620.649L271.228 620.658Z" fill="white"/>
<path d="M248.532 600.996C248.275 599.692 248.303 598.476 248.624 597.33C248.938 596.201 249.58 595.226 250.53 594.424C251.481 593.623 252.793 593.057 254.467 592.727L263.888 590.868L264.828 595.636L256.137 597.354C254.81 597.622 253.887 598.093 253.371 598.808C252.85 599.512 252.695 600.394 252.906 601.454C253.056 602.208 253.357 602.856 253.791 603.394C254.236 603.926 254.812 604.307 255.507 604.513C256.208 604.73 257.078 604.725 258.114 604.524L266.26 602.925L267.2 607.693L250.734 610.937L249.838 606.371L254.403 605.476L253.203 606.604C251.98 606.232 250.973 605.548 250.157 604.562C249.353 603.572 248.808 602.375 248.522 600.972L248.532 600.996Z" fill="white"/>
<path d="M262.24 571.35C262.325 572.934 262.042 574.368 261.402 575.676C260.761 576.983 259.806 578.036 258.576 578.83C257.334 579.629 255.829 580.068 254.073 580.17C252.328 580.268 250.797 579.984 249.467 579.325C248.138 578.666 247.09 577.722 246.301 576.504C245.523 575.281 245.084 573.874 244.999 572.29C244.918 570.814 245.168 569.533 245.725 568.454C246.294 567.37 247.196 566.52 248.427 565.892C249.657 565.263 251.272 564.889 253.24 564.795C255.191 564.694 256.825 564.893 258.135 565.407C259.445 565.922 260.43 566.685 261.112 567.713C261.794 568.741 262.166 569.955 262.25 571.373L262.24 571.35ZM267.76 566.01L258.325 566.518L253.352 566.478L248.37 566.843L244.944 567.025L244.694 562.382L267.49 561.154L267.748 566.015L267.76 566.01ZM258.208 570.748C258.158 569.938 257.942 569.226 257.525 568.599C257.114 567.983 256.558 567.483 255.836 567.15C255.114 566.816 254.284 566.653 253.326 566.711C252.35 566.761 251.522 566.998 250.871 567.425C250.203 567.844 249.71 568.384 249.381 569.048C249.051 569.713 248.905 570.453 248.955 571.262C248.995 572.048 249.223 572.755 249.611 573.381C250.011 574.002 250.562 574.49 251.265 574.845C251.968 575.2 252.817 575.341 253.792 575.291C254.751 575.234 255.567 575.001 256.235 574.582C256.915 574.157 257.419 573.613 257.754 572.96C258.095 572.29 258.234 571.568 258.194 570.781L258.208 570.748Z" fill="white"/>
<path d="M261.992 550.454C261.934 551.863 261.612 553.105 261.017 554.159C260.438 555.219 259.561 556.031 258.422 556.579C257.27 557.133 255.848 557.371 254.142 557.299L244.67 556.896L244.868 552.036L253.594 552.408C255.003 552.466 256.048 552.22 256.737 551.653C257.426 551.087 257.772 550.263 257.831 549.186C257.863 548.439 257.719 547.766 257.414 547.174C257.11 546.582 256.627 546.093 255.976 545.73C255.325 545.367 254.499 545.147 253.501 545.11L245.185 544.76L245.394 539.924L262.167 540.635L261.973 545.243L257.336 545.047L258.737 544.264C259.874 544.894 260.726 545.767 261.272 546.867C261.817 547.966 262.059 549.166 262.008 550.461L261.992 550.454Z" fill="white"/>
<path d="M243.992 532.443L241.022 527.85L241.595 523.65L245.676 520.023L245.191 523.577L241.843 527.366L242.259 524.34L244.477 528.889L243.992 532.443ZM242.376 522.117L239.098 518.208L239.771 513.259L242.857 518.62L242.388 522.112L242.376 522.117ZM263.851 528.741C263.616 530.487 263.036 532.005 262.101 533.27C261.166 534.535 260.012 535.478 258.622 536.09C257.232 536.702 255.704 536.888 254.061 536.666C252.388 536.442 250.963 535.851 249.785 534.893C248.607 533.935 247.737 532.723 247.187 531.251C246.637 529.78 246.485 528.168 246.72 526.422C246.957 524.648 247.536 523.13 248.462 521.841C249.375 520.557 250.541 519.61 251.936 519.01C253.33 518.409 254.865 518.207 256.526 518.436C258.186 518.665 259.612 519.256 260.79 520.214C261.968 521.172 262.826 522.389 263.381 523.872C263.935 525.355 264.092 526.978 263.856 528.753L263.851 528.741ZM259.888 528.207C259.999 527.385 259.917 526.63 259.647 525.955C259.377 525.279 258.911 524.7 258.256 524.228C257.612 523.751 256.809 523.452 255.868 523.322C254.898 523.19 254.047 523.271 253.324 523.561C252.59 523.856 252.007 524.281 251.558 524.858C251.108 525.435 250.834 526.132 250.73 526.937C250.625 527.742 250.702 528.485 250.978 529.172C251.253 529.859 251.706 530.444 252.333 530.914C252.96 531.384 253.752 531.687 254.721 531.82C255.674 531.945 256.514 531.869 257.265 531.58C258.016 531.292 258.622 530.857 259.067 530.269C259.511 529.68 259.791 528.995 259.9 528.202L259.888 528.207Z" fill="white"/>
<path d="M267.464 508.962C267.068 510.72 266.353 512.212 265.324 513.42C264.296 514.627 263.062 515.479 261.606 515.967C260.15 516.454 258.613 516.519 256.995 516.162C255.344 515.79 253.99 515.073 252.904 514.006C251.819 512.94 251.069 511.65 250.643 510.112C250.218 508.574 250.206 506.932 250.608 505.157C250.99 503.432 251.695 502.014 252.701 500.885C253.707 499.756 254.937 499.059 256.39 498.794L257.573 502.892C256.704 503.161 256.019 503.573 255.519 504.13C255.02 504.686 254.692 505.322 254.523 506.072C254.345 506.866 254.358 507.622 254.568 508.351C254.777 509.079 255.17 509.717 255.753 510.247C256.336 510.777 257.106 511.159 258.053 511.37C259.005 511.593 259.869 511.575 260.628 511.339C261.392 511.114 262.025 510.71 262.531 510.137C263.038 509.564 263.374 508.882 263.557 508.099C263.726 507.35 263.706 506.611 263.495 505.911C263.278 505.199 262.83 504.529 262.139 503.906L264.974 500.706C266.141 501.572 266.946 502.729 267.389 504.176C267.831 505.623 267.852 507.22 267.471 508.945L267.464 508.962Z" fill="white"/>
<path d="M274.594 484.644C273.94 486.511 272.969 487.791 271.652 488.511C270.331 489.219 268.739 489.252 266.855 488.591L252.948 483.768L254.561 479.144L268.384 483.933C269.049 484.166 269.632 484.17 270.126 483.962C270.62 483.754 270.962 483.347 271.172 482.761C271.426 482.017 271.449 481.315 271.234 480.672L274.894 480.586C275.075 481.147 275.129 481.802 275.066 482.507C275.007 483.224 274.852 483.94 274.606 484.639L274.594 484.644ZM259.488 488.783L255.954 487.556L259.762 476.568L263.296 477.795L259.488 488.783Z" fill="white"/>
<path d="M259.434 470.325L257.821 465.106L259.506 461.213L264.426 458.825L262.998 462.112L258.741 464.858L259.954 462.049L260.846 467.032L259.418 470.318L259.434 470.325ZM279.816 471.553C279.06 473.31 278.049 474.691 276.787 475.706C275.525 476.721 274.152 477.34 272.646 477.545C271.14 477.749 269.622 477.529 268.093 476.857C266.57 476.197 265.356 475.254 264.458 474.04C263.56 472.826 263.044 471.436 262.911 469.901C262.772 468.353 263.045 466.798 263.731 465.236C264.385 463.729 265.299 462.514 266.47 461.579C267.646 460.655 268.975 460.096 270.469 459.896C271.964 459.697 273.53 459.966 275.192 460.692C275.365 460.772 275.553 460.859 275.769 460.976C275.984 461.093 276.183 461.203 276.36 461.295L270.931 473.795L268.323 472.663L272.729 462.504L272.747 464.587C271.953 464.214 271.185 464.067 270.454 464.139C269.723 464.211 269.066 464.46 268.484 464.885C267.901 465.31 267.445 465.903 267.115 466.665C266.784 467.427 266.655 468.173 266.739 468.899C266.823 469.625 267.089 470.289 267.554 470.869C268.019 471.448 268.651 471.93 269.475 472.276L270.165 472.567C271.027 472.938 271.847 473.077 272.644 472.964C273.44 472.85 274.153 472.537 274.776 472.011C275.4 471.486 275.911 470.759 276.321 469.825C276.676 469.025 276.852 468.259 276.877 467.528C276.902 466.798 276.778 466.075 276.5 465.347L280.111 464.092C280.608 465.142 280.835 466.306 280.805 467.551C280.768 468.813 280.447 470.124 279.846 471.526L279.816 471.553ZM260.675 459.946L258.579 455.291L260.572 450.715L262.083 456.71L260.675 459.946Z" fill="white"/>
</g>
<path d="M354.726 378.096C353.259 379.049 351.71 379.702 350.133 380.029C348.557 380.356 347.007 380.383 345.485 380.084C343.963 379.784 342.577 379.212 341.273 378.341C339.968 377.469 338.854 376.299 337.929 374.855C337.005 373.412 336.407 371.915 336.163 370.362C335.918 368.81 335.973 367.285 336.326 365.788C336.679 364.29 337.359 362.874 338.31 361.567C339.261 360.26 340.484 359.144 341.979 358.163C343.637 357.101 345.322 356.393 347.062 356.121C348.801 355.849 350.459 355.931 352.09 356.475L350.894 360.968C349.78 360.641 348.693 360.532 347.605 360.669C346.545 360.805 345.54 361.186 344.588 361.812C343.692 362.384 342.958 363.065 342.414 363.854C341.871 364.644 341.49 365.488 341.3 366.387C341.109 367.285 341.109 368.211 341.3 369.164C341.49 370.117 341.871 371.043 342.441 371.942C343.039 372.868 343.719 373.603 344.507 374.147C345.295 374.692 346.138 375.073 347.035 375.264C347.932 375.454 348.856 375.454 349.807 375.264C350.758 375.073 351.682 374.692 352.579 374.12C353.531 373.494 354.292 372.731 354.835 371.833C355.406 370.907 355.759 369.872 355.922 368.701L360.489 369.491C360.298 371.207 359.7 372.786 358.722 374.229C357.743 375.7 356.412 376.952 354.726 378.041V378.096Z" fill="white"/>
<path d="M356.656 353.371L358.314 347.217L362.31 345.147L368.289 347.353L365 349.069L359.184 347.707L362.201 346.155L359.972 351.71L356.683 353.425L356.656 353.371ZM371.741 368.157C370.11 369.001 368.452 369.409 366.821 369.382C365.191 369.355 363.669 368.919 362.31 368.102C360.951 367.285 359.863 366.087 359.075 364.535C358.26 362.956 357.907 361.404 358.015 359.797C358.124 358.218 358.64 356.747 359.564 355.386C360.489 354.024 361.766 352.935 363.424 352.064C365.082 351.193 366.74 350.784 368.398 350.784C370.056 350.784 371.551 351.22 372.91 352.037C374.269 352.854 375.356 354.052 376.171 355.631C376.987 357.21 377.34 358.762 377.204 360.342C377.095 361.921 376.579 363.392 375.628 364.753C374.676 366.115 373.399 367.231 371.741 368.102V368.157ZM369.838 364.454C370.599 364.045 371.197 363.528 371.605 362.874C372.013 362.221 372.23 361.485 372.257 360.641C372.285 359.797 372.04 358.926 371.605 358.055C371.143 357.156 370.545 356.475 369.866 356.012C369.186 355.549 368.452 355.304 367.691 355.277C366.93 355.25 366.169 355.413 365.408 355.822C364.647 356.203 364.076 356.72 363.641 357.374C363.207 358.027 362.989 358.762 362.962 359.579C362.962 360.396 363.152 361.268 363.641 362.166C364.103 363.065 364.674 363.746 365.381 364.208C366.088 364.671 366.821 364.944 367.582 364.971C368.343 364.998 369.104 364.835 369.838 364.454Z" fill="white"/>
<path d="M386.119 341.716C387.396 341.199 388.674 340.981 389.897 341.09C391.12 341.199 392.234 341.662 393.24 342.479C394.246 343.295 395.088 344.548 395.768 346.209L399.518 355.549L394.789 357.455L391.31 348.85C390.794 347.543 390.114 346.672 389.272 346.291C388.456 345.91 387.505 345.91 386.445 346.345C385.711 346.645 385.086 347.08 384.624 347.652C384.162 348.224 383.89 348.878 383.809 349.64C383.727 350.403 383.89 351.301 384.298 352.336L387.532 360.396L382.803 362.302L376.226 345.991L380.737 344.167L382.558 348.687L381.172 347.652C381.308 346.318 381.825 345.147 382.667 344.112C383.51 343.078 384.651 342.288 386.037 341.716H386.119Z" fill="white"/>
<path d="M410.418 351.247C408.896 351.682 407.401 351.764 405.933 351.464C404.466 351.165 403.161 350.511 402.074 349.504C400.96 348.496 400.171 347.189 399.682 345.555C399.193 343.894 399.166 342.37 399.546 340.899C399.954 339.456 400.688 338.203 401.748 337.169C402.835 336.134 404.112 335.371 405.662 334.936C407.129 334.5 408.461 334.418 409.711 334.691C410.962 334.963 412.049 335.589 413.027 336.624C414.006 337.659 414.74 339.102 415.283 340.954C415.827 342.805 415.963 344.439 415.718 345.801C415.473 347.189 414.876 348.333 413.979 349.232C413.082 350.13 411.886 350.811 410.445 351.219L410.418 351.247ZM413.272 358.163C411.696 358.626 410.092 358.898 408.515 358.925C406.939 358.98 405.526 358.762 404.33 358.272L405.227 354.16C406.124 354.541 407.184 354.759 408.352 354.786C409.521 354.814 410.663 354.678 411.777 354.351C413.489 353.861 414.631 353.098 415.202 352.091C415.772 351.083 415.827 349.831 415.392 348.279L414.658 345.773L413.734 341.417L412.375 337.141L411.315 333.547L415.936 332.186L420.04 346.236C420.964 349.34 420.801 351.9 419.632 353.861C418.436 355.821 416.316 357.264 413.272 358.163ZM410.255 346.971C411.098 346.726 411.831 346.318 412.375 345.773C412.919 345.229 413.326 344.575 413.517 343.84C413.707 343.105 413.68 342.315 413.435 341.498C413.19 340.654 412.783 340.001 412.239 339.483C411.696 338.966 411.016 338.666 410.255 338.503C409.494 338.367 408.679 338.421 407.836 338.666C406.993 338.911 406.287 339.293 405.716 339.837C405.145 340.382 404.738 341.008 404.547 341.743C404.33 342.479 404.357 343.268 404.602 344.085C404.846 344.902 405.254 345.556 405.825 346.073C406.395 346.59 407.075 346.917 407.863 347.08C408.651 347.244 409.44 347.189 410.282 346.944L410.255 346.971Z" fill="white"/>
<path d="M441.701 326.985C443.087 326.767 444.338 326.876 445.506 327.257C446.675 327.639 447.654 328.347 448.442 329.409C449.23 330.443 449.774 331.859 450.018 333.602L451.513 343.568L446.485 344.331L445.126 335.154C444.908 333.765 444.446 332.758 443.74 332.186C443.033 331.614 442.109 331.396 440.995 331.56C440.206 331.669 439.5 331.968 438.929 332.404C438.358 332.84 437.923 333.439 437.679 334.147C437.434 334.855 437.38 335.78 437.543 336.87L438.82 345.474L433.792 346.237L431.21 328.837L436.021 328.129L436.727 332.948L435.613 331.641C436.075 330.389 436.809 329.354 437.896 328.564C438.956 327.775 440.234 327.257 441.728 327.04L441.701 326.985Z" fill="white"/>
<path d="M463.146 341.934C461.57 342.016 460.075 341.744 458.716 341.09C457.357 340.464 456.243 339.511 455.4 338.285C454.558 337.06 454.096 335.59 454.014 333.901C453.932 332.186 454.231 330.661 454.965 329.354C455.672 328.047 456.678 327.012 457.982 326.25C459.26 325.487 460.7 325.052 462.304 324.97C463.826 324.888 465.158 325.133 466.299 325.678C467.441 326.222 468.365 327.094 469.072 328.346C469.751 329.572 470.159 331.151 470.267 333.084C470.376 335.018 470.132 336.624 469.561 337.904C468.99 339.184 468.175 340.164 467.087 340.818C466 341.471 464.696 341.852 463.174 341.934H463.146ZM464.315 349.313C462.657 349.395 461.054 349.286 459.504 348.959C457.955 348.633 456.65 348.088 455.59 347.353L457.411 343.568C458.2 344.167 459.178 344.603 460.293 344.902C461.434 345.202 462.576 345.338 463.717 345.256C465.484 345.175 466.788 344.684 467.577 343.84C468.365 342.996 468.718 341.771 468.637 340.191L468.501 337.577L468.609 333.112L468.283 328.646L468.093 324.888L472.904 324.643L473.638 339.266C473.801 342.506 473.067 344.957 471.463 346.59C469.86 348.224 467.468 349.123 464.288 349.286L464.315 349.313ZM463.962 337.713C464.859 337.659 465.647 337.441 466.299 337.033C466.979 336.624 467.495 336.08 467.848 335.426C468.202 334.745 468.365 333.983 468.31 333.139C468.256 332.267 468.039 331.532 467.604 330.906C467.169 330.28 466.625 329.817 465.891 329.517C465.185 329.218 464.369 329.082 463.5 329.109C462.63 329.163 461.842 329.354 461.162 329.762C460.483 330.144 459.939 330.661 459.586 331.342C459.233 332.022 459.042 332.758 459.097 333.629C459.151 334.473 459.368 335.208 459.803 335.862C460.238 336.488 460.809 336.978 461.543 337.305C462.277 337.632 463.065 337.795 463.935 337.741L463.962 337.713Z" fill="white"/>
<path d="M489.456 324.861C490.842 324.915 492.065 325.269 493.153 325.869C494.24 326.468 495.055 327.366 495.626 328.537C496.197 329.708 496.441 331.178 496.387 332.976L495.925 343.023L490.842 342.806L491.25 333.547C491.304 332.131 491.06 331.069 490.462 330.361C489.864 329.653 489.021 329.272 487.88 329.218C487.064 329.191 486.358 329.327 485.678 329.653C485.026 329.98 484.509 330.47 484.102 331.124C483.694 331.777 483.504 332.676 483.449 333.765L483.069 342.452L477.986 342.234L479.074 317.999L484.156 318.217L483.64 329.735L482.552 328.21C483.232 327.067 484.183 326.195 485.379 325.623C486.575 325.052 487.934 324.779 489.429 324.861H489.456Z" fill="white"/>
<path d="M508.753 344.902C506.769 344.63 505.084 344.004 503.725 343.024C502.339 342.043 501.333 340.818 500.708 339.348C500.083 337.877 499.865 336.298 500.11 334.555C500.354 332.84 500.952 331.342 501.931 330.089C502.909 328.837 504.16 327.938 505.655 327.366C507.177 326.794 508.807 326.631 510.574 326.876C512.286 327.121 513.754 327.693 515.031 328.619C516.309 329.545 517.233 330.716 517.858 332.186C518.483 333.629 518.646 335.29 518.402 337.169C518.375 337.36 518.32 337.578 518.266 337.823C518.211 338.068 518.157 338.286 518.103 338.503L503.997 336.543L504.404 333.602L515.874 335.181L513.781 335.78C513.917 334.882 513.863 334.065 513.591 333.357C513.319 332.649 512.884 332.05 512.286 331.587C511.688 331.124 510.955 330.825 510.112 330.716C509.242 330.607 508.454 330.688 507.747 330.961C507.041 331.26 506.443 331.696 505.981 332.322C505.519 332.948 505.22 333.738 505.111 334.664L505.002 335.454C504.866 336.434 504.975 337.305 505.301 338.068C505.627 338.83 506.144 339.456 506.85 339.947C507.557 340.437 508.427 340.736 509.487 340.9C510.384 341.036 511.199 341.009 511.96 340.818C512.694 340.627 513.401 340.301 514.053 339.81L516.336 343.105C515.412 343.895 514.325 344.467 513.047 344.766C511.77 345.093 510.357 345.148 508.78 344.93L508.753 344.902ZM504.241 323.99L509.161 319.905L513.618 320.532L517.233 325.787L513.564 325.27L509.596 320.804L512.966 321.267L507.938 324.507L504.268 323.99H504.241ZM507.095 351.356C506.47 351.274 505.981 351.002 505.6 350.566C505.22 350.131 505.084 349.559 505.165 348.878C505.247 348.197 505.546 347.68 506.035 347.326C506.524 346.972 507.068 346.836 507.693 346.917C508.318 346.999 508.807 347.299 509.188 347.762C509.568 348.252 509.704 348.824 509.596 349.477C509.514 350.158 509.215 350.648 508.726 350.975C508.237 351.302 507.693 351.438 507.068 351.329L507.095 351.356Z" fill="white"/>
<path d="M529.328 348.524L534.846 326.331L540.01 327.611L534.492 349.803L529.328 348.524Z" fill="white"/>
<path d="M546.832 353.698C545.065 353.126 543.624 352.255 542.483 351.056C541.341 349.858 540.608 348.497 540.227 346.945C539.846 345.393 539.955 343.786 540.472 342.125C541.015 340.437 541.885 339.075 543.081 338.04C544.277 337.006 545.69 336.325 547.321 336.053C548.952 335.78 550.61 335.917 552.376 336.461C554.143 337.033 555.611 337.932 556.779 339.102C557.921 340.301 558.682 341.662 559.062 343.214C559.416 344.766 559.334 346.373 558.791 348.061C558.247 349.749 557.377 351.084 556.181 352.118C554.986 353.153 553.572 353.807 551.941 354.106C550.311 354.406 548.598 354.27 546.832 353.698ZM548.109 349.722C548.924 349.994 549.713 350.049 550.474 349.886C551.208 349.722 551.887 349.368 552.512 348.769C553.11 348.197 553.572 347.408 553.898 346.455C554.224 345.474 554.279 344.576 554.116 343.786C553.953 342.969 553.627 342.288 553.11 341.717C552.594 341.145 551.941 340.736 551.126 340.464C550.311 340.192 549.55 340.137 548.789 340.301C548.028 340.464 547.348 340.818 546.75 341.363C546.152 341.907 545.69 342.697 545.364 343.65C545.065 344.603 544.983 345.501 545.147 346.318C545.31 347.135 545.636 347.843 546.152 348.415C546.669 348.987 547.321 349.395 548.109 349.668V349.722Z" fill="white"/>
<path d="M561.509 358.735L568.603 341.58L561.862 338.775L563.52 334.8L581.893 342.424L580.236 346.4L573.495 343.595L566.401 360.75L561.509 358.708V358.735Z" fill="white"/>
<path d="M589.286 372.623C587.846 371.779 586.704 370.798 585.862 369.682C584.992 368.538 584.476 367.395 584.285 366.196C584.095 364.998 584.285 363.882 584.911 362.82C585.481 361.84 586.215 361.077 587.112 360.533C588.009 359.988 589.123 359.661 590.455 359.525C591.787 359.389 593.391 359.416 595.239 359.634C596.571 359.77 597.658 359.797 598.473 359.77C599.288 359.743 599.914 359.634 600.349 359.416C600.783 359.225 601.11 358.926 601.327 358.545C601.599 358.082 601.653 357.592 601.517 357.074C601.381 356.584 600.974 356.121 600.349 355.767C599.669 355.386 599.044 355.223 598.473 355.359C597.902 355.468 597.467 355.795 597.141 356.339C596.978 356.611 596.87 356.938 596.842 357.292C596.815 357.646 596.842 358.082 596.951 358.599C597.06 359.117 597.25 359.852 597.495 360.75L602.305 376.435L598.31 377.851L593.037 360.451C592.738 359.498 592.548 358.626 592.466 357.891C592.385 357.129 592.385 356.448 592.466 355.795C592.548 355.141 592.765 354.569 593.092 354.052C593.662 353.099 594.396 352.391 595.347 351.955C596.299 351.519 597.332 351.383 598.5 351.519C599.669 351.656 600.838 352.064 602.061 352.772C603.23 353.453 604.126 354.215 604.752 355.059C605.377 355.903 605.73 356.829 605.812 357.782C605.893 358.735 605.676 359.688 605.132 360.641C604.67 361.458 604.018 362.085 603.202 362.548C602.387 363.01 601.354 363.283 600.131 363.364C598.908 363.446 597.413 363.392 595.646 363.201C594.451 363.092 593.445 363.065 592.657 363.147C591.868 363.228 591.216 363.419 590.727 363.664C590.238 363.936 589.857 364.318 589.558 364.862C589.286 365.325 589.205 365.815 589.259 366.36C589.314 366.904 589.558 367.422 589.966 367.939C590.374 368.456 590.944 368.919 591.678 369.328C592.82 370.009 594.016 370.335 595.293 370.363C596.543 370.363 597.821 370.063 599.125 369.41C600.403 368.756 601.626 367.748 602.795 366.414L605.703 369.546C604.208 371.234 602.55 372.514 600.702 373.331C598.854 374.148 596.951 374.502 595.021 374.393C593.092 374.284 591.189 373.712 589.368 372.65L589.286 372.623Z" fill="white"/>
<path d="M608.258 383.841L630.382 372.241L634.459 375.482L628.289 399.771L623.94 396.313L629.893 375.264L631.551 376.571L612.47 387.163L608.23 383.787L608.258 383.841ZM615.297 383.188L618.83 380.873L628.072 388.225L626.658 392.228L615.297 383.188Z" fill="white"/>
<path d="M629.594 401.377L645.113 384.576L649.027 388.198L633.508 404.999L629.594 401.377Z" fill="white"/>
<defs>
<linearGradient id="paint0_linear_2047_1043" x1="703.274" y1="318.021" x2="497.338" y2="722.769" gradientUnits="userSpaceOnUse">
<stop stop-color="#CCFF82"/>
<stop offset="1" stop-color="#009685"/>
</linearGradient>
<clipPath id="clip0_2047_1043">
<rect width="114.78" height="372.159" fill="white" transform="translate(184.999 482.503) rotate(-22.8133)"/>
</clipPath>
</defs>
</svg>
