<svg width="176" height="177" viewBox="0 0 176 177" fill="none" xmlns="http://www.w3.org/2000/svg">
<path d="M89.9378 80.7853H103.34C103.44 80.7853 104.2 81.7633 104.2 81.8901V87.9211H110.965C111.092 87.9211 112.07 88.6818 112.07 88.7814V97.022C116.226 93.4541 119.024 88.3467 120.184 83.0039C117.467 86.0013 112.405 84.7154 112.061 80.5589C110.956 80.5589 108.14 80.8396 108.14 79.1915V64.0595H97.5626V67.872C100.642 69.2212 101.755 73.3506 98.7761 75.4787C94.529 78.5123 89.8291 72.9612 93.0258 69.2394C93.723 68.4244 94.7373 68.4515 95.1086 67.6275L95.1538 50.2044C95.4617 49.163 97.0465 49.4166 97.4359 50.2859C97.8252 51.1553 97.4268 52.74 97.5626 53.7271H102.724V47.9496C101.131 47.0078 99.0568 46.2833 97.2547 45.7943C96.1771 45.5045 91.3686 44.7529 91.0426 44.3726C90.6532 43.9107 90.7347 42.9599 91.1694 42.5433C91.8485 41.8732 95.3078 42.7426 96.3763 42.9871C118.608 48.0492 131.204 71.4761 119.332 92.1139C115.103 99.4761 107.107 103.017 107.895 112.888C108.022 114.481 109.543 117.551 106.836 117.406C105.803 117.126 105.197 112.67 105.169 111.665C105.133 110.27 105.586 108.966 105.676 107.599H99.2832V116.827C99.2832 117.144 98.6493 118.239 98.1603 118.185C97.454 118.312 96.7114 117.769 96.5846 117.062C96.802 113.811 96.2767 110.171 96.5665 106.974C96.6571 105.969 96.8201 105.281 97.9158 105.127C100.506 104.774 103.829 105.444 106.501 105.109L109.607 100.101V90.6288H102.598C102.353 90.6288 101.493 89.7685 101.493 89.524V83.2484H90.3C89.5484 84.0997 90.0827 85.6029 89.9287 86.6896H97.6804C97.8434 86.6896 98.4772 87.4774 98.5316 87.8034C98.8848 89.6417 98.2871 92.449 98.5316 94.3959C103.494 96.5874 101.955 103.56 96.2224 102.664C92.256 102.039 91.9391 95.3377 96.0866 94.5589V89.1437H90.3091L89.9378 89.5149V120.512L90.3091 120.884H104.083C105.731 120.884 108.33 123.365 108.927 124.895C109.489 126.317 109.933 131.252 107.415 130.111C106.175 129.55 107.026 128.065 106.899 126.933C106.627 124.578 104.517 123.492 102.38 123.329C93.6868 122.686 84.1512 123.781 75.3673 123.401C73.7825 123.754 72.2612 125.013 72.0076 126.679C71.8446 127.73 72.6506 129.785 71.3285 130.193C68.811 130.963 69.4268 126.127 70.0607 124.732C71.4643 121.608 73.9274 121.001 77.0426 120.893C77.3414 120.884 77.9572 121.074 77.9028 120.648C73.0852 120.358 69.2275 116.247 68.3129 111.665C59.1939 110.551 53.2534 100.699 57.2379 92.2316C46.2806 88.4192 45.3841 72.4632 56.7398 68.7322C56.6855 67.3558 56.0969 66.0699 56.0063 64.6934C55.4901 57.1139 61.1228 50.63 68.7838 50.5123C71.084 43.9832 77.9753 40.4696 84.6583 42.643C87.8369 43.6844 90.1551 46.4916 90.1913 49.9237C90.1913 50.2769 89.9378 50.5576 89.9378 50.6481V80.7853ZM87.4747 120.884V48.4386C87.4747 48.2122 86.4242 46.6274 86.1344 46.3377C84.1693 44.3816 80.1396 44.2911 77.6402 44.9974C73.9184 46.0479 71.6726 49.5252 70.2418 52.8577C68.974 53.1928 67.6971 53.0117 66.3116 53.3558C61.4216 54.5511 58.1616 59.4774 58.4513 64.4308C58.6868 68.4696 61.168 72.1553 65.6415 71.3855C66.8187 71.1863 68.7567 69.2756 69.5807 71.0143C70.3414 72.6171 67.4708 73.5046 66.3116 73.6585C67.0542 75.0259 67.2534 79.6533 64.9714 79.3183C63.2146 79.0647 64.3647 77.1449 64.3647 76.2303C64.3647 74.057 61.8381 73.8125 60.3259 72.8707C58.2068 71.5485 58.6687 70.2083 55.8976 71.7297C48.9882 75.533 49.6674 86.0466 56.7942 89.1889C59.1215 90.2213 58.4242 89.6417 60.1538 89.0169C61.005 88.709 62.9701 88.4373 63.4953 87.9302C64.3556 87.088 63.0607 84.6792 65.6506 85.2497C66.701 85.6119 66.366 88.4192 65.8498 89.2342C65.9947 90.0311 68.6299 90.6378 67.0542 92.2316C65.7683 93.5356 64.2469 90.2847 61.7385 91.0997C58.4332 92.1773 58.1072 97.6016 58.7955 100.472C59.8187 104.756 63.9028 108.831 68.4397 109.057C69.8252 109.12 69.9248 108.423 70.9843 107.97C73.692 106.811 74.2715 107.436 75.2405 104.104C75.5574 103.008 75.3492 100.499 76.9611 100.753C79.4151 101.151 77.0878 106.168 76.6441 107.59C78.1655 107.572 81.842 111.982 79.4242 112.715C77.9119 113.177 77.6765 111.095 76.5173 110.298C75.0503 109.283 72.4876 109.763 71.1021 110.787C70.7761 114.282 74.0995 117.307 77.3142 118.113C78.1926 118.33 79.3246 117.986 80.1034 118.765C80.7191 119.661 80.1305 120.204 79.5872 120.875H87.4565L87.4747 120.884ZM105.187 49.0543V57.784C105.187 59.3053 101.783 58.8616 102.724 56.4347H97.5626V61.5964H109.987C110.087 61.5964 110.847 62.5744 110.847 62.7012V77.8332C112.858 78.3403 112.776 76.8189 114.116 76.0583C115.783 75.1074 117.594 75.2161 119.197 76.2484L120.935 78.3222C121.633 73.9392 121.071 69.3027 119.468 65.1553C118.508 64.7387 115.384 65.5447 114.94 64.4852C114.397 62.3299 116.706 62.511 118.228 62.5835C115.764 56.652 110.603 52.26 105.187 49.0543ZM97.4992 70.7607C96.2496 69.5744 93.5782 71.1048 94.8369 73.0518C96.2133 75.1799 99.2832 72.4541 97.4992 70.7607ZM116.426 77.9056C113.763 78.0414 113.7 82.7956 117.322 81.9625C119.459 81.4735 118.916 77.7788 116.426 77.9056ZM97.0102 96.8138C94.8912 97.2032 95.1448 100.635 97.6804 100.219C99.6907 99.8927 99.2651 96.3972 97.0102 96.8138Z" fill="#4C73A8"/>
<path d="M108.058 132.774C110.648 135.173 109.326 139.801 105.785 140.29L73.339 140.308C68.1864 139.728 68.2135 132.565 73.1126 131.723C83.4813 132.384 95.0997 130.772 105.324 131.687C106.265 131.768 107.352 132.113 108.058 132.765V132.774ZM73.3843 134.214C71.22 134.947 71.5188 137.582 73.819 137.854H105.07C107.497 137.6 107.569 134.44 105.07 134.15L73.3843 134.204V134.214Z" fill="#4C73A8"/>
<path d="M82.2319 142.336C83.7804 142.201 83.545 144.655 83.9253 145.723C85.6368 150.595 92.9447 150.713 94.8736 145.859C95.2992 144.8 95.1634 141.929 96.8386 142.382C98.8037 142.907 97.382 146.439 96.7119 147.697C93.8412 153.076 86.3341 153.43 82.7119 148.657C81.7791 147.426 79.7416 142.563 82.241 142.336H82.2319Z" fill="#4C73A8"/>
<path d="M39.3258 89.5782C38.9092 88.9443 38.9636 88.4644 39.2986 87.8214C39.5069 87.423 43.1835 83.7192 43.6816 83.348C45.1939 82.2432 46.4616 83.4747 45.7825 84.9508C45.6557 85.2315 41.9338 88.9262 41.4901 89.2613C40.7385 89.8227 40.2404 90.1487 39.3349 89.5692L39.3258 89.5782Z" fill="#4C73A8"/>
<path d="M133.17 89.5785C132.255 90.158 131.766 89.8411 131.014 89.2706C130.562 88.9355 126.849 85.2317 126.722 84.9601C126.043 83.484 127.302 82.2434 128.823 83.3572C129.321 83.7195 132.998 87.4232 133.206 87.8307C133.541 88.4646 133.595 88.9536 133.179 89.5875L133.17 89.5785Z" fill="#4C73A8"/>
<path d="M131.685 56.969C132.563 56.7063 133.514 57.0142 133.505 58.0285C133.505 59.1695 129.439 62.0854 128.805 63.4347C127.474 64.4308 125.998 63.4166 126.722 61.8409C126.867 61.5239 131.359 57.0686 131.685 56.969Z" fill="#4C73A8"/>
<path d="M39.6885 56.9691C40.2318 56.8061 40.6484 56.8785 41.1283 57.1593C41.409 57.3223 45.5112 61.4335 45.6742 61.7052C46.5345 63.1903 45.303 64.4128 43.845 63.5344C42.9666 61.8863 40.0779 60.1748 39.2538 58.7802C39.0002 58.3546 38.9187 58.0829 39.0636 57.5849C39.1723 57.2951 39.3806 57.0597 39.6885 56.9691Z" fill="#4C73A8"/>
<path d="M128.243 71.9739C128.759 71.8199 134.274 71.8199 134.79 71.9739C135.524 72.1912 135.569 73.1149 135.415 73.7307C135.334 73.9842 135.125 74.1019 134.908 74.2015C134.283 74.4913 129.33 74.5094 128.506 74.3283C127.184 74.0385 127.31 72.2546 128.252 71.9739H128.243Z" fill="#4C73A8"/>
<path d="M37.7138 72.4719C38.23 72.318 43.7449 72.318 44.261 72.4719C44.9945 72.6892 45.0398 73.6129 44.8859 74.2287C44.8044 74.4823 44.5961 74.6 44.3787 74.6996C43.7539 74.9894 38.8005 75.0075 37.9764 74.8264C36.6543 74.5366 36.7811 72.7526 37.7229 72.4719H37.7138Z" fill="#4C73A8"/>
<path d="M79.7965 51.3272C81.1458 52.6856 78.8637 53.6545 78.2751 54.4786C76.0384 57.639 80.3036 58.5264 80.0591 60.1836C79.7512 62.2483 77.1975 60.7541 76.5002 59.6403C75.5494 60.6726 72.2531 61.6506 71.9724 59.7308C71.6917 57.811 73.9375 58.5536 74.5623 57.9016C75.1872 57.2496 75.1057 55.6377 75.3502 54.7502C75.7124 53.4372 78.411 49.9236 79.7965 51.3182V51.3272Z" fill="#4C73A8"/>
<path d="M83.4815 78.7566C81.1361 79.9701 81.4349 77.0361 80.5565 75.7773C78.8088 73.3051 75.4763 76.7282 74.5617 74.8808C73.7285 73.1965 76.0196 72.9248 77.0429 72.4358C76.4181 70.5794 77.55 66.6492 79.7324 68.9856C80.1671 69.6286 79.497 70.1357 79.3974 70.6428C79.1257 72.1279 80.7104 72.5082 81.5707 73.287C82.9834 74.5639 84.3146 76.864 83.4724 78.7657L83.4815 78.7566Z" fill="#4C73A8"/>
<path d="M79.2776 92.431C80.3281 93.4362 82.3837 97.7286 79.9387 97.955C78.3177 98.0998 78.7615 94.9575 77.1315 93.9705C75.1573 92.7661 73.0564 95.4828 71.9697 93.9705C70.8831 92.4582 73.2466 91.5979 74.451 91.3625C73.6722 90.0584 74.451 86.3366 76.4161 87.3055C77.6929 87.9394 76.6515 88.9808 76.6425 89.7687C76.6243 91.3262 78.4264 91.6251 79.2776 92.4401V92.431Z" fill="#4C73A8"/>
<circle cx="88.5" cy="87.5674" r="87" stroke="#C48C5E" stroke-opacity="0.1"/>
<path d="M89.9534 174.953C41.3786 174.953 2 135.575 2 86.9998" stroke="#C48C5E" stroke-width="3" stroke-miterlimit="10"/>
</svg>
