<svg width="35" height="35" viewBox="0 0 35 35" fill="none" xmlns="http://www.w3.org/2000/svg">
<path d="M17.5 0C27.165 0 35 7.83502 35 17.5C35 27.165 27.165 35 17.5 35C7.83502 35 0 27.165 0 17.5C0 7.83502 7.83502 0 17.5 0ZM17 9.5C17.2761 9.5 17.5 9.72386 17.5 10V22.75L21.6377 18.4053L21.7148 18.3389C21.9057 18.2062 22.1698 18.2213 22.3447 18.3877C22.5197 18.5543 22.5472 18.8175 22.4238 19.0146L22.3623 19.0947L17.3623 24.3447L17.3564 24.3486C17.3539 24.3513 17.3513 24.3539 17.3486 24.3564C17.347 24.358 17.3463 24.3608 17.3447 24.3623C17.3371 24.3696 17.3273 24.3742 17.3193 24.3809C17.3177 24.3822 17.3161 24.3834 17.3145 24.3848C17.3032 24.394 17.293 24.404 17.2812 24.4121C17.2769 24.4151 17.272 24.4171 17.2676 24.4199C17.2593 24.4252 17.2507 24.4298 17.2422 24.4346L17.1855 24.4629C17.1712 24.4686 17.1563 24.4722 17.1416 24.4766C17.1248 24.4815 17.1083 24.487 17.0908 24.4902C17.0753 24.4931 17.0596 24.4937 17.0439 24.4951C17.0309 24.4963 17.018 24.4989 17.0049 24.499C17.0033 24.499 17.0016 24.5 17 24.5C16.998 24.5 16.9961 24.499 16.9941 24.499C16.981 24.4989 16.9682 24.4963 16.9551 24.4951C16.9394 24.4937 16.9237 24.4931 16.9082 24.4902C16.8908 24.487 16.8742 24.4816 16.8574 24.4766C16.8434 24.4724 16.8291 24.4693 16.8154 24.4639C16.8116 24.4623 16.8075 24.4616 16.8037 24.46C16.7877 24.4531 16.7732 24.4431 16.7578 24.4346C16.749 24.4297 16.74 24.4254 16.7314 24.4199C16.727 24.4171 16.7221 24.4151 16.7178 24.4121C16.706 24.404 16.6958 24.394 16.6846 24.3848C16.683 24.3834 16.6813 24.3822 16.6797 24.3809C16.6719 24.3743 16.6627 24.3694 16.6553 24.3623C16.6535 24.3606 16.6521 24.3582 16.6504 24.3564C16.6478 24.3539 16.6452 24.3513 16.6426 24.3486C16.6412 24.3472 16.6391 24.3462 16.6377 24.3447L11.6377 19.0947C11.4474 18.8948 11.4554 18.5781 11.6553 18.3877C11.8552 18.1974 12.1719 18.2054 12.3623 18.4053L16.5 22.75V10C16.5 9.72386 16.7239 9.5 17 9.5ZM1 17.5C1 26.6127 8.3873 34 17.5 34C26.6127 34 34 26.6127 34 17.5C34 8.3873 26.6127 1 17.5 1C8.3873 1 1 8.3873 1 17.5Z" fill="white"/>
</svg>
