<svg width="81" height="80" viewBox="0 0 81 80" fill="none" xmlns="http://www.w3.org/2000/svg">
<path d="M29.4946 9.38131L24.078 0C14.1464 5.73524 8.02734 16.3331 8.02734 27.8036C8.02734 45.5343 22.4016 59.9086 40.1322 59.9086C53.7461 59.9086 65.3831 51.4325 70.0502 39.4696C71.4623 35.8525 72.2371 31.9167 72.2371 27.8036C72.2371 16.3331 66.1181 5.73524 56.1829 0L50.7663 9.38131C57.1243 13.06 61.4003 19.9321 61.4003 27.8036C61.4003 39.5528 51.8778 49.0754 40.1322 49.0754C28.3866 49.0754 18.8641 39.5528 18.8641 27.8036C18.8641 19.9321 23.1402 13.06 29.4982 9.38131" fill="#C48C5E"/>
<path d="M50.6717 44.8789C56.2295 41.4392 59.9842 35.3636 60.187 28.3973L42.6953 29.2844L50.6754 44.8789H50.6717Z" fill="#C48C5E"/>
<path d="M60.1867 27.2097C59.9839 20.2434 56.2329 14.1678 50.6715 10.7281L42.6914 26.3226L60.1831 27.2097H60.1867Z" fill="#C48C5E"/>
<path d="M29.5885 10.7281C24.0307 14.1678 20.276 20.2434 20.0732 27.2097L37.5649 26.3226L29.5849 10.7281H29.5885Z" fill="#C48C5E"/>
<path d="M20.0732 28.3973C20.276 35.3636 24.0271 41.4392 29.5885 44.8789L37.5685 29.2844L20.0769 28.3973H20.0732Z" fill="#C48C5E"/>
<path d="M40.1331 47.8697C43.5764 47.8697 46.817 47.0007 49.6484 45.4728L40.1331 30.7654L30.6143 45.4728C33.4457 47.0007 36.6862 47.8697 40.1331 47.8697Z" fill="#C48C5E"/>
<path d="M49.6477 10.1345C46.8163 8.60652 43.5757 7.73755 40.1324 7.73755C36.6891 7.73755 33.4486 8.60652 30.6172 10.1345L40.1324 24.8419L49.6477 10.1345Z" fill="#C48C5E"/>
<path d="M0 63.9167V75.9629H3.57003V65.9515H5.14142C6.47746 65.9515 7.11471 65.9588 7.11471 67.2007V68.4679C7.11471 69.7062 6.47384 69.88 5.14142 69.88H4.54762V71.9257H5.58314C8.66437 71.9257 10.5146 71.8099 10.5146 68.7359V66.9328C10.5146 64 8.42179 63.9167 5.58314 63.9203H0V63.9167Z" fill="#C48C5E"/>
<path d="M16.0576 63.1276C15.6195 63.1276 15.2646 62.7727 15.2646 62.3346C15.2646 61.8965 15.6195 61.5417 16.0576 61.5417C16.4957 61.5417 16.8505 61.8965 16.8505 62.3346C16.8505 62.7727 16.4957 63.1276 16.0576 63.1276Z" fill="#C48C5E"/>
<path d="M16.0575 57.8375C13.5737 57.8375 11.5605 59.8543 11.5605 62.3345C11.5605 64.8147 13.5737 66.8314 16.0575 66.8314C18.5413 66.8314 20.5508 64.8183 20.5508 62.3345C20.5508 59.8506 18.5377 57.8375 16.0575 57.8375ZM16.0575 65.4266C14.3485 65.4266 12.9654 64.0398 12.9654 62.3345C12.9654 60.6291 14.3485 59.2387 16.0575 59.2387C17.7665 59.2387 19.1496 60.6255 19.1496 62.3345C19.1496 64.0435 17.7665 65.4266 16.0575 65.4266Z" fill="#C48C5E"/>
<path d="M16.0573 64.2824C14.982 64.2824 14.1094 63.4098 14.1094 62.3344C14.1094 61.2591 14.982 60.3865 16.0573 60.3865C17.1327 60.3865 18.0053 61.2591 18.0053 62.3344C18.0053 63.4098 17.1327 64.2824 16.0573 64.2824Z" fill="#C48C5E"/>
<path d="M12.8677 75.9631H14.4535V69.1271H15.6665V74.4242C15.6665 75.4887 16.1372 75.9667 17.3646 75.9667H19.251V69.1307H20.301V67.9612H11.8213V69.1307H12.8713V75.9667L12.8677 75.9631Z" fill="#C48C5E"/>
<path d="M36.012 75.9629V70.6911C36.012 69.4854 35.8201 69.1957 34.4624 69.1957H30.5339V71.2957H32.413V73.9172H30.1465C28.3578 73.9172 27.7894 73.9389 27.7894 72.248V67.6461C27.7894 65.9479 28.8104 65.9552 30.3456 65.9552H31.6382C32.5904 65.9552 32.8765 66.0131 33.6115 65.3396L35.1684 63.9167H30.2768C26.772 63.9167 24.165 63.7103 24.165 67.8162V72.0778C24.165 75.7384 26.0659 75.9665 29.683 75.9665H36.012V75.9629Z" fill="#C48C5E"/>
<path d="M41.6702 75.963V70.5862C41.6702 67.4398 42.8832 65.9517 46.0513 65.9517H47.1737C47.7639 65.9517 47.9304 65.8756 48.5206 65.3362L50.0775 63.9132H46.2721C43.4733 63.9132 41.4457 64.8184 41.0511 67.8164V67.4072C41.0511 66.2884 40.1169 65.9517 38.8642 65.9517H36.8691V66.9039C37.7707 67.0415 38.0314 67.266 38.0314 68.2074V75.963H41.6666H41.6702Z" fill="#C48C5E"/>
<path d="M69.749 67.9539V80H73.319V69.9887H74.8904C76.2265 69.9887 76.8637 69.996 76.8637 71.2379V72.5051C76.8637 73.7434 76.2229 73.9172 74.8904 73.9172H74.2966V75.9629H75.3322C78.4134 75.9629 80.2636 75.8471 80.2636 72.7731V70.9699C80.2636 68.0335 78.1708 67.9539 75.3322 67.9575H69.749V67.9539Z" fill="#C48C5E"/>
<path d="M68.0054 75.963V67.9539H64.4354V73.9137H62.4259C61.0935 73.9137 60.4526 73.7435 60.4526 72.5016V67.9503H57.0527V72.7695C57.0527 75.8399 58.9029 75.9594 61.9841 75.9594H68.0018L68.0054 75.963Z" fill="#C48C5E"/>
<path d="M50.6638 67.9539H48.2596C45.421 67.9539 43.6143 68.0335 43.6143 70.9663V72.7694C43.6143 75.8434 45.1784 75.9593 48.2596 75.9593H50.6638C53.745 75.9593 55.3092 75.8434 55.3092 72.7694V70.9663C55.3092 68.0335 53.5061 67.9539 50.6638 67.9539ZM51.9093 72.5015C51.9093 73.7398 51.5545 73.9136 50.2221 73.9136H48.6977C47.3689 73.9136 47.0141 73.7434 47.0141 72.5015V71.2342C47.0141 69.9923 47.3653 69.786 48.6977 69.786H50.2221C51.5581 69.786 51.9093 69.9923 51.9093 71.2342V72.5015Z" fill="#C48C5E"/>
</svg>
