<?xml version="1.0" encoding="UTF-8"?>
<svg id="Layer_1" data-name="Layer 1" xmlns="http://www.w3.org/2000/svg" viewBox="0 0 152.87 105.06">
  <defs>
    <style>
      .cls-1 {
        fill: #c48c5e;
      }
    </style>
  </defs>
  <path class="cls-1" d="M117.99,73.73c26.1-1.6,41.98-29.87,29.58-53.27-15.95-30.1-61.78-22.81-67.68,10.97-7.96,45.63,21.99,76.83,67.68,71.56,3.61-.42,4.83-1.83,4.09-5.61-.67-3.42-7.44-3.48-10.43-4.56-9.61-3.46-18.16-10.2-23.24-19.09Z"/>
  <path class="cls-1" d="M40.38,73.73c26.1-1.6,41.98-29.87,29.58-53.27C54.01-9.65,8.17-2.35,2.28,31.42c-7.96,45.63,21.99,76.83,67.68,71.56,3.61-.42,4.83-1.83,4.09-5.61-.67-3.42-7.44-3.48-10.43-4.56-9.61-3.46-18.16-10.2-23.24-19.09Z"/>
</svg>