<?xml version="1.0" encoding="UTF-8"?>
<svg id="Layer_1" xmlns="http://www.w3.org/2000/svg" version="1.1" viewBox="0 0 59.5 57.1">
  <!-- Generator: Adobe Illustrator 29.0.1, SVG Export Plug-In . SVG Version: 2.1.0 Build 192)  -->
  <defs>
    <style>
      .st0 {
        fill: #fff;
      }
    </style>
  </defs>
  <path class="st0" d="M28.2,24.8L4.1.7C3.2-.2,1.7-.2.7.7.3,1.2,0,1.8,0,2.4s.3,1.3.7,1.7l24.1,24.1c.2.2.2.5,0,.6L.7,52.9C.3,53.4,0,54,0,54.6,0,55.3.3,55.9.7,56.3c.5.5,1.1.7,1.7.7h0c.6,0,1.3-.3,1.7-.7l24.1-24.1c2.1-2.1,2.1-5.4,0-7.5Z"/>
  <path class="st0" d="M58,24.8L33.9.7c-.9-.9-2.5-.9-3.4,0-.5.5-.7,1.1-.7,1.7s.3,1.3.7,1.7l24.1,24.1c.2.2.2.5,0,.6l-24.1,24.1c-.5.5-.7,1.1-.7,1.7,0,.6.3,1.3.7,1.7.5.5,1.1.7,1.7.7h0c.6,0,1.3-.3,1.7-.7l24.1-24.1c2.1-2.1,2.1-5.4,0-7.5Z"/>
</svg>