<svg width="45" height="45" viewBox="0 0 45 45" fill="none" xmlns="http://www.w3.org/2000/svg">
<path d="M31.8682 18.8579C32.1539 19.1578 32.1423 19.6326 31.8423 19.9182C31.5424 20.2039 31.0677 20.1923 30.782 19.8924L31.8682 18.8579ZM22.2616 10.946C21.9759 10.646 21.9875 10.1713 22.2874 9.88561C22.5874 9.59994 23.0621 9.61152 23.3478 9.91147L22.2616 10.946ZM22.2625 9.91147C22.5481 9.61152 23.0229 9.59994 23.3228 9.88561C23.6228 10.1713 23.6343 10.646 23.3487 10.946L22.2625 9.91147ZM14.8283 19.8924C14.5426 20.1923 14.0679 20.2039 13.7679 19.9182C13.468 19.6326 13.4564 19.1578 13.7421 18.8579L14.8283 19.8924ZM22.0552 10.4287C22.0552 10.0145 22.391 9.67871 22.8052 9.67871C23.2194 9.67871 23.5552 10.0145 23.5552 10.4287H22.0552ZM23.5552 34.2859C23.5552 34.7001 23.2194 35.0359 22.8052 35.0359C22.391 35.0359 22.0552 34.7001 22.0552 34.2859H23.5552ZM31.3251 19.3751L30.782 19.8924L22.2616 10.946L22.8047 10.4287L23.3478 9.91147L31.8682 18.8579L31.3251 19.3751ZM22.8056 10.4287L23.3487 10.946L14.8283 19.8924L14.2852 19.3751L13.7421 18.8579L22.2625 9.91147L22.8056 10.4287ZM22.8052 10.4287H23.5552V34.2859H22.8052H22.0552V10.4287H22.8052Z" fill="#CFA176"/>
<circle cx="22.5" cy="22.5" r="22" transform="matrix(1 0 0 -1 0 45)" stroke="#CFA176"/>
</svg>
