<svg width="35" height="35" viewBox="0 0 35 35" fill="none" xmlns="http://www.w3.org/2000/svg">
<path d="M17.5 0C27.165 0 35 7.83502 35 17.5C35 27.165 27.165 35 17.5 35C7.83502 35 0 27.165 0 17.5C0 7.83502 7.83502 0 17.5 0ZM17.0059 10.501C17.019 10.5011 17.0318 10.5037 17.0449 10.5049C17.0606 10.5063 17.0763 10.5069 17.0918 10.5098C17.1092 10.513 17.1258 10.5184 17.1426 10.5234C17.1566 10.5276 17.1709 10.5307 17.1846 10.5361C17.1884 10.5377 17.1925 10.5384 17.1963 10.54C17.2123 10.5469 17.2268 10.5569 17.2422 10.5654C17.251 10.5703 17.26 10.5746 17.2686 10.5801C17.273 10.5829 17.2779 10.5849 17.2822 10.5879C17.294 10.596 17.3042 10.606 17.3154 10.6152C17.317 10.6166 17.3187 10.6178 17.3203 10.6191C17.3281 10.6257 17.3373 10.6306 17.3447 10.6377C17.3465 10.6394 17.3479 10.6418 17.3496 10.6436C17.3522 10.6461 17.3548 10.6487 17.3574 10.6514C17.3588 10.6528 17.3609 10.6538 17.3623 10.6553L22.3623 15.9053C22.5526 16.1052 22.5446 16.4219 22.3447 16.6123C22.1448 16.8026 21.8281 16.7946 21.6377 16.5947L17.5 12.25V25C17.5 25.2761 17.2761 25.5 17 25.5C16.7239 25.5 16.5 25.2761 16.5 25V12.25L12.3623 16.5947L12.2852 16.6611C12.0943 16.7938 11.8302 16.7787 11.6553 16.6123C11.4803 16.4457 11.4528 16.1825 11.5762 15.9854L11.6377 15.9053L16.6377 10.6553L16.6436 10.6514C16.6461 10.6487 16.6487 10.6461 16.6514 10.6436C16.653 10.642 16.6537 10.6392 16.6553 10.6377C16.6629 10.6304 16.6727 10.6258 16.6807 10.6191C16.6823 10.6178 16.6839 10.6166 16.6855 10.6152C16.6968 10.606 16.707 10.596 16.7188 10.5879C16.7231 10.5849 16.728 10.5829 16.7324 10.5801C16.7407 10.5748 16.7493 10.5702 16.7578 10.5654L16.8145 10.5371C16.8288 10.5314 16.8437 10.5278 16.8584 10.5234C16.8752 10.5185 16.8917 10.513 16.9092 10.5098C16.9247 10.5069 16.9404 10.5063 16.9561 10.5049C16.9691 10.5037 16.982 10.5011 16.9951 10.501C16.9967 10.501 16.9984 10.5 17 10.5C17.002 10.5 17.0039 10.501 17.0059 10.501ZM1 17.5C1 26.6127 8.3873 34 17.5 34C26.6127 34 34 26.6127 34 17.5C34 8.3873 26.6127 1 17.5 1C8.3873 1 1 8.3873 1 17.5Z" fill="white"/>
</svg>
