<svg width="41" height="41" viewBox="0 0 41 41" fill="none" xmlns="http://www.w3.org/2000/svg">
<rect x="0.5" y="0.5" width="40" height="40" rx="20" stroke="#C48C5E"/>
<path d="M29.6027 16.0297C29.4953 15.6371 29.2836 15.2789 28.9888 14.9907C28.694 14.7026 28.3265 14.4947 27.923 14.3879C26.4375 14 20.5 14 20.5 14C20.5 14 14.5625 14 13.077 14.3879C12.6735 14.4947 12.306 14.7026 12.0112 14.9907C11.7164 15.2789 11.5047 15.6371 11.3973 16.0297C11 17.4785 11 20.5 11 20.5C11 20.5 11 23.5215 11.3973 24.9703C11.5047 25.3629 11.7164 25.7211 12.0112 26.0093C12.306 26.2974 12.6735 26.5053 13.077 26.6121C14.5625 27 20.5 27 20.5 27C20.5 27 26.4375 27 27.923 26.6121C28.3265 26.5053 28.694 26.2974 28.9888 26.0093C29.2836 25.7211 29.4953 25.3629 29.6027 24.9703C30 23.5215 30 20.5 30 20.5C30 20.5 30 17.4785 29.6027 16.0297Z" fill="#C48C5E"/>
<path d="M19 23V18L23 20.5L19 23Z" fill="#243B5A"/>
</svg>
