<svg width="120" height="120" viewBox="0 0 120 120" fill="none" xmlns="http://www.w3.org/2000/svg">
<circle cx="60" cy="60" r="59.5" stroke="#B8C3D0"/>
<g clip-path="url(#clip0_2014_1060)">
<path d="M89.35 80.47H84.3V46.45C84.3 45.74 83.69 45.14 82.99 45.14H72.9C72.9 40.3 68.96 36.26 64.02 36.26C59.08 36.26 55.24 40.3 55.24 45.14H53.02C53.63 44.23 53.93 43.02 53.93 41.91V36.26C53.93 32.83 51.1 30 47.67 30H36.26C32.83 30 30 32.83 30 36.26V41.91C30 45.34 32.83 48.17 36.26 48.17H36.36V80.47H31.31C30.6 80.47 30 81.08 30 81.78V83.6C30 87.44 33.13 90.56 36.96 90.56H83.59C87.43 90.56 90.55 87.43 90.55 83.6V81.78C90.55 81.07 89.94 80.47 89.34 80.47H89.35ZM64.12 38.88C67.55 38.88 70.48 41.71 70.48 45.24C70.48 49.58 66.24 52.51 62.2 51.19C59.58 50.38 57.86 47.96 57.86 45.24C57.76 41.71 60.59 38.88 64.12 38.88ZM52.71 65.33C52.71 59.07 57.76 53.92 64.12 53.92C70.48 53.92 75.42 59.07 75.42 65.33V70.38H52.71V65.33ZM32.52 41.91V36.26C32.52 34.24 34.13 32.53 36.25 32.53H47.76C49.78 32.53 51.49 34.15 51.49 36.26V41.91C51.49 43.32 50.68 44.74 49.17 45.34C48.26 45.74 47.66 45.64 47.25 45.64C46.64 45.64 46.14 46.04 46.04 46.65L45.64 48.67L42.31 45.84C42.11 45.64 41.81 45.54 41.5 45.54H36.25C34.13 45.64 32.52 43.93 32.52 41.91ZM38.88 48.17H41C45.84 52.21 45.64 52.11 45.84 52.21C46.14 52.41 46.55 52.41 46.85 52.31C47.25 52.11 47.56 51.81 47.66 51.3L48.27 48.17C48.88 48.17 49.58 47.97 50.19 47.77H55.64C56.25 49.69 57.46 51.4 59.07 52.51C58.36 52.81 57.56 53.22 56.85 53.62C53.12 55.94 50.69 59.88 50.29 64.32C50.19 65.33 50.29 65.53 50.29 71.79C50.29 72.5 50.9 73.1 51.6 73.1H76.83C77.54 73.1 78.14 72.49 78.14 71.79C78.14 64.72 78.14 64.93 78.04 63.92C77.43 58.67 73.9 54.33 69.26 52.51C70.87 51.4 72.09 49.78 72.69 47.77H81.88V80.47H38.88V48.17ZM88.04 83.6C88.04 86.02 86.02 88.04 83.6 88.04H36.96C34.54 88.04 32.52 86.02 32.52 83.6V82.99H88.03V83.6H88.04Z" fill="#20446F"/>
<path d="M48.9808 36.3598C48.9808 35.6498 48.3708 35.0498 47.6708 35.0498H36.3608C35.6508 35.0498 35.0508 35.6598 35.0508 36.3598C35.0508 37.0598 35.6608 37.6698 36.3608 37.6698H47.7708C48.3808 37.5698 48.9808 36.9598 48.9808 36.3598Z" fill="#20446F"/>
<path d="M45.1388 40.0898H38.7787C38.0687 40.0898 37.4688 40.6998 37.4688 41.3998C37.4688 42.0998 38.0787 42.7098 38.7787 42.7098H45.1388C45.8488 42.7098 46.4488 42.0998 46.4488 41.3998C46.4488 40.6998 45.8388 40.0898 45.1388 40.0898Z" fill="#20446F"/>
</g>
<defs>
<clipPath id="clip0_2014_1060">
<rect width="60.56" height="60.56" fill="white" transform="translate(30 30)"/>
</clipPath>
</defs>
</svg>
