<svg width="38" height="40" viewBox="0 0 38 40" fill="none" xmlns="http://www.w3.org/2000/svg">
<g clip-path="url(#clip0_188_1543)">
<path d="M14.8071 20.6714H16.8996V22.7619C16.8996 23.2361 17.3087 23.6369 17.7111 23.6369H21.0913C21.5674 23.6369 21.9028 23.2361 21.9028 22.7619V20.6714H24.069C24.5452 20.6714 24.9476 20.264 24.9476 19.7965V16.4303C24.9476 15.9561 24.5452 15.5554 24.069 15.5554H21.9766V13.4649C21.9766 12.9907 21.5674 12.6567 21.165 12.6567H17.7849C17.3087 12.6567 16.9734 13.0575 16.9734 13.4649V15.6222H14.8742C14.398 15.6222 13.9956 16.0229 13.9956 16.4971V19.8633C13.9286 20.264 14.331 20.6714 14.8071 20.6714ZM15.6186 17.3053H17.7111C18.1873 17.3053 18.5897 16.9045 18.5897 16.4303V14.3398H20.2798V16.4303C20.2798 16.9045 20.6889 17.3053 21.1583 17.3053H23.2508V18.9883H21.1583C20.6822 18.9883 20.2798 19.3891 20.2798 19.8633V21.9538H18.5897V19.8633C18.5897 19.3891 18.1806 18.9883 17.7111 18.9883H15.6186V17.3053Z" fill="#4C73A8"/>
<path d="M33.8072 5.65703C33.8072 5.11604 33.331 4.71531 32.8615 4.84889C28.9381 5.45667 25.0885 5.24962 22.5869 4.30789C22.4528 4.17432 22.3186 4.17432 22.2516 4.17432H16.6381C16.5039 4.17432 16.4369 4.17432 16.3698 4.24111C13.8682 5.18283 10.0119 5.3832 6.08849 4.7821C5.54525 4.71531 5.14285 5.11604 5.14285 5.59025C5.14285 26.6021 4.53254 24.1109 15.4912 35.4851C15.6254 35.6186 15.9003 35.7522 16.1015 35.7522H22.8619C23.0631 35.7522 23.338 35.6854 23.4722 35.4851C34.4242 24.171 33.8206 26.6622 33.8206 5.65703H33.8072ZM31.2385 23.3628C30.1587 26.5954 27.7242 28.6859 22.4461 34.1359H16.4302C11.1587 28.6792 8.72421 26.5954 7.63773 23.3628C6.62502 20.2638 6.75916 15.8223 6.75916 6.59876C10.5484 7.07296 14.1969 6.79913 16.7655 5.8574H22.104C24.6727 6.79913 28.3278 7.06629 32.1104 6.59876C32.1104 15.8223 32.2445 20.2705 31.2318 23.3628H31.2385Z" fill="#4C73A8"/>
<path d="M19.4074 9.69775C18.9313 9.69775 18.5289 10.1052 18.5289 10.5727C18.5289 11.0402 18.938 11.4476 19.4074 11.4476C23.1296 11.4476 26.1678 14.4799 26.1678 18.18C26.1678 21.8801 23.1229 24.9123 19.4074 24.9123C15.6919 24.9123 12.6471 21.8801 12.6471 18.18C12.6471 17.7058 12.2447 17.305 11.8356 17.305C11.3594 17.305 10.957 17.7124 10.957 18.18C10.957 22.8285 14.7463 26.5954 19.4074 26.5954C24.0686 26.5954 27.8578 22.8218 27.8578 18.18C27.8578 13.5381 24.0686 9.69775 19.4074 9.69775Z" fill="#4C73A8"/>
<path d="M19.4097 7.20654C13.3267 7.20654 8.39062 12.1222 8.39062 18.18C8.39062 24.2378 13.3267 29.0867 19.4097 29.0867C25.4926 29.0867 30.4287 24.171 30.4287 18.18C30.4287 12.189 25.4926 7.20654 19.4097 7.20654ZM19.4097 27.4036C14.2724 27.4036 10.1478 23.2292 10.1478 18.18C10.1478 13.1307 14.3394 8.88963 19.4097 8.88963C24.4799 8.88963 28.6716 13.0639 28.6716 18.18C28.7387 23.2292 24.547 27.4036 19.4097 27.4036Z" fill="#4C73A8"/>
<path d="M34.6179 38.3169H25.6242C31.6401 32.1189 34.5508 29.4273 35.9726 25.3198C37.4615 20.8783 37.1195 15.0877 37.1195 1.6163C37.1195 1.0753 36.6433 0.741359 36.1738 0.808148C31.1707 1.54951 26.637 1.28235 23.3239 0.0667891C23.2568 0 23.1227 0 23.0556 0H15.8191C15.752 0 15.6179 0 15.5508 0.0667891C12.2377 1.27567 7.70402 1.54951 2.70084 0.808148C2.1576 0.741359 1.7552 1.14209 1.7552 1.6163C1.7552 15.081 1.41987 20.9451 2.90204 25.3198C4.32386 29.4273 7.22784 32.1189 13.2504 38.3169H4.18972C3.71355 38.3169 3.31115 38.7177 3.31115 39.1251C3.31115 39.5993 3.71355 40 4.18972 40H34.6179C35.0941 40 35.4965 39.5993 35.4965 39.1251C35.4965 38.7243 35.0874 38.3169 34.6179 38.3169ZM15.5508 38.3169C8.92463 31.451 5.81274 28.7527 4.45799 24.7788C3.10324 20.738 3.37821 15.1478 3.37821 2.55802C8.18019 3.1658 12.6401 2.82518 15.9532 1.6163H22.9147C26.2278 2.82518 30.6878 3.1658 35.4898 2.55802C35.4898 15.081 35.758 20.738 34.41 24.7788C33.0552 28.7527 29.95 31.4443 23.3172 38.3169H15.5441H15.5508Z" fill="#4C73A8"/>
<path d="M5.07024 33.2675C5.07024 31.8516 3.9234 30.7095 2.50159 30.7095C1.07977 30.7095 0 31.8516 0 33.2675C0 34.6834 1.14684 35.7587 2.50159 35.7587C3.9234 35.8255 5.07024 34.6834 5.07024 33.2675ZM2.50159 34.1424C2.02541 34.1424 1.62301 33.735 1.62301 33.3343C1.62301 32.8601 2.02541 32.4593 2.50159 32.4593C2.97776 32.4593 3.38016 32.8668 3.38016 33.3343C3.38016 33.735 2.97776 34.1424 2.50159 34.1424Z" fill="#4C73A8"/>
<path d="M35.4983 29.895C34.0765 29.895 32.9297 31.0371 32.9297 32.453C32.9297 33.869 34.0765 34.9443 35.4983 34.9443C36.9202 34.9443 37.9999 33.8022 37.9999 32.453C37.9999 31.0371 36.8531 29.895 35.4983 29.895ZM35.4983 33.2679C35.0222 33.2679 34.6198 32.8671 34.6198 32.3929C34.6198 31.9187 35.0222 31.518 35.4983 31.518C35.9745 31.518 36.3769 31.9187 36.3769 32.3929C36.3769 32.8671 35.9745 33.2679 35.4983 33.2679Z" fill="#4C73A8"/>
</g>
<defs>
<clipPath id="clip0_188_1543">
<rect width="38" height="40" fill="white"/>
</clipPath>
</defs>
</svg>
