<svg width="41" height="40" viewBox="0 0 41 40" fill="none" xmlns="http://www.w3.org/2000/svg">
<path d="M19.9203 18.5383C19.7173 18.4709 19.4399 18.3362 19.2369 18.2014C19.1692 18.1341 19.1015 18.1341 19.1015 18.0667L18.6211 19.0165C19.1015 19.3533 19.7782 19.5622 20.3263 19.5622V20.3099H20.8068V19.6295C21.2128 19.6295 21.6256 19.4948 21.8962 19.2927C22.0316 19.158 22.1669 19.0233 22.2346 18.8818C22.3022 18.6797 22.3699 18.4776 22.3699 18.2688C22.3699 17.7232 22.0992 17.319 21.5511 17.0428C21.1451 16.9081 20.8 16.8407 20.7323 16.7734V15.8909C20.8677 15.8909 21.003 15.9583 21.0707 15.9583C21.2737 16.0256 21.4834 16.093 21.6188 16.2277C21.6865 16.2951 21.7541 16.2951 21.7541 16.2951L22.2346 15.4126C22.0316 15.2779 21.8286 15.2105 21.5511 15.0758C21.2804 15.0084 21.003 14.9411 20.7323 14.8737V14.1934H20.2519V14.8737C19.6361 14.9411 19.0948 15.2105 18.885 15.7562C18.7497 16.093 18.7497 16.5713 18.8173 16.8407C18.9527 17.1102 19.1557 17.319 19.4331 17.4537C19.7714 17.6558 20.1842 17.7232 20.3196 17.7905V18.673C20.1842 18.6056 20.0489 18.5383 19.9068 18.5383H19.9203ZM20.6714 17.8646C20.8068 17.932 20.9421 17.9994 21.0098 18.0667C21.0774 18.1341 21.1451 18.2014 21.1451 18.3362C21.1451 18.5383 21.0098 18.673 20.6647 18.673V17.8579L20.6714 17.8646ZM19.988 16.4365C19.9203 16.3692 19.8526 16.3018 19.8526 16.1671C19.8526 15.965 19.988 15.8303 20.3331 15.7562V16.5713C20.1978 16.5713 20.1301 16.5039 19.9948 16.4365H19.988Z" fill="#4C73A8"/>
<path d="M20.4685 22.4113C23.3309 22.4113 25.6519 20.1007 25.6519 17.2513C25.6519 14.4019 23.3309 12.0913 20.4685 12.0913C17.6062 12.0913 15.2852 14.4019 15.2852 17.2513C15.2852 20.1007 17.6062 22.4113 20.4685 22.4113ZM20.4685 13.8562C22.3768 13.8562 23.9467 15.419 23.9467 17.3187C23.9467 19.2183 22.3768 20.7811 20.4685 20.7811C18.5603 20.7811 16.9904 19.2183 16.9904 17.3187C16.9904 15.419 18.5603 13.8562 20.4685 13.8562Z" fill="#4C73A8"/>
<path d="M37.6572 5.97486C35.8166 5.97486 34.3821 7.47032 34.3821 9.23522L34.4497 18.3359C33.3603 17.8577 32.1287 17.9991 31.1746 18.8142L30.0852 19.6293C30.0852 19.4272 30.1528 19.151 30.1528 18.9489C30.1528 17.3188 29.334 14.1931 27.8318 11.5458C27.1484 10.2524 26.3296 9.23522 25.4431 8.42013C27.0807 8.00922 28.3055 7.33559 28.3799 7.33559C28.7859 7.1335 28.928 6.58787 28.7183 6.18369C28.5153 5.77951 27.9672 5.63805 27.5611 5.84688C27.5611 5.84688 27.2905 5.9816 26.81 6.18369C27.6288 5.23387 28.1093 4.35142 28.1769 4.28406C28.3799 3.87988 28.2446 3.33424 27.8386 3.13216C27.4326 2.93007 26.8845 3.06479 26.6815 3.46897C26.6815 3.46897 25.8627 4.89706 24.6379 5.9816L25.5243 2.51916C25.6597 2.11498 25.389 1.6367 24.9762 1.50198C24.7732 1.43462 23.2033 1.0237 20.95 2.11498C19.7252 2.72798 17.8102 1.6367 17.1268 1.16516C16.8561 0.963076 16.4433 0.963076 16.1726 1.0978C15.902 1.29989 15.6922 1.64344 15.8343 1.98025L17.0591 7.07288C12.6945 9.24869 10.7118 16.5104 10.7118 19.0298C10.7118 19.2319 10.7118 19.508 10.7795 19.7101L9.75772 18.895C8.8036 18.1473 7.57204 17.9452 6.48259 18.4168L6.55026 9.31606C6.55026 7.48379 5.04803 6.0557 3.27513 6.0557C1.50223 6.0557 0 7.53768 0 9.30258V25.2608C0 25.4629 0.0676679 25.7391 0.270672 25.8738L11.1855 36.0591V39.1173C11.1855 39.5956 11.5915 39.9998 12.072 39.9998H28.9213C29.4017 39.9998 29.8077 39.5956 29.8077 39.1173V36.0591L40.7226 25.8738C40.9256 25.7391 40.9932 25.4696 40.9932 25.2608V9.23522C40.9256 7.40296 39.4233 5.97486 37.6504 5.97486H37.6572ZM21.762 3.5296C22.5808 3.12542 23.1966 2.98396 23.7379 2.98396L22.7838 6.58113C22.0327 6.31168 21.2816 6.17695 20.5305 6.17695C19.9147 6.17695 19.3733 6.24432 18.8252 6.37904L18.0741 3.38814C19.0959 3.86641 20.4628 4.13586 21.7552 3.52286L21.762 3.5296ZM13.9193 13.4454C15.0087 10.9328 16.511 9.16786 18.0132 8.4875C18.7643 8.15068 19.5831 8.00922 20.4695 8.00922C23.2642 8.00922 25.2469 10.3871 26.3364 12.4215C27.7709 15.0015 28.3799 17.7836 28.3799 19.0096C28.3799 20.3703 27.5611 21.6569 26.1266 22.6067C23.8056 24.2369 20.5305 24.5737 17.8034 23.9675C14.596 23.2197 12.4171 21.2527 12.4171 19.0096C12.4847 17.7903 12.9652 15.5471 13.9193 13.4387V13.4454ZM22.3778 25.7391L20.4695 27.3019L18.5613 25.7391C19.7861 25.9412 21.153 25.9412 22.3846 25.7391H22.3778ZM12.8975 36.5373H16.2403C16.7207 36.5373 17.1268 36.1332 17.1268 35.6549C17.1268 35.1766 16.714 34.7724 16.2403 34.7724H12.4171L1.70523 24.8566V9.23522C1.70523 8.35277 2.38868 7.67241 3.27513 7.67241C4.16158 7.67241 4.84502 8.35277 4.84502 9.23522C4.77736 20.9833 4.77736 20.2356 4.77736 20.3703C4.50668 21.4548 4.84502 22.6808 5.66381 23.4286L12.1464 29.3363C12.4847 29.6731 13.0328 29.6057 13.3712 29.2689C13.7095 28.9321 13.6419 28.3865 13.3035 28.0496L6.82093 22.1419C6.20515 21.5963 6.20515 20.5791 6.8886 20.0335C7.43671 19.6293 8.18782 19.6293 8.6615 20.0335C8.6615 20.0335 8.24872 19.6967 19.0282 28.3191L18.6154 28.6559C18.4124 28.7906 18.2771 29.0601 18.2771 29.3363V38.1675H12.8163L12.884 36.5373H12.8975ZM20.0568 38.2349V29.8145L20.4628 29.5451L20.8688 29.8145V38.2349H20.05H20.0568ZM39.2271 24.8566L28.5829 34.8398H24.7597C24.2793 34.8398 23.8732 35.2507 23.8732 35.7223C23.8732 36.1938 24.2793 36.6047 24.7597 36.6047H28.1025V38.3022H22.6417V29.471C22.6417 29.2015 22.5064 28.9927 22.3034 28.7906L21.8973 28.4538C32.7445 19.7573 32.2708 20.1682 32.2708 20.1682C32.7513 19.7573 33.4956 19.7573 34.0437 20.1682C34.7272 20.7138 34.7272 21.731 34.1114 22.2766L27.6288 28.0496C27.2905 28.3865 27.2905 28.9321 27.5611 29.2689C27.8995 29.6057 28.4476 29.6057 28.7859 29.3363L35.2685 23.4286C36.155 22.6135 36.4933 21.4616 36.155 20.3703C36.155 20.3029 36.155 20.9833 36.0873 9.23522C36.0873 8.35277 36.7708 7.67241 37.6572 7.67241C38.5437 7.67241 39.2271 8.35277 39.2271 9.23522V24.8566Z" fill="#4C73A8"/>
<path d="M10.231 10.1849C11.6656 10.1849 12.8227 9.03301 12.8227 7.60492C12.8227 6.17683 11.6656 5.09229 10.231 5.09229C8.79648 5.09229 7.70703 6.24419 7.70703 7.60492C7.70703 9.03301 8.79648 10.1849 10.231 10.1849ZM10.231 6.78983C10.7115 6.78983 11.1175 7.194 11.1175 7.60492C11.1175 8.08319 10.7115 8.48737 10.231 8.48737C9.7506 8.48737 9.3446 8.07645 9.3446 7.60492C9.41226 7.194 9.7506 6.78983 10.231 6.78983Z" fill="#4C73A8"/>
<path d="M33.7037 5.97498C35.3412 5.97498 36.7081 4.61425 36.7081 2.98407C36.7081 1.35389 35.3412 -0.00683594 33.7037 -0.00683594C32.0661 -0.00683594 30.6992 1.35389 30.6992 2.98407C30.6992 4.61425 32.0661 5.97498 33.7037 5.97498ZM33.7037 1.69744C34.3871 1.69744 35.0029 2.24308 35.0029 2.99081C35.0029 3.67117 34.4548 4.28417 33.7037 4.28417C33.0202 4.28417 32.4045 3.73853 32.4045 2.99081C32.4045 2.31044 32.9526 1.69744 33.7037 1.69744Z" fill="#4C73A8"/>
</svg>
