<svg width="40" height="40" viewBox="0 0 40 40" fill="none" xmlns="http://www.w3.org/2000/svg">
<path d="M38.1063 21.3581C36.7692 20.0069 34.6662 20.0069 33.3291 21.3581L26.4489 27.8113C25.9545 26.819 24.9726 26.1786 23.8514 26.0379L7.70237 24.2645C7.42382 24.2645 7.13831 24.3349 6.99903 24.546L0.265048 31.3581C-0.0831411 31.71 -0.0831411 32.28 0.265048 32.6389L7.28455 39.7325C7.63274 40.0843 8.1968 40.0843 8.54499 39.7325L10.5088 37.748L25.8152 38.318C26.0241 38.318 26.3096 38.2476 26.4489 38.0365L38.1063 26.2561C39.4433 24.8345 39.4433 22.7093 38.1063 21.3581ZM36.8458 24.9049L25.474 36.4672L10.5157 35.8972L6.86672 32.2096C6.51853 31.8577 5.95446 31.8577 5.60627 32.2096C5.25808 32.5615 5.25808 33.1315 5.60627 33.4904L8.90711 36.8261L7.92522 37.8183L2.09652 31.9281L7.85558 26.1083C24.2832 27.952 23.6494 27.8817 23.726 27.8817C24.4294 27.952 24.9865 28.4517 25.0631 29.1554C25.1327 30.0069 24.4294 30.7881 23.5868 30.7881L14.6731 30.3658C14.1787 30.3658 13.7609 30.7177 13.7609 31.2174C13.7609 31.717 14.1091 32.1392 14.6035 32.1392L23.5171 32.5685C25.0631 32.6389 26.3932 31.5763 26.7483 30.0843C34.889 22.4207 34.5408 22.7022 34.5408 22.7022C35.1745 22.0618 36.2261 22.0618 36.8598 22.7022C37.4935 23.2722 37.4935 24.2645 36.8598 24.8979L36.8458 24.9049Z" fill="#4C73A8"/>
<path d="M9.53446 13.6242H8.19741C7.70298 13.6242 7.28516 14.0464 7.28516 14.5461C7.28516 15.0457 7.70298 15.3976 8.19741 15.3976H10.7253C12.9049 18.0929 16.0595 20.5067 19.2907 23.772C19.6389 24.1238 20.203 24.1238 20.5512 23.772C23.9913 20.2956 27.4314 17.741 29.6111 14.8346H32.2782C32.7726 14.8346 33.1905 14.4124 33.1905 13.9831C33.1905 13.4835 32.7726 13.0612 32.2782 13.0612H30.7322C31.2963 11.8578 31.6445 10.5771 31.6445 9.16255C31.6445 5.68613 28.8381 2.8501 25.398 2.8501C22.7308 2.8501 21.1849 4.05348 19.9941 5.97466C18.8033 4.06051 17.2573 2.8501 14.5902 2.8501C11.1501 2.8501 8.34365 5.68613 8.34365 9.16255C8.27401 10.7952 8.76148 12.2097 9.53446 13.6312V13.6242ZM19.9244 21.8508C17.3966 19.3666 14.8687 17.3821 13.0442 15.3976H15.781C16.1988 15.3976 16.6236 15.0457 16.6236 14.6165L16.6932 14.335L17.2573 16.5376C17.3269 16.8895 17.6751 17.178 18.0999 17.178C18.5247 17.178 18.8033 16.9669 18.9425 16.5376L19.437 15.0457L19.6459 15.468C19.7852 15.8198 20.1403 15.9676 20.5581 15.9676C20.9063 15.8972 21.2615 15.6861 21.3311 15.3272L21.7489 13.6946L22.5916 16.5306C22.6612 16.8825 23.0094 17.1006 23.3645 17.171C23.7127 17.171 24.0679 17.0303 24.2072 16.6713L25.1194 14.7572H27.3687C25.4746 16.9528 22.7378 19.0851 19.9244 21.8508ZM14.5136 4.53905C16.6166 4.53905 17.8144 5.46094 19.1445 8.15622C19.2838 8.43771 19.5623 8.65587 19.9175 8.65587C20.2726 8.65587 20.5512 8.44475 20.6904 8.15622C22.0275 5.46094 23.2183 4.53905 25.3214 4.53905C27.8492 4.53905 29.813 6.59394 29.813 9.07811C29.813 10.4996 29.3952 11.7734 28.6222 12.9768H24.618C24.2698 12.9768 23.9843 13.1879 23.845 13.4764L23.6361 13.8283L22.515 10.0704C22.3757 9.7185 22.0205 9.42997 21.6723 9.42997C21.2476 9.42997 20.969 9.71146 20.8297 10.0704L20.196 12.4842L20.0567 12.273C19.9175 11.9212 19.5623 11.7804 19.2141 11.7804C18.8659 11.7804 18.5804 12.0619 18.4411 12.4208L18.2322 13.202L17.2503 9.51442C17.1111 9.09218 16.7559 8.80365 16.3381 8.87402C15.9203 8.87402 15.5651 9.22589 15.4955 9.65516L15.001 13.6312H11.5609C10.579 12.2097 10.015 10.7952 10.015 9.09218C10.015 6.53764 12.0484 4.55312 14.5066 4.55312L14.5136 4.53905Z" fill="#4C73A8"/>
<path d="M4.8976 22.1395C6.37392 22.1395 7.49509 20.9362 7.49509 19.4442C7.49509 17.9523 6.30429 16.8193 4.8976 16.8193C3.42128 16.8193 2.23047 18.0227 2.23047 19.4442C2.23047 20.9362 3.42128 22.1395 4.8976 22.1395ZM4.8976 18.5927C5.39203 18.5927 5.80986 19.015 5.80986 19.5146C5.80986 20.0143 5.38507 20.4365 4.8976 20.4365C4.41013 20.4365 3.98534 20.0143 3.98534 19.5146C3.98534 19.015 4.40317 18.5927 4.8976 18.5927Z" fill="#4C73A8"/>
<path d="M6.16404 4.39831C7.35485 4.39831 8.34371 3.40605 8.34371 2.19564C8.34371 0.985222 7.36181 0 6.16404 0C4.96627 0 3.98438 0.992259 3.98438 2.19564C3.98438 3.39901 4.96627 4.39831 6.16404 4.39831ZM6.16404 1.7734C6.37296 1.7734 6.58187 1.98452 6.58187 2.19564C6.58187 2.40676 6.37296 2.62491 6.16404 2.62491C5.95513 2.62491 5.74621 2.41379 5.74621 2.19564C5.74621 1.97748 5.95513 1.7734 6.16404 1.7734Z" fill="#4C73A8"/>
<path d="M36.4914 31.9282C35.015 31.9282 33.8242 33.1316 33.8242 34.5531C33.8242 36.045 35.015 37.2484 36.4914 37.2484C37.9677 37.2484 39.0888 36.045 39.0888 34.5531C39.0888 33.0612 37.898 31.9282 36.4914 31.9282ZM36.4914 35.475C35.9969 35.475 35.5791 35.0528 35.5791 34.5531C35.5791 34.0535 35.9969 33.7016 36.4914 33.7016C36.9858 33.7016 37.4036 34.1309 37.4036 34.5531C37.334 35.0528 36.9858 35.475 36.4914 35.475Z" fill="#4C73A8"/>
<path d="M36.9161 8.8668C38.6014 8.8668 40.0081 7.44526 40.0081 5.74224C40.0081 4.03921 38.6014 2.61768 36.9161 2.61768C35.2309 2.61768 33.8242 4.03921 33.8242 5.74224C33.8242 7.44526 35.2309 8.8668 36.9161 8.8668ZM36.9161 4.39811C37.6195 4.39811 38.2532 4.96813 38.2532 5.74224C38.2532 6.453 37.6891 7.0934 36.9161 7.0934C36.2128 7.0934 35.5791 6.52338 35.5791 5.74224C35.5791 5.03147 36.2128 4.39811 36.9161 4.39811Z" fill="#4C73A8"/>
</svg>
