<svg width="40" height="40" viewBox="0 0 40 40" fill="none" xmlns="http://www.w3.org/2000/svg">
<path d="M36.7387 6.65456C34.9431 6.65456 33.5435 8.12015 33.5435 9.84981L33.6095 18.7688C32.5466 18.3001 31.3451 18.4387 30.4143 19.2375L29.1467 20.2344C29.1467 3.92804 29.1467 4.99092 29.1467 4.85889C29.1467 4.79287 29.1467 4.72685 29.0807 4.66084C29.0807 4.59482 29.1467 4.79287 26.5522 0.402707C26.4202 0.138637 26.1495 0 25.8194 0H14.174C13.9099 0 13.6392 0.132035 13.4412 0.402707C12.979 1.1355 10.9787 4.46278 10.9127 4.59482C10.8467 4.72685 10.7807 4.85889 10.7807 4.99092V20.3004L9.51312 19.3035C8.58227 18.5707 7.38076 18.3727 6.31787 18.8348L6.38389 9.91583C6.38389 8.12015 4.9183 6.72058 3.18864 6.72058C1.45899 6.72058 0 8.18617 0 9.91583V25.5554C0 25.7534 0.0660175 26.0241 0.26407 26.1561L10.9127 36.138V39.1352C10.9127 39.6039 11.3154 40 11.7775 40H28.2159C28.6846 40 29.0807 39.6039 29.0807 39.1352V36.138L39.7293 26.1561C39.9274 26.0241 39.9934 25.76 39.9934 25.5554V9.84981C39.9274 8.12015 38.4618 6.65456 36.7321 6.65456H36.7387ZM12.4443 19.9703H17.4352C17.9039 19.9703 18.3 19.5742 18.3 19.1055C18.3 18.6367 17.9039 18.3067 17.4352 18.3067H12.4443V17.5078H17.4352C17.9039 17.5078 18.3 17.1051 18.3 16.643C18.3 16.1809 17.9039 15.7782 17.4352 15.7782H12.4443V5.79634H17.4352V11.6521C17.4352 12.1208 17.8313 12.5169 18.3 12.5169H21.6273C22.0961 12.5169 22.4922 12.1208 22.4922 11.6521V5.79634H27.4831V20.7691H12.4377V19.9703H12.4443ZM19.1055 5.85575H20.7691V10.8467H19.1055V5.85575ZM26.8229 4.19211H22.2941L21.8254 1.66364H25.3507L26.8163 4.19211H26.8229ZM20.1023 1.66364L20.5711 4.12609H19.3101L19.7788 1.66364H20.1089H20.1023ZM14.6427 1.66364H18.168L17.6333 4.19211H13.1045L14.6361 1.66364H14.6427ZM26.3542 22.4327L19.9637 27.6217L13.5732 22.4988H26.3542V22.4327ZM12.5763 36.6067H15.8376C16.3063 36.6067 16.7024 36.2106 16.7024 35.7419C16.7024 35.2731 16.2337 34.9431 15.7716 34.9431H12.0416L1.65704 25.1593V9.84981C1.65704 8.98498 2.32382 8.3182 3.18864 8.3182C4.05347 8.3182 4.72025 8.98498 4.72025 9.84981C4.65423 21.3633 4.65423 20.6305 4.65423 20.7625C4.39016 21.8254 4.72025 23.0269 5.51906 23.7597L11.8435 29.5494C12.1736 29.8795 12.7084 29.8135 13.0451 29.4834C13.3817 29.1533 13.3091 28.6186 12.979 28.2885L6.65456 22.4988C6.0538 21.964 6.0538 20.9672 6.72058 20.4324C7.25532 20.0363 7.98812 20.0363 8.45024 20.4324C8.45024 20.4324 8.05413 20.1023 18.5707 28.5526L18.2406 28.9487C18.0426 29.0807 17.9105 29.3514 17.9105 29.6154V38.2703H12.5829V36.6067H12.5763ZM19.5676 38.2703V30.0182L19.9637 29.7541L20.3598 30.0182V38.2703H19.561H19.5676ZM38.2703 25.1593L27.8858 34.9431H24.1558C23.6871 34.9431 23.291 35.3392 23.291 35.8079C23.291 36.2766 23.6937 36.6727 24.1558 36.6727H27.4171V38.2703H22.0895V29.6154C22.0895 29.3514 21.9574 29.1467 21.7594 28.9487L21.3567 28.6186C31.9393 20.0957 31.4771 20.4984 31.4771 20.4984C31.9393 20.1023 32.6721 20.1023 33.2068 20.4984C33.8736 21.0332 33.8736 22.03 33.2728 22.5648L26.9483 28.3545C26.6183 28.6846 26.6183 29.2193 26.8823 29.5494C27.2124 29.8795 27.7472 29.8795 28.0838 29.6154L34.4083 23.8257C35.2731 23.0269 35.6032 21.898 35.2731 20.8285C35.2731 20.7625 35.2731 21.4293 35.2071 9.90923C35.2071 9.0444 35.8739 8.37762 36.7387 8.37762C37.6036 8.37762 38.2703 9.0444 38.2703 9.90923V25.1527V25.1593Z" fill="#4C73A8"/>
<path d="M25.7581 15.8442H20.7672C20.2984 15.8442 19.9023 16.2403 19.9023 16.7091V19.1715C19.9023 19.6402 20.2984 20.0363 20.7672 20.0363H25.7581C26.2268 20.0363 26.6229 19.6336 26.6229 19.1715V16.7091C26.6229 16.1743 26.2268 15.8442 25.7581 15.8442ZM24.9593 18.3067H21.632V17.5079H24.9593V18.3067Z" fill="#4C73A8"/>
<path d="M25.7589 6.6543H24.0953C23.6266 6.6543 23.2305 7.057 23.2305 7.51913C23.2305 7.98125 23.6266 8.31794 24.0953 8.31794H25.7589C26.2277 8.31794 26.6238 7.92183 26.6238 7.51913C26.6238 7.0504 26.2277 6.6543 25.7589 6.6543Z" fill="#4C73A8"/>
<path d="M25.7589 9.18311H24.0953C23.6266 9.18311 23.2305 9.58581 23.2305 10.0479C23.2305 10.5101 23.6266 10.9128 24.0953 10.9128H25.7589C26.2277 10.9128 26.6238 10.5101 26.6238 10.0479C26.6238 9.51319 26.2277 9.18311 25.7589 9.18311Z" fill="#4C73A8"/>
<path d="M6.65347 6.6545C8.05304 6.6545 9.18194 5.5256 9.18194 4.12603C9.18194 2.72646 8.05304 1.66357 6.65347 1.66357C5.2539 1.66357 4.125 2.79247 4.125 4.12603C4.125 5.5256 5.2539 6.6545 6.65347 6.6545ZM6.65347 3.32721C7.12219 3.32721 7.5183 3.72992 7.5183 4.19204C7.5183 4.65417 7.11559 5.05687 6.65347 5.05687C6.19135 5.05687 5.78864 4.66077 5.78864 4.19204C5.78864 3.72332 6.18475 3.32721 6.65347 3.32721Z" fill="#4C73A8"/>
<path d="M35.7437 32.4805C34.3441 32.4805 33.2812 33.6094 33.2812 34.9429C33.2812 36.3425 34.4101 37.4714 35.7437 37.4714C37.1433 37.4714 38.2722 36.3425 38.2722 34.9429C38.2722 33.5434 37.1433 32.4805 35.7437 32.4805ZM35.7437 35.8078C35.275 35.8078 34.8789 35.4116 34.8789 34.9429C34.8789 34.4742 35.2816 34.0781 35.7437 34.0781C36.2058 34.0781 36.6085 34.4742 36.6085 34.9429C36.6085 35.4116 36.2124 35.8078 35.7437 35.8078Z" fill="#4C73A8"/>
<path d="M3.73162 33.2793C2.60272 33.2793 1.67188 34.2101 1.67188 35.339C1.67188 36.4679 2.60272 37.4054 3.73162 37.4054C4.86052 37.4054 5.79797 36.4745 5.79797 35.339C5.79797 34.2035 4.86712 33.2793 3.73162 33.2793ZM3.73162 35.8078C3.53357 35.8078 3.33552 35.6097 3.33552 35.4117C3.33552 35.2136 3.53357 35.009 3.73162 35.009C3.92967 35.009 4.12773 35.207 4.12773 35.4117C4.12773 35.6163 3.99569 35.8078 3.73162 35.8078Z" fill="#4C73A8"/>
<path d="M33.6812 5.85552C35.2788 5.85552 36.6124 4.52196 36.6124 2.92434C36.6124 1.32672 35.2788 -0.00683594 33.6812 -0.00683594C32.0836 -0.00683594 30.75 1.32672 30.75 2.92434C30.75 4.52196 32.0836 5.85552 33.6812 5.85552ZM33.6812 1.66341C34.348 1.66341 34.9487 2.19815 34.9487 2.93094C34.9487 3.59772 34.414 4.19848 33.6812 4.19848C33.0144 4.19848 32.4136 3.66374 32.4136 2.93094C32.4797 2.19815 33.0144 1.66341 33.6812 1.66341Z" fill="#4C73A8"/>
</svg>
