<svg width="38" height="40" viewBox="0 0 38 40" fill="none" xmlns="http://www.w3.org/2000/svg">
<path d="M37.987 22.7628C37.987 22.2281 37.5306 21.832 37.0678 21.964C36.807 22.03 36.4745 22.03 36.2138 22.0961L33.3193 20.2344V18.5047C33.3193 17.3758 32.4001 16.4384 31.2853 16.4384C30.4313 16.4384 29.7077 16.9731 29.3817 17.7719L28.4625 17.1712V14.7087C28.4625 13.5798 27.5433 12.6423 26.4285 12.6423C25.379 12.6423 24.4598 13.5072 24.3881 14.5701L21.9564 13.0385V3.72999C21.9564 1.66364 20.3136 0 18.2731 0C16.2326 0 14.5898 1.66364 14.5898 3.72999V13.0517L12.3537 14.5172C12.2886 13.4544 11.4346 12.6556 10.3198 12.6556C9.20501 12.6556 8.27929 13.5864 8.27929 14.7219V17.1183L7.42529 17.6531C7.09933 16.9203 6.37571 16.3855 5.58689 16.3855C4.47212 16.3855 3.55293 17.3164 3.55293 18.4519V20.1155L0.528049 22.0432C0.332476 22.1753 0.130383 22.4393 0.130383 22.71L0 26.7041C0 27.2388 0.528049 27.7009 1.04958 27.5689L14.4594 23.9115L14.8506 31.4969L11.3694 33.4973C11.1738 33.6293 11.0434 33.7613 10.9782 34.032L10.1242 37.2273C9.99382 37.762 10.385 38.2901 10.913 38.2901H26.0309C26.5589 38.2901 26.9501 37.7554 26.8197 37.2273L26.0309 33.966C25.9657 33.7679 25.8353 33.5699 25.6397 33.4313L22.1585 31.4375L22.5562 23.8521L25.4507 24.6509C25.4507 30.6387 25.4507 30.9094 28.4104 33.9C28.8732 34.3687 29.3296 34.8308 29.9228 35.4976C30.0532 35.6296 30.3139 35.7617 30.516 35.7617H33.0129C33.2084 35.7617 33.4757 35.6957 33.6061 35.4976C34.1993 34.8968 34.7209 34.3687 35.1185 33.9C38.339 30.6387 38.013 30.7047 38.013 22.7826L37.987 22.7628ZM30.9593 18.4387C30.9593 18.2406 31.1549 18.036 31.357 18.036C31.5591 18.036 31.7482 18.234 31.7482 18.4387V19.1715L31.0245 18.7028L30.9593 18.4387ZM26.0961 14.6427C26.0961 14.4446 26.2916 14.2466 26.4872 14.2466C26.6828 14.2466 26.8784 14.4446 26.8784 14.6427V16.0422L26.1547 15.5735L26.0896 14.6427H26.0961ZM18.3383 1.66364C19.4531 1.66364 20.3788 2.59449 20.3788 3.72999V4.99752H16.2391V3.72999C16.3043 2.60109 17.2235 1.66364 18.3448 1.66364H18.3383ZM10.059 14.6427C10.059 14.4446 10.2546 14.2466 10.4502 14.2466C10.6457 14.2466 10.8413 14.4446 10.8413 14.6427V15.5075L10.1177 15.9762V14.6427H10.0525H10.059ZM5.18923 18.4387C5.18923 18.2406 5.3848 18.036 5.58037 18.036C5.77595 18.036 5.97804 18.234 5.97804 18.4387V18.6367L5.25442 19.1055V18.4387H5.18923ZM21.8847 22.03C21.3567 21.898 20.9003 22.2941 20.8351 22.7628L20.3723 31.8798C20.3723 32.2099 20.5027 32.4806 20.7634 32.6126L24.375 34.6724L24.8379 36.5341H11.9561L12.4189 34.6724L16.0371 32.6126C16.2978 32.4806 16.4999 32.1439 16.4282 31.8798L15.9653 22.7628C15.9653 22.4988 15.835 22.2941 15.6394 22.1621C15.4438 22.03 15.1765 21.964 14.9158 22.03L1.57111 25.6214L1.6363 23.225L15.835 14.174C16.0957 14.0419 16.2261 13.7712 16.2261 13.4412V6.65456H20.3658V13.5072C20.3658 13.7712 20.4961 14.0419 20.7569 14.24L32.5239 21.6273H30.49C30.3596 21.6273 30.2944 21.6273 30.2292 21.6933C29.2448 22.0895 27.8628 22.1621 26.2851 21.8914C25.7571 21.8254 25.3659 22.2215 25.3659 22.6902V22.9543L21.8847 22.0234V22.03ZM36.0834 29.8861C35.6922 31.081 34.7665 31.7478 32.537 34.0782H30.7638C28.5277 31.7478 27.6085 31.081 27.2174 29.8861C26.8914 28.8893 26.8914 27.4237 26.9566 24.4925V23.6277C28.3387 23.7597 29.5838 23.6277 30.6399 23.225H32.7456C33.8604 23.6277 35.1772 23.6937 36.3572 23.6277C36.4224 27.087 36.4224 28.8166 36.0964 29.8861H36.0834Z" fill="#4C73A8"/>
<path d="M8.93604 26.625C8.47318 26.625 8.08203 27.0211 8.08203 27.4898V30.8171C8.08203 31.2858 8.4797 31.6819 8.93604 31.6819C9.39238 31.6819 9.79004 31.2858 9.79004 30.8171V27.4898C9.72485 27.0211 9.32719 26.625 8.93604 26.625Z" fill="#4C73A8"/>
<path d="M5.65088 28.2886C5.19454 28.2886 4.79688 28.6847 4.79688 29.1534V39.1352C4.79688 39.604 5.19454 40.0001 5.65088 40.0001C6.10722 40.0001 6.50489 39.604 6.50489 39.1352V29.1534C6.4397 28.6847 6.04203 28.2886 5.65088 28.2886Z" fill="#4C73A8"/>
<path d="M4.00855 11.6457C5.3906 11.6457 6.50537 10.5168 6.50537 9.11724C6.50537 7.71767 5.3906 6.65479 4.00855 6.65479C2.62649 6.65479 1.51172 7.78368 1.51172 9.11724C1.51172 10.5168 2.62649 11.6457 4.00855 11.6457ZM4.00855 8.31843C4.4714 8.31843 4.86255 8.71453 4.86255 9.18326C4.86255 9.65198 4.46488 10.0481 4.00855 10.0481C3.55221 10.0481 3.15454 9.65198 3.15454 9.18326C3.15454 8.71453 3.55221 8.31843 4.00855 8.31843Z" fill="#4C73A8"/>
<path d="M10.1225 5.85584C11.2373 5.85584 12.1565 4.92499 12.1565 3.78949C12.1565 2.65399 11.2373 1.72314 10.1225 1.72314C9.00775 1.72314 8.08203 2.65399 8.08203 3.78949C8.08203 4.85237 9.00123 5.85584 10.1225 5.85584ZM10.1225 3.32737C10.3181 3.32737 10.5137 3.52542 10.5137 3.73008C10.5137 3.93473 10.3181 4.12618 10.1225 4.12618C9.92694 4.12618 9.72485 3.92813 9.72485 3.73008C9.72485 3.53202 9.92043 3.32737 10.1225 3.32737Z" fill="#4C73A8"/>
<path d="M33.125 9.18315C34.7026 9.18315 36.0195 7.8496 36.0195 6.25198C36.0195 4.65435 34.7026 3.3208 33.125 3.3208C31.5473 3.3208 30.2305 4.65435 30.2305 6.25198C30.2305 7.8496 31.5473 9.18315 33.125 9.18315ZM33.125 4.99104C33.7834 4.99104 34.3766 5.52578 34.3766 6.25858C34.3766 6.92536 33.8486 7.52611 33.125 7.52611C32.4665 7.52611 31.8798 6.99137 31.8798 6.25858C31.945 5.52578 32.4731 4.99104 33.125 4.99104Z" fill="#4C73A8"/>
</svg>
