<svg width="37" height="40" viewBox="0 0 37 40" fill="none" xmlns="http://www.w3.org/2000/svg">
<path d="M36.1645 0H7.79668C7.31064 0 6.89991 0.414007 6.89991 0.903916V33.0447H5.17484C3.17595 33.0447 1.65625 34.5765 1.65625 36.5223C1.65625 38.4682 3.24441 40 5.2433 40H31.7491C34.7132 39.931 36.9928 37.7023 36.9928 34.7835V0.834915C37.0612 0.345006 36.6505 0 36.1645 0ZM3.38132 36.4533C3.38132 35.4804 4.14117 34.7145 5.17484 34.7145H28.7782C28.0868 35.8254 28.0868 37.1502 28.7782 38.1922H5.31175C4.27808 38.2612 3.38132 37.4263 3.38132 36.4533ZM35.3362 34.7145C35.3362 36.6603 33.8165 38.1232 31.7491 38.1922C30.7839 38.1232 30.0241 37.3573 30.0241 36.4533C30.0241 35.5494 30.9208 34.7835 31.886 34.7145C32.3721 34.7145 32.7143 34.3005 32.7143 33.8106C32.7143 33.3207 32.3036 32.9757 31.886 32.9757H8.62498V1.66983H35.3362V34.7145Z" fill="#4C73A8"/>
<path d="M2.55338 32.141C2.89565 32.141 3.24477 31.934 3.38168 31.5821L5.0383 27.2695C5.10675 27.2005 5.10675 27.0625 5.10675 26.9245V8.69435C5.10675 7.23153 3.93617 6.12061 2.55338 6.12061C1.17058 6.12061 0 7.30053 0 8.69435V26.9935C0 27.1315 0 27.2005 0.0684551 27.3385L1.79352 31.7201C1.86198 31.9271 2.20426 32.141 2.55338 32.141ZM1.65661 11.2681H3.38168V12.172H1.65661V11.2681ZM2.55338 7.79043C3.03941 7.79043 3.45014 8.21134 3.45014 8.69435V9.59827H1.72507V8.69435C1.65661 8.20444 2.06735 7.79043 2.55338 7.79043ZM1.65661 13.9108H3.38168V26.7796L2.48492 28.9393L1.58816 26.7796V13.9108H1.65661Z" fill="#4C73A8"/>
<path d="M20.5645 17.1124C20.9067 17.4574 21.4612 17.4574 21.8035 17.1124L26.3558 12.5238C27.1841 11.6889 27.1841 10.2951 26.3558 9.46017C25.5275 8.62526 24.1447 8.62526 23.3164 9.46017L21.1806 11.6199L20.9067 11.2749C20.0784 10.44 18.6956 10.44 17.8673 11.2749C17.039 12.1098 17.039 13.5036 17.8673 14.3386L20.5576 17.1193L20.5645 17.1124ZM19.0516 12.5238C19.1885 12.3858 19.4692 12.3858 19.6745 12.5238L20.5713 13.4277C20.9136 13.7727 21.4681 13.7727 21.8103 13.4277L24.5691 10.647C24.706 10.509 24.9798 10.509 25.192 10.647C25.3289 10.785 25.3289 11.061 25.192 11.2749L21.2559 15.2425L19.1201 13.0827C18.9147 12.9447 18.9147 12.6687 19.0516 12.5238Z" fill="#4C73A8"/>
<path d="M19.6683 22.3287C19.8052 22.4667 20.079 22.6047 20.2913 22.6047H23.6045C23.8099 22.6047 24.0905 22.5357 24.2274 22.3287C27.4722 18.9201 28.9919 17.8091 29.6765 15.6494C30.2994 13.7726 30.1625 11.0608 30.1625 5.56142C30.1625 5.00251 29.6765 4.65751 29.1973 4.72651C27.1299 5.07151 25.3296 4.93351 23.9536 4.4505C23.8167 4.3125 23.6798 4.3125 23.6113 4.3125H20.435C20.3666 4.3125 20.2297 4.3125 20.1612 4.3815C18.7784 4.94041 16.9164 5.00941 14.8491 4.65751C14.2946 4.5885 13.8839 5.00251 13.8839 5.49242C13.8839 11.1988 13.7469 13.7036 14.3699 15.5804C14.9244 17.8091 16.4372 18.9201 19.682 22.3287H19.6683ZM15.4583 6.54124C17.3888 6.74824 19.1138 6.61024 20.4966 6.05133H23.3991C24.7819 6.54124 26.4385 6.67924 28.369 6.54124C28.369 11.1988 28.4374 13.6346 27.9582 15.1664C27.4722 16.8362 26.1647 17.7401 23.1938 20.8728H20.6404C17.601 17.6711 16.3619 16.7672 15.8759 15.1664C15.3899 13.6346 15.4652 11.2678 15.4652 6.54124H15.4583Z" fill="#4C73A8"/>
<path d="M12.008 26.0896H31.8874C32.3734 26.0896 32.7157 25.6687 32.7157 25.1857C32.7157 24.7026 32.3049 24.2817 31.8874 24.2817H12.008C11.522 24.2817 11.1797 24.7026 11.1797 25.1857C11.1797 25.6687 11.522 26.0896 12.008 26.0896Z" fill="#4C73A8"/>
<path d="M29.2658 26.9243H14.6369C14.1509 26.9243 13.8086 27.3383 13.8086 27.8282C13.8086 28.3181 14.2262 28.6631 14.6369 28.6631H29.3342C29.8202 28.6631 30.231 28.2491 30.231 27.8282C30.1625 27.3383 29.7449 26.9243 29.2658 26.9243Z" fill="#4C73A8"/>
<path d="M26.7118 29.5669H17.1897C16.7037 29.5669 16.293 29.9878 16.293 30.4708C16.293 30.9538 16.7037 31.3747 17.1897 31.3747H26.7118C27.1979 31.3747 27.6086 30.9607 27.6086 30.4708C27.6086 29.9809 27.1979 29.5669 26.7118 29.5669Z" fill="#4C73A8"/>
</svg>
