<svg width="120" height="120" viewBox="0 0 120 120" fill="none" xmlns="http://www.w3.org/2000/svg">
<circle cx="60" cy="60" r="59.5" stroke="#B8C3D0"/>
<g clip-path="url(#clip0_2014_1061)">
<path d="M49.8717 70.0699C52.1917 68.4599 53.7117 65.8299 53.7117 62.7999C53.7117 57.9599 49.7717 53.9199 44.8317 53.9199C39.8917 53.9199 36.0517 57.9599 36.0517 62.7999C36.0517 65.8299 37.5617 68.4499 39.8917 70.0699C34.7417 72.0899 31.0117 77.1399 31.0117 82.9899V89.3499C31.0117 90.0599 31.6217 90.6599 32.3217 90.6599H57.5517C58.2617 90.6599 58.8617 90.0499 58.8617 89.3499V82.9899C58.7617 77.1399 55.1317 72.0899 49.8817 70.0699H49.8717ZM38.5717 62.7999C38.5717 59.3699 41.4017 56.4399 44.9317 56.4399C48.4617 56.4399 51.2917 59.2699 51.2917 62.7999C51.2917 66.3299 48.4617 69.1599 44.9317 69.1599C41.4017 69.1599 38.5717 66.2299 38.5717 62.7999ZM56.2317 88.0399H53.7117V82.9899C53.7117 82.2799 53.1017 81.6799 52.4017 81.6799C51.7017 81.6799 51.1917 82.2899 51.1917 82.9899V88.0399H38.5717V82.9899C38.5717 82.2799 37.9617 81.6799 37.2617 81.6799C36.5617 81.6799 36.0517 82.2899 36.0517 82.9899V88.0399H33.5317V82.9899C33.5317 76.7299 38.5817 71.5799 44.9417 71.5799C51.3017 71.5799 56.2417 76.7299 56.2417 82.9899V88.0399H56.2317Z" fill="#20446F"/>
<path d="M82.6809 70.0699C85.0009 68.4599 86.5209 65.8299 86.5209 62.7999C86.5209 57.9599 82.5809 53.9199 77.6409 53.9199C72.7009 53.9199 68.7609 57.8599 68.7609 62.7999C68.7609 65.8299 70.2709 68.4499 72.5909 70.0699C67.4409 72.0899 63.7109 77.1399 63.7109 82.9899V89.3499C63.7109 90.0599 64.3209 90.6599 65.0209 90.6599H90.2509C90.9609 90.6599 91.5609 90.0499 91.5609 89.3499V82.9899C91.5609 77.1399 87.9309 72.0899 82.6809 70.0699ZM71.3709 62.7999C71.3709 59.3699 74.2009 56.4399 77.7309 56.4399C81.2609 56.4399 84.0909 59.2699 84.0909 62.7999C84.0909 66.3299 81.2609 69.1599 77.7309 69.1599C74.2009 69.1599 71.3709 66.2299 71.3709 62.7999ZM89.0409 88.0399H86.5209V82.9899C86.5209 82.2799 85.9109 81.6799 85.2109 81.6799C84.5109 81.6799 83.9009 82.2899 83.9009 82.9899V88.0399H71.3809V82.9899C71.3809 82.2799 70.7709 81.6799 70.0709 81.6799C69.3709 81.6799 68.7609 82.2899 68.7609 82.9899V88.0399H66.3409V82.9899C66.3409 76.7299 71.3909 71.5799 77.7509 71.5799C84.1109 71.5799 89.1609 76.6299 89.1609 82.9899V88.0399H89.0609H89.0409Z" fill="#20446F"/>
<path d="M90.3481 30H67.6381C66.9281 30 66.3281 30.61 66.3281 31.31V48.97C66.3281 49.68 66.9381 50.28 67.6381 50.28H90.3481C91.0581 50.28 91.6581 49.67 91.6581 48.97V31.31C91.5581 30.6 90.9481 30 90.3481 30ZM89.0381 47.66H68.8481V32.52H89.0381V47.66Z" fill="#20446F"/>
<path d="M48.6608 38.8802H44.8208V35.0502C44.8208 34.3402 44.2108 33.7402 43.5108 33.7402C42.8108 33.7402 42.2008 34.3502 42.2008 35.0502V38.8802H38.3608C37.6508 38.8802 37.0508 39.4902 37.0508 40.1902C37.0508 40.8902 37.6608 41.5002 38.3608 41.5002H42.2008V45.1302C42.2008 45.8402 42.8108 46.4402 43.5108 46.4402C44.2108 46.4402 44.8208 45.8302 44.8208 45.1302V41.2902H48.6608C49.3708 41.2902 49.9708 40.6802 49.9708 39.9802C49.9708 39.3702 49.3608 38.8702 48.6608 38.8702V38.8802Z" fill="#20446F"/>
<path d="M32.31 50.19H55.02C55.73 50.19 56.33 49.58 56.33 48.88V31.31C56.33 30.6 55.72 30 55.02 30H32.31C31.61 30 31 30.61 31 31.31V48.97C31 49.58 31.61 50.18 32.31 50.18V50.19ZM33.52 32.52H53.71V47.66H33.52V32.52Z" fill="#20446F"/>
<path d="M73.59 44.4299C73.99 45.1399 74.8 45.3399 75.41 44.8299L86.01 37.2599C86.62 36.8599 86.72 36.0499 86.31 35.5399C85.91 34.9299 85.1 34.8299 84.59 35.2399L75.2 41.9999L73.79 39.4799C73.49 38.8699 72.68 38.6699 72.07 38.9799C71.46 39.2799 71.26 40.0899 71.57 40.6999L73.59 44.4299Z" fill="#20446F"/>
</g>
<defs>
<clipPath id="clip0_2014_1061">
<rect width="60.66" height="60.66" fill="white" transform="translate(31 30)"/>
</clipPath>
</defs>
</svg>
