<svg width="120" height="120" viewBox="0 0 120 120" fill="none" xmlns="http://www.w3.org/2000/svg">
<circle cx="60" cy="60" r="59.5" stroke="#B8C3D0"/>
<g clip-path="url(#clip0_2014_1052)">
<path d="M65.3281 40.1299H45.1381C44.4281 40.1299 43.8281 40.7399 43.8281 41.4399C43.8281 42.1399 44.4381 42.7499 45.1381 42.7499H65.3281C66.0381 42.7499 66.6381 42.1399 66.6381 41.4399C66.6381 40.6299 66.0281 40.1299 65.3281 40.1299Z" fill="#20446F"/>
<path d="M65.3281 46.3901H45.1381C44.4281 46.3901 43.8281 47.0001 43.8281 47.7001C43.8281 48.4001 44.4381 49.0101 45.1381 49.0101H65.3281C66.0381 49.0101 66.6381 48.4001 66.6381 47.7001C66.6381 47.0001 66.0281 46.3901 65.3281 46.3901Z" fill="#20446F"/>
<path d="M65.3281 52.75H45.1381C44.4281 52.75 43.8281 53.36 43.8281 54.06C43.8281 54.76 44.4381 55.37 45.1381 55.37H65.3281C66.0381 55.37 66.6381 54.76 66.6381 54.06C66.6381 53.25 66.0281 52.75 65.3281 52.75Z" fill="#20446F"/>
<path d="M65.3281 59.0098H45.1381C44.4281 59.0098 43.8281 59.6198 43.8281 60.3198C43.8281 61.0198 44.4381 61.5298 45.1381 61.5298H65.3281C66.0381 61.5298 66.6381 60.9198 66.6381 60.2198C66.6381 59.5198 66.0281 59.0098 65.3281 59.0098Z" fill="#20446F"/>
<path d="M65.3281 65.3599H45.1381C44.4281 65.3599 43.8281 65.9699 43.8281 66.6699C43.8281 67.3699 44.4381 67.9799 45.1381 67.9799H65.3281C66.0381 67.9799 66.6381 67.3699 66.6381 66.6699C66.6381 65.9699 66.0281 65.3599 65.3281 65.3599Z" fill="#20446F"/>
<path d="M65.3281 71.6201H45.1381C44.4281 71.6201 43.8281 72.2301 43.8281 72.9301C43.8281 73.6301 44.4381 74.2401 45.1381 74.2401H65.3281C66.0381 74.2401 66.6381 73.6301 66.6381 72.9301C66.6381 72.2301 66.0281 71.6201 65.3281 71.6201Z" fill="#20446F"/>
<path d="M65.3281 77.98H45.1381C44.4281 77.98 43.8281 78.59 43.8281 79.29C43.8281 79.99 44.4381 80.6 45.1381 80.6H65.3281C66.0381 80.6 66.6381 79.99 66.6381 79.29C66.6381 78.48 66.0281 77.98 65.3281 77.98Z" fill="#20446F"/>
<path d="M89.35 84.24H72.49C72.69 83.84 72.79 83.43 72.79 82.93H73.6C75.82 82.93 77.64 81.31 77.84 79.09H78.65C80.97 79.09 82.99 77.17 82.99 74.75V30.34C82.99 28.02 81.07 26 78.65 26H52C49.78 26 47.96 27.61 47.76 29.84H46.95C44.73 29.84 42.91 31.45 42.71 33.68H41.9C39.58 33.68 37.56 35.6 37.56 38.02V82.43C37.56 83.04 37.66 83.64 37.96 84.25H31.31C30.6 84.25 30 84.86 30 85.56C30 86.26 30.61 86.87 31.31 86.87H89.35C90.06 86.87 90.66 86.26 90.66 85.56C90.56 84.85 89.95 84.25 89.35 84.25V84.24ZM52 28.73H78.75C79.76 28.73 80.57 29.54 80.57 30.55V74.96C80.57 75.97 79.76 76.78 78.75 76.78H77.94V34.28C77.94 31.96 76.02 29.94 73.6 29.94H50.28C50.48 29.23 51.19 28.73 52 28.73ZM46.96 32.56H73.71C74.72 32.56 75.53 33.37 75.53 34.38V78.79C75.53 79.8 74.72 80.61 73.71 80.61H72.9V38.21C72.9 35.89 70.98 33.87 68.56 33.87H45.24C45.44 33.06 46.15 32.56 46.96 32.56ZM41.91 84.24C40.9 84.24 40.09 83.43 40.09 82.42V38.01C40.09 37 40.9 36.19 41.91 36.19H68.66C69.67 36.19 70.48 37 70.48 38.01V82.42C70.48 83.43 69.67 84.24 68.66 84.24H41.91Z" fill="#20446F"/>
</g>
<defs>
<clipPath id="clip0_2014_1052">
<rect width="60.66" height="60.86" fill="white" transform="translate(30 26)"/>
</clipPath>
</defs>
</svg>
