<svg width="102" height="111" viewBox="0 0 102 111" fill="none" xmlns="http://www.w3.org/2000/svg">
<path d="M54.419 69.8256C54.0422 69.4461 53.2696 69.4461 52.7043 69.8256C51.7621 70.7743 50.2358 70.7743 49.2748 69.8256C48.8979 69.4461 48.1253 69.4461 47.56 69.8256C47.1831 70.2051 47.1831 70.9641 47.56 71.5333C49.4632 73.4308 52.5158 73.4308 54.419 71.5333C54.7959 70.9641 54.7959 70.2051 54.419 69.8256Z" fill="#20446F"/>
<path d="M74.223 90.8874L65.2723 87.0925C63.746 86.3335 62.2197 85.5745 60.9006 84.4361C59.7512 83.4874 59.1859 82.9181 58.2437 81.5899H58.0553L57.8668 81.4002H57.1131V79.5028C61.6732 77.2258 64.9143 72.4822 64.9143 67.1694V61.8566C65.1027 62.0463 65.2912 62.0463 65.4796 62.2361H66.0449C66.2333 62.0463 66.4218 61.8566 66.6102 61.6669V61.4771C68.1365 54.0771 67.5524 48.1951 64.5186 44.0207C62.2385 40.7951 59.3743 39.8463 59.1859 39.8463C58.4321 39.6566 57.6595 40.2258 57.6595 40.9848V41.7438C55.7563 41.1746 52.3268 40.4156 48.332 40.4156C42.8108 40.6053 35.1981 42.6925 31.0148 52.1797C30.8264 52.7489 31.0148 53.3181 31.5801 53.5079C32.5223 53.8874 34.8212 54.6463 36.7244 55.0258V66.9797C36.7244 72.2925 39.777 77.0361 44.3372 79.313V81.2104H43.7719C43.5834 81.2104 43.7719 81.2104 43.5834 81.4002C42.8297 82.5387 41.8687 83.2976 40.5308 84.4361C39.3813 85.3848 37.8738 86.1438 36.5359 86.9027L27.5853 90.6976C22.2526 92.9745 19.2188 101.513 19.2188 106.636V109.862C19.2188 110.431 19.7841 111 20.3682 111H81.082C81.6473 111 82.2315 110.431 82.2315 109.862V106.826C82.6084 101.703 79.5746 93.1643 74.2418 90.8874H74.223ZM44.714 84.2463L44.9025 84.4361L49.2742 88.8002L46.0331 92.9745L42.9804 85.954C43.5457 85.3848 44.1299 84.8156 44.6952 84.2463H44.714ZM57.2827 84.0566C57.848 84.6258 58.4321 85.1951 58.9974 85.7643L55.7563 92.7848L52.7037 88.6104L57.2638 84.0566H57.2827ZM48.7089 42.5028C53.8531 42.313 58.4133 44.2104 58.6017 44.2104H59.167C59.167 44.2104 59.3555 44.2104 59.3555 44.0207C59.3555 44.0207 59.5439 44.0207 59.5439 43.831V43.6412V43.2617V42.6925C61.6355 44.2104 65.065 47.8156 64.2925 56.354C63.7271 55.2156 63.9156 55.4053 63.9156 55.2156H63.1618L61.824 55.7848L62.2008 54.2669C62.3893 53.3181 61.4471 52.5592 60.6745 52.9387L56.6797 53.6976L56.8681 52.7489C56.8681 52.3694 56.6797 51.8002 56.3028 51.6104C55.9259 51.4207 55.3418 51.4207 54.9649 51.6104C54.9649 51.6104 48.5016 56.354 34.0298 51.6104C37.0824 45.9181 42.0194 42.8822 48.69 42.5028H48.7089ZM39.5886 66.9797V55.5951C47.0129 56.9233 51.7615 55.9745 54.4373 54.8361V55.4053C54.2489 56.354 55.191 56.9233 55.9636 56.7335L59.5816 55.4053L59.2047 56.9233C59.0163 57.872 59.9584 58.631 60.731 58.2515L62.6342 57.6822V67.1694C62.6342 73.431 57.4899 78.554 51.2151 78.554C44.7517 78.3643 39.6074 73.2412 39.6074 66.9797H39.5886ZM54.6257 80.2617V83.2976L51.0078 86.9027L47.2014 83.1079V80.2617C49.6699 81.0207 52.1384 81.0207 54.6257 80.2617ZM21.8757 106.826C21.8757 101.892 24.9283 94.6822 28.7347 93.1643L37.6854 89.3694C38.8349 88.8002 39.9655 88.231 41.1149 87.472L44.9213 95.8207C45.2982 96.5797 46.4476 96.7694 47.013 96.0104L48.7277 93.9233L45.1098 109.103H31.9758V102.082C31.9758 101.513 31.4105 100.944 30.8264 100.944C30.2422 100.944 29.6769 101.513 29.6769 102.082V109.103H21.8757V106.826ZM51.0078 93.7335L54.8142 109.103H47.2014L51.0078 93.7335ZM80.121 108.913H72.6967V101.892C72.6967 101.323 72.1314 100.754 71.5472 100.754C70.9631 100.754 70.3978 101.323 70.3978 101.892V108.913H57.2638L53.6459 94.113L54.9838 96.0104C55.5491 96.7694 56.6985 96.5797 57.0754 95.8207L61.0702 87.472C62.2197 88.231 63.3503 88.8002 64.4997 89.3694L73.4504 93.1643C77.2568 94.872 80.3095 101.892 80.3095 106.826L80.121 108.913Z" fill="#20446F"/>
<path d="M30.0751 15.7487L41.1174 23.7179L36.9342 36.6205C36.7457 37.1897 36.9341 37.5692 37.311 37.9487C37.6879 38.3282 38.2532 38.3282 38.6489 37.9487L49.6912 29.9795L60.7335 37.9487C61.1104 38.3282 61.6757 38.3282 62.0714 37.9487C62.4483 37.5692 62.6367 37.1897 62.4483 36.6205L58.265 23.7179L69.3073 15.7487C69.6842 15.3692 69.8726 14.9897 69.6842 14.4205C69.4958 13.8513 69.1189 13.6615 68.5347 13.6615H54.8355L51.0103 0.758974C50.8218 0.189744 50.445 0 49.8608 0C49.2767 0 48.9186 0.379487 48.7114 0.758974L44.5281 13.6615H30.8288C30.2635 13.6615 29.8867 14.041 29.6794 14.4205C29.491 14.9897 29.6794 15.3692 30.0563 15.7487H30.0751ZM45.3007 15.9385C45.866 15.9385 46.2428 15.559 46.4501 15.1795L49.8797 4.93333L53.3092 15.1795C53.4976 15.7487 53.8745 15.9385 54.4586 15.9385H65.3125L56.5503 22.3897C56.1734 22.7692 55.985 23.1487 56.1734 23.7179L59.6029 33.9641L50.8407 27.5128C50.4638 27.1333 49.8985 27.1333 49.5028 27.5128L40.7405 33.9641L44.1701 23.7179C44.3585 23.1487 44.1701 22.7692 43.7932 22.3897L35.031 15.9385H45.3007Z" fill="#20446F"/>
<path d="M66.2341 24.477C66.0456 25.0462 66.2341 25.4257 66.6109 25.8052L73.8469 30.9283L71.1899 39.277C71.0015 39.8463 71.1899 40.2257 71.5668 40.6052C71.9437 40.9847 72.509 40.9847 72.9047 40.6052L80.1406 35.4821L87.3765 40.6052C87.5649 40.795 87.7534 40.795 88.1303 40.795C88.884 40.795 89.4681 40.036 89.2797 39.277L86.4155 30.9283L93.6514 25.8052C94.0283 25.4257 94.2167 25.0462 94.0283 24.477C93.8398 23.9078 93.463 23.718 92.8788 23.718H83.9282L81.2712 15.3693C81.0828 14.8001 80.7059 14.6104 80.1218 14.6104C79.5376 14.6104 79.1796 14.9898 78.9723 15.3693L76.3154 23.718H67.3647C66.7994 23.5283 66.4225 23.9078 66.2152 24.477H66.2341ZM77.0691 25.995C77.6344 25.995 78.0113 25.6155 78.2186 25.236L80.1218 19.5437L82.025 25.236C82.2134 25.8052 82.5903 25.995 83.1744 25.995H89.2609L84.305 29.6001C83.9282 29.9796 83.7397 30.3591 83.9282 30.9283L85.8313 36.6206L80.8755 33.0155C80.4986 32.636 79.9333 32.636 79.5376 33.0155L74.3933 36.6206L76.2965 30.9283C76.485 30.3591 76.2965 29.9796 75.9197 29.6001L70.9638 25.995H77.0503H77.0691Z" fill="#20446F"/>
<path d="M5.70792 25.8052L12.9438 30.9283L10.2869 39.277C10.0985 39.8463 10.2869 40.2257 10.6638 40.6052C11.0406 40.9847 11.6059 40.9847 12.0017 40.6052L19.2376 35.4821L26.4735 40.6052C26.6619 40.795 26.8504 40.795 27.2272 40.795C27.981 40.795 28.5651 40.036 28.3767 39.277L25.5313 30.9283L32.7672 25.8052C33.1441 25.4257 33.3325 25.0462 33.1441 24.477C32.9557 23.9078 32.5788 23.718 31.9946 23.718H23.044L20.387 15.3693C20.1986 14.8001 19.8217 14.6104 19.2376 14.6104C18.6534 14.6104 18.2954 14.9898 18.0881 15.3693L15.4312 23.718H6.46166C5.89635 23.718 5.51948 24.0975 5.31221 24.477C5.12377 24.8565 5.31221 25.4257 5.68908 25.8052H5.70792ZM16.1661 25.995C16.7314 25.995 17.1083 25.6155 17.3155 25.236L19.2187 19.5437L21.1219 25.236C21.3104 25.8052 21.6872 25.995 22.2714 25.995H28.3578L23.402 29.6001C23.0251 29.9796 22.8367 30.3591 23.0251 30.9283L24.9283 36.6206L19.9725 33.0155C19.5956 32.636 19.0303 32.636 18.6346 33.0155L13.6787 36.6206L15.5819 30.9283C15.7704 30.3591 15.5819 29.9796 15.2051 29.6001L10.2681 25.995H16.1661Z" fill="#20446F"/>
<path d="M91.5423 54.4565C86.9822 54.4565 83.1758 58.2514 83.1758 62.8053C83.1758 67.3591 86.9822 71.154 91.5423 71.154C96.1024 71.154 99.9088 67.3591 99.9088 62.8053C99.9088 58.2514 96.1024 54.4565 91.5423 54.4565ZM91.5423 68.6873C88.3012 68.6873 85.6443 66.0309 85.6443 62.8053C85.6443 59.5796 88.3012 56.9232 91.5423 56.9232C94.7834 56.9232 97.4403 59.5796 97.4403 62.8053C97.4403 66.0309 94.7834 68.6873 91.5423 68.6873Z" fill="#20446F"/>
<path d="M8.17927 70.9639C4.93819 70.9639 2.28125 73.6203 2.28125 76.8459C2.28125 80.0716 4.93819 82.728 8.17927 82.728C11.4204 82.728 14.0773 80.0716 14.0773 76.8459C14.0773 73.6203 11.4204 70.9639 8.17927 70.9639ZM8.17927 80.451C6.27608 80.451 4.56132 78.9331 4.56132 76.8459C4.56132 74.7587 6.08764 73.2408 8.17927 73.2408C10.2709 73.2408 11.7972 74.7587 11.7972 76.8459C11.7972 78.9331 10.0825 80.451 8.17927 80.451Z" fill="#20446F"/>
<path d="M100.285 101.702C101.232 101.702 102 100.938 102 99.9948C102 99.0517 101.232 98.2871 100.285 98.2871C99.338 98.2871 98.5703 99.0517 98.5703 99.9948C98.5703 100.938 99.338 101.702 100.285 101.702Z" fill="#20446F"/>
<path d="M73.0741 77.9847C74.0212 77.9847 74.7889 77.2202 74.7889 76.277C74.7889 75.3339 74.0212 74.5693 73.0741 74.5693C72.1271 74.5693 71.3594 75.3339 71.3594 76.277C71.3594 77.2202 72.1271 77.9847 73.0741 77.9847Z" fill="#20446F"/>
<path d="M98.0038 43.8306C98.946 43.8306 99.7186 44.5895 99.7186 45.5383C99.7186 46.487 98.946 47.2459 98.0038 47.2459C97.0616 47.2459 96.2891 46.487 96.2891 45.5383C96.2891 44.5895 97.0616 43.8306 98.0038 43.8306Z" fill="#20446F"/>
<path d="M89.6405 7.02051C90.5827 7.02051 91.3553 7.77948 91.3553 8.7282C91.3553 9.67692 90.5827 10.4359 89.6405 10.4359C88.6984 10.4359 87.9258 9.67692 87.9258 8.7282C87.9258 7.77948 88.6984 7.02051 89.6405 7.02051Z" fill="#20446F"/>
<path d="M27.7929 6.83091C28.7399 6.83091 29.5076 6.06635 29.5076 5.12322C29.5076 4.18009 28.7399 3.41553 27.7929 3.41553C26.8458 3.41553 26.0781 4.18009 26.0781 5.12322C26.0781 6.06635 26.8458 6.83091 27.7929 6.83091Z" fill="#20446F"/>
<path d="M1.71476 39.0874C2.65694 39.0874 3.42952 39.8464 3.42952 40.7951C3.42952 41.7438 2.65694 42.5028 1.71476 42.5028C0.772585 42.5028 0 41.7438 0 40.7951C0 39.8464 0.772585 39.0874 1.71476 39.0874Z" fill="#20446F"/>
<path d="M20.746 52.1797C21.6882 52.1797 22.4608 52.9387 22.4608 53.8874C22.4608 54.8361 21.6882 55.5951 20.746 55.5951C19.8038 55.5951 19.0312 54.8361 19.0312 53.8874C19.0312 52.9387 19.8038 52.1797 20.746 52.1797Z" fill="#20446F"/>
<path d="M28.9257 78.1743C29.8679 78.1743 30.6405 78.9333 30.6405 79.882C30.6405 80.8307 29.8679 81.5897 28.9257 81.5897C27.9835 81.5897 27.2109 80.8307 27.2109 79.882C27.2109 78.9333 27.9835 78.1743 28.9257 78.1743Z" fill="#20446F"/>
<path d="M8.76164 99.6152C9.70381 99.6152 10.4764 100.374 10.4764 101.323C10.4764 102.272 9.70381 103.031 8.76164 103.031C7.81946 103.031 7.04688 102.272 7.04688 101.323C7.04688 100.374 7.81946 99.6152 8.76164 99.6152Z" fill="#20446F"/>
</svg>
