<svg width="111" height="111" viewBox="0 0 111 111" fill="none" xmlns="http://www.w3.org/2000/svg">
<path d="M35.3859 69.2793C35.003 68.8965 34.2179 68.8965 33.6435 69.2793C32.6669 70.2362 31.1351 70.2362 30.1586 69.2793C29.7756 68.8965 28.9906 68.8965 28.4161 69.2793C28.0332 69.662 28.0332 70.4275 28.4161 71.0017C30.3501 72.9155 33.452 72.9155 35.3859 71.0017C35.7689 70.4275 35.7689 69.662 35.3859 69.2793Z" fill="#20446F"/>
<path d="M55.5096 90.5225L46.4144 86.6949C44.8634 85.9294 43.3124 85.1639 41.9721 84.0156C40.804 83.0587 40.2296 82.4846 39.2722 81.1449H39.0807L38.8893 80.9535H38.1233V79.0397C42.7571 76.7432 46.0505 71.9587 46.0505 66.6001V61.2415H46.242C46.242 61.2415 46.4335 61.2415 46.4335 61.4328H47.3909C47.5824 61.2415 47.7738 61.0501 47.9653 60.8587V60.6673C49.5163 53.2035 48.9227 47.2708 45.8399 43.0604C43.523 39.6156 40.6126 38.8501 40.6126 38.8501C39.8466 38.6587 39.0616 39.2328 39.0616 39.9984V40.7639C37.1277 40.1897 33.6427 39.4242 29.5834 39.4242C23.9731 39.6156 16.2374 41.7208 11.9865 51.2897C11.7951 51.8639 12.178 52.438 12.561 52.6294C13.729 53.0122 15.8544 53.7777 17.7883 54.1604V66.4087C17.7883 71.7673 20.8903 76.5518 25.5241 78.8484V80.7621H25.1411C25.1411 80.7621 24.9496 80.7621 24.9496 80.9535L24.7582 81.1449C23.9922 82.2932 23.0157 83.0587 21.6562 84.207C20.4882 85.1639 18.9564 85.9294 17.5969 86.6949L8.50164 90.5225C3.0828 92.819 0 101.431 0 106.598V109.852C0 110.426 0.574435 111 1.16802 111H62.8623C63.4368 111 64.0304 110.426 64.0304 109.852V106.598C64.0304 101.431 60.9284 92.819 55.5287 90.5225H55.5096ZM25.5241 83.8242L30.1578 88.4173L27.0559 92.6277L23.7625 85.5466C24.3369 84.9725 24.9305 84.3984 25.5049 83.8242H25.5241ZM38.2957 83.6328C38.8701 84.207 39.4637 84.7811 40.0381 85.3552L36.7447 92.4363L33.6427 88.2259L38.2765 83.6328H38.2957ZM29.5834 41.7208C34.8108 41.5294 39.4445 43.4432 39.636 43.4432H40.2105C40.3381 43.4432 40.4019 43.3794 40.4019 43.2518L40.5934 43.0604V42.869V42.4863V41.9121C42.7188 43.4432 46.2037 47.0794 45.4187 55.6915C44.8442 54.5432 45.0357 54.7346 45.0357 54.5432H44.2698L42.9103 55.1173L43.2933 53.5863C43.4847 52.6294 42.5273 51.8639 41.7423 52.2466L37.8744 53.7777L38.0659 52.8208C38.0659 52.438 37.8744 51.8639 37.4915 51.6725C37.1085 51.4811 36.5341 51.4811 36.132 51.6725C36.132 51.6725 29.5643 56.457 14.8587 51.6725C17.75 45.1656 22.7859 42.1035 29.5643 41.7208H29.5834ZM20.2967 66.4087V54.9259C27.841 56.2656 32.6662 55.3087 35.3852 54.1604V54.7346C35.1937 55.6915 36.1511 56.2656 36.9362 56.0742L40.6126 54.7346L40.2296 56.2656C40.0381 57.2225 40.804 57.988 41.7806 57.6053L43.7145 57.0311V66.6001C43.7145 72.9156 38.4871 78.0828 32.1109 78.0828C25.5432 77.8915 20.3159 72.7242 20.3159 66.4087H20.2967ZM35.5767 79.8053V82.8673L31.9003 86.5035L28.0324 82.6759V79.8053C30.5408 80.5708 33.0683 80.5708 35.5767 79.8053ZM2.31689 106.598C2.31689 101.622 5.41884 94.3501 9.2867 92.819L18.3819 88.9915C19.5499 88.4173 20.6988 87.8432 21.8668 87.0777L25.7347 95.4984C26.1176 96.2639 27.2857 96.4553 27.8601 95.6897L29.6026 93.5846L25.9262 108.895H13.5567V101.814C13.5567 101.24 12.9822 100.666 12.3886 100.666C11.7951 100.666 11.2206 101.24 11.2206 101.814V108.895H2.69984V106.598H2.31689ZM31.9003 93.3932L35.7682 108.895H28.2239L31.9003 93.3932ZM61.5028 108.704H53.0012V101.622C53.0012 101.048 52.4268 100.474 51.8332 100.474C51.2396 100.474 50.6652 101.048 50.6652 101.622V108.704H38.2957L34.6193 93.7759L35.9788 95.6897C36.5532 96.4553 37.7212 96.2639 38.1042 95.4984L42.1635 87.0777C43.3316 87.8432 44.4804 88.4173 45.6484 88.9915L54.7437 92.819C58.6115 94.5415 61.7135 101.622 61.7135 106.598L61.522 108.704H61.5028Z" fill="#20446F"/>
<path d="M109.642 35.7878L102.48 35.0223C102.097 33.6826 101.523 32.343 100.929 31.1947L105.372 25.6447C105.755 25.2619 105.755 24.4964 105.372 24.1137L99.5699 18.3723C99.1869 17.9895 98.4018 17.9895 98.0189 18.3723L92.4086 22.774C91.2405 22.1999 89.9002 21.6257 88.5407 21.243L87.7748 14.1619C87.7748 13.5878 87.2004 13.0137 86.6068 13.0137H78.2966C77.7222 13.0137 77.1286 13.3964 77.1286 14.1619L76.3627 21.243C75.0032 21.6257 73.6628 22.1999 72.4948 22.774L66.8845 18.3723C66.5015 17.9895 65.7165 17.9895 65.3335 18.3723L59.5317 24.1137C59.1488 24.4964 59.1488 25.2619 59.5317 25.6447L63.974 31.1947C63.3996 32.343 62.806 33.6826 62.4231 35.0223L55.2618 35.7878C54.6873 35.7878 54.0938 36.3619 54.0938 36.9361V45.1654C54.0938 45.7395 54.4767 46.3137 55.2618 46.3137L62.4231 47.0792C62.806 48.4188 63.3804 49.5671 63.974 50.9068L59.5317 56.4568C59.1488 56.8395 59.1488 57.605 59.5317 57.9878L65.3335 63.7292C65.7165 64.1119 66.5015 64.1119 66.8845 63.7292L72.4948 59.3275C73.6628 59.9016 75.0032 60.4757 76.3627 60.8585L77.1286 67.9395C77.1286 68.5137 77.703 69.0878 78.2966 69.0878H86.6068C87.1812 69.0878 87.7748 68.7051 87.7748 67.9395L88.5407 60.8585C89.9002 60.4757 91.0491 59.9016 92.4086 59.3275L98.0189 63.7292C98.4018 64.1119 99.1869 64.1119 99.5699 63.7292L105.372 57.9878C105.755 57.605 105.755 56.8395 105.372 56.4568L100.929 50.9068C101.504 49.7585 102.097 48.4188 102.48 47.0792L109.642 46.3137C110.216 46.3137 110.81 45.7395 110.81 45.1654V36.9361C110.81 36.3619 110.427 35.7878 109.642 35.7878ZM108.493 44.0171L101.734 44.7826C101.159 44.7826 100.776 45.1654 100.776 45.7395C100.393 47.4619 99.6081 48.993 98.8422 50.524C98.6508 50.9068 98.6508 51.4809 99.0337 51.8637L103.285 57.0309L98.6508 61.2413L93.4234 57.0309C93.0404 56.6482 92.466 56.6482 92.0639 56.8395C90.5129 57.7964 88.962 58.3706 87.2195 58.7533C86.6451 58.9447 86.4536 59.3275 86.2621 59.7102L85.4962 66.4085H79.3114L78.5455 59.7102C78.5455 59.1361 78.1626 58.7533 77.5881 58.7533C75.8457 58.3706 74.2947 57.6051 72.7437 56.8395C72.3608 56.6482 71.7863 56.6482 71.3842 57.0309L66.1569 61.2413L61.9061 57.0309L66.1569 51.8637C66.5398 51.4809 66.5398 50.9068 66.3484 50.524C65.391 48.993 64.7974 47.4619 64.4144 45.7395C64.223 45.1654 63.84 44.974 63.457 44.7826L56.6979 44.0171V37.893L63.457 37.1275C64.0315 37.1275 64.4144 36.7447 64.4144 36.1706C64.7974 34.4482 65.5825 32.9171 66.3484 31.3861C66.5398 31.0033 66.5398 30.4292 66.1569 30.0464L61.9061 24.8792L66.1569 20.6688L71.3842 24.8792C71.7672 25.2619 72.3416 25.2619 72.7437 25.0706C74.2947 24.1137 75.8457 23.5395 77.5881 23.1568C78.1626 22.9654 78.3541 22.5826 78.5455 22.1999L79.3114 15.5016H85.4962L86.2621 22.1999C86.2621 22.774 86.6451 23.1568 87.2195 23.1568C88.962 23.5395 90.5129 24.3051 92.0639 25.0706C92.4469 25.2619 93.0213 25.2619 93.4234 24.8792L98.6508 20.6688L102.902 24.8792L98.6508 30.4292C98.2678 30.8119 98.2678 31.3861 98.4593 31.7688C99.4358 33.2999 100.01 34.8309 100.393 36.5533C100.585 37.1275 100.968 37.3188 101.351 37.5102L108.11 38.2757L108.493 44.0171Z" fill="#20446F"/>
<path d="M82.5649 28.5156C75.5951 28.5156 70.0039 34.0656 70.0039 40.9553C70.0039 47.8449 75.6142 53.3949 82.5649 53.3949C89.5155 53.3949 95.1259 47.8449 95.1259 40.9553C95.1259 34.0656 89.5155 28.5156 82.5649 28.5156ZM82.5649 51.0984C76.9546 51.0984 72.3208 46.5053 72.3208 40.9553C72.3208 35.4053 76.9546 30.8122 82.5649 30.8122C88.1752 30.8122 92.809 35.4053 92.809 40.9553C92.809 46.5053 88.1752 51.0984 82.5649 51.0984Z" fill="#20446F"/>
<path d="M21.658 27.3671C27.6513 27.3671 32.4957 22.5826 32.4957 16.6499C32.4957 10.7171 27.6704 5.93262 21.658 5.93262C15.6456 5.93262 10.8203 10.7171 10.8203 16.6499C10.8203 22.5826 15.6456 27.3671 21.658 27.3671ZM21.658 8.22917C26.2918 8.22917 30.1596 12.0568 30.1596 16.6499C30.1596 21.243 26.2918 25.0705 21.658 25.0705C17.0242 25.0705 13.1563 21.243 13.1563 16.6499C13.1563 12.0568 17.0242 8.22917 21.658 8.22917Z" fill="#20446F"/>
<path d="M88.177 81.3364C84.1176 81.3364 80.8242 84.5899 80.8242 88.6088C80.8242 92.6278 84.1176 95.8813 88.177 95.8813C92.2363 95.8813 95.5298 92.6278 95.5298 88.6088C95.5298 84.5899 92.0449 81.3364 88.177 81.3364ZM88.177 93.2019C85.4771 93.2019 83.3517 91.0968 83.3517 88.4175C83.3517 85.7382 85.4771 83.633 88.177 83.633C90.8768 83.633 93.0214 85.7382 93.0214 88.4175C93.0214 91.0968 90.7045 93.2019 88.177 93.2019Z" fill="#20446F"/>
<path d="M66.9017 0C67.8586 0 68.6433 0.765517 68.6433 1.72241C68.6433 2.67931 67.8586 3.44483 66.9017 3.44483C65.9448 3.44483 65.1602 2.67931 65.1602 1.72241C65.1602 0.765517 65.9448 0 66.9017 0Z" fill="#20446F"/>
<path d="M109.257 13.2051C110.214 13.2051 110.999 13.9706 110.999 14.9275C110.999 15.8844 110.214 16.6499 109.257 16.6499C108.3 16.6499 107.516 15.8844 107.516 14.9275C107.516 13.9706 108.3 13.2051 109.257 13.2051Z" fill="#20446F"/>
<path d="M108.109 71.7671C109.066 71.7671 109.85 72.5326 109.85 73.4895C109.85 74.4464 109.066 75.2119 108.109 75.2119C107.152 75.2119 106.367 74.4464 106.367 73.4895C106.367 72.5326 107.152 71.7671 108.109 71.7671Z" fill="#20446F"/>
<path d="M42.7376 19.1377C43.6945 19.1377 44.4792 19.9032 44.4792 20.8601C44.4792 21.817 43.6945 22.5825 42.7376 22.5825C41.7807 22.5825 40.9961 21.817 40.9961 20.8601C40.9961 19.9032 41.7807 19.1377 42.7376 19.1377Z" fill="#20446F"/>
<path d="M6.56577 33.4912C7.52267 33.4912 8.30732 34.2567 8.30732 35.2136C8.30732 36.1705 7.52267 36.936 6.56577 36.936C5.60887 36.936 4.82422 36.1705 4.82422 35.2136C4.82422 34.2567 5.60887 33.4912 6.56577 33.4912Z" fill="#20446F"/>
<path d="M11.4095 72.9155C12.3664 72.9155 13.1511 73.681 13.1511 74.6379C13.1511 75.5948 12.3664 76.3604 11.4095 76.3604C10.4526 76.3604 9.66797 75.5948 9.66797 74.6379C9.66797 73.681 10.4526 72.9155 11.4095 72.9155Z" fill="#20446F"/>
<path d="M75.4212 96.8379C76.3781 96.8379 77.1628 97.6034 77.1628 98.5603C77.1628 99.5172 76.3781 100.283 75.4212 100.283C74.4643 100.283 73.6797 99.5172 73.6797 98.5603C73.6797 97.6034 74.4643 96.8379 75.4212 96.8379Z" fill="#20446F"/>
<path d="M56.0814 72.9155C57.0383 72.9155 57.823 73.681 57.823 74.6379C57.823 75.5948 57.0383 76.3604 56.0814 76.3604C55.1245 76.3604 54.3398 75.5948 54.3398 74.6379C54.3398 73.681 55.1245 72.9155 56.0814 72.9155Z" fill="#20446F"/>
</svg>
