<svg width="111" height="111" viewBox="0 0 111 111" fill="none" xmlns="http://www.w3.org/2000/svg">
<path d="M33.3177 25.6776C33.1153 26.2842 33.3177 26.6886 33.7225 27.0929L45.5836 35.5847L41.0901 49.3334C40.8877 49.9399 41.0901 50.3443 41.4949 50.7487C41.8997 51.1531 42.5272 51.1531 42.932 50.7487L54.7931 42.2569L66.6541 50.7487C67.0589 51.1531 67.6662 51.1531 68.0912 50.7487C68.496 50.3443 68.6984 49.9399 68.496 49.3334L64.0026 35.5847L75.8636 27.0929C76.2685 26.6886 76.4709 26.2842 76.2685 25.6776C76.066 25.0711 75.6612 24.8689 75.0338 24.8689H60.3188L55.8253 11.1203C55.6229 10.5137 55.2181 10.3115 54.5907 10.3115C53.9632 10.3115 53.5584 10.7159 53.356 11.1203L49.2674 24.8689H34.5524C34.1476 24.8689 33.5403 25.2733 33.3177 25.6776ZM50.077 27.4973C50.6842 27.4973 51.1093 27.0929 51.3117 26.6886L54.9955 15.7705L58.6793 26.6886C58.8817 27.2951 59.2865 27.4973 59.914 27.4973H71.5726L62.1607 34.1694C61.5535 34.5738 61.3511 34.9782 61.5535 35.5847L65.2373 46.5028L55.8253 39.8307C55.4205 39.4263 54.8133 39.4263 54.3883 39.8307L44.9763 46.5028L48.6601 35.5847C48.8625 34.9782 48.6601 34.5738 48.2553 34.1694L38.8434 27.4973H50.077Z" fill="#20446F"/>
<path d="M95.0514 76.426C98.1078 74.6064 100.152 71.1692 100.152 67.3277C100.152 61.4643 95.2539 56.6118 89.3233 56.6118C83.3928 56.6118 78.4946 61.4643 78.4946 67.3277C78.4946 71.1692 80.5389 74.4042 83.5952 76.426C77.4623 78.2457 72.564 82.6938 70.3173 88.5572C67.8682 85.9288 64.5892 83.7047 60.9054 82.6938C63.9617 80.8741 66.006 77.437 66.006 73.5954C66.006 67.732 61.1078 62.8796 55.1773 62.8796C49.2467 62.8796 44.3485 67.732 44.3485 73.5954C44.3485 77.437 46.3928 80.6719 49.4492 82.6938C46.1702 83.7047 43.1138 85.5244 40.6647 87.9506C38.2156 82.4916 33.5197 78.0435 27.5892 76.426C30.6658 74.6064 32.6898 71.1692 32.6898 67.3277C32.6898 61.4643 27.7916 56.6118 21.8611 56.6118C15.9306 56.6118 11.0323 61.4643 11.0323 67.3277C11.0323 71.1692 13.0766 74.4042 16.133 76.426C7.75331 78.8523 1.41797 86.7375 1.41797 95.8359C1.41797 98.6665 2.02519 101.497 2.85506 103.923C3.05747 104.328 3.46228 104.732 4.08974 104.732H34.9568C35.1592 106.754 35.564 108.574 36.3939 110.191C36.5963 110.595 37.0011 111 37.6286 111H73.1915C73.7987 111 74.2035 110.595 74.4262 110.191C75.0334 108.574 75.6609 106.552 75.8633 104.732H107.54C108.147 104.732 108.552 104.328 108.775 103.923C109.787 101.699 110.212 98.6665 110.212 95.8359C109.807 86.7375 103.674 79.0544 95.0919 76.426H95.0514ZM92.6023 88.5572L89.3233 91.7921L86.0443 88.5572L89.3233 80.4697L92.6023 88.5572ZM80.9437 67.5299C80.9437 63.0818 84.6275 59.2402 89.3233 59.2402C94.0192 59.2402 97.703 62.8796 97.703 67.5299C97.703 72.1801 94.0192 75.8195 89.3233 75.8195C84.6275 75.8195 80.9437 71.9779 80.9437 67.5299ZM58.2539 94.8249L54.9749 98.0599L51.6959 94.8249L54.9749 86.7375L58.2539 94.8249ZM46.6155 73.7976C46.6155 69.3495 50.2993 65.508 54.9951 65.508C59.6909 65.508 63.3747 69.1473 63.3747 73.7976C63.3747 78.4479 59.6909 82.0872 54.9951 82.0872C50.5017 81.885 46.6155 78.2457 46.6155 73.7976ZM24.7353 88.5572L21.4563 91.7921L18.1773 88.5572L21.4563 80.4697L24.7353 88.5572ZM13.279 67.5299C13.279 63.0818 16.9628 59.2402 21.6587 59.2402C26.3545 59.2402 30.0383 62.8796 30.0383 67.5299C30.0383 72.1801 26.3545 75.8195 21.6587 75.8195C16.9628 75.6173 13.279 71.9779 13.279 67.5299ZM3.68493 95.8359C3.68493 86.7375 10.6275 79.2566 19.6346 78.2457L15.546 88.355C15.3436 88.7594 15.546 89.3659 15.7484 89.7703L20.4442 94.4206C20.849 94.8249 21.6789 94.8249 22.2861 94.4206L26.982 89.7703C27.3868 89.3659 27.3868 88.9615 27.1844 88.355L23.0958 78.2457C30.0383 79.0544 35.9688 83.7047 38.2156 90.1747C35.7664 93.6118 34.3293 97.6555 34.3293 102.104H32.285V95.8359C32.285 95.2293 31.6778 94.6227 31.0504 94.6227C30.4229 94.6227 29.8157 95.2293 29.8157 95.8359V102.104H13.279V95.8359C13.279 95.2293 12.6718 94.6227 12.0443 94.6227C11.4169 94.6227 10.8097 95.2293 10.8097 95.8359V102.104H4.87913C3.86709 100.284 3.64445 98.0599 3.64445 95.8359H3.68493ZM71.9568 108.574H66.0263V102.306C66.0263 101.699 65.4191 101.093 64.7916 101.093C64.1641 101.093 63.5569 101.699 63.5569 102.306V108.574H47V102.306C47 101.699 46.3928 101.093 45.7653 101.093C45.1379 101.093 44.5307 101.699 44.5307 102.306V108.574H38.6001C37.9929 106.754 37.5679 104.328 37.5679 102.306C37.5679 93.2074 44.5104 85.7266 53.5175 84.7156L49.4289 94.8249C49.2265 95.2293 49.4289 95.8359 49.6313 96.2402L54.3272 100.891C54.732 101.295 55.5618 101.295 56.1691 100.891L60.8649 96.2402C61.2697 95.8359 61.2697 95.4315 61.0673 94.8249L56.9787 84.7156C65.9656 85.7266 72.9284 93.2074 72.9284 102.306C72.9284 104.328 72.5235 106.552 71.9163 108.574H71.9568ZM106.103 102.104H100.172V95.8359C100.172 95.2293 99.5651 94.6227 98.9377 94.6227C98.3102 94.6227 97.703 95.2293 97.703 95.8359V102.104H81.1461V95.8359C81.1461 95.2293 80.5389 94.6227 79.9114 94.6227C79.2839 94.6227 78.6767 95.2293 78.6767 95.8359V102.104H75.8228C75.8228 98.0599 74.5881 94.2184 72.3414 90.9834C74.3857 83.9069 80.5186 79.0544 87.6636 78.2457L83.575 88.355C83.3726 88.7594 83.575 89.3659 83.7774 89.7703L88.4732 94.4206C88.878 94.8249 89.7079 94.8249 90.3151 94.4206L95.011 89.7703C95.4158 89.3659 95.4158 88.9615 95.2134 88.355L91.1247 78.2457C100.112 79.2566 107.074 86.7375 107.074 95.8359C107.074 98.0599 106.872 100.284 106.062 102.104H106.103Z" fill="#20446F"/>
<path d="M11.233 23.8578C16.1312 23.8578 20.2198 19.8141 20.2198 14.9616C20.2198 10.1091 16.1515 6.06543 11.233 6.06543C6.31447 6.06543 2.24609 10.1091 2.24609 14.9616C2.24609 19.8141 6.33472 23.8578 11.233 23.8578ZM11.233 8.69385C14.7144 8.69385 17.5683 11.5244 17.5683 14.9616C17.5683 18.3988 14.7144 21.2294 11.233 21.2294C7.75156 21.2294 4.89763 18.3988 4.89763 14.9616C4.89763 11.5244 7.75156 8.69385 11.233 8.69385Z" fill="#20446F"/>
<path d="M100.78 44.0766C105.071 44.0766 108.553 40.6394 108.553 36.3935C108.553 32.1476 105.071 28.7104 100.78 28.7104C96.4892 28.7104 93.0078 32.1476 93.0078 36.3935C93.0078 40.6394 96.4892 44.0766 100.78 44.0766ZM100.78 31.3389C103.634 31.3389 105.881 33.5629 105.881 36.3935C105.881 39.2241 103.634 41.4482 100.78 41.4482C97.9263 41.4482 95.6796 39.2241 95.6796 36.3935C95.6796 33.7651 97.9263 31.3389 100.78 31.3389Z" fill="#20446F"/>
<path d="M95.0489 0C96.061 0 96.8908 0.808743 96.8908 1.81967C96.8908 2.8306 96.061 3.63934 95.0489 3.63934C94.0369 3.63934 93.207 2.8306 93.207 1.81967C93.207 0.808743 94.0369 0 95.0489 0Z" fill="#20446F"/>
<path d="M71.9552 11.3223C72.9672 11.3223 73.7971 12.131 73.7971 13.1419C73.7971 14.1529 72.9672 14.9616 71.9552 14.9616C70.9431 14.9616 70.1133 14.1529 70.1133 13.1419C70.1133 12.131 70.9431 11.3223 71.9552 11.3223Z" fill="#20446F"/>
<path d="M5.5255 32.7539C6.53753 32.7539 7.3674 33.5626 7.3674 34.5736C7.3674 35.5845 6.53753 36.3932 5.5255 36.3932C4.51346 36.3932 3.68359 35.5845 3.68359 34.5736C3.68359 33.5626 4.51346 32.7539 5.5255 32.7539Z" fill="#20446F"/>
<path d="M29.8536 45.4917C30.8657 45.4917 31.6955 46.3004 31.6955 47.3114C31.6955 48.3223 30.8657 49.131 29.8536 49.131C28.8416 49.131 28.0117 48.3223 28.0117 47.3114C28.0117 46.3004 28.8416 45.4917 29.8536 45.4917Z" fill="#20446F"/>
<path d="M1.8419 68.1367C2.85394 68.1367 3.68381 68.9455 3.68381 69.9564C3.68381 70.9673 2.85394 71.7761 1.8419 71.7761C0.829869 71.7761 0 70.9673 0 69.9564C0 68.9455 0.829869 68.1367 1.8419 68.1367Z" fill="#20446F"/>
<path d="M34.9552 2.42627C35.9672 2.42627 36.7971 3.23501 36.7971 4.24594C36.7971 5.25687 35.9672 6.06561 34.9552 6.06561C33.9431 6.06561 33.1133 5.25687 33.1133 4.24594C33.1133 3.23501 33.9431 2.42627 34.9552 2.42627Z" fill="#20446F"/>
<path d="M79.7286 35.3823C80.7407 35.3823 81.5705 36.1911 81.5705 37.202C81.5705 38.2129 80.7407 39.0217 79.7286 39.0217C78.7166 39.0217 77.8867 38.2129 77.8867 37.202C77.8867 36.1911 78.7166 35.3823 79.7286 35.3823Z" fill="#20446F"/>
<path d="M109.158 59.2402C110.17 59.2402 111 60.049 111 61.0599C111 62.0708 110.17 62.8796 109.158 62.8796C108.146 62.8796 107.316 62.0708 107.316 61.0599C107.316 60.049 108.146 59.2402 109.158 59.2402Z" fill="#20446F"/>
</svg>
