<svg width="106" height="99" viewBox="0 0 106 99" fill="none" xmlns="http://www.w3.org/2000/svg">
<path d="M89.3828 87.4976C90.1458 87.4976 90.7714 88.1199 90.7714 88.8789C90.7714 89.6379 90.1458 90.2603 89.3828 90.2603C88.6198 90.2603 87.9941 89.6379 87.9941 88.8789C87.9941 88.1199 88.6198 87.4976 89.3828 87.4976Z" fill="white"/>
<path d="M102.164 35.7656C102.927 35.7656 103.553 36.388 103.553 37.147C103.553 37.906 102.927 38.5283 102.164 38.5283C101.401 38.5283 100.775 37.906 100.775 37.147C100.775 36.388 101.401 35.7656 102.164 35.7656Z" fill="white"/>
<path d="M76.7773 0.977051C77.5403 0.977051 78.166 1.59942 78.166 2.3584C78.166 3.11738 77.5403 3.73974 76.7773 3.73974C76.0143 3.73974 75.3887 3.11738 75.3887 2.3584C75.3887 1.59942 76.0143 0.977051 76.7773 0.977051Z" fill="white"/>
<path d="M6.30272 65.4565C7.06571 65.4565 7.69137 66.0789 7.69137 66.8379C7.69137 67.5969 7.06571 68.2192 6.30272 68.2192C5.53972 68.2192 4.91406 67.5969 4.91406 66.8379C4.91406 66.0789 5.53972 65.4565 6.30272 65.4565Z" fill="white"/>
<path d="M13.3867 20.4644C14.1497 20.4644 14.7754 21.0867 14.7754 21.8457C14.7754 22.6047 14.1497 23.227 13.3867 23.227C12.6237 23.227 11.998 22.6047 11.998 21.8457C11.998 21.0867 12.6237 20.4644 13.3867 20.4644Z" fill="white"/>
<path d="M99.8563 29.9513C96.6212 29.9513 94.0117 27.3556 94.0117 24.1375C94.0117 20.9194 96.6212 18.3237 99.8563 18.3237C103.091 18.3237 105.701 20.9194 105.701 24.1375C105.701 27.3556 102.924 29.9513 99.8563 29.9513ZM99.8563 20.4641C97.7046 20.4641 96.0108 22.149 96.0108 24.2893C96.0108 26.4297 97.7046 28.1146 99.8563 28.1146C102.008 28.1146 103.702 26.4297 103.702 24.2893C103.702 22.149 101.855 20.4641 99.8563 20.4641Z" fill="white"/>
<path d="M3.8455 83.5206C1.69385 83.5206 0 81.8357 0 79.6954C0 77.5551 1.69385 75.8701 3.8455 75.8701C5.99716 75.8701 7.69101 77.5551 7.69101 79.6954C7.69101 81.8357 5.99716 83.5206 3.8455 83.5206ZM3.8455 77.8587C2.77731 77.8587 1.84645 78.7846 1.84645 79.8472C1.84645 80.9098 2.77731 81.8357 3.8455 81.8357C4.9137 81.8357 5.84456 80.9098 5.84456 79.8472C5.84456 78.7846 4.9137 77.8587 3.8455 77.8587Z" fill="white"/>
<path d="M54.2743 60.3613C58.2186 61.9375 61 65.6401 61 69.9524C61 75.7071 56.0814 80.3613 50 80.3613C43.9186 80.3613 39 75.7071 39 69.9524C39 65.9673 41.3729 62.5026 44.8457 60.7479" stroke="white" stroke-width="2" stroke-miterlimit="10" stroke-linecap="round"/>
<path d="M50 72.3613V57.3613" stroke="white" stroke-width="2" stroke-miterlimit="10" stroke-linecap="round"/>
<path d="M49.5525 41.3613C59.2114 41.3613 67.0449 49.3724 67.0449 59.2502V94.468C67.0449 96.0547 65.7824 97.3613 64.2157 97.3613H34.8741C33.3226 97.3613 32.0449 96.0702 32.0449 94.468V59.2502C32.0449 49.3724 39.8785 41.3613 49.5373 41.3613H49.5525Z" stroke="white" stroke-width="2" stroke-miterlimit="10"/>
<path d="M38.9143 34.57C38.4796 34.9107 38.4035 35.5393 38.7443 35.9739C39.085 36.4086 39.7136 36.4847 40.1482 36.1439L38.9143 34.57ZM58.8518 36.1439C59.2864 36.4847 59.915 36.4086 60.2557 35.9739C60.5965 35.5393 60.5204 34.9107 60.0857 34.57L58.8518 36.1439ZM34.3859 29.3889C33.95 29.7281 33.8716 30.3564 34.2108 30.7922C34.5499 31.2281 35.1782 31.3066 35.6141 30.9674L34.3859 29.3889ZM63.4144 30.9888C63.8621 31.3122 64.4872 31.2114 64.8106 30.7638C65.134 30.3161 65.0333 29.691 64.5856 29.3676L63.4144 30.9888ZM39.5312 35.3569L40.1482 36.1439C45.6395 31.8387 53.3605 31.8387 58.8518 36.1439L59.4688 35.3569L60.0857 34.57C53.8699 29.6967 45.1301 29.6967 38.9143 34.57L39.5312 35.3569ZM35 30.1782L35.6141 30.9674C41.4703 26.4109 47.136 25.5267 51.9575 26.201C56.8156 26.8804 60.8729 29.1527 63.4144 30.9888L64 30.1782L64.5856 29.3676C61.8885 27.4191 57.5264 24.9603 52.2345 24.2203C46.9061 23.4751 40.6911 24.4831 34.3859 29.3889L35 30.1782Z" fill="white"/>
<path d="M88.0449 34.3613V82.7453C88.0449 85.8465 85.3581 88.3613 82.0449 88.3613" stroke="white" stroke-width="2" stroke-miterlimit="10"/>
<path d="M11 33V81.864C11 85.2523 13.8525 88 17.37 88H32" stroke="white" stroke-width="2" stroke-miterlimit="10"/>
<path d="M2.04492 39.013L44.4503 8.39098C46.3186 7.04462 48.8463 7.01331 50.746 8.32836L67.9844 20.2265V13.9174C67.9844 12.2109 69.366 10.8332 71.0773 10.8332H79.0372C80.7484 10.8332 82.13 12.2109 82.13 13.9174V29.6198L97.0449 41.3613" stroke="white" stroke-width="3" stroke-miterlimit="10" stroke-linecap="round"/>
<path d="M78.5 94C80.9853 94 83 91.9853 83 89.5C83 87.0147 80.9853 85 78.5 85C76.0147 85 74 87.0147 74 89.5C74 91.9853 76.0147 94 78.5 94Z" stroke="white" stroke-width="3" stroke-miterlimit="10"/>
</svg>
