<svg width="86" height="97" viewBox="0 0 86 97" fill="none" xmlns="http://www.w3.org/2000/svg">
<path d="M41.5852 47.4304C37.3838 47.0569 34.3235 44.8677 34.1678 40.8732H39.7905C39.915 42.139 40.5375 42.9171 41.5852 43.2491V38.3624C38.2759 37.5013 34.1367 36.5675 34.1367 31.7119C34.1367 27.8523 37.3838 25.5594 41.5852 25.2792V22.7788H43.5667V25.2792C47.7993 25.6216 50.5172 27.7797 50.7973 31.7119H45.1435C45.019 30.5706 44.4277 29.8547 43.5667 29.5435V34.3368C46.876 35.2602 51.1086 36.1629 51.1086 40.9562C51.1086 44.297 48.4528 47.2332 43.5667 47.4511V49.9516H41.5852V47.42V47.4304ZM41.5852 33.7039V29.4086C40.4441 29.5953 39.7283 30.2697 39.7283 31.4836C39.7283 32.5627 40.4648 33.2163 41.5852 33.7143V33.7039ZM43.5667 38.9642V43.3529C44.8012 43.135 45.5792 42.305 45.5792 41.1534C45.5792 40.0017 44.7804 39.4207 43.5667 38.9538V38.9642Z" fill="white"/>
<path d="M28.51 86H17.9142C14.6574 86 12 83.5679 12 80.5872V6.41276C12 3.42177 14.6461 1 17.9142 1H64.0858C67.3426 1 70 3.43212 70 6.41276V56.5869" stroke="white" stroke-width="2" stroke-miterlimit="10" stroke-linecap="round"/>
<path d="M38.1889 78.2127H23.7898C21.3623 78.2127 19.3809 76.231 19.3809 73.8032V13.409C19.3809 10.9812 21.3623 8.99951 23.7898 8.99951H58.2003C60.6278 8.99951 62.6092 10.9812 62.6092 13.409V56.819" stroke="white" stroke-width="2" stroke-miterlimit="10" stroke-linecap="round"/>
<path d="M66.7773 0.977051C67.5403 0.977051 68.166 1.59942 68.166 2.3584C68.166 3.11738 67.5403 3.73974 66.7773 3.73974C66.0143 3.73974 65.3887 3.11738 65.3887 2.3584C65.3887 1.59942 66.0143 0.977051 66.7773 0.977051Z" fill="white"/>
<path d="M6.30272 55.4565C7.06571 55.4565 7.69137 56.0789 7.69137 56.8379C7.69137 57.5969 7.06571 58.2192 6.30272 58.2192C5.53972 58.2192 4.91406 57.5969 4.91406 56.8379C4.91406 56.0789 5.53972 55.4565 6.30272 55.4565Z" fill="white"/>
<path d="M3.3867 10.4644C4.1497 10.4644 4.77536 11.0867 4.77536 11.8457C4.77536 12.6047 4.1497 13.227 3.3867 13.227C2.6237 13.227 1.99805 12.6047 1.99805 11.8457C1.99805 11.0867 2.6237 10.4644 3.3867 10.4644Z" fill="white"/>
<path d="M79.8563 19.9513C76.6212 19.9513 74.0117 17.3556 74.0117 14.1375C74.0117 10.9194 76.6212 8.32373 79.8563 8.32373C83.0914 8.32373 85.7008 10.9194 85.7008 14.1375C85.7008 17.3556 82.9235 19.9513 79.8563 19.9513ZM79.8563 10.4641C77.7046 10.4641 76.0108 12.149 76.0108 14.2893C76.0108 16.4297 77.7046 18.1146 79.8563 18.1146C82.0079 18.1146 83.7018 16.4297 83.7018 14.2893C83.7018 12.149 81.8553 10.4641 79.8563 10.4641Z" fill="white"/>
<path d="M3.8455 73.5206C1.69385 73.5206 0 71.8357 0 69.6954C0 67.5551 1.69385 65.8701 3.8455 65.8701C5.99716 65.8701 7.69101 67.5551 7.69101 69.6954C7.69101 71.8357 5.99716 73.5206 3.8455 73.5206ZM3.8455 67.8587C2.77731 67.8587 1.84645 68.7846 1.84645 69.8472C1.84645 70.9098 2.77731 71.8357 3.8455 71.8357C4.9137 71.8357 5.84456 70.9098 5.84456 69.8472C5.84456 68.7846 4.9137 67.8587 3.8455 67.8587Z" fill="white"/>
<path d="M51.372 83.7461C51.1753 83.331 51.0223 83.0033 50.8693 82.6683C48.0131 76.6168 45.1496 70.5725 42.3007 64.521C41.3607 62.5257 42.7305 60.1808 44.9383 60.0133C46.4975 59.8895 47.7435 60.6323 48.3847 62.0669C49.1279 63.7345 49.8711 65.4094 50.6143 67.0771C50.6653 67.1863 50.7163 67.2955 50.7891 67.4485C51.4668 66.6329 52.261 66.0721 53.3175 65.9629C54.374 65.8537 55.2702 66.1886 56.0644 66.9169C56.7711 65.7517 57.7839 65.0963 59.161 65.1036C60.509 65.1036 61.5072 65.7444 62.2431 66.8659C62.3014 66.7858 62.3816 66.6911 62.4617 66.5892C64.1303 64.4191 67.3362 64.805 68.4437 67.3174C69.8135 70.405 71.1688 73.5073 72.5313 76.6022C73.0996 77.8912 73.668 79.1801 74.2363 80.4691C76.138 84.7947 74.382 89.6374 70.1487 91.7346C67.9191 92.8415 65.7041 93.9703 63.4599 95.0335C60.5381 96.4244 57.6382 96.3443 54.8767 94.5965C51.4886 92.4556 48.1297 90.2709 44.7707 88.0935C43.2843 87.1323 42.6504 85.3918 43.1969 83.7752C43.8891 81.7143 46.483 80.4326 48.7271 81.9109C49.5359 82.4425 50.3155 83.0251 51.1097 83.5786C51.1753 83.6223 51.2409 83.6587 51.3866 83.7461H51.372Z" stroke="white" stroke-width="2" stroke-miterlimit="10"/>
</svg>
