<svg width="200" height="60" viewBox="0 0 200 60" fill="none" xmlns="http://www.w3.org/2000/svg">
<path d="M192.593 0.771973H7.40741C3.31641 0.771973 0 4.07387 0 8.14697V52.397C0 56.4701 3.31641 59.772 7.40741 59.772H192.593C196.684 59.772 200 56.4701 200 52.397V8.14697C200 4.07387 196.684 0.771973 192.593 0.771973Z" fill="black"/>
<path d="M192.593 1.95197C194.243 1.95197 195.825 2.60466 196.992 3.76645C198.159 4.92823 198.815 6.50396 198.815 8.14697V52.397C198.815 54.04 198.159 55.6157 196.992 56.7775C195.825 57.9393 194.243 58.592 192.593 58.592H7.40741C5.75717 58.592 4.17452 57.9393 3.00763 56.7775C1.84074 55.6157 1.18519 54.04 1.18519 52.397V8.14697C1.18519 6.50396 1.84074 4.92823 3.00763 3.76645C4.17452 2.60466 5.75717 1.95197 7.40741 1.95197H192.593ZM192.593 0.771973H7.40741C5.44284 0.771973 3.55874 1.54898 2.16958 2.93206C0.780421 4.31514 0 6.191 0 8.14697V52.397C0 54.3529 0.780421 56.2288 2.16958 57.6119C3.55874 58.995 5.44284 59.772 7.40741 59.772H192.593C194.557 59.772 196.441 58.995 197.83 57.6119C199.22 56.2288 200 54.3529 200 52.397V8.14697C200 6.191 199.22 4.31514 197.83 2.93206C196.441 1.54898 194.557 0.771973 192.593 0.771973Z" fill="#A6A6A6"/>
<path d="M47.5745 29.2581C47.5336 24.7286 51.2997 22.5249 51.4719 22.4223C49.339 19.3263 46.0331 18.9032 44.8714 18.8695C42.0948 18.5786 39.4016 20.5236 37.9872 20.5236C36.5446 20.5236 34.3665 18.8976 32.0191 18.9454C28.9983 18.9918 26.1724 20.733 24.6225 23.437C21.4239 28.9504 23.8094 37.0524 26.8739 41.5089C28.4069 43.6915 30.1982 46.1284 32.5428 46.0427C34.8366 45.9485 35.6934 44.5867 38.4615 44.5867C41.2041 44.5867 42.0087 46.0427 44.3999 45.9879C46.8617 45.9485 48.4116 43.7955 49.8909 41.5932C51.6624 39.0917 52.3739 36.628 52.4021 36.5015C52.3442 36.4818 47.6211 34.6872 47.5745 29.2581Z" fill="white"/>
<path d="M43.0585 15.938C44.2922 14.402 45.1363 12.3121 44.902 10.1914C43.1164 10.2701 40.8833 11.4211 39.5973 12.9235C38.4596 14.2474 37.4433 16.4173 37.7058 18.4579C39.7117 18.6069 41.7711 17.4502 43.0585 15.938Z" fill="white"/>
<path d="M80.7691 45.7293H77.5634L75.8074 40.2356H69.7038L68.0311 45.7293H64.9102L70.9573 27.0264H74.6923L80.7691 45.7293ZM75.2781 37.9308L73.6901 33.0471C73.5221 32.5481 73.2073 31.3732 72.7429 29.5237H72.6865C72.5016 30.3192 72.2037 31.4941 71.7944 33.0471L70.2346 37.9308H75.2781Z" fill="white"/>
<path d="M96.3197 38.8204C96.3197 41.114 95.6972 42.9269 94.4522 44.2578C93.337 45.4426 91.9523 46.0343 90.2993 46.0343C88.5151 46.0343 87.2334 45.3962 86.4528 44.1201H86.3964V51.2244H83.3869V36.6828C83.3869 35.2409 83.3488 33.761 83.2754 32.2432H85.9221L86.0901 34.3808H86.1465C87.1501 32.7702 88.6732 31.9663 90.7172 31.9663C92.3151 31.9663 93.649 32.5945 94.7161 33.8523C95.7861 35.1116 96.3197 36.7671 96.3197 38.8204ZM93.2537 38.93C93.2537 37.6174 92.9573 36.5352 92.3616 35.6836C91.7109 34.7954 90.8371 34.3513 89.7418 34.3513C88.9993 34.3513 88.3246 34.5986 87.7218 35.0863C87.1177 35.5782 86.7224 36.2204 86.5375 37.0159C86.4443 37.3869 86.3978 37.6905 86.3978 37.9294V40.178C86.3978 41.159 86.6998 41.9867 87.304 42.6627C87.9081 43.3387 88.693 43.676 89.6585 43.676C90.792 43.676 91.6742 43.2403 92.3052 42.3718C92.9376 41.5019 93.2537 40.3551 93.2537 38.93Z" fill="white"/>
<path d="M111.9 38.8204C111.9 41.114 111.278 42.9269 110.031 44.2578C108.918 45.4426 107.533 46.0343 105.88 46.0343C104.096 46.0343 102.814 45.3962 102.035 44.1201H101.978V51.2244H98.9689V36.6828C98.9689 35.2409 98.9308 33.761 98.8574 32.2432H101.504L101.672 34.3808H101.729C102.731 32.7702 104.254 31.9663 106.299 31.9663C107.896 31.9663 109.23 32.5945 110.3 33.8523C111.365 35.1116 111.9 36.7671 111.9 38.8204ZM108.834 38.93C108.834 37.6174 108.537 36.5352 107.941 35.6836C107.29 34.7954 106.419 34.3513 105.322 34.3513C104.578 34.3513 103.905 34.5986 103.301 35.0863C102.697 35.5782 102.303 36.2204 102.118 37.0159C102.026 37.3869 101.978 37.6905 101.978 37.9294V40.178C101.978 41.159 102.28 41.9867 102.882 42.6627C103.486 43.3373 104.271 43.676 105.239 43.676C106.373 43.676 107.255 43.2403 107.886 42.3718C108.518 41.5019 108.834 40.3551 108.834 38.93Z" fill="white"/>
<path d="M129.318 40.4845C129.318 42.0754 128.763 43.3698 127.649 44.369C126.426 45.461 124.722 46.0063 122.533 46.0063C120.511 46.0063 118.891 45.6184 117.664 44.8412L118.361 42.3438C119.683 43.1393 121.132 43.5384 122.712 43.5384C123.845 43.5384 124.728 43.2826 125.361 42.7739C125.992 42.2651 126.307 41.5821 126.307 40.7304C126.307 39.9715 126.047 39.3321 125.526 38.8135C125.008 38.2949 124.143 37.8129 122.935 37.3673C119.646 36.1461 118.003 34.357 118.003 32.0044C118.003 30.4669 118.579 29.2063 119.732 28.2253C120.881 27.2429 122.414 26.7524 124.331 26.7524C126.04 26.7524 127.46 27.049 128.594 27.6406L127.841 30.0832C126.783 29.5098 125.586 29.2231 124.246 29.2231C123.188 29.2231 122.36 29.4831 121.767 30.0003C121.266 30.4627 121.015 31.0262 121.015 31.6938C121.015 32.433 121.302 33.0444 121.878 33.525C122.379 33.9691 123.289 34.4498 124.61 34.9683C126.227 35.6162 127.414 36.3737 128.177 37.2423C128.938 38.108 129.318 39.1915 129.318 40.4845Z" fill="white"/>
<path d="M139.269 34.4917H135.952V41.0394C135.952 42.7048 136.536 43.5368 137.708 43.5368C138.245 43.5368 138.691 43.4904 139.044 43.3977L139.128 45.673C138.535 45.8936 137.754 46.0047 136.787 46.0047C135.599 46.0047 134.67 45.6435 133.999 44.9225C133.332 44.2001 132.996 42.9887 132.996 41.2868V34.4889H131.02V32.2403H132.996V29.771L135.952 28.8828V32.2403H139.269V34.4917Z" fill="white"/>
<path d="M154.236 38.8753C154.236 40.9482 153.64 42.6501 152.452 43.981C151.205 45.3513 149.551 46.0343 147.489 46.0343C145.501 46.0343 143.919 45.378 142.739 44.0654C141.559 42.7527 140.969 41.0958 140.969 39.0987C140.969 37.0089 141.576 35.2971 142.794 33.9662C144.009 32.6339 145.649 31.9678 147.712 31.9678C149.699 31.9678 151.299 32.6241 152.505 33.9381C153.66 35.2128 154.236 36.8585 154.236 38.8753ZM151.114 38.9722C151.114 37.7285 150.847 36.6618 150.306 35.7722C149.675 34.6956 148.773 34.1588 147.605 34.1588C146.395 34.1588 145.476 34.697 144.845 35.7722C144.304 36.6632 144.037 37.7467 144.037 39.0285C144.037 40.2722 144.304 41.3389 144.845 42.2271C145.496 43.3036 146.405 43.8405 147.578 43.8405C148.727 43.8405 149.629 43.2924 150.279 42.199C150.834 41.2925 151.114 40.2146 151.114 38.9722Z" fill="white"/>
<path d="M164.017 34.8783C163.719 34.8235 163.401 34.7954 163.068 34.7954C162.009 34.7954 161.191 35.1931 160.615 35.9899C160.114 36.6926 159.862 37.5808 159.862 38.6532V45.7293H156.854L156.882 36.4903C156.882 34.9359 156.844 33.5207 156.77 32.2446H159.391L159.501 34.8249H159.584C159.902 33.9381 160.403 33.2241 161.089 32.6887C161.759 32.2066 162.484 31.9663 163.264 31.9663C163.542 31.9663 163.793 31.986 164.017 32.0211V34.8783Z" fill="white"/>
<path d="M177.477 38.3486C177.477 38.8854 177.442 39.338 177.367 39.7076H168.339C168.374 41.0399 168.81 42.0588 169.649 42.7615C170.41 43.3897 171.393 43.7045 172.602 43.7045C173.938 43.7045 175.158 43.4923 176.255 43.0665L176.726 45.1464C175.445 45.703 173.931 45.9798 172.185 45.9798C170.085 45.9798 168.436 45.3643 167.236 44.1346C166.039 42.9048 165.439 41.2535 165.439 39.182C165.439 37.1484 165.997 35.4549 167.114 34.1043C168.282 32.6624 169.862 31.9414 171.849 31.9414C173.802 31.9414 175.279 32.6624 176.283 34.1043C177.078 35.2497 177.477 36.6663 177.477 38.3486ZM174.608 37.5714C174.627 36.6832 174.431 35.9158 174.023 35.268C173.502 34.4346 172.702 34.0186 171.625 34.0186C170.641 34.0186 169.841 34.4247 169.23 35.2399C168.728 35.8877 168.431 36.6649 168.339 37.57H174.608V37.5714Z" fill="white"/>
<path d="M74.283 15.5209C74.283 17.1751 73.7847 18.4202 72.7896 19.2565C71.8678 20.028 70.5579 20.4145 68.8612 20.4145C68.0199 20.4145 67.3 20.378 66.6973 20.3049V11.2668C67.4835 11.1403 68.3304 11.0757 69.2451 11.0757C70.8614 11.0757 72.0796 11.4256 72.9011 12.1255C73.8214 12.9167 74.283 14.0481 74.283 15.5209ZM72.7232 15.5617C72.7232 14.4894 72.4381 13.6672 71.8678 13.0938C71.2976 12.5218 70.4647 12.2351 69.3679 12.2351C68.9021 12.2351 68.5055 12.266 68.1766 12.3307V19.2016C68.3587 19.2298 68.6918 19.2424 69.176 19.2424C70.308 19.2424 71.1818 18.929 71.7973 18.3022C72.4127 17.6754 72.7232 16.7619 72.7232 15.5617Z" fill="white"/>
<path d="M82.5543 16.9654C82.5543 17.9843 82.2621 18.8191 81.6777 19.474C81.0651 20.1472 80.2535 20.4831 79.24 20.4831C78.2631 20.4831 77.4854 20.1612 76.9052 19.5147C76.3265 18.8697 76.0371 18.0559 76.0371 17.075C76.0371 16.049 76.3349 15.2072 76.9335 14.5537C77.532 13.9002 78.3365 13.5728 79.3501 13.5728C80.3269 13.5728 81.1117 13.8946 81.706 14.5397C82.2706 15.1665 82.5543 15.976 82.5543 16.9654ZM81.0199 17.0131C81.0199 16.4018 80.8872 15.8776 80.6233 15.4405C80.3127 14.9121 79.8709 14.6479 79.2964 14.6479C78.7021 14.6479 78.2504 14.9121 77.9399 15.4405C77.6745 15.8776 77.5433 16.4102 77.5433 17.0398C77.5433 17.6512 77.6759 18.1754 77.9399 18.6125C78.2603 19.1409 78.7064 19.4051 79.2823 19.4051C79.8469 19.4051 80.2902 19.1367 80.6092 18.5984C80.883 18.1529 81.0199 17.6245 81.0199 17.0131Z" fill="white"/>
<path d="M93.6429 13.7075L91.5609 20.3325H90.2058L89.3433 17.4557C89.1245 16.7375 88.9467 16.0236 88.8083 15.3153H88.7815C88.6531 16.0433 88.4752 16.7558 88.2465 17.4557L87.3304 20.3325H85.9598L84.002 13.7075H85.5222L86.2746 16.857C86.4567 17.6019 86.6063 18.3116 86.7263 18.9834H86.7531C86.8632 18.4296 87.0453 17.7241 87.3022 16.8711L88.2465 13.7089H89.452L90.3568 16.8036C90.5756 17.5583 90.7535 18.2849 90.8904 18.9848H90.9313C91.0315 18.3031 91.1826 17.5766 91.383 16.8036L92.1904 13.7089H93.6429V13.7075Z" fill="white"/>
<path d="M101.311 20.333H99.8318V16.5384C99.8318 15.3692 99.3857 14.7845 98.4908 14.7845C98.0518 14.7845 97.6975 14.9447 97.4222 15.2666C97.1498 15.5884 97.0115 15.9678 97.0115 16.4021V20.3316H95.5321V15.601C95.5321 15.0192 95.5138 14.3882 95.4785 13.7052H96.7786L96.8477 14.7409H96.8887C97.0609 14.4191 97.3178 14.1535 97.6551 13.9413C98.056 13.6939 98.5049 13.5688 98.9961 13.5688C99.6172 13.5688 100.134 13.7684 100.545 14.1689C101.056 14.6594 101.311 15.3916 101.311 16.3642V20.333Z" fill="white"/>
<path d="M105.392 20.3328H103.914V10.668H105.392V20.3328Z" fill="white"/>
<path d="M114.101 16.9654C114.101 17.9843 113.809 18.8191 113.225 19.474C112.612 20.1472 111.799 20.4831 110.787 20.4831C109.809 20.4831 109.031 20.1612 108.452 19.5147C107.873 18.8697 107.584 18.0559 107.584 17.075C107.584 16.049 107.882 15.2072 108.48 14.5537C109.079 13.9002 109.883 13.5728 110.896 13.5728C111.874 13.5728 112.657 13.8946 113.253 14.5397C113.817 15.1665 114.101 15.976 114.101 16.9654ZM112.565 17.0131C112.565 16.4018 112.433 15.8776 112.169 15.4405C111.86 14.9121 111.416 14.6479 110.843 14.6479C110.248 14.6479 109.796 14.9121 109.487 15.4405C109.221 15.8776 109.09 16.4102 109.09 17.0398C109.09 17.6512 109.223 18.1754 109.487 18.6125C109.807 19.1409 110.253 19.4051 110.829 19.4051C111.394 19.4051 111.836 19.1367 112.155 18.5984C112.43 18.1529 112.565 17.6245 112.565 17.0131Z" fill="white"/>
<path d="M121.26 20.3327H119.931L119.821 19.5696H119.78C119.326 20.1781 118.678 20.4831 117.837 20.4831C117.208 20.4831 116.7 20.2821 116.318 19.883C115.971 19.5204 115.797 19.0692 115.797 18.5338C115.797 17.7243 116.136 17.1073 116.817 16.6801C117.498 16.2528 118.455 16.0434 119.687 16.0533V15.9296C119.687 15.0568 119.227 14.6212 118.305 14.6212C117.649 14.6212 117.07 14.7856 116.57 15.1117L116.27 14.1447C116.888 13.7639 117.652 13.5728 118.552 13.5728C120.291 13.5728 121.164 14.4863 121.164 16.3133V18.753C121.164 19.415 121.196 19.942 121.26 20.3327ZM119.724 18.0559V17.0342C118.092 17.0061 117.276 17.4516 117.276 18.3693C117.276 18.7151 117.369 18.9737 117.56 19.1465C117.75 19.3194 117.993 19.4051 118.283 19.4051C118.607 19.4051 118.911 19.3025 119.187 19.0987C119.466 18.8936 119.636 18.6336 119.7 18.3145C119.715 18.2429 119.724 18.1557 119.724 18.0559Z" fill="white"/>
<path d="M129.665 20.3328H128.352L128.283 19.269H128.242C127.822 20.0785 127.108 20.4832 126.105 20.4832C125.303 20.4832 124.635 20.1698 124.106 19.543C123.576 18.9162 123.312 18.1025 123.312 17.1032C123.312 16.0309 123.599 15.1624 124.175 14.4991C124.733 13.8807 125.416 13.5715 126.229 13.5715C127.122 13.5715 127.748 13.8709 128.103 14.471H128.132V10.668H129.612V18.548C129.612 19.1931 129.629 19.7875 129.665 20.3328ZM128.132 17.5389V16.4343C128.132 16.2431 128.117 16.0886 128.091 15.9705C128.007 15.6163 127.828 15.3184 127.556 15.0781C127.28 14.8378 126.949 14.7169 126.566 14.7169C126.014 14.7169 125.582 14.9347 125.265 15.3718C124.95 15.8089 124.79 16.3668 124.79 17.0484C124.79 17.7033 124.941 18.2346 125.245 18.6436C125.565 19.0792 125.997 19.2971 126.538 19.2971C127.023 19.2971 127.412 19.1158 127.707 18.7518C127.992 18.4159 128.132 18.0111 128.132 17.5389Z" fill="white"/>
<path d="M142.318 16.9654C142.318 17.9843 142.026 18.8191 141.441 19.474C140.829 20.1472 140.019 20.4831 139.004 20.4831C138.028 20.4831 137.25 20.1612 136.669 19.5147C136.09 18.8697 135.801 18.0559 135.801 17.075C135.801 16.049 136.099 15.2072 136.697 14.5537C137.296 13.9002 138.1 13.5728 139.115 13.5728C140.091 13.5728 140.877 13.8946 141.47 14.5397C142.034 15.1665 142.318 15.976 142.318 16.9654ZM140.785 17.0131C140.785 16.4018 140.652 15.8776 140.388 15.4405C140.076 14.9121 139.636 14.6479 139.06 14.6479C138.467 14.6479 138.016 14.9121 137.704 15.4405C137.438 15.8776 137.307 16.4102 137.307 17.0398C137.307 17.6512 137.44 18.1754 137.704 18.6125C138.024 19.1409 138.47 19.4051 139.046 19.4051C139.611 19.4051 140.055 19.1367 140.374 18.5984C140.647 18.1529 140.785 17.6245 140.785 17.0131Z" fill="white"/>
<path d="M150.271 20.333H148.793V16.5384C148.793 15.3692 148.347 14.7845 147.45 14.7845C147.011 14.7845 146.657 14.9447 146.383 15.2666C146.109 15.5884 145.972 15.9678 145.972 16.4021V20.3316H144.492V15.601C144.492 15.0192 144.475 14.3882 144.439 13.7052H145.738L145.807 14.7409H145.848C146.022 14.4191 146.279 14.1535 146.615 13.9413C147.017 13.6939 147.464 13.5688 147.957 13.5688C148.577 13.5688 149.093 13.7684 149.504 14.1689C150.017 14.6594 150.271 15.3916 150.271 16.3642V20.333Z" fill="white"/>
<path d="M160.226 14.8113H158.597V18.0296C158.597 18.8475 158.887 19.2565 159.46 19.2565C159.725 19.2565 159.946 19.234 160.119 19.1876L160.157 20.3049C159.865 20.4146 159.481 20.4694 159.008 20.4694C158.424 20.4694 157.969 20.2923 157.64 19.9381C157.31 19.584 157.146 18.9881 157.146 18.1519V14.8113H156.174V13.708H157.146V12.4938L158.596 12.0581V13.7066H160.225V14.8113H160.226Z" fill="white"/>
<path d="M168.058 20.3328H166.578V16.5664C166.578 15.3788 166.131 14.7844 165.238 14.7844C164.552 14.7844 164.083 15.1287 163.826 15.8173C163.783 15.9621 163.757 16.1391 163.757 16.3471V20.3314H162.279V10.668H163.757V14.6607H163.785C164.251 13.9341 164.919 13.5715 165.784 13.5715C166.397 13.5715 166.904 13.7711 167.306 14.1716C167.807 14.6705 168.058 15.4126 168.058 16.3935V20.3328Z" fill="white"/>
<path d="M176.137 16.7067C176.137 16.9709 176.117 17.193 176.082 17.3743H171.645C171.665 18.0292 171.876 18.5281 172.287 18.8738C172.663 19.183 173.147 19.3376 173.74 19.3376C174.396 19.3376 174.995 19.2336 175.534 19.0242L175.765 20.0473C175.134 20.32 174.392 20.4563 173.532 20.4563C172.502 20.4563 171.69 20.1541 171.103 19.5498C170.513 18.9455 170.221 18.1346 170.221 17.1171C170.221 16.1179 170.493 15.2859 171.042 14.6225C171.615 13.9142 172.39 13.5601 173.368 13.5601C174.326 13.5601 175.052 13.9142 175.544 14.6225C175.94 15.1847 176.137 15.8804 176.137 16.7067ZM174.725 16.3259C174.736 15.8888 174.639 15.5121 174.438 15.1945C174.182 14.7856 173.791 14.5804 173.261 14.5804C172.778 14.5804 172.385 14.7799 172.084 15.1805C171.838 15.4995 171.693 15.8804 171.645 16.3259H174.725Z" fill="white"/>
</svg>
