<svg width="537" height="74" viewBox="0 0 537 74" fill="none" xmlns="http://www.w3.org/2000/svg">
<path d="M121.342 0H136.08V73.3565C127.939 73.3565 121.342 66.7889 121.342 58.6852V0Z" fill="white"/>
<path d="M14.7496 14.6824H84.4833V36.6894H0V73.3565H14.7273V51.3495H99.2218V0H0C0 8.10372 6.59764 14.6824 14.7496 14.6824Z" fill="white"/>
<path d="M522.242 0V29.3537H452.486V0H437.736V44.0139H522.231V58.6963H452.464C444.334 58.6963 437.736 65.2639 437.736 73.3565H536.958V0H522.231H522.242Z" fill="white"/>
<path d="M172.947 58.6741V14.6602H242.703C250.833 14.6602 257.431 8.09259 257.431 0H158.209V73.3565H257.431C257.431 65.2528 250.833 58.6741 242.681 58.6741H172.947Z" fill="white"/>
<path d="M279.541 58.6852C279.541 66.7889 286.139 73.3565 294.279 73.3565V0H279.541V58.6852Z" fill="white"/>
<path d="M331.147 14.6824H358.656V73.3565H373.406V14.6824H400.892C409.033 14.6824 415.642 8.11485 415.642 0H316.42C316.42 8.10372 323.018 14.6824 331.17 14.6824H331.147Z" fill="white"/>
</svg>
