<svg width="114" height="102" viewBox="0 0 114 102" fill="none" xmlns="http://www.w3.org/2000/svg">
<path d="M94.5 70.5229L57.4862 6.00165C56.7906 4.79502 55.0502 4.79502 54.3545 6.00165L4.81904 91.8724C4.12343 93.079 4.99294 94.5869 6.38415 94.5869H80.4441" stroke="white" stroke-width="3" stroke-linecap="round" stroke-linejoin="round"/>
<path fill-rule="evenodd" clip-rule="evenodd" d="M97.5 92.0229C99.7091 92.0229 101.5 93.8138 101.5 96.0229C101.5 98.2321 99.7091 100.023 97.5 100.023C95.2909 100.023 93.5 98.2321 93.5 96.0229C93.5 93.8138 95.2909 92.0229 97.5 92.0229Z" stroke="white" stroke-width="3" stroke-linecap="round" stroke-linejoin="round"/>
<path d="M87.4135 86.5931C86.9788 86.9339 86.9027 87.5625 87.2435 87.9971C87.5842 88.4317 88.2128 88.5078 88.6474 88.1671L87.4135 86.5931ZM107.351 88.1671C107.786 88.5078 108.414 88.4317 108.755 87.9971C109.096 87.5625 109.02 86.9339 108.585 86.5931L107.351 88.1671ZM82.8859 81.4119C82.45 81.751 82.3716 82.3793 82.7108 82.8152C83.0499 83.2511 83.6782 83.3295 84.1141 82.9904L82.8859 81.4119ZM111.914 83.0117C112.362 83.3351 112.987 83.2344 113.311 82.7867C113.634 82.339 113.533 81.7139 113.086 81.3905L111.914 83.0117ZM88.0304 87.3801L88.6474 88.1671C94.1387 83.8619 101.86 83.8619 107.351 88.1671L107.968 87.3801L108.585 86.5931C102.369 81.7199 93.6293 81.7199 87.4135 86.5931L88.0304 87.3801ZM83.5 82.2011L84.1141 82.9904C89.9703 78.4339 95.636 77.5496 100.458 78.2239C105.316 78.9033 109.373 81.1757 111.914 83.0117L112.5 82.2011L113.086 81.3905C110.388 79.4421 106.026 76.9833 100.735 76.2432C95.4061 75.498 89.1911 76.5061 82.8859 81.4119L83.5 82.2011Z" fill="white"/>
<path d="M86.933 71.9898L57.1009 20.276C56.5763 19.3663 55.2625 19.3663 54.7379 20.276L17.3623 85.0681C16.8377 85.9779 17.4938 87.1158 18.5431 87.1158H79.6803" stroke="white" stroke-width="2" stroke-linecap="round" stroke-linejoin="round"/>
<path d="M38.0008 61.6673C38.0008 61.6673 35.0781 78.4138 51.153 78.4138L61.0171 78.4869C61.0171 78.4869 78.115 79.4376 68.8354 53.0381L63.7937 60.7166C63.7937 60.7166 65.4012 41.8494 54.5872 37.6079C54.5872 37.6079 59.4096 49.3085 51.0799 52.5262C51.0799 52.5262 43.0425 56.0364 46.842 65.3969C46.842 65.3969 39.9006 66.64 38.0008 61.6673Z" stroke="white" stroke-width="2" stroke-linecap="square" stroke-linejoin="round"/>
<path d="M56.7791 73.3674C57.9494 73.3674 58.8981 72.418 58.8981 71.2467C58.8981 70.0755 57.9494 69.126 56.7791 69.126C55.6088 69.126 54.6602 70.0755 54.6602 71.2467C54.6602 72.418 55.6088 73.3674 56.7791 73.3674Z" stroke="white" stroke-width="2" stroke-linecap="square" stroke-linejoin="round"/>
<path d="M56.7793 54.4033V68.2978" stroke="white" stroke-width="2" stroke-linecap="round" stroke-linejoin="round"/>
<path d="M67.2773 0C68.0403 0 68.666 0.622365 68.666 1.38135C68.666 2.14033 68.0403 2.76269 67.2773 2.76269C66.5143 2.76269 65.8887 2.14033 65.8887 1.38135C65.8887 0.622365 66.5143 0 67.2773 0Z" fill="white"/>
<path d="M6.80272 54.4795C7.56571 54.4795 8.19137 55.1019 8.19137 55.8608C8.19137 56.6198 7.56571 57.2422 6.80272 57.2422C6.03972 57.2422 5.41406 56.6198 5.41406 55.8608C5.41406 55.1019 6.03972 54.4795 6.80272 54.4795Z" fill="white"/>
<path d="M3.8867 9.4873C4.6497 9.4873 5.27536 10.1097 5.27536 10.8687C5.27536 11.6276 4.6497 12.25 3.8867 12.25C3.1237 12.25 2.49805 11.6276 2.49805 10.8687C2.49805 10.1097 3.1237 9.4873 3.8867 9.4873Z" fill="white"/>
<path d="M80.3563 18.9743C77.1212 18.9743 74.5117 16.3786 74.5117 13.1605C74.5117 9.9424 77.1212 7.34668 80.3563 7.34668C83.5914 7.34668 86.2008 9.9424 86.2008 13.1605C86.2008 16.3786 83.4235 18.9743 80.3563 18.9743ZM80.3563 9.48701C78.2046 9.48701 76.5108 11.1719 76.5108 13.3123C76.5108 15.4526 78.2046 17.1375 80.3563 17.1375C82.5079 17.1375 84.2018 15.4526 84.2018 13.3123C84.2018 11.1719 82.3553 9.48701 80.3563 9.48701Z" fill="white"/>
<path d="M4.3455 72.5436C2.19385 72.5436 0.5 70.8587 0.5 68.7183C0.5 66.578 2.19385 64.8931 4.3455 64.8931C6.49716 64.8931 8.19101 66.578 8.19101 68.7183C8.19101 70.8587 6.49716 72.5436 4.3455 72.5436ZM4.3455 66.8816C3.27731 66.8816 2.34645 67.8076 2.34645 68.8701C2.34645 69.9327 3.27731 70.8587 4.3455 70.8587C5.4137 70.8587 6.34456 69.9327 6.34456 68.8701C6.34456 67.8076 5.4137 66.8816 4.3455 66.8816Z" fill="white"/>
</svg>
