<svg width="102" height="92" viewBox="0 0 102 92" fill="none" xmlns="http://www.w3.org/2000/svg">
<path d="M1 46.6079H4.67931C6.96146 46.6079 8.81854 48.4566 8.81854 50.7361V86.7014C8.81854 88.9774 6.96495 90.8295 4.67931 90.8295H1V46.6114V46.6079Z" stroke="white" stroke-width="2" stroke-miterlimit="10"/>
<path d="M8.81798 81.4473L8.81798 55.9867C13.4102 55.9867 17.1348 59.7048 17.1348 64.2812L17.1348 73.1527C17.1348 77.7326 13.4067 81.4473 8.81798 81.4473Z" stroke="white" stroke-width="2" stroke-miterlimit="10"/>
<path d="M17.1348 72.5759H37.4198C38.5626 72.5759 39.4894 71.6516 39.4894 70.5118V48.0361" stroke="white" stroke-width="2" stroke-miterlimit="10"/>
<path d="M32.4392 45.8818V63.4822C32.4392 64.622 31.5125 65.5463 30.3696 65.5463H24.1016" stroke="white" stroke-width="2" stroke-miterlimit="10"/>
<path d="M91.0912 36.3052C91.9727 39.1094 92.0146 42.209 91.025 45.2148C88.8405 51.8484 82.3459 55.8619 75.6562 55.1878" stroke="white" stroke-width="2" stroke-miterlimit="10" stroke-linecap="round"/>
<path d="M98.6314 35.6343C99.8788 39.613 99.9415 44.0053 98.5339 48.2656C95.4364 57.6686 86.2242 63.364 76.7402 62.4049" stroke="white" stroke-width="3" stroke-miterlimit="10" stroke-linecap="round"/>
<path d="M74.598 42.56L9.55155 21.2449C8.99408 21.0607 8.68747 20.4596 8.87214 19.9036L14.8022 1.9036C14.9869 1.34762 15.5897 1.04183 16.1471 1.226L94.1862 26.8013C95.0189 27.0758 95.1827 28.1773 94.4649 28.6812L74.598 42.56Z" stroke="white" stroke-width="2" stroke-miterlimit="10"/>
<path d="M18.4199 24.1499L74.6019 42.5615L70.4753 55.0864C69.9511 56.6776 68.2316 57.5443 66.6361 57.0214L16.2335 40.5038C14.6381 39.981 13.7691 38.2661 14.2933 36.6748L18.4199 24.1499Z" stroke="white" stroke-width="2" stroke-miterlimit="10"/>
<path d="M63.164 59.7656C63.927 59.7656 64.5527 60.388 64.5527 61.147C64.5527 61.906 63.927 62.5283 63.164 62.5283C62.401 62.5283 61.7754 61.906 61.7754 61.147C61.7754 60.388 62.401 59.7656 63.164 59.7656Z" fill="white"/>
<path d="M7.30272 39.4565C8.06571 39.4565 8.69137 40.0789 8.69137 40.8379C8.69137 41.5969 8.06571 42.2192 7.30272 42.2192C6.53972 42.2192 5.91406 41.5969 5.91406 40.8379C5.91406 40.0789 6.53972 39.4565 7.30272 39.4565Z" fill="white"/>
<path d="M4.3867 4.46436C5.1497 4.46436 5.77536 5.08672 5.77536 5.8457C5.77536 6.60468 5.1497 7.22705 4.3867 7.22705C3.6237 7.22705 2.99805 6.60468 2.99805 5.8457C2.99805 5.08672 3.6237 4.46436 4.3867 4.46436Z" fill="white"/>
<path d="M80.8563 13.9513C77.6212 13.9513 75.0117 11.3556 75.0117 8.13753C75.0117 4.91945 77.6212 2.32373 80.8563 2.32373C84.0914 2.32373 86.7008 4.91945 86.7008 8.13753C86.7008 11.3556 83.9235 13.9513 80.8563 13.9513ZM80.8563 4.46406C78.7046 4.46406 77.0108 6.149 77.0108 8.28932C77.0108 10.4297 78.7046 12.1146 80.8563 12.1146C83.0079 12.1146 84.7018 10.4297 84.7018 8.28932C84.7018 6.149 82.8553 4.46406 80.8563 4.46406Z" fill="white"/>
<path d="M54.8455 68.5206C52.6939 68.5206 51 66.8357 51 64.6954C51 62.5551 52.6939 60.8701 54.8455 60.8701C56.9972 60.8701 58.691 62.5551 58.691 64.6954C58.691 66.8357 56.9972 68.5206 54.8455 68.5206ZM54.8455 62.8587C53.7773 62.8587 52.8465 63.7846 52.8465 64.8472C52.8465 65.9098 53.7773 66.8357 54.8455 66.8357C55.9137 66.8357 56.8446 65.9098 56.8446 64.8472C56.8446 63.7846 55.9137 62.8587 54.8455 62.8587Z" fill="white"/>
<path d="M23.087 20.9704C24.0973 20.9704 24.9162 20.1536 24.9162 19.1461C24.9162 18.1386 24.0973 17.3218 23.087 17.3218C22.0768 17.3218 21.2578 18.1386 21.2578 19.1461C21.2578 20.1536 22.0768 20.9704 23.087 20.9704Z" stroke="white" stroke-width="2" stroke-miterlimit="10"/>
<path d="M28.4112 22.7146C29.4215 22.7146 30.2404 21.8978 30.2404 20.8902C30.2404 19.8827 29.4215 19.0659 28.4112 19.0659C27.401 19.0659 26.582 19.8827 26.582 20.8902C26.582 21.8978 27.401 22.7146 28.4112 22.7146Z" stroke="white" stroke-width="2" stroke-miterlimit="10"/>
<path d="M33.7374 24.4626C34.7476 24.4626 35.5666 23.6458 35.5666 22.6383C35.5666 21.6307 34.7476 20.814 33.7374 20.814C32.7272 20.814 31.9082 21.6307 31.9082 22.6383C31.9082 23.6458 32.7272 24.4626 33.7374 24.4626Z" stroke="white" stroke-width="2" stroke-miterlimit="10"/>
<path d="M23.8468 67.2038C24.857 67.2038 25.676 66.387 25.676 65.3795C25.676 64.372 24.857 63.5552 23.8468 63.5552C22.8365 63.5552 22.0176 64.372 22.0176 65.3795C22.0176 66.387 22.8365 67.2038 23.8468 67.2038Z" stroke="white" stroke-width="2" stroke-miterlimit="10"/>
<path d="M64.4164 21.0357L45.0326 14.6834C44.3598 14.4629 43.6353 14.8281 43.4142 15.499C43.1931 16.17 43.5593 16.8926 44.232 17.1131L63.6159 23.4654C64.2886 23.6859 65.0132 23.3207 65.2342 22.6498C65.4553 21.9788 65.0891 21.2562 64.4164 21.0357Z" stroke="white" stroke-width="2" stroke-miterlimit="10"/>
</svg>
