<svg width="199" height="60" viewBox="0 0 199 60" fill="none" xmlns="http://www.w3.org/2000/svg">
<path d="M191.63 0.771973H7.37037C3.29983 0.771973 0 4.07387 0 8.14697V52.397C0 56.4701 3.29983 59.772 7.37037 59.772H191.63C195.7 59.772 199 56.4701 199 52.397V8.14697C199 4.07387 195.7 0.771973 191.63 0.771973Z" fill="black"/>
<path d="M191.63 1.95197C193.272 1.95197 194.846 2.60466 196.007 3.76645C197.168 4.92823 197.821 6.50396 197.821 8.14697V52.397C197.821 54.04 197.168 55.6157 196.007 56.7775C194.846 57.9393 193.272 58.592 191.63 58.592H7.37037C5.72839 58.592 4.15365 57.9393 2.99259 56.7775C1.83153 55.6157 1.17926 54.04 1.17926 52.397V8.14697C1.17926 6.50396 1.83153 4.92823 2.99259 3.76645C4.15365 2.60466 5.72839 1.95197 7.37037 1.95197H191.63ZM191.63 0.771973H7.37037C5.41563 0.771973 3.54094 1.54898 2.15873 2.93206C0.776519 4.31514 0 6.191 0 8.14697V52.397C0 54.3529 0.776519 56.2288 2.15873 57.6119C3.54094 58.995 5.41563 59.772 7.37037 59.772H191.63C193.584 59.772 195.459 58.995 196.841 57.6119C198.223 56.2288 199 54.3529 199 52.397V8.14697C199 6.191 198.223 4.31514 196.841 2.93206C195.459 1.54898 193.584 0.771973 191.63 0.771973Z" fill="#A6A6A6"/>
<path d="M100.444 32.853C99.2059 32.8588 97.9975 33.2314 96.9712 33.9238C95.9448 34.6161 95.1464 35.5972 94.6768 36.7432C94.2071 37.8891 94.0873 39.1486 94.3323 40.3627C94.5774 41.5768 95.1763 42.691 96.0537 43.5647C96.931 44.4385 98.0473 45.0326 99.2617 45.2721C100.476 45.5116 101.734 45.3857 102.877 44.9104C104.02 44.4351 104.997 43.6316 105.684 42.6014C106.371 41.5711 106.738 40.3603 106.738 39.1217C106.75 38.2927 106.595 37.4697 106.283 36.7018C105.97 35.9338 105.507 35.2367 104.919 34.6518C104.332 34.0668 103.633 33.6062 102.864 33.2971C102.095 32.9881 101.272 32.8371 100.444 32.853ZM100.444 42.9272C99.6824 42.9805 98.9228 42.8034 98.2635 42.4189C97.6041 42.0345 97.0757 41.4604 96.7467 40.7714C96.4178 40.0824 96.3036 39.3104 96.419 38.5556C96.5343 37.8008 96.874 37.0981 97.3937 36.5391C97.9135 35.98 98.5893 35.5903 99.3333 35.4206C100.077 35.251 100.855 35.3092 101.566 35.5878C102.276 35.8663 102.887 36.3523 103.317 36.9825C103.748 37.6128 103.98 38.3582 103.981 39.1217C104.005 39.6056 103.932 40.0892 103.766 40.5443C103.6 40.9993 103.344 41.4164 103.015 41.7711C102.685 42.1258 102.288 42.4108 101.846 42.6094C101.404 42.8079 100.928 42.916 100.444 42.9272ZM86.72 32.853C85.4816 32.8559 84.2718 33.226 83.2435 33.9166C82.2152 34.6072 81.4145 35.5873 80.9426 36.733C80.4707 37.8787 80.3487 39.1387 80.5921 40.3537C80.8355 41.5688 81.4334 42.6844 82.3101 43.5596C83.1868 44.4348 84.3031 45.0304 85.518 45.2711C86.7328 45.5118 87.9917 45.3868 89.1356 44.9119C90.2795 44.437 91.257 43.6335 91.9448 42.6029C92.6325 41.5724 92.9996 40.3609 92.9996 39.1217C93.0116 38.2927 92.8568 37.4697 92.5443 36.7018C92.2319 35.9338 91.7682 35.2367 91.181 34.6518C90.5937 34.0668 89.8948 33.6062 89.1258 33.2971C88.3569 32.9881 87.5337 32.8371 86.7053 32.853H86.72ZM86.72 42.9272C85.9584 42.9835 85.1975 42.809 84.5364 42.4265C83.8752 42.0441 83.3445 41.4713 83.0133 40.7827C82.682 40.0942 82.5656 39.3218 82.6791 38.5661C82.7927 37.8105 83.131 37.1065 83.65 36.5459C84.169 35.9853 84.8446 35.5941 85.5889 35.4231C86.3332 35.2521 87.1118 35.3092 87.8232 35.5872C88.5345 35.8651 89.1458 36.3509 89.5774 36.9813C90.0091 37.6117 90.241 38.3576 90.2431 39.1217C90.2668 39.6056 90.1935 40.0892 90.0275 40.5443C89.8614 40.9993 89.606 41.4164 89.2763 41.7711C88.9466 42.1258 88.5492 42.4108 88.1076 42.6094C87.6661 42.8079 87.1893 42.916 86.7053 42.9272H86.72ZM70.3725 34.7852V37.4402H76.7405C76.6407 38.6907 76.1212 39.8707 75.2665 40.7885C74.6294 41.4378 73.8635 41.9465 73.0181 42.2819C72.1727 42.6172 71.2665 42.7717 70.3578 42.7355C68.4812 42.7355 66.6816 41.9896 65.3546 40.6618C64.0277 39.334 63.2822 37.5332 63.2822 35.6555C63.2822 33.7778 64.0277 31.9769 65.3546 30.6492C66.6816 29.3214 68.4812 28.5755 70.3578 28.5755C72.1529 28.5462 73.8864 29.2305 75.178 30.4782L77.0501 28.605C76.1782 27.7215 75.1378 27.0221 73.9908 26.5483C72.8438 26.0745 71.6134 25.836 70.3725 25.8467C69.0621 25.7957 67.7548 26.0099 66.5291 26.4765C65.3033 26.9431 64.1843 27.6525 63.2391 28.5622C62.2939 29.4719 61.542 30.5632 61.0284 31.7706C60.5147 32.9781 60.25 34.2768 60.25 35.5891C60.25 36.9014 60.5147 38.2001 61.0284 39.4076C61.542 40.615 62.2939 41.7063 63.2391 42.616C64.1843 43.5257 65.3033 44.2351 66.5291 44.7017C67.7548 45.1683 69.0621 45.3825 70.3725 45.3315C71.6343 45.3885 72.8936 45.1745 74.0658 44.7038C75.2379 44.2331 76.2957 43.5167 77.168 42.6027C78.7124 40.9049 79.5369 38.673 79.4676 36.3782C79.4723 35.8192 79.423 35.261 79.3202 34.7115L70.3725 34.7852ZM137.163 36.8502C136.778 35.7185 136.06 34.7303 135.101 34.0165C134.143 33.3027 132.991 32.897 131.797 32.853C130.991 32.8514 130.193 33.0153 129.452 33.3346C128.712 33.6539 128.045 34.1218 127.492 34.7093C126.939 35.2969 126.513 35.9916 126.239 36.7505C125.966 37.5094 125.851 38.3165 125.901 39.1217C125.883 39.9461 126.031 40.7657 126.337 41.5314C126.643 42.2972 127.1 42.9934 127.68 43.5786C128.261 44.1637 128.953 44.6257 129.716 44.937C130.48 45.2484 131.298 45.4026 132.122 45.3905C133.153 45.396 134.169 45.1456 135.08 44.6617C135.99 44.1778 136.767 43.4754 137.34 42.6175L135.202 41.1425C134.883 41.6746 134.432 42.1148 133.892 42.4199C133.352 42.725 132.742 42.8846 132.122 42.883C131.483 42.9073 130.852 42.7389 130.31 42.3995C129.769 42.0602 129.342 41.5657 129.085 40.9802L137.472 37.514L137.163 36.8502ZM128.613 38.9447C128.583 38.4885 128.645 38.0309 128.794 37.5987C128.943 37.1665 129.177 36.7684 129.481 36.4278C129.786 36.0871 130.156 35.8107 130.569 35.6148C130.981 35.4189 131.429 35.3073 131.886 35.2867C132.361 35.2554 132.835 35.3645 133.249 35.6005C133.663 35.8365 133.999 36.189 134.215 36.6142L128.613 38.9447ZM121.803 45.0217H124.56V26.5842H121.803V45.0217ZM117.292 34.2542H117.189C116.774 33.7895 116.265 33.4178 115.696 33.1636C115.127 32.9094 114.51 32.7784 113.887 32.7792C112.276 32.8574 110.757 33.5528 109.645 34.7212C108.532 35.8896 107.912 37.4416 107.912 39.0554C107.912 40.6692 108.532 42.2211 109.645 43.3895C110.757 44.558 112.276 45.2533 113.887 45.3315C114.512 45.342 115.131 45.2154 115.702 44.9605C116.272 44.7057 116.78 44.3288 117.189 43.8565H117.278V44.7562C117.278 47.1605 115.995 48.4437 113.931 48.4437C113.244 48.4276 112.577 48.2072 112.015 47.8106C111.454 47.414 111.022 46.8591 110.777 46.2165L108.374 47.2195C108.826 48.3204 109.597 49.2609 110.587 49.9206C111.577 50.5802 112.742 50.9288 113.931 50.9217C117.16 50.9217 119.828 49.019 119.828 44.3875V33.2217H117.292V34.2542ZM114.138 42.9272C113.187 42.8434 112.302 42.4062 111.657 41.7018C111.013 40.9974 110.655 40.0769 110.655 39.1217C110.655 38.1666 111.013 37.2461 111.657 36.5417C112.302 35.8373 113.187 35.4001 114.138 35.3162C114.609 35.3404 115.071 35.4588 115.496 35.6644C115.921 35.87 116.301 36.1586 116.613 36.5132C116.924 36.8678 117.162 37.2813 117.312 37.7293C117.461 38.1773 117.52 38.6507 117.484 39.1217C117.524 39.5948 117.468 40.071 117.319 40.5217C117.17 40.9724 116.931 41.3882 116.617 41.744C116.303 42.0997 115.92 42.388 115.491 42.5914C115.063 42.7947 114.597 42.909 114.123 42.9272H114.138ZM150.076 26.5842H143.487V45.0217H146.243V38.0302H150.09C150.876 38.0867 151.665 37.9806 152.408 37.7186C153.151 37.4566 153.831 37.0442 154.408 36.5073C154.985 35.9703 155.444 35.3203 155.759 34.5977C156.073 33.875 156.236 33.0954 156.236 32.3072C156.236 31.5191 156.073 30.7394 155.759 30.0168C155.444 29.2942 154.985 28.6441 154.408 28.1072C153.831 27.5702 153.151 27.1579 152.408 26.8959C151.665 26.6338 150.876 26.5278 150.09 26.5842H150.076ZM150.076 35.4342H146.228V29.1507H150.135C150.973 29.1507 151.778 29.4841 152.37 30.0774C152.963 30.6708 153.297 31.4755 153.297 32.3146C153.297 33.1537 152.963 33.9585 152.37 34.5518C151.778 35.1451 150.973 35.4785 150.135 35.4785L150.076 35.4342ZM167.072 32.7792C166.068 32.7192 165.069 32.9539 164.197 33.4544C163.325 33.9549 162.618 34.6994 162.163 35.5965L164.61 36.6142C164.851 36.1693 165.217 35.8041 165.662 35.5632C166.107 35.3223 166.612 35.216 167.116 35.2572C167.466 35.2163 167.821 35.2456 168.159 35.3433C168.498 35.4409 168.813 35.6051 169.088 35.8262C169.362 36.0472 169.59 36.3207 169.757 36.6308C169.925 36.9408 170.029 37.2812 170.064 37.632V37.8237C169.179 37.3547 168.191 37.1115 167.19 37.1157C164.551 37.1157 161.883 38.5907 161.883 41.2605C161.909 41.8297 162.049 42.388 162.294 42.9022C162.54 43.4165 162.886 43.8763 163.312 44.2544C163.738 44.6326 164.235 44.9214 164.775 45.1039C165.314 45.2864 165.885 45.3587 166.453 45.3167C167.147 45.3666 167.842 45.2286 168.464 44.9172C169.087 44.6057 169.614 44.1323 169.99 43.5467H170.079V45.0217H172.732V37.927C172.732 34.6967 170.285 32.8235 167.146 32.8235L167.072 32.7792ZM166.733 42.883C165.834 42.883 164.581 42.4257 164.581 41.3195C164.581 39.8445 166.143 39.3577 167.529 39.3577C168.404 39.3361 169.27 39.5501 170.035 39.9772C169.943 40.7758 169.565 41.5141 168.972 42.0562C168.379 42.5983 167.61 42.9076 166.806 42.9272L166.733 42.883ZM182.402 33.2217L179.248 41.2162H179.159L175.887 33.2217H172.939L177.847 44.4022L175.047 50.612H177.921L185.468 33.2217H182.402ZM157.623 45.0217H160.38V26.5842H157.623V45.0217Z" fill="white"/>
<path d="M69.808 15.968C69.8331 16.509 69.748 17.0495 69.5579 17.5566C69.3679 18.0637 69.0768 18.5268 68.7024 18.918C68.2844 19.3525 67.7795 19.694 67.2208 19.9202C66.662 20.1464 66.0619 20.2522 65.4595 20.2307C64.5455 20.2236 63.654 19.9467 62.8966 19.4347C62.1393 18.9228 61.5497 18.1986 61.2019 17.3529C60.8541 16.5071 60.7634 15.5775 60.9413 14.6804C61.1191 13.7834 61.5576 12.9588 62.2018 12.31C62.6251 11.8775 63.1327 11.5365 63.693 11.3082C64.2534 11.0798 64.8546 10.969 65.4595 10.9825C66.0827 10.9804 66.6997 11.1059 67.2726 11.3512C67.806 11.5665 68.2808 11.9052 68.6582 12.3395L67.877 13.1212C67.5828 12.771 67.2112 12.4941 66.7916 12.3124C66.3721 12.1306 65.916 12.049 65.4595 12.074C64.999 12.0717 64.5429 12.1625 64.1184 12.3409C63.6939 12.5194 63.3097 12.7817 62.989 13.1123C62.6683 13.4429 62.4175 13.8348 62.2519 14.2647C62.0862 14.6946 62.009 15.1535 62.0249 15.614C62.0152 16.3015 62.2093 16.9765 62.5826 17.5538C62.9559 18.1312 63.4917 18.5849 64.1224 18.8579C64.7531 19.1308 65.4505 19.2108 66.1266 19.0876C66.8026 18.9644 67.4271 18.6436 67.9212 18.1657C68.3748 17.6739 68.6364 17.0351 68.6582 16.3662H65.4595V15.3042H69.749C69.7884 15.5233 69.8081 15.7454 69.808 15.968ZM76.5593 12.2805H72.5793V15.083H76.2055V16.145H72.5793V18.9475H76.5593V20.039H71.4V11.189H76.5593V12.2805ZM81.3942 20.039H80.2592V12.2805H77.7827V11.189H83.9296V12.2805H81.3942V20.039ZM88.2634 20.039V11.189H89.3984V20.039H88.2634ZM94.4398 20.039H93.3047V12.2805H90.8283V11.189H96.9015V12.2805H94.4398V20.039ZM108.414 18.8885C107.552 19.746 106.386 20.2273 105.171 20.2273C103.956 20.2273 102.79 19.746 101.928 18.8885C101.09 18.0013 100.624 16.8271 100.624 15.6066C100.624 14.3861 101.09 13.2119 101.928 12.3247C102.353 11.8966 102.858 11.5568 103.415 11.3249C103.971 11.093 104.568 10.9737 105.171 10.9737C105.774 10.9737 106.371 11.093 106.927 11.3249C107.484 11.5568 107.989 11.8966 108.414 12.3247C109.255 13.2102 109.724 14.3851 109.724 15.6066C109.724 16.8281 109.255 18.003 108.414 18.8885ZM102.768 18.151C103.406 18.7869 104.27 19.1439 105.171 19.1439C106.072 19.1439 106.936 18.7869 107.574 18.151C108.204 17.4563 108.552 16.5519 108.552 15.614C108.552 14.676 108.204 13.7717 107.574 13.077C106.936 12.4411 106.072 12.084 105.171 12.084C104.27 12.084 103.406 12.4411 102.768 13.077C102.139 13.7717 101.79 14.676 101.79 15.614C101.79 16.5519 102.139 17.4563 102.768 18.151ZM111.318 20.039V11.189H112.704L117.008 18.0772V11.189H118.143V20.039H116.964L112.468 12.8262V20.039H111.318Z" fill="white"/>
<path fill-rule="evenodd" clip-rule="evenodd" d="M105.171 11.1212C104.588 11.1212 104.01 11.2367 103.471 11.4611C102.933 11.6853 102.445 12.0136 102.034 12.4273C101.223 13.287 100.771 14.4244 100.771 15.6066C100.771 16.7886 101.223 17.9259 102.034 18.7855C102.868 19.6145 103.995 20.0798 105.171 20.0798C106.347 20.0798 107.475 19.6144 108.309 18.7853C109.123 17.9274 109.576 16.7896 109.576 15.6066C109.576 14.4234 109.122 13.2855 108.308 12.4275C107.897 12.0137 107.409 11.6853 106.871 11.4611C106.332 11.2367 105.754 11.1212 105.171 11.1212ZM103.358 11.1888C103.933 10.9494 104.549 10.8262 105.171 10.8262C105.793 10.8262 106.41 10.9494 106.984 11.1888C107.559 11.4281 108.08 11.7789 108.519 12.2208L108.521 12.2231C109.388 13.136 109.871 14.3473 109.871 15.6066C109.871 16.8659 109.388 18.0772 108.521 18.9901L108.518 18.9931C107.629 19.8781 106.425 20.3748 105.171 20.3748C103.917 20.3748 102.714 19.878 101.824 18.9931L101.821 18.9898C100.957 18.0753 100.476 16.8647 100.476 15.6066C100.476 14.3485 100.957 13.138 101.821 12.2234L101.823 12.2208C102.262 11.7788 102.783 11.4281 103.358 11.1888ZM65.4562 11.1299C64.8715 11.1169 64.2903 11.2241 63.7486 11.4448C63.207 11.6655 62.7163 11.9951 62.3071 12.4132L62.3063 12.4139C61.6826 13.0421 61.2581 13.8405 61.0859 14.7091C60.9136 15.5777 61.0014 16.4779 61.3382 17.2967C61.675 18.1156 62.2458 18.8168 62.9792 19.3125C63.7125 19.8082 64.5757 20.0763 65.4606 20.0832L65.4647 20.0833C66.0464 20.104 66.6259 20.0019 67.1655 19.7834C67.705 19.565 68.1925 19.2353 68.5961 18.8158C68.9566 18.4392 69.2369 17.9931 69.4199 17.5048C69.6029 17.0164 69.6849 16.4959 69.6607 15.9748L69.808 15.968L69.6606 15.9679C69.6607 15.7951 69.6483 15.6226 69.6236 15.4517H65.6069V16.2187H68.8105L68.8055 16.371C68.7826 17.0753 68.5071 17.7479 68.0295 18.2658L68.0238 18.2719C67.5088 18.7701 66.8577 19.1043 66.153 19.2327C65.4483 19.3611 64.7213 19.2778 64.0639 18.9933C63.4064 18.7087 62.8479 18.2358 62.4588 17.634C62.0704 17.0332 61.8681 16.3309 61.8774 15.6155C61.8614 15.1364 61.942 14.6589 62.1143 14.2116C62.2871 13.7632 62.5487 13.3544 62.8832 13.0095C63.2178 12.6647 63.6185 12.391 64.0613 12.2049C64.5028 12.0194 64.977 11.9247 65.4558 11.9265C65.9337 11.901 66.411 11.9868 66.8502 12.177C67.2416 12.3466 67.5932 12.595 67.8834 12.9062L68.4549 12.3344C68.1088 11.9664 67.6868 11.6774 67.2175 11.488L67.2146 11.4869C66.6601 11.2494 66.063 11.128 65.46 11.13L65.4562 11.1299ZM69.9554 15.9646C69.9809 16.5244 69.8926 17.0836 69.696 17.6084C69.4989 18.1342 69.1971 18.6144 68.8089 19.02C68.3765 19.4695 67.854 19.8229 67.2761 20.0569C66.6987 20.2906 66.0787 20.4001 65.4563 20.3782C64.514 20.3704 63.595 20.0848 62.8141 19.557C62.0327 19.0288 61.4245 18.2816 61.0656 17.409C60.7067 16.5364 60.6132 15.5773 60.7967 14.6517C60.9802 13.7263 61.4324 12.8757 62.0968 12.2064C62.5342 11.7597 63.0586 11.4075 63.6375 11.1716C64.2159 10.9359 64.8365 10.8213 65.4609 10.835C66.103 10.8331 66.7388 10.9624 67.3292 11.215C67.8836 11.439 68.3771 11.7912 68.7695 12.2427L68.8597 12.3465L67.8676 13.3392L67.7641 13.2161C67.4846 12.8835 67.1316 12.6204 66.7331 12.4477C66.3345 12.2751 65.9012 12.1975 65.4675 12.2213L65.4588 12.2217C65.0182 12.2196 64.5817 12.3062 64.1755 12.4769C63.7692 12.6477 63.4017 12.8987 63.0948 13.215C62.7878 13.5314 62.5479 13.9064 62.3894 14.3178C62.2309 14.7291 62.157 15.1683 62.1722 15.6089L62.1725 15.616C62.1632 16.2745 62.3489 16.9209 62.7063 17.4737C63.0638 18.0266 63.5769 18.4611 64.1809 18.7225C64.7849 18.9839 65.4527 19.0604 66.1002 18.9425C66.7462 18.8248 67.343 18.5186 67.8157 18.0626C68.209 17.6347 68.4493 17.09 68.5015 16.5137H65.3121V15.1567H69.8723L69.8941 15.2782C69.9348 15.5047 69.9553 15.7344 69.9554 15.9646ZM71.2526 11.0415H76.7067V12.428H72.7267V14.9355H76.3529V16.2925H72.7267V18.8H76.7067V20.1865H71.2526V11.0415ZM71.5474 11.3365V19.8915H76.4119V19.095H72.4319V15.9975H76.0581V15.2305H72.4319V12.133H76.4119V11.3365H71.5474ZM77.6353 11.0415H84.077V12.428H81.5416V20.1865H80.1118V12.428H77.6353V11.0415ZM77.9302 11.3365V12.133H80.4066V19.8915H81.2468V12.133H83.7822V11.3365H77.9302ZM88.116 11.0415H89.5459V20.1865H88.116V11.0415ZM88.4108 11.3365V19.8915H89.251V11.3365H88.4108ZM90.6809 11.0415H97.0489V12.428H94.5872V20.1865H93.1573V12.428H90.6809V11.0415ZM90.9757 11.3365V12.133H93.4522V19.8915H94.2924V12.133H96.7541V11.3365H90.9757ZM111.171 11.0415H112.785L116.86 17.5631V11.0415H118.29V20.1865H116.882L112.615 13.3414V20.1865H111.171V11.0415ZM111.465 11.3365V19.8915H112.32V12.311L117.045 19.8915H117.995V11.3365H117.155V18.5913L112.622 11.3365H111.465ZM102.664 12.9725C103.33 12.309 104.231 11.9365 105.171 11.9365C106.111 11.9365 107.012 12.309 107.678 12.9725L107.683 12.9777C108.337 13.6996 108.7 14.6394 108.7 15.614C108.7 16.5885 108.337 17.5282 107.683 18.2501L107.678 18.2556C107.012 18.9191 106.111 19.2914 105.171 19.2914C104.231 19.2914 103.33 18.9189 102.664 18.2555L102.768 18.151L102.659 18.2501C102.005 17.5282 101.642 16.5885 101.642 15.614C101.642 14.6394 102.005 13.6997 102.659 12.9779L102.664 12.9725ZM102.875 18.0491C103.485 18.6558 104.311 18.9964 105.171 18.9964C106.031 18.9964 106.857 18.6558 107.467 18.0491C108.071 17.3819 108.405 16.514 108.405 15.614C108.405 14.7139 108.071 13.846 107.467 13.1788C106.857 12.5721 106.031 12.2315 105.171 12.2315C104.311 12.2315 103.485 12.5721 102.875 13.1788C102.271 13.846 101.937 14.7139 101.937 15.614C101.937 16.514 102.271 17.3819 102.875 18.0491Z" fill="white"/>
<path d="M15.3884 11.8933C14.908 12.4702 14.6655 13.2087 14.7104 13.9583V46.5853C14.6655 47.3349 14.908 48.0734 15.3884 48.6503L15.4916 48.7535L33.7554 30.493V30.0653L15.4916 11.79L15.3884 11.8933Z" fill="url(#paint0_linear_61_1400)"/>
<path d="M39.7996 36.585L33.7559 30.4932V30.0655L39.7996 23.959L39.9322 24.0327L47.1699 28.148C49.2336 29.3132 49.2336 31.2307 47.1699 32.4107L39.9617 36.5112L39.7996 36.585Z" fill="url(#paint1_linear_61_1400)"/>
<path d="M39.9762 36.4965L33.7556 30.272L15.3887 48.6505C15.8093 49.0205 16.3459 49.2318 16.9058 49.248C17.4656 49.2641 18.0135 49.0841 18.4547 48.739L39.991 36.4965" fill="url(#paint2_linear_61_1400)"/>
<path d="M39.9753 24.0474L18.4391 11.8049C17.9979 11.4598 17.45 11.2798 16.8901 11.2959C16.3303 11.3121 15.7937 11.5234 15.373 11.8934L33.7548 30.2719L39.9753 24.0474Z" fill="url(#paint3_linear_61_1400)"/>
<path opacity="0.2" d="M39.7993 36.3633L18.44 48.532C18.0144 48.8504 17.4973 49.0225 16.9659 49.0225C16.4346 49.0225 15.9174 48.8504 15.4919 48.532L15.3887 48.6353L15.4919 48.7385C15.9165 49.0592 16.434 49.2327 16.9659 49.2327C17.4979 49.2327 18.0154 49.0592 18.44 48.7385L39.9762 36.496L39.7993 36.3633Z" fill="black"/>
<path opacity="0.12" d="M15.3884 48.444C14.908 47.8671 14.6655 47.1286 14.7104 46.379V46.6002C14.6655 47.3498 14.908 48.0883 15.3884 48.6652L15.4916 48.562L15.3884 48.444ZM47.1695 32.1895L39.7991 36.3637L39.9318 36.4965L47.1695 32.396C47.5801 32.2029 47.9327 31.9049 48.1915 31.532C48.4503 31.1591 48.6062 30.7245 48.6435 30.272C48.5606 30.6831 48.3847 31.0697 48.1291 31.4021C47.8736 31.7345 47.5453 32.0039 47.1695 32.1895Z" fill="black"/>
<path opacity="0.25" d="M18.4395 12.0106L47.1692 28.3536C47.545 28.5392 47.8733 28.8086 48.1288 29.141C48.3844 29.4734 48.5603 29.86 48.6432 30.2711C48.6059 29.8186 48.45 29.384 48.1912 29.0111C47.9324 28.6381 47.5798 28.3401 47.1692 28.1471L18.4395 11.8041C16.3758 10.6388 14.6953 11.6123 14.6953 13.9723V14.1936C14.7395 11.8188 16.3905 10.8453 18.4395 12.0106Z" fill="white"/>
<defs>
<linearGradient id="paint0_linear_61_1400" x1="32.1339" y1="13.619" x2="7.38342" y2="38.354" gradientUnits="userSpaceOnUse">
<stop stop-color="#00A0FF"/>
<stop offset="0.01" stop-color="#00A1FF"/>
<stop offset="0.26" stop-color="#00BEFF"/>
<stop offset="0.51" stop-color="#00D2FF"/>
<stop offset="0.76" stop-color="#00DFFF"/>
<stop offset="1" stop-color="#00E3FF"/>
</linearGradient>
<linearGradient id="paint1_linear_61_1400" x1="49.8675" y1="30.272" x2="14.2096" y2="30.272" gradientUnits="userSpaceOnUse">
<stop stop-color="#FFE000"/>
<stop offset="0.41" stop-color="#FFBD00"/>
<stop offset="0.78" stop-color="#FFA500"/>
<stop offset="1" stop-color="#FF9C00"/>
</linearGradient>
<linearGradient id="paint2_linear_61_1400" x1="36.6006" y1="33.6645" x2="3.02962" y2="67.1996" gradientUnits="userSpaceOnUse">
<stop stop-color="#FF3A44"/>
<stop offset="1" stop-color="#C31162"/>
</linearGradient>
<linearGradient id="paint3_linear_61_1400" x1="10.7592" y1="1.03744" x2="25.7452" y2="16.014" gradientUnits="userSpaceOnUse">
<stop stop-color="#32A071"/>
<stop offset="0.07" stop-color="#2DA771"/>
<stop offset="0.48" stop-color="#15CF74"/>
<stop offset="0.8" stop-color="#06E775"/>
<stop offset="1" stop-color="#00F076"/>
</linearGradient>
</defs>
</svg>
