<svg width="39" height="54" viewBox="0 0 39 54" fill="none" xmlns="http://www.w3.org/2000/svg">
<path d="M9.63831 42.7527L3.94342 42.7716C2.50274 42.7764 1.33206 41.6853 1.32757 40.3336L1.20539 3.53366C1.2009 2.18191 2.36431 1.08304 3.80499 1.07826L21.7557 2.01283C23.1964 2.00805 24.3671 3.09917 24.3716 4.45092L24.5481 25.1479" stroke="#20446F" stroke-width="2" stroke-linecap="round" stroke-linejoin="round"/>
<path d="M11.9906 31.1496C7.33328 30.6592 3.6952 26.7274 3.6793 21.9364C3.66225 16.8031 7.80993 12.6278 12.9433 12.6107C18.0766 12.5937 22.2519 16.7414 22.269 21.8747C22.2708 22.4383 22.2221 22.9903 22.1285 23.5271" stroke="#20446F" stroke-linecap="round" stroke-linejoin="round"/>
<path d="M10.6808 28.46C7.98212 27.516 6.04285 24.9516 6.03281 21.929C6.02009 18.0958 9.11824 14.977 12.9515 14.9643C16.7847 14.9515 19.9035 18.0497 19.9162 21.8829" stroke="#20446F" stroke-linecap="round" stroke-linejoin="round"/>
<path d="M28.1105 51.4182C29.8041 51.4126 31.7626 51.1978 34.045 48.8344C34.045 48.8344 36.8873 46.3996 37.2023 42.2093C37.2023 42.2093 37.5183 38.3498 33.5446 30.205L32.9445 29.099C32.4702 28.2264 31.4176 27.8529 30.5046 28.2351L30.1181 28.3963C29.1536 28.7996 28.6815 29.8992 29.052 30.8814L28.0349 28.6501C27.6682 27.8466 26.769 27.4361 25.9268 27.6892L25.6464 27.7728C24.6092 28.0838 24.0913 29.2519 24.5561 30.2348L23.5272 28.4093C22.9857 27.4487 21.8059 27.059 20.8043 27.5111C19.8103 27.9597 19.3141 29.0892 19.6531 30.1298L19.8026 30.5891L16.2722 22.5938C15.8105 21.5492 14.5746 21.1057 13.56 21.6195C12.6352 22.0889 12.2234 23.1927 12.6136 24.1582L18.9972 39.9547L16.361 38.42C16.361 38.42 13.8351 37.1055 12.3072 39.2052C12.3072 39.2052 10.8905 41.7455 14.0752 43.3885C14.0752 43.3885 16.6827 45.0965 20.8752 48.8781" stroke="#20446F" stroke-width="2" stroke-linecap="round" stroke-linejoin="round"/>
<path d="M6.33984 4.46338L19.2645 5.41464" stroke="#20446F" stroke-width="2" stroke-linecap="round" stroke-linejoin="round"/>
<path d="M25.6084 52.3959C26.6794 52.3924 27.5447 51.5213 27.5411 50.4503C27.5376 49.3793 26.6665 48.5139 25.5955 48.5175C24.5245 48.521 23.6591 49.3921 23.6627 50.4632C23.6662 51.5342 24.5373 52.3995 25.6084 52.3959Z" stroke="#20446F" stroke-width="2" stroke-linecap="square" stroke-linejoin="round"/>
</svg>
