<svg width="41" height="47" viewBox="0 0 41 47" fill="none" xmlns="http://www.w3.org/2000/svg">
<path d="M33.0433 42.3944C35.3133 42.4221 37.176 40.6103 37.2037 38.3475C37.2313 36.0847 35.4135 34.2279 33.1435 34.2002C30.8734 34.1724 29.0108 35.9842 28.9831 38.247C28.9555 40.5098 30.7733 42.3666 33.0433 42.3944Z" stroke="#20446F" stroke-width="2" stroke-miterlimit="10"/>
<path d="M27.156 43.8791C24.9272 44.7561 22.4942 45.2254 19.9495 45.1943C9.45646 45.066 1.05459 36.4837 1.18246 26.0242L1.39506 8.6343L20.4849 1.40072L39.3922 9.09882L39.1796 26.4888C39.1531 28.6575 38.7623 30.7371 38.0645 32.6691" stroke="#20446F" stroke-width="2" stroke-linecap="round" stroke-linejoin="round"/>
<path d="M17.6502 19.7427L17.7107 14.7961C17.7292 13.2866 18.9717 12.077 20.4871 12.0955C22.0015 12.1141 23.215 13.3527 23.1966 14.8632L23.1361 19.8098" stroke="#20446F" stroke-width="2" stroke-miterlimit="10" stroke-linecap="round"/>
<path d="M14.4496 19.7036L14.5085 14.8873C14.548 11.6524 17.2116 9.06147 20.4569 9.10114C23.7021 9.14082 26.3016 11.796 26.262 15.0309L26.2047 19.7171" stroke="#20446F" stroke-width="2" stroke-miterlimit="10" stroke-linecap="round"/>
<path d="M13.1394 19.6878L27.382 19.8619C27.8122 19.8671 28.1568 20.2192 28.1516 20.648L28.0459 29.2966C28.0251 30.9919 26.6282 32.3507 24.9274 32.3299L15.2875 32.2121C13.5867 32.1913 12.2234 30.7987 12.2441 29.1034L12.3499 20.4549C12.3551 20.026 12.7083 19.6825 13.1385 19.6877L13.1394 19.6878Z" stroke="#20446F" stroke-width="2" stroke-miterlimit="10" stroke-linecap="round"/>
<path d="M20.3783 26.1554C21.4603 26.1687 22.3482 25.305 22.3614 24.2264C22.3746 23.1479 21.5081 22.2628 20.426 22.2495C19.344 22.2363 18.4561 23.1 18.4429 24.1785C18.4297 25.2571 19.2962 26.1422 20.3783 26.1554Z" stroke="#20446F" stroke-width="2" stroke-miterlimit="10" stroke-linecap="round"/>
<path d="M20.3435 29.0194L20.377 26.2861" stroke="#20446F" stroke-width="2" stroke-miterlimit="10" stroke-linecap="round"/>
</svg>
