<svg width="136" height="98" viewBox="0 0 136 98" fill="none" xmlns="http://www.w3.org/2000/svg">
<path d="M109.352 1.26172H23.1261C18.0859 1.26172 14 5.35366 14 10.4013V66.4109C14 71.4586 18.0859 75.5505 23.1261 75.5505H109.352C114.392 75.5505 118.478 71.4586 118.478 66.4109V10.4013C118.478 5.35366 114.392 1.26172 109.352 1.26172Z" stroke="white" stroke-width="2" stroke-miterlimit="10"/>
<path d="M38 59L109 59" stroke="white" stroke-width="3" stroke-miterlimit="10" stroke-linecap="round"/>
<path d="M6.30272 65.4565C7.06571 65.4565 7.69137 66.0789 7.69137 66.8379C7.69137 67.5969 7.06571 68.2192 6.30272 68.2192C5.53972 68.2192 4.91406 67.5969 4.91406 66.8379C4.91406 66.0789 5.53972 65.4565 6.30272 65.4565Z" fill="white"/>
<path d="M3.38865 20.4644C4.15165 20.4644 4.77731 21.0867 4.77731 21.8457C4.77731 22.6047 4.15165 23.227 3.38865 23.227C2.62566 23.227 2 22.6047 2 21.8457C2 21.0867 2.62566 20.4644 3.38865 20.4644Z" fill="white"/>
<path d="M129.856 29.9513C126.621 29.9513 124.012 27.3556 124.012 24.1375C124.012 20.9194 126.621 18.3237 129.856 18.3237C133.091 18.3237 135.701 20.9194 135.701 24.1375C135.701 27.3556 132.924 29.9513 129.856 29.9513ZM129.856 20.4641C127.705 20.4641 126.011 22.149 126.011 24.2893C126.011 26.4297 127.705 28.1146 129.856 28.1146C132.008 28.1146 133.702 26.4297 133.702 24.2893C133.702 22.149 131.855 20.4641 129.856 20.4641Z" fill="white"/>
<path d="M3.8455 83.5206C1.69385 83.5206 0 81.8357 0 79.6954C0 77.5551 1.69385 75.8701 3.8455 75.8701C5.99716 75.8701 7.69101 77.5551 7.69101 79.6954C7.69101 81.8357 5.99716 83.5206 3.8455 83.5206ZM3.8455 77.8587C2.77731 77.8587 1.84645 78.7846 1.84645 79.8472C1.84645 80.9098 2.77731 81.8357 3.8455 81.8357C4.9137 81.8357 5.84456 80.9098 5.84456 79.8472C5.84456 78.7846 4.9137 77.8587 3.8455 77.8587Z" fill="white"/>
<path d="M47.1719 7.27783H53.4092C54.9764 7.27783 56.3502 8.31369 56.789 9.82039L63.5174 33.054C63.7368 33.8963 64.4943 34.4874 65.3614 34.4874H91.7368C92.5726 34.4874 93.3092 33.9433 93.5547 33.1481L99.7502 16.0251C100.09 15.0834 99.395 14.0842 98.392 14.0842H71.7189" stroke="white" stroke-width="2" stroke-miterlimit="10"/>
<path d="M24.707 19.3105H47.1697" stroke="white" stroke-width="2" stroke-miterlimit="10" stroke-linecap="round"/>
<path d="M30.7148 29.2505H53.1775" stroke="white" stroke-width="2" stroke-miterlimit="10" stroke-linecap="round"/>
<path d="M35.418 40.7603H57.8807" stroke="white" stroke-width="2" stroke-miterlimit="10" stroke-linecap="round"/>
<path d="M87.3947 50.177C90.5683 50.177 93.141 47.6005 93.141 44.4222C93.141 41.244 90.5683 38.6675 87.3947 38.6675C84.2211 38.6675 81.6484 41.244 81.6484 44.4222C81.6484 47.6005 84.2211 50.177 87.3947 50.177Z" stroke="white" stroke-width="2" stroke-miterlimit="10"/>
<path d="M69.633 50.177C72.8066 50.177 75.3793 47.6005 75.3793 44.4222C75.3793 41.244 72.8066 38.6675 69.633 38.6675C66.4594 38.6675 63.8867 41.244 63.8867 44.4222C63.8867 47.6005 66.4594 50.177 69.633 50.177Z" stroke="white" stroke-width="2" stroke-miterlimit="10"/>
<path d="M30.7463 64.5095C33.9198 64.5095 36.4925 61.933 36.4925 58.7548C36.4925 55.5765 33.9198 53 30.7463 53C27.5727 53 25 55.5765 25 58.7548C25 61.933 27.5727 64.5095 30.7463 64.5095Z" stroke="white" stroke-width="2" stroke-miterlimit="10"/>
<path d="M91.5744 96.7385C88.3983 96.7385 85.8281 94.1646 85.8281 90.9838C85.8281 87.803 88.3983 85.229 91.5744 85.229C94.7505 85.229 97.3207 87.803 97.3207 90.9838C97.3207 94.1646 94.7505 96.7385 91.5744 96.7385Z" stroke="white" stroke-width="2" stroke-miterlimit="10"/>
<path d="M47.1706 75.812V83.6594H30.9766V90.9837H85.5661" stroke="white" stroke-width="3" stroke-miterlimit="10"/>
</svg>
