<svg width="52" height="52" viewBox="0 0 52 52" fill="none" xmlns="http://www.w3.org/2000/svg">
<path d="M31.623 38.0225L31.6541 34.1285" stroke="#20446F" stroke-width="2" stroke-miterlimit="10"/>
<path d="M31.6523 34.1284L31.6658 32.4415L30.4735 31.2382" stroke="#20446F" stroke-width="2" stroke-miterlimit="10"/>
<path d="M30.4727 31.2388L29.9411 30.7023" stroke="#20446F" stroke-width="2" stroke-miterlimit="10"/>
<path d="M29.5994 31.0356L30.2812 30.3691L29.7482 29.8312L29.0664 30.4977L29.5994 31.0356Z" fill="#20446F"/>
<path d="M27.6254 28.3592C26.9572 29.0124 26.9336 30.0677 27.5733 30.7133C28.213 31.3589 29.2758 31.3524 29.944 30.6992C30.6123 30.0459 30.6358 28.9906 29.9961 28.345C29.3564 27.6994 28.2937 27.7059 27.6254 28.3592ZM28.2771 29.0199C28.5701 28.7336 29.0333 28.7312 29.3156 29.0132C29.598 29.2951 29.5852 29.7581 29.2923 30.0444C28.9993 30.3308 28.5361 30.3331 28.2538 30.0512C27.9744 29.7693 27.9842 29.3063 28.2771 29.0199Z" fill="#20446F"/>
<path d="M26.2676 39.165L26.2953 35.686" stroke="#20446F" stroke-width="2" stroke-miterlimit="10"/>
<path d="M26.2969 35.686L26.3104 33.9961L24.612 33.9826" stroke="#20446F" stroke-width="2" stroke-miterlimit="10"/>
<path d="M24.6133 33.9824L23.8413 33.9763" stroke="#20446F" stroke-width="2" stroke-miterlimit="10"/>
<path d="M23.8398 33.9761L23.0648 33.9699" stroke="#20446F" stroke-width="2" stroke-miterlimit="10"/>
<path d="M23.0645 33.9702L22.2925 33.9641" stroke="#20446F" stroke-width="2" stroke-miterlimit="10"/>
<path d="M22.293 33.9634L21.521 33.9572" stroke="#20446F" stroke-width="2" stroke-miterlimit="10"/>
<path d="M20.7456 34.4274L21.5176 34.4336L21.5252 33.4834L20.7532 33.4772L20.7456 34.4274Z" fill="#20446F"/>
<path d="M18.1509 33.9313C18.1435 34.8634 18.8913 35.6242 19.8207 35.6316C20.7501 35.639 21.51 34.8873 21.5174 33.9581C21.5248 33.029 20.777 32.2652 19.8476 32.2578C18.9182 32.2504 18.1583 33.0021 18.1509 33.9313ZM19.0985 33.9388C19.1017 33.5329 19.4344 33.2018 19.8401 33.205C20.2457 33.2082 20.5731 33.5416 20.5698 33.9506C20.5665 34.3595 20.2339 34.6876 19.8282 34.6844C19.4226 34.6812 19.0952 34.3478 19.0985 33.9388Z" fill="#20446F"/>
<path d="M39.5703 27.2549L34.3844 27.2135" stroke="#20446F" stroke-width="2" stroke-miterlimit="10"/>
<path d="M34.3848 27.2139L32.6864 27.2003L31.4941 25.997" stroke="#20446F" stroke-width="2" stroke-miterlimit="10"/>
<path d="M31.4941 25.9966L30.8274 25.3237" stroke="#20446F" stroke-width="2" stroke-miterlimit="10"/>
<path d="M30.8301 25.3242L30.1633 24.6513" stroke="#20446F" stroke-width="2" stroke-miterlimit="10"/>
<path d="M30.1621 24.6514L28.9698 23.448L28.9832 21.7611" stroke="#20446F" stroke-width="2" stroke-miterlimit="10"/>
<path d="M28.9824 21.7607L28.9885 21" stroke="#20446F" stroke-width="2" stroke-miterlimit="10"/>
<path d="M28.9883 21L28.9944 20.2392" stroke="#20446F" stroke-width="2" stroke-miterlimit="10"/>
<path d="M28.518 20.2346L29.4746 20.2422L29.4807 19.4814L28.524 19.4738L28.518 20.2346Z" fill="#20446F"/>
<path d="M29.0234 16.9253C28.0849 16.9178 27.3191 17.6544 27.3118 18.5685C27.3045 19.4826 28.0615 20.2314 28.997 20.2389C29.9324 20.2464 30.7012 19.5097 30.7085 18.5956C30.7158 17.6815 29.9589 16.9327 29.0234 16.9253ZM29.016 17.8574C29.4247 17.8607 29.7581 18.1881 29.7549 18.588C29.7517 18.9879 29.4161 19.31 29.0044 19.3067C28.5927 19.3035 28.2622 18.976 28.2654 18.5761C28.2686 18.1762 28.6042 17.8541 29.016 17.8574Z" fill="#20446F"/>
<path d="M39.0703 21.8867L33.951 21.8459" stroke="#20446F" stroke-width="2" stroke-miterlimit="10"/>
<path d="M33.1915 22.3138L33.9453 22.3198L33.9529 21.3696L33.1991 21.3636L33.1915 22.3138Z" fill="#20446F"/>
<path d="M30.6634 21.8182C30.656 22.7503 31.3856 23.5109 32.2908 23.5182C33.196 23.5254 33.9377 22.7735 33.9451 21.8444C33.9525 20.9152 33.2229 20.1516 32.3177 20.1444C31.4125 20.1372 30.6708 20.889 30.6634 21.8182ZM31.5898 21.8256C31.593 21.4196 31.9166 21.0884 32.3132 21.0916C32.7098 21.0948 33.028 21.4281 33.0248 21.837C33.0215 22.246 32.698 22.5742 32.3014 22.571C31.9048 22.5678 31.5865 22.2345 31.5898 21.8256Z" fill="#20446F"/>
<path d="M25.2201 12.4292L25.1738 18.2266" stroke="#20446F" stroke-width="2" stroke-miterlimit="10"/>
<path d="M25.1723 18.226L25.166 19.0078" stroke="#20446F" stroke-width="2" stroke-miterlimit="10"/>
<path d="M25.1664 19.0072L25.1602 19.792" stroke="#20446F" stroke-width="2" stroke-miterlimit="10"/>
<path d="M25.1605 19.7924L25.1543 20.5742" stroke="#20446F" stroke-width="2" stroke-miterlimit="10"/>
<path d="M25.1547 20.5751L25.1484 21.3569" stroke="#20446F" stroke-width="2" stroke-miterlimit="10"/>
<path d="M25.1469 21.3563L25.1406 22.1411" stroke="#20446F" stroke-width="2" stroke-miterlimit="10"/>
<path d="M25.1421 22.1413L25.1287 23.8282L23.9173 25.0124" stroke="#20446F" stroke-width="2" stroke-miterlimit="10"/>
<path d="M23.9163 25.0119L23.3823 25.5339" stroke="#20446F" stroke-width="2" stroke-miterlimit="10"/>
<path d="M23.3831 25.5338L22.8491 26.0558" stroke="#20446F" stroke-width="2" stroke-miterlimit="10"/>
<path d="M22.8499 26.0568L22.3159 26.5788" stroke="#20446F" stroke-width="2" stroke-miterlimit="10"/>
<path d="M22.3147 26.5783L21.7808 27.1003" stroke="#20446F" stroke-width="2" stroke-miterlimit="10"/>
<path d="M21.5821 27.9625L22.1172 27.4395L21.4461 26.7622L20.911 27.2852L21.5821 27.9625Z" fill="#20446F"/>
<path d="M19.4512 29.3751C20.109 30.0389 21.1653 30.0684 21.8061 29.442C22.4469 28.8157 22.4341 27.7661 21.7764 27.1023C21.1186 26.4384 20.0622 26.409 19.4214 27.0353C18.7807 27.6617 18.7935 28.7113 19.4512 29.3751ZM20.1042 28.7368C19.8159 28.4458 19.8105 27.9857 20.0912 27.7143C20.3719 27.4399 20.835 27.4526 21.1203 27.7436C21.4056 28.0345 21.4141 28.4947 21.1334 28.7661C20.8526 29.0405 20.3895 29.0278 20.1042 28.7368Z" fill="#20446F"/>
<path d="M12.7249 22.7612L16.8301 22.7939" stroke="#20446F" stroke-width="2" stroke-miterlimit="10"/>
<path d="M16.8283 22.7942L18.5266 22.8078L19.738 21.6236" stroke="#20446F" stroke-width="2" stroke-miterlimit="10"/>
<path d="M19.7369 21.6237L20.2678 21.1047" stroke="#20446F" stroke-width="2" stroke-miterlimit="10"/>
<path d="M20.6079 21.4417L21.1387 20.9229L20.4676 20.2456L19.9368 20.7644L20.6079 21.4417Z" fill="#20446F"/>
<path d="M22.5868 18.8403C21.9291 18.1765 20.8757 18.144 20.238 18.7674C19.6002 19.3908 19.6161 20.4374 20.2739 21.1013C20.9316 21.7651 21.9849 21.7975 22.6227 21.1741C23.2604 20.5507 23.2445 19.5041 22.5868 18.8403ZM21.9338 19.4786C22.2221 19.7696 22.2276 20.2267 21.9499 20.5012C21.6722 20.7726 21.2091 20.7599 20.9207 20.4689C20.6324 20.1779 20.627 19.7208 20.9047 19.4464C21.1824 19.1749 21.6455 19.1876 21.9338 19.4786Z" fill="#20446F"/>
<path d="M26.2837 12.3963C18.8417 12.3369 12.761 18.2809 12.702 25.6726C12.643 33.0642 18.6281 39.1045 26.07 39.1639C33.512 39.2233 39.5927 33.2793 39.6517 25.8877C39.7107 18.496 33.7257 12.4557 26.2837 12.3963Z" stroke="#20446F" stroke-width="2" stroke-linejoin="round"/>
<path d="M26.3056 9.4098C17.2034 9.33715 9.76607 16.6072 9.69391 25.648C9.62175 34.6887 16.9421 42.0766 26.0443 42.1492C35.1466 42.2219 42.5839 34.9518 42.656 25.9111C42.7282 16.8703 35.4079 9.48245 26.3056 9.4098Z" stroke="#20446F" stroke-width="2" stroke-linejoin="round"/>
<path d="M14.26 37.2288L9.88637 41.6294" stroke="#20446F" stroke-width="3" stroke-miterlimit="10"/>
<path d="M37.7883 14.2958L41.9901 10.1886" stroke="#20446F" stroke-width="3" stroke-miterlimit="10"/>
<path d="M14.543 14.0786L10.3312 9.95532" stroke="#20446F" stroke-width="3" stroke-miterlimit="10"/>
<path d="M37.6327 37.4449L41.7383 41.5884" stroke="#20446F" stroke-width="3" stroke-miterlimit="10"/>
<path d="M9.59252 25.6022L0.412776 25.6191" stroke="#20446F" stroke-width="2" stroke-miterlimit="10"/>
<path d="M42.5495 25.9106L51.7285 25.9839" stroke="#20446F" stroke-width="2" stroke-miterlimit="10"/>
<path d="M26.248 9.40771L26.23 0.28999" stroke="#20446F" stroke-width="2" stroke-miterlimit="10"/>
<path d="M25.94 42.1452L25.8672 51.2622" stroke="#20446F" stroke-width="2" stroke-miterlimit="10"/>
</svg>
