<svg width="35" height="35" viewBox="0 0 35 35" fill="none" xmlns="http://www.w3.org/2000/svg">
<rect x="1" y="1" width="33" height="33" rx="16.5" fill="white" stroke="#C48C5E" stroke-width="2"/>
<path d="M22.1116 12.0601C21.5516 12.0601 21.1016 12.5101 21.1016 13.0701C21.1016 13.6301 21.5516 14.0801 22.1116 14.0801C22.6716 14.0801 23.1216 13.6301 23.1216 13.0701C23.1216 12.5101 22.6716 12.0601 22.1116 12.0601Z" fill="#C48C5E"/>
<path d="M17.6419 13.3501C15.3119 13.3501 13.4219 15.2401 13.4219 17.5701C13.4219 19.9001 15.3119 21.7901 17.6419 21.7901C19.9719 21.7901 21.8619 19.9001 21.8619 17.5701C21.8619 15.2401 19.9719 13.3501 17.6419 13.3501ZM17.6419 20.2801C16.1519 20.2801 14.9419 19.0701 14.9419 17.5801C14.9419 16.0901 16.1519 14.8801 17.6419 14.8801C19.1319 14.8801 20.3419 16.0901 20.3419 17.5801C20.3419 19.0701 19.1319 20.2801 17.6419 20.2801Z" fill="#C48C5E"/>
<path d="M17.5 14C15.5675 14 14 15.5675 14 17.5C14 19.4325 15.5675 21 17.5 21C19.4325 21 21 19.4325 21 17.5C21 15.5675 19.4325 14 17.5 14ZM17.5 19.7476C16.2642 19.7476 15.2607 18.7441 15.2607 17.5083C15.2607 16.2725 16.2642 15.269 17.5 15.269C18.7358 15.269 19.7393 16.2725 19.7393 17.5083C19.7393 18.7441 18.7358 19.7476 17.5 19.7476Z" fill="#C48C5E"/>
<path d="M20.99 26.14H14.15C11.31 26.14 9 23.83 9 20.99V14.15C9 11.31 11.31 9 14.15 9H20.99C23.83 9 26.14 11.31 26.14 14.15V20.99C26.14 23.83 23.83 26.14 20.99 26.14ZM14.15 10.61C12.2 10.61 10.61 12.2 10.61 14.15V20.99C10.61 22.94 12.2 24.53 14.15 24.53H20.99C22.94 24.53 24.53 22.94 24.53 20.99V14.15C24.53 12.2 22.94 10.61 20.99 10.61H14.15Z" fill="#C48C5E"/>
<path d="M21.2911 27H13.7089C10.5607 27 8 24.4393 8 21.2911V13.7089C8 10.5607 10.5607 8 13.7089 8H21.2911C24.4393 8 27 10.5607 27 13.7089V21.2911C27 24.4393 24.4393 27 21.2911 27ZM13.7089 9.78471C11.5473 9.78471 9.78471 11.5473 9.78471 13.7089V21.2911C9.78471 23.4527 11.5473 25.2153 13.7089 25.2153H21.2911C23.4527 25.2153 25.2153 23.4527 25.2153 21.2911V13.7089C25.2153 11.5473 23.4527 9.78471 21.2911 9.78471H13.7089Z" fill="#C48C5E"/>
</svg>
