<svg width="35" height="35" viewBox="0 0 35 35" fill="none" xmlns="http://www.w3.org/2000/svg">
<rect x="1" y="1" width="33" height="33" rx="16.5" fill="white" stroke="#C48C5E" stroke-width="2"/>
<path d="M25.3932 23.6807C24.4347 23.6579 23.499 23.6579 22.5405 23.6807C22.3351 23.6807 22.2894 23.6351 22.2894 23.4297C22.2894 21.7409 22.2894 20.0293 22.2894 18.3405C22.2894 17.9526 22.2666 17.5646 22.1525 17.1995C21.8102 16.0127 20.4409 15.5791 19.4595 16.3779C18.9346 16.7887 18.7292 17.3592 18.7292 18.0438C18.7292 19.6413 18.7292 21.2388 18.7292 22.8363C18.7292 23.0417 18.7064 23.2471 18.7292 23.4753C18.752 23.6579 18.6607 23.7035 18.501 23.6807C17.5196 23.6807 16.5611 23.6807 15.5798 23.6807C15.3972 23.6807 15.3516 23.6351 15.3516 23.4525C15.3744 22.0148 15.3744 20.577 15.3744 19.1164C15.3744 17.3364 15.3744 15.5563 15.3516 13.7991C15.3516 13.5937 15.3972 13.548 15.5798 13.548C16.5611 13.548 17.5196 13.548 18.501 13.548C18.6836 13.548 18.7292 13.5937 18.7292 13.7762C18.7292 14.1414 18.7292 14.5065 18.7292 14.9401C18.7977 14.8717 18.8205 14.8489 18.8433 14.826C19.7334 13.5252 20.9886 13.1601 22.472 13.3883C24.1837 13.6621 25.2791 14.8489 25.553 16.6746C25.6214 17.1082 25.6443 17.5418 25.6443 17.9754C25.6443 19.8011 25.6443 21.604 25.6443 23.4297C25.6443 23.6123 25.5986 23.6807 25.3932 23.6807Z" fill="#C48C5E"/>
<path d="M13.5267 18.6142C13.5267 20.2117 13.5267 21.8092 13.5267 23.4067C13.5267 23.6121 13.4811 23.6805 13.2757 23.6805C12.3171 23.6577 11.3586 23.6805 10.4001 23.6805C10.2175 23.6805 10.1719 23.6349 10.1719 23.4523C10.1719 20.2345 10.1719 16.9939 10.1719 13.7761C10.1719 13.6163 10.2175 13.5479 10.4001 13.5479C11.3814 13.5479 12.3628 13.5479 13.3441 13.5479C13.5495 13.5479 13.5723 13.6163 13.5723 13.7989C13.5267 15.3964 13.5267 16.9939 13.5267 18.6142Z" fill="#C48C5E"/>
<path d="M13.6879 10.9006C13.4597 11.8135 12.524 12.3384 11.4514 12.1558C10.3103 11.9732 9.67125 10.855 10.082 9.75954C10.3559 9.0749 11.0177 8.66412 11.8622 8.68694C13.1402 8.66412 13.9846 9.69108 13.6879 10.9006Z" fill="#C48C5E"/>
</svg>
