<svg width="17" height="17" viewBox="0 0 17 17" fill="none" xmlns="http://www.w3.org/2000/svg">
<path fill-rule="evenodd" clip-rule="evenodd" d="M16 3.34321V13.0429C16 13.5931 15.7583 14.1156 15.3389 14.4719C14.9195 14.8282 14.3648 14.9822 13.8218 14.8932L11.4164 14.5L5.58357 16L2.57286 15.5071C1.666 15.3591 1.00007 14.5756 1 13.6568V3.95714C0.999989 3.40687 1.2417 2.88437 1.66109 2.52811C2.08047 2.17185 2.63518 2.0178 3.17821 2.10679L5.58357 2.5L11.4164 1L14.4271 1.49286C15.334 1.64093 15.9999 2.42435 16 3.34321Z" stroke="#4C73A8" stroke-linecap="round" stroke-linejoin="round"/>
<path d="M6.08398 2.5C6.08398 2.22386 5.86013 2 5.58398 2C5.30784 2 5.08398 2.22386 5.08398 2.5H6.08398ZM5.08398 16C5.08398 16.2761 5.30784 16.5 5.58398 16.5C5.86013 16.5 6.08398 16.2761 6.08398 16H5.08398ZM11.916 1C11.916 0.723858 11.6922 0.5 11.416 0.5C11.1399 0.5 10.916 0.723858 10.916 1H11.916ZM10.916 14.5C10.916 14.7761 11.1399 15 11.416 15C11.6922 15 11.916 14.7761 11.916 14.5H10.916ZM5.58398 2.5H5.08398V16H5.58398H6.08398V2.5H5.58398ZM11.416 1H10.916V14.5H11.416H11.916V1H11.416Z" fill="#4C73A8"/>
</svg>
