<svg width="113" height="100" viewBox="0 0 113 100" fill="none" xmlns="http://www.w3.org/2000/svg">
<path d="M7 95H53" stroke="#4C73A8" stroke-width="3" stroke-miterlimit="10" stroke-linecap="round"/>
<path d="M63 95H109" stroke="#4C73A8" stroke-width="3" stroke-miterlimit="10" stroke-linecap="round"/>
<path d="M58 99C60.2091 99 62 97.2091 62 95C62 92.7909 60.2091 91 58 91C55.7909 91 54 92.7909 54 95C54 97.2091 55.7909 99 58 99Z" stroke="#4C73A8" stroke-width="2" stroke-miterlimit="10" stroke-linecap="round"/>
<path d="M58.8716 29.8797L63.8425 45.1284C63.9993 45.6104 64.4498 45.9384 64.96 45.9384H81.0455C82.1827 45.9384 82.6575 47.391 81.7367 48.0558L68.723 57.4806C68.3122 57.7777 68.1399 58.3081 68.2967 58.7902L73.2677 74.0389C73.6188 75.1174 72.38 76.0154 71.4591 75.3485L58.4454 65.9237C58.0346 65.6266 57.4759 65.6266 57.0652 65.9237L44.0514 75.3485C43.1306 76.0154 41.8917 75.1174 42.2428 74.0389L47.2138 58.7902C47.3706 58.3081 47.1983 57.7799 46.7876 57.4806L33.7739 48.0558C32.853 47.3888 33.3256 45.9384 34.4651 45.9384H50.5506C51.0585 45.9384 51.5112 45.6126 51.668 45.1284L56.6389 29.8797C56.9901 28.8012 58.5227 28.8012 58.8738 29.8797H58.8716Z" stroke="#4C73A8" stroke-width="3" stroke-miterlimit="10" stroke-linecap="round"/>
<path d="M18.0823 52.1213L21.3727 62.213C21.4765 62.5321 21.7746 62.7478 22.1125 62.7478H32.7589C33.5119 62.7478 33.8255 63.7097 33.216 64.1499L24.6013 70.3876C24.3296 70.5857 24.2148 70.9357 24.3186 71.2548L27.609 81.3465C27.8409 82.0596 27.0216 82.6539 26.4121 82.2137L17.7974 75.976C17.5258 75.7779 17.1548 75.7779 16.8831 75.976L8.26844 82.2137C7.65894 82.6561 6.83965 82.0618 7.07152 81.3465L10.3619 71.2548C10.4657 70.9357 10.3509 70.5857 10.0793 70.3876L1.46456 64.1499C0.855065 63.7075 1.16865 62.7478 1.92169 62.7478H12.5681C12.9059 62.7478 13.2041 62.5321 13.3079 62.213L16.5983 52.1213C16.8301 51.4081 17.8438 51.4081 18.0779 52.1213H18.0823Z" stroke="#4C73A8" stroke-width="2" stroke-miterlimit="10" stroke-linecap="round"/>
<path d="M96.3987 52.1476L99.6891 62.2394C99.7929 62.5585 100.091 62.7742 100.429 62.7742H111.075C111.828 62.7742 112.142 63.736 111.532 64.1763L102.918 70.414C102.646 70.6121 102.531 70.962 102.635 71.2812L105.925 81.3729C106.157 82.086 105.338 82.6803 104.729 82.2401L96.1138 76.0024C95.8422 75.8043 95.4712 75.8043 95.1996 76.0024L86.5848 82.2401C85.9753 82.6825 85.1561 82.0882 85.3879 81.3729L88.6783 71.2812C88.7821 70.962 88.6673 70.6121 88.3957 70.414L79.781 64.1763C79.1715 63.7338 79.4851 62.7742 80.2381 62.7742H90.8845C91.2223 62.7742 91.5205 62.5585 91.6243 62.2394L94.9147 52.1476C95.1466 51.4345 96.1602 51.4345 96.3943 52.1476H96.3987Z" stroke="#4C73A8" stroke-width="2" stroke-miterlimit="10" stroke-linecap="round"/>
<path d="M57.6445 22.7156V1.14551" stroke="#4C73A8" stroke-width="2" stroke-miterlimit="10" stroke-linecap="round"/>
<path d="M40.8595 30.8593L25.7324 15.7822" stroke="#4C73A8" stroke-width="2" stroke-miterlimit="10" stroke-linecap="round"/>
<path d="M74.4277 30.8593L89.5548 15.7822" stroke="#4C73A8" stroke-width="2" stroke-miterlimit="10" stroke-linecap="round"/>
</svg>
