<svg width="88" height="100" viewBox="0 0 88 100" fill="none" xmlns="http://www.w3.org/2000/svg">
<path d="M43.0357 19.4678C41.2474 19.573 39.415 19.7946 37.6156 19.6617C36.1696 19.5564 34.7842 18.9971 33.3105 19.0248C29.9878 19.0801 27.3937 20.2487 23.7785 19.3515C22.8843 19.13 21.5431 18.0943 20.9084 18.7202C20.0474 19.5675 18.7503 23.4775 18.5185 24.7568C18.364 25.6208 18.3308 27.897 18.0273 28.3788C16.9234 30.1289 15.676 26.3961 14.3845 28.8385C13.6007 30.3172 14.0533 32.3885 15.0744 33.6512C16.1286 34.9527 16.4874 34.3822 17.652 34.7644C18.3805 35.0025 18.9932 37.683 19.3906 38.5747C19.6334 39.1285 19.9094 39.6989 20.2019 40.2306C20.6545 41.0779 22.8292 43.908 22.774 44.4341C22.7077 45.071 21.8357 45.5362 21.223 45.1762C20.4503 44.7221 18.9049 42.2631 18.4302 41.3936C18.0107 40.6238 16.6971 37.1015 16.5205 36.9354C16.2445 36.6695 14.8702 36.376 14.1747 35.7889C11.6137 33.629 10.7306 27.9413 14.1582 26.2355C12.5023 23.7101 12.0553 21.1736 12.6127 18.2106C12.7342 17.5516 13.2585 16.527 13.2806 16.0286C13.3027 15.5634 12.8335 14.5997 12.7452 13.985C12.2926 10.7008 13.3358 7.89848 16.2721 6.25363C16.9731 5.86042 18.6289 5.48936 19.0208 5.20137C19.1919 5.07399 19.4402 4.41495 19.6997 4.1325C22.8236 0.720956 26.0249 -0.862974 30.7164 0.471736C31.5222 0.698803 33.1946 1.71783 33.741 1.7566C34.2874 1.79537 35.1485 1.40769 35.7832 1.35785C40.2926 1.00894 43.7753 3.263 46.673 6.46409C47.7437 5.99334 50.0564 4.58663 50.0343 6.79084C50.0122 8.99505 48.5441 12.545 48.6213 14.633C48.6434 15.1646 49.3113 16.0009 49.51 16.5824C50.5035 19.5177 50.1557 22.8572 48.6158 25.5266C53.2245 28.1573 50.8346 36.9077 45.5084 36.4092C44.9178 37.4504 44.0347 41.6761 42.4396 41.1776C40.8445 40.6792 42.4175 38.6411 42.7487 37.7606C43.0799 36.88 43.687 33.9724 44.6087 33.845C45.2103 33.762 45.5525 34.2881 46.2314 34.2936C48.8476 34.2992 50.0343 28.1684 47.7769 27.5592C47.1256 27.3819 45.6133 30.0347 44.7964 28.3068C44.4928 27.6644 44.388 24.9894 44.1893 23.9815C43.8912 22.4529 43.4496 20.9798 43.0412 19.4789L43.0357 19.4678ZM47.5616 8.55199C45.3428 9.43257 44.8461 7.48312 43.5766 6.28133C41.849 4.63647 39.0121 3.34607 36.5946 3.39592C35.6728 3.41807 33.9618 4.08819 33.3215 4.02173C33.0014 3.9885 31.6878 3.11347 31.1579 2.89747C27.7966 1.54061 24.7389 1.96152 22.1337 4.53125C21.5321 5.12384 20.6987 6.68562 20.2792 6.99022C19.7548 7.37235 18.2425 7.62157 17.4367 8.04248C15.1958 9.22212 14.5169 10.867 14.7598 13.3758C14.8481 14.2674 15.4111 15.2422 15.3835 16.0452C15.3559 16.8482 14.688 18.0057 14.5776 18.9528C14.3238 21.1237 14.5832 23.987 16.399 25.4103C16.388 23.4387 18.3198 17.7177 19.8928 16.6766C21.4659 15.6354 22.1889 16.6876 23.5743 17.0808C27.206 18.1054 29.0716 17.1861 32.4826 16.9701C35.2313 16.7929 37.7702 17.7344 40.6955 17.6014C41.5841 17.5627 42.3292 17.1085 43.2068 17.3135C45.5691 17.8784 45.9665 22.4695 46.3363 24.4799C46.397 24.8177 46.1983 24.8399 46.7337 24.79C47.7989 22.4529 48.3674 20.3207 47.6996 17.7565C47.4788 16.9036 46.8055 16.1394 46.6233 15.5468C46.1983 14.1567 47.8045 8.79568 47.5561 8.54646L47.5616 8.55199Z" fill="#4C73A8"/>
<path d="M14.3697 91.7857C13.7239 91.7857 13.2051 91.2429 13.2051 90.5728V75.2153C13.2051 74.5452 13.7294 74.0024 14.3697 74.0024C15.0099 74.0024 15.5343 74.5452 15.5343 75.2153V90.5728C15.5343 91.2429 15.0099 91.7857 14.3697 91.7857Z" fill="#4C73A8"/>
<path d="M26.3725 52.1653L26.2345 52.1486C26.2345 52.1486 23.5576 51.7277 23.265 51.6834C23.0332 51.2792 25.5611 47.6682 23.7949 47.131C23.6459 47.0867 23.5079 47.0646 23.3754 47.0646C21.5706 46.976 21.5927 50.6478 20.4777 51.7887C20.119 52.1542 19.2635 52.5862 18.6177 53.1068C12.2925 57.2217 4.39972 60.2455 1.44684 67.6003C-1.03137 73.8141 0.629965 83.2236 0.000753127 89.9636C-0.0434021 91.7746 1.86631 92.489 2.49552 90.5949C2.97571 84.7798 2.05397 78.361 2.55624 72.629C3.4559 62.5273 14.2132 58.9994 21.4823 54.1646L21.5209 54.1369C21.681 54.0316 21.8355 53.9264 21.9901 53.8212H22.0177L22.0397 53.8101L25.4728 54.3307C25.4728 54.3307 25.4949 54.3307 25.5059 54.3307C25.7874 54.3695 26.0303 54.3639 26.229 54.3362C26.251 54.3362 26.2676 54.3362 26.2842 54.3307C26.4387 54.3252 26.5932 54.2809 26.7257 54.2144C27.0348 54.0538 27.2611 53.7547 27.3053 53.3837C27.3825 52.7855 26.963 52.2373 26.367 52.1597L26.3725 52.1653Z" fill="#4C73A8"/>
<path d="M74.2692 56.8535C77.6069 59.8083 79.7156 64.1304 79.7156 68.94C79.7156 77.8517 72.4926 85.0769 63.5836 85.0769C58.7712 85.0769 54.4504 82.9676 51.4922 79.6203" stroke="#4C73A8" stroke-width="2" stroke-miterlimit="10"/>
<path d="M48.6648 76.046C47.5836 73.8564 46.9746 71.3942 46.9746 68.7869C46.9746 59.703 54.3664 52.3384 63.4838 52.3384C66.5199 52.3384 69.3664 53.1562 71.8112 54.5808" stroke="#4C73A8" stroke-width="2" stroke-miterlimit="10"/>
<path d="M63.9082 42.1777C73.5575 42.1777 81.9766 47.625 86.4869 55.725" stroke="#4C73A8" stroke-width="3" stroke-miterlimit="10"/>
<path d="M63.3462 89.5929C74.8809 89.5929 84.2315 80.2422 84.2315 68.7076C84.2315 57.1729 74.8809 47.8223 63.3462 47.8223C51.8116 47.8223 42.4609 57.1729 42.4609 68.7076C42.4609 80.2422 51.8116 89.5929 63.3462 89.5929Z" stroke="#4C73A8" stroke-width="2" stroke-miterlimit="10"/>
<path d="M37.9453 87.692L38.8417 80.5615C43.2363 89.1948 52.1127 94.5111 61.6529 95.2377" stroke="#4C73A8" stroke-width="3" stroke-miterlimit="10"/>
<path d="M63.1309 98.5592C64.6897 98.5592 65.9533 97.2956 65.9533 95.7369C65.9533 94.1782 64.6897 92.9146 63.1309 92.9146C61.5722 92.9146 60.3086 94.1782 60.3086 95.7369C60.3086 97.2956 61.5722 98.5592 63.1309 98.5592Z" stroke="#4C73A8" stroke-width="2" stroke-miterlimit="10"/>
<path d="M60.8712 44.3703C62.4299 44.3703 63.6935 43.1067 63.6935 41.5479C63.6935 39.9892 62.4299 38.7256 60.8712 38.7256C59.3124 38.7256 58.0488 39.9892 58.0488 41.5479C58.0488 43.1067 59.3124 44.3703 60.8712 44.3703Z" stroke="#4C73A8" stroke-width="2" stroke-miterlimit="10"/>
<path d="M64.4774 72.196C65.7485 72.196 66.779 71.1621 66.779 69.8866C66.779 68.6111 65.7485 67.5771 64.4774 67.5771C63.2062 67.5771 62.1758 68.6111 62.1758 69.8866C62.1758 71.1621 63.2062 72.196 64.4774 72.196Z" stroke="#4C73A8" stroke-width="2" stroke-miterlimit="10"/>
<path d="M64.5098 57.9624V67.5767" stroke="#4C73A8" stroke-width="2" stroke-miterlimit="10"/>
<path d="M62.8317 72.1904L57.4668 78.6148" stroke="#4C73A8" stroke-width="2" stroke-miterlimit="10"/>
</svg>
