<svg width="84" height="97" viewBox="0 0 84 97" fill="none" xmlns="http://www.w3.org/2000/svg">
<path d="M43.3577 92.5574H4.05425C2.36813 92.5574 1 91.1877 1 89.4997V9.48687C1 7.79886 2.36813 6.4292 4.05425 6.4292H51.1326C52.1235 6.4292 53.0701 6.83146 53.7604 7.5422L66.0316 20.1974C66.6947 20.881 67.0669 21.7965 67.0669 22.7516V48.632" stroke="#4C73A8" stroke-width="2" stroke-miterlimit="10" stroke-linecap="round"/>
<path d="M9.13477 6.55267V4.05767C9.13477 2.36966 10.5029 1 12.189 1H72.1425C73.8286 1 75.1967 2.36966 75.1967 4.05767V41.6939" stroke="#4C73A8" stroke-width="2" stroke-miterlimit="10" stroke-linecap="round"/>
<path d="M53.3828 7.29248V21.1051H66.6943" stroke="#4C73A8" stroke-width="2" stroke-miterlimit="10" stroke-linecap="round"/>
<path d="M14.1892 28.8864C16.0271 28.8864 17.5171 27.3947 17.5171 25.5547C17.5171 23.7148 16.0271 22.2231 14.1892 22.2231C12.3513 22.2231 10.8613 23.7148 10.8613 25.5547C10.8613 27.3947 12.3513 28.8864 14.1892 28.8864Z" stroke="#4C73A8" stroke-width="2" stroke-miterlimit="10" stroke-linecap="round"/>
<path d="M75.3214 47.4932C76.9551 47.4932 78.2795 46.1673 78.2795 44.5317C78.2795 42.8962 76.9551 41.5703 75.3214 41.5703C73.6877 41.5703 72.3633 42.8962 72.3633 44.5317C72.3633 46.1673 73.6877 47.4932 75.3214 47.4932Z" stroke="#4C73A8" stroke-width="2" stroke-miterlimit="10" stroke-linecap="round"/>
<path d="M47.1925 95.6421C48.8262 95.6421 50.1506 94.3162 50.1506 92.6807C50.1506 91.0451 48.8262 89.7192 47.1925 89.7192C45.5588 89.7192 44.2344 91.0451 44.2344 92.6807C44.2344 94.3162 45.5588 95.6421 47.1925 95.6421Z" stroke="#4C73A8" stroke-width="2" stroke-miterlimit="10" stroke-linecap="round"/>
<path d="M52.5212 42.8297C54.3592 42.8297 55.8491 41.3381 55.8491 39.4981C55.8491 37.6581 54.3592 36.1665 52.5212 36.1665C50.6833 36.1665 49.1934 37.6581 49.1934 39.4981C49.1934 41.3381 50.6833 42.8297 52.5212 42.8297Z" stroke="#4C73A8" stroke-width="2" stroke-miterlimit="10" stroke-linecap="round"/>
<path d="M17.6406 25.5552H55.8495" stroke="#4C73A8" stroke-width="2" stroke-miterlimit="10" stroke-linecap="round"/>
<path d="M10.8613 32.4648H55.9725" stroke="#4C73A8" stroke-width="2" stroke-miterlimit="10" stroke-linecap="round"/>
<path d="M10.8613 39.375H49.0703" stroke="#4C73A8" stroke-width="2" stroke-miterlimit="10" stroke-linecap="round"/>
<path d="M13.5741 61.9313C15.0853 61.9313 16.3104 60.7048 16.3104 59.192C16.3104 57.6791 15.0853 56.4526 13.5741 56.4526C12.063 56.4526 10.8379 57.6791 10.8379 59.192C10.8379 60.7048 12.063 61.9313 13.5741 61.9313Z" stroke="#4C73A8" stroke-width="2" stroke-miterlimit="10" stroke-linecap="round"/>
<path d="M45.0995 79.3995C46.6107 79.3995 47.8358 78.1731 47.8358 76.6602C47.8358 75.1473 46.6107 73.9209 45.0995 73.9209C43.5883 73.9209 42.3633 75.1473 42.3633 76.6602C42.3633 78.1731 43.5883 79.3995 45.0995 79.3995Z" stroke="#4C73A8" stroke-width="2" stroke-miterlimit="10" stroke-linecap="round"/>
<path d="M16.4121 59.1924H47.8346" stroke="#4C73A8" stroke-width="2" stroke-miterlimit="10" stroke-linecap="round"/>
<path d="M10.8379 68.8755H47.9351" stroke="#4C73A8" stroke-width="2" stroke-miterlimit="10" stroke-linecap="round"/>
<path d="M10.8379 76.5571H42.2604" stroke="#4C73A8" stroke-width="2" stroke-miterlimit="10" stroke-linecap="round"/>
<path d="M62.0117 68.866V59.4882C62.0117 56.6254 64.3289 54.3057 67.1884 54.3057C70.0479 54.3057 72.3651 56.6254 72.3651 59.4882V68.866" stroke="#4C73A8" stroke-width="2" stroke-miterlimit="10" stroke-linecap="round"/>
<path d="M55.9727 68.8653V59.7343C55.9727 53.6016 60.9398 48.6289 67.0656 48.6289C73.1913 48.6289 78.1585 53.6016 78.1585 59.7343V68.6185" stroke="#4C73A8" stroke-width="2" stroke-miterlimit="10" stroke-linecap="round"/>
<path d="M53.4971 68.8657H80.3813C81.1924 68.8657 81.853 69.5246 81.853 70.339V86.7355C81.853 89.9486 79.2474 92.5571 76.0378 92.5571H57.8405C54.631 92.5571 52.0254 89.9486 52.0254 86.7355V70.339C52.0254 69.5271 52.6836 68.8657 53.4971 68.8657Z" stroke="#4C73A8" stroke-width="3" stroke-miterlimit="10" stroke-linecap="round"/>
<path d="M67.3109 80.9583C69.3531 80.9583 71.0086 79.3009 71.0086 77.2565C71.0086 75.212 69.3531 73.5547 67.3109 73.5547C65.2688 73.5547 63.6133 75.212 63.6133 77.2565C63.6133 79.3009 65.2688 80.9583 67.3109 80.9583Z" stroke="#4C73A8" stroke-width="2" stroke-miterlimit="10" stroke-linecap="round"/>
<path d="M67.3105 87.3876V82.2051" stroke="#4C73A8" stroke-width="3" stroke-miterlimit="10" stroke-linecap="round"/>
</svg>
