<svg width="94" height="91" viewBox="0 0 94 91" fill="none" xmlns="http://www.w3.org/2000/svg">
<path d="M92.5 42.501C93.05 42.501 93.5 42.9458 93.5 43.501C93.5 44.0562 93.05 44.501 92.5 44.501C91.95 44.501 91.5 44.0562 91.5 43.501C91.5 42.9458 91.95 42.501 92.5 42.501Z" fill="#4C73A8" stroke="#4C73A8"/>
<path d="M82.5 23.501C83.05 23.501 83.5 23.9458 83.5 24.501C83.5 25.0562 83.05 25.501 82.5 25.501C81.95 25.501 81.5 25.0562 81.5 24.501C81.5 23.9458 81.95 23.501 82.5 23.501Z" fill="#4C73A8" stroke="#4C73A8"/>
<path d="M56.5 4.50098C57.05 4.50098 57.5 4.94577 57.5 5.50098C57.5 6.05618 57.05 6.50098 56.5 6.50098C55.95 6.50098 55.5 6.05618 55.5 5.50098C55.5 4.94577 55.95 4.50098 56.5 4.50098Z" fill="#4C73A8" stroke="#4C73A8"/>
<path d="M14.5 32.501C15.05 32.501 15.5 32.9458 15.5 33.501C15.5 34.0562 15.05 34.501 14.5 34.501C13.95 34.501 13.5 34.0562 13.5 33.501C13.5 32.9458 13.95 32.501 14.5 32.501Z" fill="#4C73A8" stroke="#4C73A8"/>
<path d="M6 6.50098C6.45216 6.50098 6.84513 6.6386 7.11328 6.83887C7.38089 7.03878 7.5 7.2776 7.5 7.50098C7.5 7.72435 7.38089 7.96317 7.11328 8.16309C6.84513 8.36335 6.45216 8.50098 6 8.50098C5.54784 8.50098 5.15487 8.36335 4.88672 8.16309C4.61911 7.96317 4.5 7.72435 4.5 7.50098C4.5 7.2776 4.61911 7.03878 4.88672 6.83887C5.15487 6.6386 5.54784 6.50098 6 6.50098Z" fill="#4C73A8" stroke="#4C73A8"/>
<mask id="path-6-inside-1_1_2566" fill="white">
<path d="M24.0533 44.6416C23.5353 44.6416 23 45.1572 23 45.6729C23 46.1885 23.518 46.7041 24.0533 46.7041H27.3686V49.9697C27.3686 50.4854 27.8866 51.001 28.4219 51.001H79.9467C80.4647 51.001 81 50.4854 81 49.9697C81 49.4541 80.482 48.9385 79.9467 48.9385H75.5781V16.626C75.5781 16.1104 75.0601 15.5947 74.5249 15.5947H67.8943C67.3763 15.5947 66.841 16.1104 66.841 16.626V18.8604H61.4192C60.9012 18.8604 60.3659 19.376 60.3659 19.8916V24.1885H55.9973V18.8604C55.9973 18.3447 55.4793 17.8291 54.944 17.8291H49.5222V14.5635C49.5222 14.0479 49.0042 13.5322 48.4689 13.5322H41.8383C41.3203 13.5322 40.7851 14.0479 40.7851 14.5635V21.0947H35.3632C34.8452 21.0947 34.3099 21.6104 34.3099 22.126V48.9385H29.9414V8.03223C29.9414 7.5166 29.4233 7.00098 28.8881 7.00098C28.3528 7.00098 27.8348 7.5166 27.8348 8.03223V10.2666H24.5195C24.0015 10.2666 23.4662 10.7822 23.4662 11.2979C23.4662 11.8135 23.9842 12.3291 24.5195 12.3291H27.8348V14.5635H24.5195C24.0015 14.5635 23.4662 15.0791 23.4662 15.5947C23.4662 16.1104 23.9842 16.626 24.5195 16.626H27.8348V18.8604H24.5195C24.0015 18.8604 23.4662 19.376 23.4662 19.8916C23.4662 20.4072 23.9842 20.9229 24.5195 20.9229H27.8348V23.1572H24.5195C24.0015 23.1572 23.4662 23.6729 23.4662 24.1885C23.4662 24.7041 23.9842 25.2197 24.5195 25.2197H27.8348V27.4541H24.5195C24.0015 27.4541 23.4662 27.9697 23.4662 28.4854C23.4662 29.001 23.9842 29.5166 24.5195 29.5166H27.8348V31.751H24.5195C24.0015 31.751 23.4662 32.2666 23.4662 32.7822C23.4662 33.2979 23.9842 33.8135 24.5195 33.8135H27.8348V36.0479H24.5195C24.0015 36.0479 23.4662 36.5635 23.4662 37.0791C23.4662 37.5947 23.9842 38.1104 24.5195 38.1104H27.8348V40.3447H24.5195C24.0015 40.3447 23.4662 40.8604 23.4662 41.376C23.4662 41.8916 23.9842 42.4072 24.5195 42.4072H27.8348V44.6416H23.9842H24.0533ZM68.7577 17.8291H73.1262V48.9385H68.7577V17.8291ZM62.1271 20.9229H66.4957V48.9385H62.1271V20.9229ZM60.0378 48.9385H55.6692V26.4229H60.0378V48.9385ZM53.39 48.715H48.1754V19.8916H53.39V48.715ZM42.5636 15.5947H46.9321V48.9385H42.5636V15.5947ZM35.933 23.1572H40.3016V48.9385H35.933V23.1572Z"/>
</mask>
<path d="M24.0533 44.6416C23.5353 44.6416 23 45.1572 23 45.6729C23 46.1885 23.518 46.7041 24.0533 46.7041H27.3686V49.9697C27.3686 50.4854 27.8866 51.001 28.4219 51.001H79.9467C80.4647 51.001 81 50.4854 81 49.9697C81 49.4541 80.482 48.9385 79.9467 48.9385H75.5781V16.626C75.5781 16.1104 75.0601 15.5947 74.5249 15.5947H67.8943C67.3763 15.5947 66.841 16.1104 66.841 16.626V18.8604H61.4192C60.9012 18.8604 60.3659 19.376 60.3659 19.8916V24.1885H55.9973V18.8604C55.9973 18.3447 55.4793 17.8291 54.944 17.8291H49.5222V14.5635C49.5222 14.0479 49.0042 13.5322 48.4689 13.5322H41.8383C41.3203 13.5322 40.7851 14.0479 40.7851 14.5635V21.0947H35.3632C34.8452 21.0947 34.3099 21.6104 34.3099 22.126V48.9385H29.9414V8.03223C29.9414 7.5166 29.4233 7.00098 28.8881 7.00098C28.3528 7.00098 27.8348 7.5166 27.8348 8.03223V10.2666H24.5195C24.0015 10.2666 23.4662 10.7822 23.4662 11.2979C23.4662 11.8135 23.9842 12.3291 24.5195 12.3291H27.8348V14.5635H24.5195C24.0015 14.5635 23.4662 15.0791 23.4662 15.5947C23.4662 16.1104 23.9842 16.626 24.5195 16.626H27.8348V18.8604H24.5195C24.0015 18.8604 23.4662 19.376 23.4662 19.8916C23.4662 20.4072 23.9842 20.9229 24.5195 20.9229H27.8348V23.1572H24.5195C24.0015 23.1572 23.4662 23.6729 23.4662 24.1885C23.4662 24.7041 23.9842 25.2197 24.5195 25.2197H27.8348V27.4541H24.5195C24.0015 27.4541 23.4662 27.9697 23.4662 28.4854C23.4662 29.001 23.9842 29.5166 24.5195 29.5166H27.8348V31.751H24.5195C24.0015 31.751 23.4662 32.2666 23.4662 32.7822C23.4662 33.2979 23.9842 33.8135 24.5195 33.8135H27.8348V36.0479H24.5195C24.0015 36.0479 23.4662 36.5635 23.4662 37.0791C23.4662 37.5947 23.9842 38.1104 24.5195 38.1104H27.8348V40.3447H24.5195C24.0015 40.3447 23.4662 40.8604 23.4662 41.376C23.4662 41.8916 23.9842 42.4072 24.5195 42.4072H27.8348V44.6416H23.9842H24.0533ZM68.7577 17.8291H73.1262V48.9385H68.7577V17.8291ZM62.1271 20.9229H66.4957V48.9385H62.1271V20.9229ZM60.0378 48.9385H55.6692V26.4229H60.0378V48.9385ZM53.39 48.715H48.1754V19.8916H53.39V48.715ZM42.5636 15.5947H46.9321V48.9385H42.5636V15.5947ZM35.933 23.1572H40.3016V48.9385H35.933V23.1572Z" fill="#4C73A8" stroke="#4C73A8" stroke-width="2" mask="url(#path-6-inside-1_1_2566)"/>
<mask id="path-7-inside-2_1_2566" fill="white">
<path d="M33 4.00098C33 1.79045 31.2083 0.000976562 29 0.000976562C26.7917 0.000976562 25 1.79045 25 4.00098C25 6.2115 26.7917 8.00098 29 8.00098C31.2083 8.00098 33 6.10624 33 4.00098ZM28.9896 6.63256C27.5104 6.63256 26.3542 5.47466 26.3542 4.00098C26.3542 2.52729 27.5104 1.3694 28.9896 1.3694C30.4688 1.3694 31.625 2.52729 31.625 4.00098C31.625 5.47466 30.4688 6.63256 28.9896 6.63256Z"/>
</mask>
<path d="M33 4.00098C33 1.79045 31.2083 0.000976562 29 0.000976562C26.7917 0.000976562 25 1.79045 25 4.00098C25 6.2115 26.7917 8.00098 29 8.00098C31.2083 8.00098 33 6.10624 33 4.00098ZM28.9896 6.63256C27.5104 6.63256 26.3542 5.47466 26.3542 4.00098C26.3542 2.52729 27.5104 1.3694 28.9896 1.3694C30.4688 1.3694 31.625 2.52729 31.625 4.00098C31.625 5.47466 30.4688 6.63256 28.9896 6.63256Z" fill="#4C73A8"/>
<path d="M33 4.00098H35C35 0.685167 32.3122 -1.99902 29 -1.99902V0.000976562V2.00098C30.1045 2.00098 31 2.89573 31 4.00098H33ZM29 0.000976562V-1.99902C25.6878 -1.99902 23 0.685167 23 4.00098H25H27C27 2.89573 27.8955 2.00098 29 2.00098V0.000976562ZM25 4.00098H23C23 7.31679 25.6878 10.001 29 10.001V8.00098V6.00098C27.8955 6.00098 27 5.10622 27 4.00098H25ZM29 8.00098V10.001C32.346 10.001 35 7.1774 35 4.00098H33H31C31 5.03508 30.0707 6.00098 29 6.00098V8.00098ZM28.9896 6.63256V4.63256C28.7847 4.63256 28.6331 4.55679 28.531 4.45477C28.4287 4.35259 28.3542 4.20211 28.3542 4.00098H26.3542H24.3542C24.3542 6.58032 26.4069 8.63256 28.9896 8.63256V6.63256ZM26.3542 4.00098H28.3542C28.3542 3.79985 28.4287 3.64936 28.531 3.54718C28.6331 3.44516 28.7847 3.3694 28.9896 3.3694V1.3694V-0.630602C26.4069 -0.630602 24.3542 1.42163 24.3542 4.00098H26.3542ZM28.9896 1.3694V3.3694C29.1945 3.3694 29.3461 3.44516 29.4482 3.54718C29.5504 3.64936 29.625 3.79984 29.625 4.00098H31.625H33.625C33.625 1.42163 31.5722 -0.630602 28.9896 -0.630602V1.3694ZM31.625 4.00098H29.625C29.625 4.20211 29.5504 4.35259 29.4482 4.45478C29.3461 4.55679 29.1945 4.63256 28.9896 4.63256V6.63256V8.63256C31.5722 8.63256 33.625 6.58032 33.625 4.00098H31.625Z" fill="#4C73A8" mask="url(#path-7-inside-2_1_2566)"/>
<mask id="path-9-inside-3_1_2566" fill="white">
<path d="M84 54.001C86.1911 54.001 88 52.1945 88 50.001C88 47.8074 86.1911 46.001 84 46.001C81.8089 46.001 80 47.8074 80 50.001C80 52.1945 81.6815 54.001 84 54.001ZM84 47.5494C85.2866 47.5494 86.4459 48.5816 86.4459 50.001C86.4459 51.4203 85.414 52.4526 84 52.4526C82.7134 52.4526 81.5541 51.4203 81.5541 50.001C81.5541 48.5816 82.586 47.5494 84 47.5494Z"/>
</mask>
<path d="M84 54.001C86.1911 54.001 88 52.1945 88 50.001C88 47.8074 86.1911 46.001 84 46.001C81.8089 46.001 80 47.8074 80 50.001C80 52.1945 81.6815 54.001 84 54.001ZM84 47.5494C85.2866 47.5494 86.4459 48.5816 86.4459 50.001C86.4459 51.4203 85.414 52.4526 84 52.4526C82.7134 52.4526 81.5541 51.4203 81.5541 50.001C81.5541 48.5816 82.586 47.5494 84 47.5494Z" fill="#4C73A8"/>
<path d="M84 54.001V56.001C87.2949 56.001 90 53.2999 90 50.001H88H86C86 51.0892 85.0873 52.001 84 52.001V54.001ZM88 50.001H90C90 46.7021 87.2948 44.001 84 44.001V46.001V48.001C85.0873 48.001 86 48.9128 86 50.001H88ZM84 46.001V44.001C80.7051 44.001 78 46.7021 78 50.001H80H82C82 48.9128 82.9127 48.001 84 48.001V46.001ZM80 50.001H78C78 53.2579 80.5362 56.001 84 56.001V54.001V52.001C82.8269 52.001 82 51.1312 82 50.001H80ZM84 47.5494V49.5494C84.1088 49.5494 84.2263 49.5948 84.3156 49.6811C84.3945 49.7574 84.4459 49.8584 84.4459 50.001H86.4459H88.4459C88.4459 47.4131 86.3262 45.5494 84 45.5494V47.5494ZM86.4459 50.001H84.4459C84.4459 50.2128 84.3761 50.3076 84.3377 50.3461C84.2994 50.3845 84.2068 50.4526 84 50.4526V52.4526V54.4526C86.5219 54.4526 88.4459 52.5216 88.4459 50.001H86.4459ZM84 52.4526V50.4526C83.8912 50.4526 83.7737 50.4072 83.6844 50.3209C83.6055 50.2446 83.5541 50.1435 83.5541 50.001H81.5541H79.5541C79.5541 52.5888 81.6738 54.4526 84 54.4526V52.4526ZM81.5541 50.001H83.5541C83.5541 49.7892 83.6239 49.6944 83.6623 49.6559C83.7006 49.6175 83.7932 49.5494 84 49.5494V47.5494V45.5494C81.4781 45.5494 79.5541 47.4804 79.5541 50.001H81.5541Z" fill="#4C73A8" mask="url(#path-9-inside-3_1_2566)"/>
<path d="M82.8711 65.3164C85.0821 64.4163 87.3131 64.0878 89.7324 65.166L89.9678 65.2744C90.5061 65.5361 91.6918 66.3168 92.5557 67.2031C92.9906 67.6493 93.3025 68.081 93.4336 68.4502C93.497 68.6289 93.5109 68.773 93.4932 68.8877C93.4763 68.9961 93.4267 69.1076 93.3135 69.2236L93.3105 69.2256L58.3604 90.1338C56.681 90.6346 55.3913 90.5589 53.7686 90.1885L53.043 90.0098H53.042C48.4714 88.8331 43.8895 87.2851 39.2852 85.7188C34.687 84.1545 30.0648 82.572 25.4434 81.3389L25.3828 81.3223H25.3193L17.7812 81.2607L17.4062 81.2578L17.2988 81.6172C17.1354 82.1629 16.793 82.7291 16.3369 83.1836C15.9373 83.5818 15.4716 83.8732 14.9932 84.0039L14.7871 84.0498C13.301 84.3045 12.2472 83.9244 11.5635 83.291C10.8673 82.646 10.5011 81.6885 10.5 80.7051C10.499 79.7221 10.8628 78.7597 11.5645 78.1045C12.2114 77.5004 13.1903 77.1152 14.5576 77.2646L14.8369 77.3018C15.3927 77.3888 15.8749 77.7302 16.3369 78.2285C16.8092 78.738 17.1864 79.3233 17.6025 79.8799L17.75 80.0771L17.9971 80.0801L25.877 80.1602L54.2197 89.0859L54.2559 89.0977L54.2949 89.1035C55.7472 89.3237 57.3356 89.3371 58.7744 88.665L58.7988 88.6533L58.8223 88.6387L91.3848 68.8691L91.8633 68.5781L91.5205 68.1357C90.4224 66.7184 89.1658 65.9859 87.8145 65.7568C86.4804 65.5308 85.1081 65.8046 83.7803 66.291C82.4521 66.7776 81.1254 67.4931 79.877 68.1943C78.7712 68.8154 77.7353 69.419 76.7764 69.876L76.3711 70.0625L75.9766 70.2363L76.0898 70.6523C76.5909 72.4929 75.5414 73.942 74.0479 74.54C72.5957 75.1214 70.8503 74.8455 69.8643 73.3574L69.7705 73.209C69.2015 72.2571 69.0913 71.3599 69.2617 70.5947C69.4336 69.8233 69.8993 69.1483 70.5469 68.665C71.8418 67.6987 73.8185 67.528 75.4424 68.8955L75.6924 69.1064L75.9854 68.9609C77.148 68.3868 78.3072 67.7009 79.4443 67.0537C80.5903 66.4016 81.7227 65.7839 82.8711 65.3164ZM13.624 78.4727L13.3457 78.5205H13.3447C11.995 78.8156 11.5339 80.1327 11.752 81.1738C11.864 81.7082 12.1571 82.2273 12.6465 82.5684C13.0822 82.8719 13.6354 83.0083 14.2715 82.9287L14.5488 82.8818L14.5508 82.8809C15.9003 82.5856 16.3618 81.2686 16.1436 80.2275C16.0315 79.6933 15.7382 79.175 15.249 78.834C14.8134 78.5304 14.26 78.3932 13.624 78.4727ZM73.0635 69.1064C72.4704 69.0545 71.8738 69.2606 71.4062 69.6006C70.9382 69.941 70.5533 70.4498 70.4365 71.0576C70.3309 71.6074 70.455 72.1866 70.8516 72.7207L71.0381 72.9473H71.0391C71.8961 73.882 73.1634 73.7886 73.9922 73.1973C74.4126 72.8972 74.7496 72.4542 74.8877 71.9131C75.0099 71.4336 74.9687 70.906 74.7305 70.374L74.6162 70.1455C74.253 69.4908 73.6784 69.1604 73.0635 69.1064Z" fill="#4C73A8" stroke="#4C73A8"/>
<path d="M26.0908 62.7373C33.8013 60.0967 42.2895 58.6807 48.2129 64.8799L48.4932 65.1807L48.4951 65.1826C48.6111 65.309 48.8061 65.5773 49.0576 65.9434C49.3034 66.3011 49.5798 66.7177 49.8564 67.1289C50.1297 67.5351 50.4033 67.9359 50.6338 68.2432C50.7483 68.3958 50.8599 68.5357 50.96 68.6445C51.0096 68.6985 51.0644 68.7528 51.1211 68.7998C51.1681 68.8388 51.2594 68.9097 51.3809 68.9463L51.4307 68.9609L51.4824 68.9658C53.3877 69.1256 55.3792 69.053 57.3281 68.9824C59.0441 68.9202 60.7276 68.8594 62.3369 68.9482L63.0215 68.9961C64.5691 69.1278 65.6799 69.7393 66.4053 70.5664C67.135 71.3987 67.5006 72.4797 67.5 73.5879C67.4986 75.7943 66.0512 78.048 63.2314 78.542L49.8789 78.5723H49.4961L49.3906 78.9307C48.556 81.7597 44.8283 82.4029 43.1689 80.0371L43.0146 79.7988V79.7979L42.9131 79.6182C42.4318 78.7229 42.3678 77.8873 42.5557 77.1709C42.7585 76.3977 43.2653 75.7231 43.9414 75.2471C45.2626 74.3171 47.1074 74.2093 48.3955 75.4629L48.5186 75.5879C48.5889 75.6634 48.6603 75.7754 48.7441 75.9326C48.7851 76.0094 48.8255 76.0899 48.8691 76.1777C48.9117 76.2633 48.9584 76.3563 49.0068 76.4473C49.1807 76.7737 49.4807 77.2803 50.0674 77.3887L50.1123 77.3965H63.1045L63.1738 77.377C65.2229 76.7772 66.3379 75.1173 66.291 73.4912C66.2676 72.6794 65.9518 71.8873 65.3311 71.2744C64.7488 70.6996 63.9226 70.3065 62.877 70.1777L62.665 70.1553C60.6457 69.9801 58.5152 70.0598 56.417 70.1367C54.3638 70.212 52.34 70.282 50.416 70.126C49.9624 69.7097 49.6405 69.1989 49.3086 68.6064C49.0025 68.06 48.679 67.4297 48.2344 66.834L48.0361 66.5811C45.0471 62.9544 41.2902 61.6892 37.3525 61.6748C33.9302 61.6624 30.3611 62.5937 27.0156 63.7197L25.5967 64.2119H25.5957C25.1077 64.3867 24.4567 64.7226 23.8857 65.0068C23.5913 65.1534 23.3122 65.2897 23.0654 65.3975C22.8753 65.4805 22.7217 65.539 22.6055 65.5732L22.501 65.5996H22.499C21.8769 65.7267 21.1211 65.7074 20.291 65.6641C19.4897 65.6222 18.6105 65.5573 17.8438 65.6328L17.5605 65.6602L17.4404 65.9189C16.4157 68.1135 14.3446 68.5994 12.7236 67.9883C11.9083 67.6809 11.2207 67.099 10.8359 66.3242C10.4552 65.5573 10.352 64.5631 10.7705 63.3838C11.1541 62.3102 12.1291 61.6309 13.2734 61.4307C14.3497 61.2424 15.5069 61.4929 16.3389 62.1807L16.501 62.3242C16.7455 62.5577 16.8877 62.8298 17.0508 63.1748C17.2061 63.5033 17.3918 63.9285 17.7324 64.2949L17.8896 64.4639L18.1211 64.4541C18.6606 64.4302 19.2681 64.4734 19.9229 64.5059C20.4786 64.5334 21.0672 64.5532 21.6104 64.498L21.8398 64.4697L21.8447 64.4688C22.1269 64.424 22.4742 64.3043 22.8242 64.165C23.1831 64.0222 23.5829 63.8431 23.9795 63.6611C24.5884 63.3817 25.1794 63.1014 25.6553 62.9043L26.0898 62.7383L26.0908 62.7373ZM47.5762 76.3545C47.1249 75.8918 46.4727 75.6477 45.6865 75.7617L45.5273 75.7891H45.5264C44.4581 76.0074 43.837 76.9169 43.7217 77.8047C43.6125 78.6456 43.9485 79.5945 44.8896 79.9932L45.0859 80.0654H45.0869C46.0291 80.3595 46.8241 80.2587 47.3984 79.833C47.9605 79.4163 48.2165 78.7572 48.2354 78.127C48.2542 77.4979 48.04 76.8304 47.5762 76.3545ZM15.126 62.8369C14.6555 62.5719 14.079 62.4831 13.4307 62.6152L13.1484 62.6855C11.866 63.0619 11.5516 64.4531 11.8467 65.46C12.0016 65.9883 12.3347 66.4926 12.8594 66.7979C13.327 67.0698 13.9011 67.1571 14.5459 67.0156L14.8262 66.9414C16.1242 66.5358 16.4725 65.177 16.1611 64.1562C16.0004 63.6293 15.6562 63.1357 15.126 62.8369Z" fill="#4C73A8" stroke="#4C73A8"/>
<path d="M3.11719 60.4883C3.68279 60.4896 4.24968 60.4996 4.70898 60.5176C5.19077 60.5365 5.49926 60.5632 5.59082 60.584V60.583C6.04003 60.6894 6.43477 61.1512 6.73828 61.9102C6.99411 62.55 7.1381 63.2897 7.20117 63.8799L7.22363 64.123C7.56945 68.7557 7.59066 76.6326 7.28809 81.6709L7.22363 82.6396V82.6406C7.17194 83.3536 7.03364 84.1937 6.73926 84.9033C6.44378 85.6155 6.0245 86.1203 5.45117 86.3135C5.30709 86.3599 4.97535 86.4107 4.50195 86.4453C4.04487 86.4787 3.49972 86.4945 2.95996 86.4863C2.41865 86.4782 1.8938 86.4458 1.47363 86.3877C1.26315 86.3586 1.08901 86.3247 0.957031 86.2871C0.816129 86.247 0.768034 86.2149 0.767578 86.2148H0.766602C0.544213 86.0326 0.470377 85.7308 0.544922 85.4463C0.621858 85.153 0.804725 85.0273 0.970703 85.0273H5.6416L5.7168 84.6162C5.86834 83.7822 6.04222 82.895 6.12402 82L6.15234 81.6162V81.6152C6.40928 77.1374 6.46927 70.5668 6.20898 65.8447L6.15234 64.9258C6.12063 64.433 6.02951 63.9492 5.94238 63.499C5.87542 63.153 5.81077 62.8274 5.76758 62.5088L5.73242 62.1924L5.69824 61.7998L5.30859 61.7402L5.03223 61.708C4.37292 61.6508 3.61371 61.7146 2.93262 61.7637C2.10955 61.823 1.39879 61.8615 0.884766 61.7471L0.856445 61.7402C0.685142 61.6909 0.521382 61.496 0.501953 61.1533C0.483556 60.8272 0.60549 60.6519 0.704102 60.5928L0.745117 60.5752L0.748047 60.5742C0.752992 60.5731 0.770253 60.5695 0.804688 60.5645C0.848933 60.558 0.907866 60.5514 0.981445 60.5449C1.12871 60.532 1.32011 60.5204 1.54395 60.5117C1.99092 60.4944 2.55134 60.487 3.11719 60.4883Z" fill="#4C73A8" stroke="#4C73A8"/>
</svg>
