<svg width="70" height="90" viewBox="0 0 70 90" fill="none" xmlns="http://www.w3.org/2000/svg">
<path d="M61.7627 70.1167C63.4407 69.4312 65.1151 69.2005 66.9395 70.0806V70.0815C67.3266 70.2701 68.1986 70.8454 68.832 71.4976C69.1513 71.8263 69.3694 72.1328 69.458 72.3833C69.5343 72.599 69.5028 72.717 69.4023 72.8237L43.4102 88.4272C42.1958 88.7878 41.2625 88.7342 40.0723 88.4614L39.5361 88.3296H39.5352C36.1375 87.4518 32.7306 86.2961 29.3018 85.1255C25.879 83.957 22.4333 82.7729 18.9873 81.8501L18.9258 81.8335H18.8623L13.25 81.7876L12.874 81.7847L12.7666 82.144C12.6514 82.5302 12.4087 82.9354 12.083 83.2612C11.7971 83.5471 11.4689 83.7518 11.1387 83.8423L10.998 83.8735C9.92584 84.058 9.1832 83.7818 8.70703 83.3394C8.2182 82.8849 7.9559 82.2044 7.95508 81.4985C7.9543 80.793 8.21487 80.1091 8.70801 79.647C9.15914 79.2243 9.84948 78.945 10.835 79.0532L11.0361 79.0806C11.4086 79.1391 11.7436 79.3698 12.0791 79.7329C12.4248 80.1071 12.6959 80.5313 13.0127 80.9565L13.1611 81.1548L13.4082 81.1577L19.2559 81.2173L40.3408 87.8813L40.3779 87.8931L40.417 87.8989C41.5089 88.0651 42.7214 88.0779 43.8262 87.5601L43.8506 87.5483L43.874 87.5347L68.1191 72.7622L68.5967 72.4712L68.2549 72.0298C67.4202 70.9486 66.4578 70.3818 65.416 70.2046C64.3916 70.0304 63.345 70.2415 62.3457 70.6089C61.346 70.9764 60.3505 71.5165 59.4209 72.0405C58.4761 72.5731 57.6111 73.0822 56.8213 73.4312L56.4287 73.605L56.541 74.019C56.8942 75.3202 56.162 76.3467 55.0967 76.7749C54.0927 77.1783 52.9088 77.0024 52.2041 76.0366L52.0693 75.8335L51.9316 75.5786C51.6449 74.9894 51.6006 74.4421 51.7051 73.9712C51.8259 73.427 52.154 72.9478 52.6143 72.603C53.5343 71.914 54.9396 71.7897 56.0996 72.77L56.3496 72.9819L56.6436 72.8364C57.5136 72.4053 58.3817 71.8897 59.2256 71.4077C60.0785 70.9206 60.9159 70.4627 61.7627 70.1167ZM10.1377 79.7056L9.91895 79.7427H9.91797C8.82341 79.9828 8.46216 81.0523 8.63379 81.8745C8.7226 82.2996 8.95667 82.7173 9.35156 82.9937C9.70495 83.2408 10.1497 83.3485 10.6514 83.2856L10.8701 83.2485L10.8711 83.2476C11.9653 83.0073 12.3258 81.9388 12.1543 81.1167C12.0655 80.6915 11.8316 80.2739 11.4365 79.9976C11.0832 79.7504 10.6392 79.6428 10.1377 79.7056ZM54.4219 72.7056C53.944 72.6637 53.4699 72.8303 53.1016 73.0991C52.7325 73.3685 52.4232 73.7746 52.3291 74.2661C52.2434 74.7141 52.3467 75.1818 52.6611 75.6069L52.8086 75.7866C53.4999 76.5433 54.52 76.4618 55.1777 75.9907C55.5124 75.751 55.7826 75.3963 55.8936 74.9604C55.9921 74.5728 55.9575 74.1494 55.7695 73.728L55.6797 73.5474C55.3887 73.0209 54.9221 72.7496 54.4219 72.7056Z" fill="#888888" stroke="white"/>
<path d="M19.3857 68.3677C25.0998 66.3805 31.311 65.3451 35.6406 69.9468L35.8457 70.1694L35.8467 70.1724C35.9257 70.2598 36.0666 70.4531 36.2539 70.73C36.4357 70.9986 36.6389 71.311 36.8447 71.6216C37.0472 71.9272 37.2519 72.2312 37.4248 72.4653C37.5105 72.5814 37.5955 72.6904 37.6738 72.7769C37.7127 72.8197 37.7575 72.8652 37.8057 72.9058C37.8438 72.9379 37.9277 73.0059 38.0439 73.0415L38.0947 73.0562L38.1484 73.061C39.5699 73.1821 41.0536 73.1268 42.4961 73.0737C43.7694 73.0269 45.0108 72.9819 46.1953 73.0483L46.6992 73.0835C47.8133 73.1799 48.6039 73.6257 49.1182 74.2212C49.6372 74.8224 49.8998 75.6065 49.8994 76.4155C49.8986 78.0247 48.864 79.6564 46.8555 80.02L36.9707 80.0435H36.5889L36.4844 80.4038C35.892 82.4426 33.2686 82.883 32.1055 81.1987L31.9971 81.0298V81.0288C31.5873 80.3299 31.5298 79.685 31.6699 79.1421C31.8124 78.5906 32.1691 78.1069 32.6484 77.7642C33.5568 77.1148 34.7953 77.029 35.6904 77.8306L35.8652 78.0034C35.9062 78.0481 35.954 78.1203 36.0146 78.2358C36.044 78.2919 36.073 78.3512 36.1055 78.4175C36.1368 78.4816 36.1722 78.5534 36.209 78.6235C36.3356 78.8648 36.5825 79.3026 37.0859 79.397L37.1309 79.4058H46.792L46.8613 79.3853C48.4349 78.9175 49.2988 77.6194 49.2627 76.3403C49.2445 75.7015 48.9998 75.0747 48.5156 74.5894C48.0914 74.1642 47.5051 73.8685 46.7783 73.7495L46.458 73.7095C44.9515 73.5768 43.3636 73.638 41.8105 73.6958C40.3035 73.7519 38.8276 73.8028 37.4248 73.6909C37.122 73.3982 36.8996 73.0386 36.6631 72.6099C36.4071 72.1459 36.1248 71.5796 35.708 71.0669H35.707C33.464 68.3037 30.6398 67.3386 27.6885 67.3276C25.1301 67.3182 22.4677 68.0244 19.9834 68.8735L18.9297 69.2446C18.5584 69.3796 18.0656 69.6378 17.6475 69.8491C17.4294 69.9594 17.2254 70.0606 17.0459 70.1401C16.9525 70.1815 16.8735 70.2133 16.8086 70.2368L16.6553 70.2837H16.6533C16.2118 70.3753 15.6688 70.3623 15.0518 70.3296C14.464 70.2984 13.7991 70.2481 13.2178 70.3062L12.9326 70.3345L12.8125 70.5952C12.0821 72.1834 10.6229 72.5233 9.48438 72.0874C8.90887 71.8671 8.42464 71.4508 8.1543 70.8979C7.88746 70.3522 7.81142 69.6365 8.1123 68.7759L8.11133 68.7749C8.37858 68.0172 9.05797 67.533 9.86719 67.3892C10.6303 67.2535 11.4467 67.4346 12.0303 67.9243L12.1436 68.0269C12.3066 68.1849 12.4037 68.371 12.5244 68.6304C12.6372 68.8727 12.7829 69.2117 13.0508 69.5044L13.209 69.6763L13.4424 69.6665C13.8338 69.6489 14.2745 69.6809 14.7646 69.7056C15.117 69.7233 15.4947 69.7367 15.8564 69.7134L16.2119 69.6763L16.2178 69.6753C16.4428 69.639 16.7115 69.5441 16.9717 69.439C17.2411 69.3301 17.5398 69.1942 17.834 69.0571C18.2897 68.8448 18.7236 68.6366 19.0703 68.4907L19.3857 68.3677ZM33.9688 77.9146L33.7188 77.9517H33.7178C32.8576 78.1302 32.3694 78.8702 32.2793 79.5747C32.194 80.2425 32.4563 81.02 33.2188 81.3481L33.3779 81.4077H33.3789C34.1068 81.6384 34.7445 81.565 35.2129 81.2124C35.6672 80.8702 35.8671 80.3356 35.8818 79.8354C35.8966 79.3359 35.7308 78.8005 35.3604 78.4146C35.0204 78.0603 34.5387 77.8646 33.9688 77.9146ZM11.2832 68.2192C10.903 68.0017 10.4418 67.9326 9.93359 68.0376L9.71289 68.0933C9.20486 68.2446 8.87344 68.6143 8.70898 69.0347C8.5483 69.4456 8.54029 69.9138 8.66113 70.3325C8.7825 70.753 9.04601 71.1619 9.46875 71.4116C9.84798 71.6356 10.3088 71.704 10.8154 71.5913L11.0352 71.5317C12.0874 71.1978 12.3502 70.0897 12.1084 69.2847C11.982 68.8641 11.7096 68.4632 11.2832 68.2192Z" fill="#888888" stroke="white"/>
<circle cx="18.4668" cy="17.5" r="1.5" stroke="white" strokeWidth="2"/>
<circle cx="43.9668" cy="3" r="2" stroke="white" strokeWidth="2"/>
<circle cx="67.4668" cy="19.5" r="1.5" stroke="white" strokeWidth="2"/>
<path d="M39.0702 63L39.0702 58.7936C39.0702 58.7936 36.5954 57.8893 36.7319 53.8291C36.8388 50.6591 35.7358 46.2674 34.5315 44.3149C32.9726 41.7868 24.8603 35.5823 29.2597 25.4713C33.2582 16.2844 42.9195 17.0138 42.9195 17.0138H42.0135C42.0135 17.0138 51.6748 16.283 55.6733 25.4713C60.0742 35.5823 51.9604 41.7882 50.4016 44.3149C49.1986 46.2674 48.0942 50.6591 48.2011 53.8291C48.339 57.8893 45.8628 58.7936 45.8628 58.7936H42.9196" stroke="white" strokeWidth="2" stroke-miterlimit="10" strokeLinecap="round" strokeLinejoin="round"/>
<path d="M61.9668 33H68.9668" stroke="white" strokeWidth="2" strokeLinecap="round" strokeLinejoin="round"/>
<path d="M59.9668 23L65.9668 20" stroke="white" strokeWidth="2" strokeLinecap="round" strokeLinejoin="round"/>
<path d="M53.9668 15L56.9668 10" stroke="white" strokeWidth="2" strokeLinecap="round" strokeLinejoin="round"/>
<path d="M43.9668 12V6" stroke="white" strokeWidth="2" strokeLinecap="round" strokeLinejoin="round"/>
<path d="M33.9668 14L30.9668 9" stroke="white" strokeWidth="2" strokeLinecap="round" strokeLinejoin="round"/>
<path d="M25.9668 21L20.9668 18" stroke="white" strokeWidth="2" strokeLinecap="round" strokeLinejoin="round"/>
<path d="M23.9668 31H16.9668" stroke="white" strokeWidth="2" strokeLinecap="round" strokeLinejoin="round"/>
<path d="M35.7871 38L38.9522 33.7771C38.9522 33.7771 42.0021 35.1298 43.8226 32.562C43.8226 32.562 47.8133 35.5294 49.5311 31.0905C49.5311 31.0905 52.8766 31.4024 52.9668 27.795C52.9668 27.795 51.9719 24.2768 48.5362 25.5081C48.5362 25.5081 48.1588 21.6591 43.9628 22.8363C43.9628 22.8363 40.67 20.6709 38.1391 23.3089C38.1391 23.3089 34.251 23.4844 34.6132 27.0917C34.6132 27.0917 31.4786 28.1474 33.8597 31.6656C33.8597 31.6656 34.3038 32.4567 35.2265 32.8968L35.7885 37.9987L35.7871 38Z" stroke="white" strokeWidth="2" stroke-miterlimit="10" strokeLinejoin="round"/>
<path d="M36.9668 49H48.9668" stroke="white" strokeWidth="2" stroke-miterlimit="10"/>
<path d="M36.9668 53H48.9668" stroke="white" strokeWidth="2" stroke-miterlimit="10"/>
<path d="M2.43262 66.8921C2.87333 66.893 3.31466 66.9003 3.67188 66.9136C4.04648 66.9275 4.27771 66.9461 4.34277 66.9595V66.9604C4.64529 67.0279 4.93108 67.3266 5.16113 67.8726C5.32645 68.265 5.4306 68.7126 5.4873 69.1011L5.52832 69.4663C5.79765 72.8901 5.8148 78.7162 5.5791 82.4399L5.52832 83.1548V83.1558C5.48865 83.6751 5.3831 84.2803 5.16211 84.7856C4.96858 85.228 4.71004 85.5451 4.37305 85.7046L4.22363 85.7632C4.11961 85.7938 3.87211 85.8307 3.50781 85.856C3.15375 85.8805 2.73057 85.8913 2.31152 85.8853C1.89111 85.8792 1.48537 85.8564 1.16211 85.814C0.999965 85.7927 0.868145 85.7681 0.770508 85.7417C0.669661 85.7144 0.643824 85.6948 0.654297 85.7026C0.528441 85.6022 0.485784 85.4425 0.529297 85.2847C0.574947 85.1196 0.676073 85.0649 0.757812 85.0649H4.49121L4.56836 84.6587C4.68597 84.0445 4.82388 83.3794 4.88867 82.7065L4.91211 82.4185V82.4175C5.11293 79.0968 5.15867 74.2246 4.95508 70.7202L4.91113 70.0386C4.88562 69.6624 4.81294 69.2949 4.74512 68.9624C4.675 68.6186 4.61047 68.3129 4.58301 68.0112L4.54785 67.6167L4.15625 67.561L3.93652 67.5366C3.41192 67.4933 2.81055 67.5415 2.28223 67.5776C1.6364 67.6218 1.09539 67.6485 0.708984 67.5669L0.693359 67.563C0.612832 67.5413 0.513281 67.4525 0.500977 67.2456C0.495221 67.1482 0.516115 67.066 0.543945 67.0142C0.556367 66.991 0.56746 66.9763 0.578125 66.9673L0.606445 66.9526L0.609375 66.9517C0.602125 66.9538 0.644582 66.9439 0.773438 66.9331C0.886491 66.9237 1.03489 66.9161 1.20898 66.9097C1.55622 66.8969 1.99195 66.8911 2.43262 66.8921Z" fill="#888888" stroke="white"/>
</svg>
