<svg width="105" height="105" viewBox="0 0 105 105" fill="none" xmlns="http://www.w3.org/2000/svg">
<path d="M44.6035 56.1301L50.4985 58.5647L56.8832 53.296L61.5474 57.293L66.4593 51.0552" stroke="white" strokeWidth="3" stroke-miterlimit="10"/>
<path d="M69.8534 47.6338L64.4121 49.1606L68.3957 53.3258L69.8534 47.6338Z" stroke="white" strokeWidth="2" stroke-miterlimit="10"/>
<path d="M42.9727 58.999C44.6295 58.999 45.9727 57.6559 45.9727 55.999C45.9727 54.3422 44.6295 52.999 42.9727 52.999C41.3158 52.999 39.9727 54.3422 39.9727 55.999C39.9727 57.6559 41.3158 58.999 42.9727 58.999Z" stroke="white" strokeWidth="2" stroke-miterlimit="10"/>
<path d="M54.8419 28.2156C54.8419 28.2156 54.7231 28.2189 54.5464 28.2248C54.3679 28.2336 54.1321 28.2249 53.897 28.2658C53.4269 28.3252 52.9568 28.3847 52.9568 28.3847L52.0165 28.5036C51.7797 28.525 51.5486 28.585 51.3762 28.6223C51.2014 28.6601 51.0873 28.6848 51.0873 28.6848C51.0873 28.6848 50.6245 28.7899 50.1612 28.8927C49.9306 28.9426 49.6985 28.9978 49.5261 29.0352C49.3552 29.0796 49.2423 29.1215 49.2423 29.1215L47.4404 29.7105C47.4404 29.7105 47.3249 29.7405 47.1621 29.8106C46.9994 29.8806 46.7809 29.9752 46.5648 30.0692C46.1303 30.2578 45.6958 30.4464 45.6958 30.4464C45.6958 30.4464 45.5868 30.4949 45.424 30.565C45.2607 30.6327 45.0423 30.7272 44.8372 30.8488C44.4217 31.078 44.0086 31.3068 44.0086 31.3068C44.0086 31.3068 43.593 31.5361 43.1799 31.7649C42.7747 32.0068 42.3904 32.2866 42.3904 32.2866C42.3904 32.2866 40.8149 33.3343 40.8471 33.3771L39.3922 34.5828C39.3922 34.5828 39.3015 34.6572 39.1794 34.7856C39.0537 34.9099 38.8892 35.0774 38.7222 35.2454C38.3901 35.5785 38.0556 35.9122 38.0556 35.9122L37.8468 36.1216C37.7152 36.2422 37.5689 36.4231 37.4206 36.607C37.1229 36.9701 36.8228 37.3336 36.8228 37.3336C36.8228 37.3336 36.5252 37.6966 36.2251 38.0602C35.9609 38.4483 35.6996 38.8383 35.6996 38.8383C35.6996 38.8383 34.6426 40.3909 34.6922 40.42L33.8092 42.0717C33.8092 42.0717 33.7529 42.176 33.6915 42.3386C33.6248 42.4998 33.5372 42.7178 33.4467 42.934C33.2682 43.3658 33.0926 43.7994 33.0926 43.7994C33.0926 43.7994 33.0476 43.9087 32.9809 44.07C32.9087 44.2299 32.8266 44.4493 32.7688 44.6758C32.6367 45.1224 32.5051 45.5714 32.5051 45.5714C32.5051 45.5714 32.373 46.018 32.2414 46.467C32.1646 46.6877 32.1308 46.919 32.0968 47.0906C32.0651 47.2616 32.0441 47.3757 32.0441 47.3757C32.0441 47.3757 31.9579 47.8348 31.8736 48.291C31.8314 48.5191 31.7874 48.7501 31.7558 48.9211C31.7193 49.0933 31.7114 49.2094 31.7114 49.2094L31.5587 51.064C31.5027 51.0636 31.5515 52.9218 31.5515 52.9218C31.5515 52.9218 31.5608 53.3876 31.5696 53.851C31.6261 54.3116 31.6826 54.7721 31.6826 54.7721C31.6826 54.7721 31.8987 56.6165 31.9527 56.6073L32.3627 58.4196L32.9474 60.1817C32.898 60.1999 33.664 61.8954 33.664 61.8954C33.664 61.8954 33.855 62.3194 34.0483 62.7429C34.2784 63.1484 34.508 63.5516 34.508 63.5516C34.508 63.5516 34.7382 63.9571 34.9678 64.3603C35.0782 64.5653 35.1998 64.763 35.3061 64.9017C35.4056 65.0444 35.4744 65.139 35.4744 65.139C35.4744 65.139 35.7422 65.519 36.0105 65.9014C36.1432 66.0916 36.2783 66.2813 36.3783 66.4264C36.4735 66.5725 36.5553 66.6568 36.5553 66.6568L37.7719 68.0732C37.7719 68.0732 37.8469 68.1614 37.9619 68.2933C38.0875 68.4154 38.2573 68.5777 38.4242 68.7382L39.0983 69.3861C39.0983 69.3861 39.182 69.4675 39.31 69.5891C39.4394 69.7054 39.5948 69.8833 39.7872 70.0208C40.1548 70.3095 40.5228 70.6006 40.5228 70.6006L41.2584 71.1805C41.4364 71.3335 41.6379 71.4542 41.7855 71.5491C41.9332 71.6441 42.0332 71.707 42.0332 71.707C42.0332 71.707 42.4286 71.9598 42.8239 72.2127C43.0216 72.3391 43.2193 72.4655 43.3669 72.5605C43.5146 72.6554 43.6237 72.7015 43.6237 72.7015L45.3001 73.553C45.3001 73.553 45.4054 73.6048 45.5626 73.6853C45.7264 73.7493 45.9461 73.8362 46.1651 73.9206C46.6039 74.0919 47.0445 74.2603 47.0445 74.2603C47.0445 74.2603 47.4799 74.4398 47.9271 74.5918C48.3814 74.7175 48.838 74.8426 48.838 74.8426C48.838 74.8426 50.6565 75.3523 50.6663 75.3153C50.6663 75.3153 51.1281 75.4169 51.5958 75.4874C52.0612 75.5708 52.5326 75.623 52.5326 75.623C52.5326 75.623 53.0018 75.6882 53.4744 75.7228C53.9453 75.7726 54.4187 75.7871 54.4187 75.7871C54.4187 75.7871 54.8922 75.814 55.365 75.8137C55.8384 75.8282 56.3138 75.805 56.3138 75.805C56.3138 75.805 56.8297 75.7928 57.6027 75.735C58.3746 75.6725 59.4013 75.5423 60.4151 75.3403C61.4298 75.1431 62.4281 74.8698 63.1634 74.626C63.5331 74.5137 63.836 74.3983 64.0484 74.3225C64.2607 74.2467 64.3834 74.2027 64.3834 74.2027" stroke="white" strokeWidth="3" stroke-miterlimit="10"/>
<path d="M58.9135 30.6983C60.3564 30.386 61.2729 28.9631 60.9606 27.5202C60.6483 26.0773 59.2254 25.1608 57.7825 25.4731C56.3396 25.7854 55.4231 27.2083 55.7354 28.6512C56.0477 30.0941 57.4706 31.0106 58.9135 30.6983Z" stroke="white" strokeWidth="2" stroke-miterlimit="10"/>
<path d="M79.6754 65.9353C80.3908 64.502 79.8087 62.7601 78.3754 62.0447C76.9421 61.3293 75.2002 61.9113 74.4848 63.3446C73.7694 64.778 74.3514 66.5199 75.7847 67.2353C77.2181 67.9507 78.96 67.3686 79.6754 65.9353Z" stroke="white" strokeWidth="2" stroke-miterlimit="10"/>
<path d="M68.9707 30.9995C75.5721 35.2898 79.9707 42.9696 79.9707 51.7297C79.9707 55.0117 79.3533 58.1422 78.2339 60.9995" stroke="white" strokeWidth="3"/>
<path d="M60.3709 13.633L62.6583 20.5867L62.8307 21.111L63.3663 21.2448C66.7985 22.1015 70.011 23.5078 72.9074 25.3627L73.3714 25.6599L73.8713 25.4258L80.5013 22.3122L86.474 28.4594L83.1729 34.9971L82.9238 35.4896L83.208 35.9626C84.9791 38.9108 86.292 42.1625 87.0494 45.6185L87.1681 46.1574L87.6872 46.3448L94.5718 48.8294L94.448 57.3982L87.4952 59.6854L86.971 59.8578L86.8371 60.3933C85.9806 63.8265 84.5743 67.039 82.7195 69.9354L82.4224 70.4004L82.6563 70.8993L85.769 77.5296L79.6218 83.5022L73.0851 80.2009L72.5925 79.9518L72.1195 80.236C69.1713 82.0071 65.9198 83.321 62.4638 84.0784L61.9247 84.1961L61.7373 84.7153L59.2517 91.6L50.6819 91.4755L48.3958 84.5234L48.2234 83.9992L47.6878 83.8653L47.0472 83.6982C43.8556 82.8311 40.8621 81.4865 38.1467 79.7475L37.6827 79.4502L37.1829 79.6843L30.5516 82.7972L24.579 76.65L27.8813 70.1131L28.1304 69.6205L27.8461 69.1475C26.0751 66.1995 24.7623 62.9485 24.0049 59.4926L23.886 58.9528L23.3669 58.7654L16.4822 56.2798L16.605 47.7112L23.558 45.425L24.0822 45.2526L24.2161 44.717C25.0725 41.2839 26.4788 38.0713 28.3337 35.175L28.631 34.711L28.3969 34.2111L25.2831 27.5801L31.4302 21.6074L37.9681 24.9095L38.4606 25.1586L38.9337 24.8743C41.8828 23.103 45.1345 21.7901 48.5905 21.0327L49.1294 20.9141L49.3168 20.3949L51.8012 13.5094L60.3709 13.633ZM94.8234 48.9209L94.8257 48.9224C94.8234 48.9215 94.8212 48.9197 94.8189 48.9188L94.8234 48.9209Z" stroke="white" strokeWidth="2"/>
</svg>
