<svg width="97" height="87" viewBox="0 0 97 87" fill="none" xmlns="http://www.w3.org/2000/svg">
<path d="M38.3285 53.3725L38.9533 56.9711C39.0493 57.5252 39.431 57.9874 39.9556 58.1863L40.8128 58.5094C40.8128 58.5094 43.1585 65.5697 49.1293 66.4255C49.1293 66.4255 54.0339 66.6395 57.2326 58.2954L57.8425 57.9895C58.2668 57.7777 58.5718 57.384 58.6784 56.9219L59.478 53.3939C59.5399 53.1243 59.429 52.8462 59.1987 52.6943L58.9193 52.5081C58.5312 52.2492 58.2988 51.8128 58.2988 51.3442V49.7396C58.2988 49.7396 61.9239 42.8932 56.3796 41.8235C56.3796 41.8235 54.6737 36.6887 48.0631 37.7584C48.0631 37.7584 38.2539 39.47 38.2539 46.9583L38.8936 50.3815L39.1453 51.0533C39.3734 51.6609 39.1517 52.3477 38.6143 52.7071C38.3968 52.8526 38.2838 53.1136 38.3285 53.3746V53.3725Z" stroke="white" strokeWidth="2" strokeLinecap="round" strokeLinejoin="round"/>
<path d="M77.0652 81.8276L73.3803 74.7181C72.1755 72.3925 70.2307 70.5375 67.8552 69.4464L58.9395 65.3535" stroke="white" strokeWidth="2" strokeLinecap="round" strokeLinejoin="round"/>
<path d="M21.4082 81.8276L25.0931 74.7181C26.2979 72.3925 28.2427 70.5375 30.6182 69.4464L39.5339 65.3535" stroke="white" strokeWidth="2" strokeLinecap="round" strokeLinejoin="round"/>
<path d="M45.7188 85.4651L47.9578 74.0338C48.026 73.6829 47.9514 73.317 47.7488 73.0218L46.1431 70.679C45.964 70.4159 46.1495 70.0586 46.4672 70.0586H52.2568C52.566 70.0586 52.7558 70.4009 52.5916 70.6641L51.0904 73.0731C50.9262 73.3384 50.8579 73.6508 50.9006 73.961L52.5404 85.8909" stroke="white" strokeWidth="2" strokeLinecap="round" strokeLinejoin="round"/>
<path d="M73.0331 33.1673L73.402 35.2897C73.4596 35.617 73.6835 35.8888 73.9927 36.0064L74.498 36.1968C74.498 36.1968 75.882 40.3603 79.4026 40.8652C79.4026 40.8652 82.2942 40.9915 84.1814 36.0706L84.5418 35.8909C84.7913 35.7647 84.9726 35.5336 85.0344 35.2619L85.5057 33.1802C85.5419 33.0218 85.4758 32.8571 85.3415 32.7672L85.1773 32.6581C84.9491 32.5062 84.8105 32.2473 84.8105 31.9713V31.0257C84.8105 31.0257 86.9472 26.9885 83.6782 26.3573C83.6782 26.3573 82.6717 23.3299 78.7736 23.9611C78.7736 23.9611 72.9883 24.9709 72.9883 29.3868L73.3657 31.4065L73.515 31.8023C73.6493 32.1618 73.5193 32.5661 73.2015 32.7779C73.0736 32.8635 73.0075 33.0176 73.0331 33.1716V33.1673Z" stroke="white" strokeWidth="2" strokeLinecap="round" strokeLinejoin="round"/>
<path d="M95.8753 49.9496L93.7023 45.7584C92.9922 44.3869 91.845 43.2937 90.444 42.6497L85.1875 40.2363" stroke="white" strokeWidth="2" strokeLinecap="round" strokeLinejoin="round"/>
<path d="M65.2266 45.7559C65.9367 44.3845 67.0839 43.2912 68.4849 42.6472L73.7414 40.2339" stroke="white" strokeWidth="2" strokeLinecap="round" strokeLinejoin="round"/>
<path d="M77.3906 52.0931L78.7106 45.3515C78.7511 45.144 78.7063 44.9301 78.5869 44.7546L77.6401 43.3746C77.5335 43.2206 77.6444 43.0088 77.832 43.0088H81.2461C81.4295 43.0088 81.5403 43.2099 81.4423 43.3661L80.5573 44.7867C80.4592 44.9429 80.4208 45.1269 80.4464 45.3109L81.4145 52.3455" stroke="white" strokeWidth="2" strokeLinecap="round" strokeLinejoin="round"/>
<path d="M10.9803 33.1673L11.3492 35.2897C11.4068 35.617 11.6307 35.8888 11.9399 36.0064L12.4453 36.1968C12.4453 36.1968 13.8293 40.3603 17.3499 40.8652C17.3499 40.8652 20.2415 40.9915 22.1287 36.0706L22.4891 35.8909C22.7386 35.7647 22.9198 35.5336 22.9817 35.2619L23.4529 33.1802C23.4892 33.0218 23.4231 32.8571 23.2887 32.7672L23.1245 32.6581C22.8964 32.5062 22.7578 32.2473 22.7578 31.9713V31.0257C22.7578 31.0257 24.8945 26.9885 21.6254 26.3573C21.6254 26.3573 20.6189 23.3299 16.7208 23.9611C16.7208 23.9611 10.9355 24.9709 10.9355 29.3868L11.313 31.4065L11.4623 31.8023C11.5966 32.1618 11.4665 32.5661 11.1488 32.7779C11.0208 32.8635 10.9547 33.0176 10.9803 33.1716V33.1673Z" stroke="white" strokeWidth="2" strokeLinecap="round" strokeLinejoin="round"/>
<path d="M31.6496 45.7559C30.9395 44.3845 29.7922 43.2912 28.3912 42.6472L23.1348 40.2339" stroke="white" strokeWidth="2" strokeLinecap="round" strokeLinejoin="round"/>
<path d="M1 49.9496L3.17295 45.7584C3.88305 44.3869 5.0303 43.2937 6.43131 42.6497L11.6878 40.2363" stroke="white" strokeWidth="2" strokeLinecap="round" strokeLinejoin="round"/>
<path d="M15.3359 52.0931L16.6559 45.3515C16.6964 45.144 16.6517 44.9301 16.5322 44.7546L15.5854 43.3746C15.4788 43.2206 15.5897 43.0088 15.7774 43.0088H19.1914C19.3748 43.0088 19.4857 43.2099 19.3876 43.3661L18.5026 44.7867C18.4045 44.9429 18.3661 45.1269 18.3917 45.3109L19.3598 52.3455" stroke="white" strokeWidth="2" strokeLinecap="round" strokeLinejoin="round"/>
<path d="M39.8738 2.48242C40.1744 2.20754 40.5713 2.0542 40.9837 2.0542H60.4182C60.8845 2.0542 61.3277 2.24868 61.6341 2.58901L68.4591 10.1362C69.0179 10.7552 69.0179 11.679 68.4591 12.2961L51.0613 31.5437C50.5853 32.071 49.7414 32.0766 49.2577 31.5568L31.4283 12.4082C30.8117 11.7463 30.8541 10.729 31.5227 10.1175L32.9375 9" stroke="white" strokeWidth="3" strokeLinecap="round" strokeLinejoin="round"/>
<path d="M55.7829 7.77002L59.8613 12.0892L51.8613 21.77" stroke="white" strokeWidth="2" strokeLinecap="round" strokeLinejoin="round"/>
<path d="M44.43 7.77002L40.8613 12.0892L47.8613 21.77" stroke="white" strokeWidth="2" strokeLinecap="round" strokeLinejoin="round"/>
<path d="M50.9375 12L57.9375 12" stroke="white" strokeWidth="2" strokeLinecap="round" strokeLinejoin="round"/>
<path d="M48.9375 14C50.0421 14 50.9375 13.1046 50.9375 12C50.9375 10.8954 50.0421 10 48.9375 10C47.8329 10 46.9375 10.8954 46.9375 12C46.9375 13.1046 47.8329 14 48.9375 14Z" stroke="white" strokeWidth="2" strokeLinecap="round" strokeLinejoin="round"/>
<path d="M34.9375 9C36.0421 9 36.9375 8.10457 36.9375 7C36.9375 5.89543 36.0421 5 34.9375 5C33.8329 5 32.9375 5.89543 32.9375 7C32.9375 8.10457 33.8329 9 34.9375 9Z" stroke="white" strokeWidth="2" strokeLinecap="round" strokeLinejoin="round"/>
</svg>
